<svg width="149" height="91" viewBox="0 0 149 91" fill="none" xmlns="http://www.w3.org/2000/svg">
<rect x="5.93579" y="5.40234" width="69.8289" height="4.98396" transform="rotate(90 5.93579 5.40234)" fill="#131415"/>
<rect x="148.59" y="5.40234" width="69.8289" height="4.98397" transform="rotate(90 148.59 5.40234)" fill="#131415"/>
<rect x="5.93591" y="0.417725" width="137.663" height="4.98397" fill="#131415"/>
<rect x="5.93579" y="75.1853" width="19.9359" height="4.98397" fill="#131415"/>
<path d="M30.8555 80.1693H35.8395V85.1532H30.8555V80.1693Z" fill="#131415"/>
<path d="M45.8074 75.1853H50.7914V80.1693H45.8074V75.1853Z" fill="#131415"/>
<path d="M25.8716 75.1853H30.8555V80.1693H25.8716V75.1853Z" fill="#131415"/>
<path d="M35.8395 85.1532H40.8235V90.1372H35.8395V85.1532Z" fill="#131415"/>
<path d="M40.8235 80.1693H45.8074V85.1532H40.8235V80.1693Z" fill="#131415"/>
<path d="M35.8395 80.1693H40.8235V85.1532H35.8395V80.1693Z" fill="white" fill-opacity="0.8"/>
<path d="M35.8395 75.1853H40.8235V80.1693H35.8395V75.1853Z" fill="white" fill-opacity="0.8"/>
<path d="M40.8235 75.1853H45.8074V80.1693H40.8235V75.1853Z" fill="white" fill-opacity="0.8"/>
<path d="M30.8555 75.1853H35.8395V80.1693H30.8555V75.1853Z" fill="white" fill-opacity="0.8"/>
<rect x="50.7914" y="75.1853" width="92.807" height="4.98397" fill="#131415"/>
</svg>
