<svg width="100" height="105" viewBox="0 0 100 105" fill="none" xmlns="http://www.w3.org/2000/svg">
<path d="M94.9424 47.4412H92.4456V49.9342H94.9424V47.4412Z" fill="#131415"/>
<path d="M94.9424 39.9596H92.4456V42.4551H94.9424V39.9596Z" fill="#131415"/>
<path d="M92.4456 44.9482H89.9488V47.4412H92.4456V44.9482Z" fill="#131415"/>
<path d="M92.4456 39.9596H89.9488V42.4551H92.4456V39.9596Z" fill="#131415"/>
<path d="M89.9488 42.4551L87.452 42.4552V44.9482H89.9488V42.4551Z" fill="#131415"/>
<path d="M89.9488 39.9596H87.452V42.4552L89.9488 42.4551V39.9596Z" fill="#131415"/>
<path d="M89.9488 37.4666H87.452V39.9596H89.9488L89.9488 37.4666Z" fill="#131415"/>
<path d="M89.9488 34.9736H87.452V37.4666H89.9488V34.9736Z" fill="#131415"/>
<path d="M89.9488 32.4806H87.452V34.9736H89.9488V32.4806Z" fill="#131415"/>
<path d="M87.452 44.9482H84.9552V47.4412H87.452V44.9482Z" fill="#131415"/>
<path d="M87.452 42.4552H84.9552V44.9482H87.452V42.4552Z" fill="#131415"/>
<path d="M87.452 39.9596H84.9552V42.4552H87.452V39.9596Z" fill="#131415"/>
<path d="M87.452 37.4666H84.9552V39.9596H87.452V37.4666Z" fill="white"/>
<path d="M87.452 34.9736H84.9552V37.4666H87.452V34.9736Z" fill="white"/>
<path d="M87.452 32.4806H84.9552V34.9736H87.452V32.4806Z" fill="#131415"/>
<path d="M87.452 29.9876H84.9552V32.4806H87.452V29.9876Z" fill="#131415"/>
<path d="M84.9552 47.4412H82.4584V49.9342H84.9552L84.9552 47.4412Z" fill="#131415"/>
<path d="M84.9552 44.9482H82.4584V47.4412H84.9552V44.9482Z" fill="#131415"/>
<path d="M84.9552 42.4552H82.4584V44.9482H84.9552V42.4552Z" fill="white"/>
<path d="M84.9552 39.9596H82.4584V42.4552H84.9552V39.9596Z" fill="#131415"/>
<path d="M84.9552 37.4666H82.4584V39.9596H84.9552V37.4666Z" fill="white"/>
<path d="M84.9552 34.9736H82.4584V37.4666H84.9552V34.9736Z" fill="white"/>
<path d="M84.9552 32.4806H82.4584V34.9736H84.9552V32.4806Z" fill="white"/>
<path d="M84.9552 29.9876H82.4584V32.4806H84.9552V29.9876Z" fill="#131415"/>
<path d="M84.9552 27.4946H82.4584V29.9876H84.9552L84.9552 27.4946Z" fill="#131415"/>
<path d="M84.9552 24.999H82.4584V27.4946H84.9552V24.999Z" fill="#131415"/>
<path d="M84.9552 22.506H82.4584V24.999H84.9552V22.506Z" fill="#131415"/>
<path d="M84.9552 20.013H82.4584V22.506H84.9552V20.013Z" fill="#131415"/>
<path d="M84.9552 17.52H82.4584V20.013H84.9552V17.52Z" fill="#131415"/>
<path d="M84.9552 15.027H82.4584V17.52H84.9552V15.027Z" fill="#131415"/>
<path d="M84.9552 12.5314H82.4584V15.027H84.9552V12.5314Z" fill="#131415"/>
<path d="M84.9552 10.0384H82.4584V12.5314H84.9552V10.0384Z" fill="#131415"/>
<path d="M84.9552 7.54541H82.4584V10.0384H84.9552V7.54541Z" fill="#131415"/>
<path d="M84.9552 5.05241H82.4584V7.54541H84.9552V5.05241Z" fill="#131415"/>
<path d="M84.9552 2.5594H82.4584V5.05241H84.9552V2.5594Z" fill="#131415"/>
<path d="M84.9552 0.0638428H82.4584V2.5594H84.9552V0.0638428Z" fill="#131415"/>
<path d="M82.4584 82.3509H79.9616V84.8439H82.4584V82.3509Z" fill="#131415"/>
<path d="M82.4584 79.8579H79.9616V82.3509H82.4584V79.8579Z" fill="#131415"/>
<path d="M82.4584 77.3623H79.9616V79.8579H82.4584V77.3623Z" fill="#131415"/>
<path d="M82.4584 74.8693H79.9616V77.3623H82.4584V74.8693Z" fill="#131415"/>
<path d="M82.4584 72.3763H79.9616V74.8693H82.4584V72.3763Z" fill="#131415"/>
<path d="M82.4584 69.8833H79.9616V72.3763H82.4584V69.8833Z" fill="#131415"/>
<path d="M82.4584 67.3903H79.9616V69.8833H82.4584V67.3903Z" fill="#131415"/>
<path d="M82.4584 64.8948H79.9616V67.3903H82.4584V64.8948Z" fill="#131415"/>
<path d="M82.4584 62.4017H79.9616V64.8948H82.4584V62.4017Z" fill="#131415"/>
<path d="M82.4584 49.9342H79.9616V52.4272H82.4584L82.4584 49.9342Z" fill="#131415"/>
<path d="M82.4584 47.4412H79.9616V49.9342H82.4584V47.4412Z" fill="#131415"/>
<path d="M82.4584 44.9482H79.9616V47.4412H82.4584V44.9482Z" fill="white"/>
<path d="M82.4584 42.4552H79.9616V44.9482H82.4584V42.4552Z" fill="white"/>
<path d="M82.4584 39.9596H79.9616V42.4552H82.4584V39.9596Z" fill="white"/>
<path d="M82.4584 37.4666H79.9616V39.9596H82.4584V37.4666Z" fill="white"/>
<path d="M82.4584 34.9736H79.9616V37.4666H82.4584V34.9736Z" fill="white"/>
<path d="M82.4584 32.4806H79.9616V34.9736H82.4584V32.4806Z" fill="white"/>
<path d="M82.4584 29.9876H79.9616V32.4806H82.4584V29.9876Z" fill="white"/>
<path d="M82.4584 27.4946H79.9616V29.9876H82.4584V27.4946Z" fill="white"/>
<path d="M82.4584 24.999H79.9616V27.4946H82.4584V24.999Z" fill="white"/>
<path d="M82.4584 22.506H79.9616V24.999H82.4584V22.506Z" fill="#131415"/>
<path d="M82.4584 20.013H79.9616V22.506H82.4584V20.013Z" fill="#131415" fill-opacity="0.6"/>
<path d="M82.4584 17.52H79.9616V20.013H82.4584V17.52Z" fill="#131415" fill-opacity="0.6"/>
<path d="M82.4584 15.027H79.9616V17.52H82.4584V15.027Z" fill="#131415" fill-opacity="0.6"/>
<path d="M82.4584 12.5314H79.9616V15.027H82.4584V12.5314Z" fill="#131415" fill-opacity="0.6"/>
<path d="M82.4584 10.0384H79.9616V12.5314H82.4584V10.0384Z" fill="#131415"/>
<path d="M82.4584 7.54541H79.9616V10.0384H82.4584V7.54541Z" fill="white"/>
<path d="M82.4584 5.05241H79.9616V7.54541H82.4584V5.05241Z" fill="white"/>
<path d="M82.4584 2.5594H79.9616V5.05241H82.4584V2.5594Z" fill="white"/>
<path d="M82.4584 0.0638428H79.9616V2.5594H82.4584V0.0638428Z" fill="#131415"/>
<path d="M79.9616 94.8185H77.4648V97.3115H79.9616V94.8185Z" fill="#131415"/>
<path d="M79.9616 92.3229H77.4648V94.8185H79.9616V92.3229Z" fill="#131415"/>
<path d="M79.9616 89.8299H77.4648V92.3229H79.9616V89.8299Z" fill="#131415"/>
<path d="M79.9616 87.3369H77.4648V89.8299H79.9616V87.3369Z" fill="#131415"/>
<path d="M79.9616 84.8439H77.4648V87.3369H79.9616V84.8439Z" fill="#131415"/>
<path d="M79.9616 82.3509H77.4648V84.8439H79.9616V82.3509Z" fill="#131415"/>
<path d="M79.9616 79.8579H77.4648V82.3509H79.9616V79.8579Z" fill="white"/>
<path d="M79.9616 77.3623H77.4648V79.8579H79.9616V77.3623Z" fill="white"/>
<path d="M79.9616 74.8693H77.4648V77.3623H79.9616V74.8693Z" fill="#131415"/>
<path d="M79.9616 72.3763H77.4648V74.8693H79.9616V72.3763Z" fill="#131415"/>
<path d="M79.9616 69.8833H77.4648V72.3763H79.9616V69.8833Z" fill="#131415"/>
<path d="M79.9616 67.3903H77.4648V69.8833H79.9616V67.3903Z" fill="#131415"/>
<path d="M79.9616 64.8948H77.4648V67.3903H79.9616V64.8948Z" fill="#131415"/>
<path d="M79.9616 62.4017H77.4648V64.8948H79.9616V62.4017Z" fill="#131415"/>
<path d="M79.9616 59.9087H77.4648V62.4017H79.9616V59.9087Z" fill="#131415"/>
<path d="M79.9616 52.4272H77.4648V54.9227H79.9616V52.4272Z" fill="#131415"/>
<path d="M79.9616 49.9342H77.4648V52.4272H79.9616V49.9342Z" fill="#131415"/>
<path d="M79.9616 47.4412H77.4648V49.9342H79.9616V47.4412Z" fill="white"/>
<path d="M79.9616 44.9482H77.4648V47.4412H79.9616V44.9482Z" fill="white"/>
<path d="M79.9616 42.4552H77.4648V44.9482H79.9616V42.4552Z" fill="white"/>
<path d="M79.9616 39.9596H77.4648V42.4552H79.9616V39.9596Z" fill="white"/>
<path d="M79.9616 37.4666H77.4648V39.9596H79.9616V37.4666Z" fill="#131415"/>
<path d="M79.9616 34.9736H77.4648V37.4666H79.9616V34.9736Z" fill="#131415"/>
<path d="M79.9616 32.4806H77.4648V34.9736H79.9616V32.4806Z" fill="white"/>
<path d="M79.9616 29.9876H77.4648V32.4806H79.9616V29.9876Z" fill="white"/>
<path d="M79.9616 27.4946H77.4648V29.9876H79.9616V27.4946Z" fill="white"/>
<path d="M79.9616 24.999H77.4648V27.4946H79.9616V24.999Z" fill="white"/>
<path d="M79.9616 22.506H77.4648V24.999H79.9616V22.506Z" fill="white"/>
<path d="M79.9616 20.013H77.4648V22.506H79.9616V20.013Z" fill="#131415"/>
<path d="M79.9616 17.52H77.4648V20.013H79.9616V17.52Z" fill="#131415" fill-opacity="0.6"/>
<path d="M79.9616 15.027H77.4648V17.52H79.9616V15.027Z" fill="#131415" fill-opacity="0.6"/>
<path d="M79.9616 12.5314H77.4648V15.027H79.9616V12.5314Z" fill="#131415"/>
<path d="M79.9616 10.0384H77.4648V12.5314H79.9616V10.0384Z" fill="white"/>
<path d="M79.9616 7.54541H77.4648V10.0384H79.9616V7.54541Z" fill="white"/>
<path d="M79.9616 5.05241H77.4648V7.54541H79.9616V5.05241Z" fill="white"/>
<path d="M79.9616 2.5594H77.4648V5.05241H79.9616V2.5594Z" fill="#131415"/>
<path d="M79.9616 0.0638428H77.4648V2.5594H79.9616V0.0638428Z" fill="#131415"/>
<path d="M77.4648 97.3115H74.968V99.8045H77.4648L77.4648 97.3115Z" fill="#131415"/>
<path d="M77.4648 94.8185H74.968V97.3115H77.4648V94.8185Z" fill="#131415"/>
<path d="M77.4648 92.3229H74.968V94.8185H77.4648V92.3229Z" fill="white"/>
<path d="M77.4648 89.8299H74.968V92.3229H77.4648V89.8299Z" fill="white"/>
<path d="M77.4648 87.3369H74.968V89.8299H77.4648V87.3369Z" fill="white"/>
<path d="M77.4648 84.8439H74.968V87.3369H77.4648V84.8439Z" fill="white"/>
<path d="M77.4648 82.3509H74.968V84.8439H77.4648V82.3509Z" fill="white"/>
<path d="M77.4648 79.8579H74.968V82.3509H77.4648V79.8579Z" fill="white"/>
<path d="M77.4648 77.3623H74.968V79.8579H77.4648V77.3623Z" fill="white"/>
<path d="M77.4648 74.8693H74.968V77.3623H77.4648V74.8693Z" fill="white"/>
<path d="M77.4648 72.3763H74.968V74.8693H77.4648V72.3763Z" fill="#131415"/>
<path d="M77.4648 69.8833H74.968V72.3763H77.4648V69.8833Z" fill="#131415"/>
<path d="M77.4648 67.3903H74.968V69.8833H77.4648V67.3903Z" fill="#131415"/>
<path d="M77.4648 64.8948H74.968V67.3903H77.4648V64.8948Z" fill="#131415"/>
<path d="M77.4648 62.4017H74.968V64.8948H77.4648V62.4017Z" fill="white"/>
<path d="M77.4648 59.9087H74.968V62.4017H77.4648V59.9087Z" fill="white"/>
<path d="M77.4648 57.4157H74.968V59.9087H77.4648L77.4648 57.4157Z" fill="#131415"/>
<path d="M77.4648 54.9227L74.968 54.9227V57.4157H77.4648L77.4648 54.9227Z" fill="#131415"/>
<path d="M77.4648 52.4272H74.968V54.9227L77.4648 54.9227V52.4272Z" fill="#131415"/>
<path d="M77.4648 49.9342H74.968V52.4272H77.4648V49.9342Z" fill="white"/>
<path d="M77.4648 47.4412H74.968V49.9342H77.4648V47.4412Z" fill="white"/>
<path d="M77.4648 44.9482H74.968V47.4412H77.4648V44.9482Z" fill="white"/>
<path d="M77.4648 42.4552H74.968V44.9482H77.4648V42.4552Z" fill="white"/>
<path d="M77.4648 39.9596H74.968V42.4552H77.4648V39.9596Z" fill="#131415"/>
<path d="M77.4648 37.4666H74.968V39.9596H77.4648V37.4666Z" fill="#131415"/>
<path d="M77.4648 34.9736H74.968V37.4666H77.4648V34.9736Z" fill="#131415"/>
<path d="M77.4648 32.4806H74.968V34.9736H77.4648V32.4806Z" fill="#131415"/>
<path d="M77.4648 29.9876H74.968V32.4806H77.4648V29.9876Z" fill="white"/>
<path d="M77.4648 27.4946H74.968V29.9876H77.4648V27.4946Z" fill="white"/>
<path d="M77.4648 24.999H74.968V27.4946H77.4648V24.999Z" fill="white"/>
<path d="M77.4648 22.506H74.968V24.999H77.4648V22.506Z" fill="white"/>
<path d="M77.4648 20.013H74.968V22.506H77.4648V20.013Z" fill="white"/>
<path d="M77.4648 17.52H74.968V20.013H77.4648V17.52Z" fill="#131415"/>
<path d="M77.4648 15.027H74.968V17.52H77.4648V15.027Z" fill="#131415"/>
<path d="M77.4648 12.5314H74.968V15.027H77.4648V12.5314Z" fill="white"/>
<path d="M77.4648 10.0384H74.968V12.5314H77.4648V10.0384Z" fill="white"/>
<path d="M77.4648 7.54541H74.968V10.0384H77.4648V7.54541Z" fill="white"/>
<path d="M77.4648 5.05241H74.968V7.54541H77.4648V5.05241Z" fill="#131415"/>
<path d="M77.4648 2.5594H74.968V5.05241H77.4648V2.5594Z" fill="#131415"/>
<path d="M74.968 99.8045L72.4712 99.8045V102.297H74.968V99.8045Z" fill="#131415"/>
<path d="M74.968 97.3115H72.4712V99.8045L74.968 99.8045V97.3115Z" fill="#131415"/>
<path d="M74.968 94.8185H72.4712V97.3115H74.968V94.8185Z" fill="white"/>
<path d="M74.968 92.3229H72.4712V94.8185H74.968V92.3229Z" fill="white"/>
<path d="M74.968 89.8299H72.4712V92.3229H74.968V89.8299Z" fill="white"/>
<path d="M74.968 87.3369H72.4712V89.8299H74.968V87.3369Z" fill="white"/>
<path d="M74.968 84.8439H72.4712V87.3369H74.968V84.8439Z" fill="white"/>
<path d="M74.968 82.3509H72.4712V84.8439H74.968V82.3509Z" fill="white"/>
<path d="M74.968 79.8579H72.4712V82.3509H74.968V79.8579Z" fill="white"/>
<path d="M74.968 77.3623H72.4712V79.8579H74.968V77.3623Z" fill="white"/>
<path d="M74.968 74.8693H72.4712V77.3623H74.968V74.8693Z" fill="white"/>
<path d="M74.968 72.3763H72.4712V74.8693H74.968V72.3763Z" fill="white"/>
<path d="M74.968 69.8833H72.4712V72.3763H74.968V69.8833Z" fill="#131415"/>
<path d="M74.968 67.3903H72.4712V69.8833H74.968V67.3903Z" fill="#131415"/>
<path d="M74.968 64.8948H72.4712V67.3903H74.968V64.8948Z" fill="white"/>
<path d="M74.968 62.4017H72.4712V64.8948H74.968V62.4017Z" fill="white"/>
<path d="M74.968 59.9087H72.4712V62.4017H74.968V59.9087Z" fill="white"/>
<path d="M74.968 57.4157H72.4712V59.9087H74.968V57.4157Z" fill="white"/>
<path d="M74.968 54.9227H72.4712V57.4157H74.968V54.9227Z" fill="#131415"/>
<path d="M74.968 52.4272H72.4712V54.9227H74.968V52.4272Z" fill="white"/>
<path d="M74.968 49.9342H72.4712V52.4272H74.968V49.9342Z" fill="white"/>
<path d="M74.968 47.4412H72.4712V49.9342H74.968V47.4412Z" fill="white"/>
<path d="M74.968 44.9482H72.4712V47.4412H74.968V44.9482Z" fill="#131415"/>
<path d="M74.968 42.4552H72.4712V44.9482H74.968V42.4552Z" fill="white"/>
<path d="M74.968 39.9596H72.4712V42.4552H74.968V39.9596Z" fill="#131415"/>
<path d="M74.968 37.4666H72.4712V39.9596H74.968V37.4666Z" fill="#131415"/>
<path d="M74.968 34.9736H72.4712V37.4666H74.968V34.9736Z" fill="#131415"/>
<path d="M74.968 32.4806H72.4712V34.9736H74.968V32.4806Z" fill="#131415"/>
<path d="M74.968 29.9876H72.4712V32.4806H74.968V29.9876Z" fill="white"/>
<path d="M74.968 27.4946H72.4712V29.9876H74.968V27.4946Z" fill="white"/>
<path d="M74.968 24.999H72.4712V27.4946H74.968V24.999Z" fill="white"/>
<path d="M74.968 22.506H72.4712V24.999H74.968V22.506Z" fill="white"/>
<path d="M74.968 20.013H72.4712V22.506H74.968V20.013Z" fill="white"/>
<path d="M74.968 17.52H72.4712V20.013H74.968V17.52Z" fill="white"/>
<path d="M74.968 15.027H72.4712V17.52H74.968V15.027Z" fill="white"/>
<path d="M74.968 12.5314H72.4712V15.027H74.968V12.5314Z" fill="white"/>
<path d="M74.968 10.0384H72.4712V12.5314H74.968V10.0384Z" fill="white"/>
<path d="M74.968 7.54541H72.4712V10.0384H74.968V7.54541Z" fill="#131415"/>
<path d="M74.968 5.05241H72.4712V7.54541H74.968V5.05241Z" fill="#131415"/>
<path d="M72.4712 99.8045H69.9744V102.297H72.4712V99.8045Z" fill="#131415"/>
<path d="M72.4712 97.3115H69.9744V99.8045H72.4712V97.3115Z" fill="#131415"/>
<path d="M72.4712 94.8185H69.9744V97.3115H72.4712V94.8185Z" fill="#131415"/>
<path d="M72.4712 92.3229H69.9744V94.8185H72.4712V92.3229Z" fill="#131415"/>
<path d="M72.4712 89.8299H69.9744V92.3229H72.4712V89.8299Z" fill="#131415"/>
<path d="M72.4712 87.3369H69.9744V89.8299H72.4712V87.3369Z" fill="#131415"/>
<path d="M72.4712 84.8439H69.9744V87.3369H72.4712V84.8439Z" fill="#131415"/>
<path d="M72.4712 82.3509H69.9744V84.8439H72.4712V82.3509Z" fill="#131415"/>
<path d="M72.4712 79.8579H69.9744V82.3509H72.4712V79.8579Z" fill="white"/>
<path d="M72.4712 77.3623H69.9744V79.8579H72.4712V77.3623Z" fill="white"/>
<path d="M72.4712 74.8693H69.9744V77.3623H72.4712V74.8693Z" fill="white"/>
<path d="M72.4712 72.3763H69.9744V74.8693H72.4712V72.3763Z" fill="white"/>
<path d="M72.4712 69.8833H69.9744V72.3763H72.4712V69.8833Z" fill="white"/>
<path d="M72.4712 67.3903H69.9744V69.8833H72.4712V67.3903Z" fill="white"/>
<path d="M72.4712 64.8948H69.9744V67.3903H72.4712V64.8948Z" fill="white"/>
<path d="M72.4712 62.4017H69.9744V64.8948H72.4712V62.4017Z" fill="white"/>
<path d="M72.4712 59.9087H69.9744V62.4017H72.4712V59.9087Z" fill="white"/>
<path d="M72.4712 57.4157H69.9744V59.9087H72.4712V57.4157Z" fill="white"/>
<path d="M72.4712 54.9227H69.9744V57.4157H72.4712V54.9227Z" fill="#131415"/>
<path d="M72.4712 52.4272H69.9744V54.9227H72.4712V52.4272Z" fill="white"/>
<path d="M72.4712 49.9342H69.9744V52.4272H72.4712V49.9342Z" fill="white"/>
<path d="M72.4712 47.4412H69.9744V49.9342H72.4712V47.4412Z" fill="#131415"/>
<path d="M72.4712 44.9482H69.9744V47.4412H72.4712V44.9482Z" fill="white"/>
<path d="M72.4712 42.4552H69.9744V44.9482H72.4712V42.4552Z" fill="white"/>
<path d="M72.4712 39.9596H69.9744V42.4552H72.4712V39.9596Z" fill="white"/>
<path d="M72.4712 37.4666H69.9744V39.9596H72.4712V37.4666Z" fill="#131415"/>
<path d="M72.4712 34.9736H69.9744V37.4666H72.4712V34.9736Z" fill="#131415"/>
<path d="M72.4712 32.4806H69.9744V34.9736H72.4712V32.4806Z" fill="white"/>
<path d="M72.4712 29.9876H69.9744V32.4806H72.4712V29.9876Z" fill="white"/>
<path d="M72.4712 27.4946H69.9744V29.9876H72.4712V27.4946Z" fill="white"/>
<path d="M72.4712 24.999H69.9744V27.4946H72.4712V24.999Z" fill="white"/>
<path d="M72.4712 22.506H69.9744V24.999H72.4712V22.506Z" fill="white"/>
<path d="M72.4712 20.013H69.9744V22.506H72.4712V20.013Z" fill="white"/>
<path d="M72.4712 17.52H69.9744V20.013H72.4712V17.52Z" fill="white"/>
<path d="M72.4712 15.027H69.9744V17.52H72.4712V15.027Z" fill="white"/>
<path d="M72.4712 12.5314H69.9744V15.027H72.4712V12.5314Z" fill="white"/>
<path d="M72.4712 10.0384H69.9744V12.5314H72.4712V10.0384Z" fill="#131415"/>
<path d="M72.4712 7.54541H69.9744V10.0384H72.4712V7.54541Z" fill="#131415"/>
<path d="M69.9744 99.8045H67.4776V102.297H69.9744V99.8045Z" fill="#131415"/>
<path d="M69.9744 97.3115H67.4776V99.8045H69.9744V97.3115Z" fill="#131415"/>
<path d="M69.9744 94.8185H67.4776V97.3115H69.9744V94.8185Z" fill="#131415"/>
<path d="M69.9744 92.3229H67.4776V94.8185H69.9744V92.3229Z" fill="#131415"/>
<path d="M69.9744 89.8299H67.4776V92.3229H69.9744V89.8299Z" fill="#131415"/>
<path d="M69.9744 87.3369H67.4776V89.8299H69.9744V87.3369Z" fill="#131415"/>
<path d="M69.9744 84.8439H67.4776V87.3369H69.9744V84.8439Z" fill="#131415"/>
<path d="M69.9744 82.3509H67.4776V84.8439H69.9744V82.3509Z" fill="#131415"/>
<path d="M69.9744 79.8579H67.4776V82.3509H69.9744V79.8579Z" fill="white"/>
<path d="M69.9744 77.3623H67.4776V79.8579H69.9744V77.3623Z" fill="white"/>
<path d="M69.9744 74.8693H67.4776V77.3623H69.9744V74.8693Z" fill="white"/>
<path d="M69.9744 72.3763H67.4776V74.8693H69.9744V72.3763Z" fill="white"/>
<path d="M69.9744 69.8833H67.4776V72.3763H69.9744V69.8833Z" fill="white"/>
<path d="M69.9744 67.3903H67.4776V69.8833H69.9744V67.3903Z" fill="white"/>
<path d="M69.9744 64.8948H67.4776V67.3903H69.9744V64.8948Z" fill="white"/>
<path d="M69.9744 62.4017H67.4776V64.8948H69.9744V62.4017Z" fill="white"/>
<path d="M69.9744 59.9087H67.4776V62.4017H69.9744V59.9087Z" fill="white"/>
<path d="M69.9744 57.4157H67.4776V59.9087H69.9744V57.4157Z" fill="#131415"/>
<path d="M69.9744 54.9227H67.4776V57.4157H69.9744V54.9227Z" fill="#131415"/>
<path d="M69.9744 52.4272H67.4776V54.9227H69.9744V52.4272Z" fill="white"/>
<path d="M69.9744 49.9342H67.4776V52.4272H69.9744V49.9342Z" fill="white"/>
<path d="M69.9744 47.4412H67.4776V49.9342H69.9744V47.4412Z" fill="#131415"/>
<path d="M69.9744 44.9482H67.4776V47.4412H69.9744V44.9482Z" fill="white"/>
<path d="M69.9744 42.4552H67.4776V44.9482H69.9744V42.4552Z" fill="#131415"/>
<path d="M69.9744 39.9596H67.4776V42.4552H69.9744V39.9596Z" fill="white"/>
<path d="M69.9744 37.4666H67.4776V39.9596H69.9744V37.4666Z" fill="white"/>
<path d="M69.9744 34.9736H67.4776V37.4666H69.9744V34.9736Z" fill="white"/>
<path d="M69.9744 32.4806H67.4776V34.9736H69.9744V32.4806Z" fill="white"/>
<path d="M69.9744 29.9876H67.4776V32.4806H69.9744V29.9876Z" fill="white"/>
<path d="M69.9744 27.4946H67.4776V29.9876H69.9744V27.4946Z" fill="white"/>
<path d="M69.9744 24.999H67.4776V27.4946H69.9744V24.999Z" fill="white"/>
<path d="M69.9744 22.506H67.4776V24.999H69.9744V22.506Z" fill="white"/>
<path d="M69.9744 20.013H67.4776V22.506H69.9744V20.013Z" fill="white"/>
<path d="M69.9744 17.52H67.4776V20.013H69.9744V17.52Z" fill="white"/>
<path d="M69.9744 15.027H67.4776V17.52H69.9744V15.027Z" fill="white"/>
<path d="M69.9744 12.5314H67.4776V15.027H69.9744V12.5314Z" fill="white"/>
<path d="M69.9744 10.0384H67.4776V12.5314H69.9744V10.0384Z" fill="#131415"/>
<path d="M67.4776 97.3115H64.9808V99.8045L67.4776 99.8045V97.3115Z" fill="#131415"/>
<path d="M67.4776 94.8185H64.9808V97.3115H67.4776V94.8185Z" fill="#131415"/>
<path d="M67.4776 92.3229H64.9808V94.8185H67.4776V92.3229Z" fill="#131415"/>
<path d="M67.4776 89.8299H64.9808V92.3229H67.4776V89.8299Z" fill="#131415"/>
<path d="M67.4776 87.3369H64.9808V89.8299H67.4776V87.3369Z" fill="#131415"/>
<path d="M67.4776 84.8439H64.9808V87.3369H67.4776V84.8439Z" fill="#131415"/>
<path d="M67.4776 82.3509H64.9808V84.8439H67.4776V82.3509Z" fill="#131415"/>
<path d="M67.4776 79.8579H64.9808V82.3509H67.4776V79.8579Z" fill="white"/>
<path d="M67.4776 77.3623H64.9808V79.8579H67.4776V77.3623Z" fill="white"/>
<path d="M67.4776 74.8693H64.9808V77.3623H67.4776V74.8693Z" fill="white"/>
<path d="M67.4776 72.3763H64.9808V74.8693H67.4776V72.3763Z" fill="white"/>
<path d="M67.4776 69.8833H64.9808V72.3763H67.4776V69.8833Z" fill="white"/>
<path d="M67.4776 67.3903H64.9808V69.8833H67.4776V67.3903Z" fill="white"/>
<path d="M67.4776 64.8948H64.9808V67.3903H67.4776V64.8948Z" fill="white"/>
<path d="M67.4776 62.4017H64.9808V64.8948H67.4776V62.4017Z" fill="white"/>
<path d="M67.4776 59.9087H64.9808V62.4017H67.4776V59.9087Z" fill="white"/>
<path d="M67.4776 57.4157H64.9808V59.9087H67.4776V57.4157Z" fill="#131415"/>
<path d="M67.4776 54.9227H64.9808V57.4157H67.4776V54.9227Z" fill="white"/>
<path d="M67.4776 52.4272H64.9808V54.9227H67.4776V52.4272Z" fill="white"/>
<path d="M67.4776 49.9342H64.9808V52.4272H67.4776V49.9342Z" fill="white"/>
<path d="M67.4776 47.4412H64.9808V49.9342H67.4776V47.4412Z" fill="white"/>
<path d="M67.4776 44.9482H64.9808V47.4412H67.4776V44.9482Z" fill="#131415"/>
<path d="M67.4776 42.4552H64.9808V44.9482H67.4776V42.4552Z" fill="#131415"/>
<path d="M67.4776 39.9596H64.9808V42.4552H67.4776V39.9596Z" fill="white"/>
<path d="M67.4776 37.4666H64.9808V39.9596H67.4776V37.4666Z" fill="white"/>
<path d="M67.4776 34.9736H64.9808V37.4666H67.4776V34.9736Z" fill="white"/>
<path d="M67.4776 32.4806H64.9808V34.9736H67.4776V32.4806Z" fill="white"/>
<path d="M67.4776 29.9876H64.9808V32.4806H67.4776V29.9876Z" fill="white"/>
<path d="M67.4776 27.4946H64.9808V29.9876H67.4776V27.4946Z" fill="white"/>
<path d="M67.4776 24.999H64.9808V27.4946H67.4776V24.999Z" fill="white"/>
<path d="M67.4776 22.506H64.9808V24.999H67.4776V22.506Z" fill="white"/>
<path d="M67.4776 20.013H64.9808V22.506H67.4776V20.013Z" fill="white"/>
<path d="M67.4776 17.52H64.9808V20.013H67.4776V17.52Z" fill="white"/>
<path d="M67.4776 15.027H64.9808V17.52H67.4776V15.027Z" fill="white"/>
<path d="M67.4776 12.5314H64.9808V15.027H67.4776V12.5314Z" fill="white"/>
<path d="M67.4776 10.0384H64.9808V12.5314H67.4776V10.0384Z" fill="#131415"/>
<path d="M64.9808 99.8045L62.484 99.8045V102.297H64.9808L64.9808 99.8045Z" fill="#131415"/>
<path d="M64.9808 97.3115H62.484V99.8045L64.9808 99.8045V97.3115Z" fill="#131415"/>
<path d="M64.9808 94.8185H62.484V97.3115H64.9808V94.8185Z" fill="white"/>
<path d="M64.9808 92.3229H62.484V94.8185H64.9808V92.3229Z" fill="white"/>
<path d="M64.9808 89.8299H62.484V92.3229H64.9808V89.8299Z" fill="white"/>
<path d="M64.9808 87.3369H62.484V89.8299H64.9808V87.3369Z" fill="white"/>
<path d="M64.9808 84.8439H62.484V87.3369H64.9808V84.8439Z" fill="white"/>
<path d="M64.9808 82.3509H62.484V84.8439H64.9808V82.3509Z" fill="white"/>
<path d="M64.9808 79.8579H62.484V82.3509H64.9808V79.8579Z" fill="white"/>
<path d="M64.9808 77.3623H62.484V79.8579H64.9808V77.3623Z" fill="white"/>
<path d="M64.9808 74.8693H62.484V77.3623H64.9808V74.8693Z" fill="white"/>
<path d="M64.9808 72.3763H62.484V74.8693H64.9808V72.3763Z" fill="white"/>
<path d="M64.9808 69.8833H62.484V72.3763H64.9808V69.8833Z" fill="white"/>
<path d="M64.9808 67.3903H62.484V69.8833H64.9808V67.3903Z" fill="white"/>
<path d="M64.9808 64.8948H62.484V67.3903H64.9808V64.8948Z" fill="white"/>
<path d="M64.9808 62.4017H62.484V64.8948H64.9808V62.4017Z" fill="white"/>
<path d="M64.9808 59.9087H62.484V62.4017H64.9808V59.9087Z" fill="white"/>
<path d="M64.9808 57.4157H62.484V59.9087H64.9808V57.4157Z" fill="#131415"/>
<path d="M64.9808 54.9227H62.484V57.4157H64.9808V54.9227Z" fill="white"/>
<path d="M64.9808 52.4272H62.484V54.9227H64.9808V52.4272Z" fill="white"/>
<path d="M64.9808 49.9342H62.484V52.4272H64.9808V49.9342Z" fill="white"/>
<path d="M64.9808 47.4412H62.484V49.9342H64.9808V47.4412Z" fill="#131415"/>
<path d="M64.9808 44.9482H62.484V47.4412H64.9808V44.9482Z" fill="white"/>
<path d="M64.9808 42.4552H62.484V44.9482H64.9808V42.4552Z" fill="#131415"/>
<path d="M64.9808 39.9596H62.484V42.4552H64.9808V39.9596Z" fill="white"/>
<path d="M64.9808 37.4666H62.484V39.9596H64.9808V37.4666Z" fill="white"/>
<path d="M64.9808 34.9736H62.484V37.4666H64.9808V34.9736Z" fill="white"/>
<path d="M64.9808 32.4806H62.484V34.9736H64.9808V32.4806Z" fill="white"/>
<path d="M64.9808 29.9876H62.484V32.4806H64.9808V29.9876Z" fill="white"/>
<path d="M64.9808 27.4946H62.484V29.9876H64.9808V27.4946Z" fill="white"/>
<path d="M64.9808 24.999H62.484V27.4946H64.9808V24.999Z" fill="white"/>
<path d="M64.9808 22.506H62.484V24.999H64.9808V22.506Z" fill="white"/>
<path d="M64.9808 20.013H62.484V22.506H64.9808V20.013Z" fill="#131415"/>
<path d="M64.9808 17.52H62.484V20.013H64.9808V17.52Z" fill="#131415"/>
<path d="M64.9808 15.027H62.484V17.52H64.9808V15.027Z" fill="#131415"/>
<path d="M64.9808 12.5314H62.484V15.027H64.9808V12.5314Z" fill="#131415"/>
<path d="M64.9808 10.0384H62.484V12.5314H64.9808V10.0384Z" fill="#131415"/>
<path d="M64.9808 7.54541H62.484V10.0384H64.9808L64.9808 7.54541Z" fill="#131415"/>
<path d="M62.484 99.8045H59.9872V102.297H62.484V99.8045Z" fill="#131415"/>
<path d="M62.484 97.3115H59.9872V99.8045H62.484V97.3115Z" fill="#131415"/>
<path d="M62.484 94.8185H59.9872V97.3115H62.484V94.8185Z" fill="white"/>
<path d="M62.484 92.3229H59.9872V94.8185H62.484V92.3229Z" fill="white"/>
<path d="M62.484 89.8299H59.9872V92.3229H62.484V89.8299Z" fill="white"/>
<path d="M62.484 87.3369H59.9872V89.8299H62.484V87.3369Z" fill="white"/>
<path d="M62.484 84.8439H59.9872V87.3369H62.484V84.8439Z" fill="white"/>
<path d="M62.484 82.3509H59.9872V84.8439H62.484V82.3509Z" fill="white"/>
<path d="M62.484 79.8579H59.9872V82.3509H62.484V79.8579Z" fill="white"/>
<path d="M62.484 77.3623H59.9872V79.8579H62.484V77.3623Z" fill="white"/>
<path d="M62.484 74.8693H59.9872V77.3623H62.484V74.8693Z" fill="white"/>
<path d="M62.484 72.3763H59.9872V74.8693H62.484V72.3763Z" fill="white"/>
<path d="M62.484 69.8833H59.9872V72.3763H62.484V69.8833Z" fill="#131415"/>
<path d="M62.484 67.3903H59.9872V69.8833H62.484V67.3903Z" fill="white"/>
<path d="M62.484 64.8948H59.9872V67.3903H62.484V64.8948Z" fill="white"/>
<path d="M62.484 62.4017H59.9872V64.8948H62.484V62.4017Z" fill="white"/>
<path d="M62.484 59.9087H59.9872V62.4017H62.484V59.9087Z" fill="white"/>
<path d="M62.484 57.4157H59.9872V59.9087H62.484V57.4157Z" fill="#131415"/>
<path d="M62.484 54.9227H59.9872V57.4157H62.484V54.9227Z" fill="white"/>
<path d="M62.484 52.4272H59.9872V54.9227H62.484V52.4272Z" fill="white"/>
<path d="M62.484 49.9342H59.9872V52.4272H62.484V49.9342Z" fill="white"/>
<path d="M62.484 47.4412H59.9872V49.9342H62.484V47.4412Z" fill="#131415"/>
<path d="M62.484 44.9482H59.9872V47.4412H62.484V44.9482Z" fill="white"/>
<path d="M62.484 42.4552H59.9872V44.9482H62.484V42.4552Z" fill="white"/>
<path d="M62.484 39.9596H59.9872V42.4552H62.484V39.9596Z" fill="white"/>
<path d="M62.484 37.4666H59.9872V39.9596H62.484V37.4666Z" fill="white"/>
<path d="M62.484 34.9736H59.9872V37.4666H62.484V34.9736Z" fill="white"/>
<path d="M62.484 32.4806H59.9872V34.9736H62.484V32.4806Z" fill="white"/>
<path d="M62.484 29.9876H59.9872V32.4806H62.484V29.9876Z" fill="white"/>
<path d="M62.484 27.4946H59.9872V29.9876H62.484V27.4946Z" fill="white"/>
<path d="M62.484 24.999H59.9872V27.4946H62.484V24.999Z" fill="white"/>
<path d="M62.484 22.506H59.9872V24.999H62.484V22.506Z" fill="white"/>
<path d="M62.484 20.013H59.9872V22.506H62.484V20.013Z" fill="white"/>
<path d="M62.484 17.52H59.9872V20.013H62.484V17.52Z" fill="white"/>
<path d="M62.484 15.027H59.9872V17.52H62.484V15.027Z" fill="white"/>
<path d="M62.484 12.5314H59.9872V15.027H62.484V12.5314Z" fill="white"/>
<path d="M62.484 10.0384H59.9872V12.5314H62.484V10.0384Z" fill="white"/>
<path d="M62.484 7.54541H59.9872V10.0384H62.484V7.54541Z" fill="#131415"/>
<path d="M59.9872 99.8045H57.4904V102.297H59.9872V99.8045Z" fill="#131415"/>
<path d="M59.9872 97.3115H57.4904V99.8045H59.9872V97.3115Z" fill="#131415"/>
<path d="M59.9872 94.8185H57.4904V97.3115H59.9872V94.8185Z" fill="#131415"/>
<path d="M59.9872 92.3229H57.4904V94.8185H59.9872V92.3229Z" fill="#131415"/>
<path d="M59.9872 89.8299H57.4904V92.3229H59.9872V89.8299Z" fill="white"/>
<path d="M59.9872 87.3369H57.4904V89.8299H59.9872V87.3369Z" fill="white"/>
<path d="M59.9872 84.8439H57.4904V87.3369H59.9872V84.8439Z" fill="white"/>
<path d="M59.9872 82.3509H57.4904V84.8439H59.9872V82.3509Z" fill="white"/>
<path d="M59.9872 79.8579H57.4904V82.3509H59.9872V79.8579Z" fill="white"/>
<path d="M59.9872 77.3623H57.4904V79.8579H59.9872V77.3623Z" fill="white"/>
<path d="M59.9872 74.8693H57.4904V77.3623H59.9872V74.8693Z" fill="white"/>
<path d="M59.9872 72.3763H57.4904V74.8693H59.9872V72.3763Z" fill="#131415"/>
<path d="M59.9872 69.8833H57.4904V72.3763H59.9872V69.8833Z" fill="#131415"/>
<path d="M59.9872 67.3903H57.4904V69.8833H59.9872V67.3903Z" fill="#131415"/>
<path d="M59.9872 64.8948H57.4904V67.3903H59.9872V64.8948Z" fill="white"/>
<path d="M59.9872 62.4017H57.4904V64.8948H59.9872V62.4017Z" fill="white"/>
<path d="M59.9872 59.9087H57.4904V62.4017H59.9872V59.9087Z" fill="white"/>
<path d="M59.9872 57.4157H57.4904V59.9087H59.9872V57.4157Z" fill="#131415"/>
<path d="M59.9872 54.9227H57.4904V57.4157H59.9872V54.9227Z" fill="white"/>
<path d="M59.9872 52.4272H57.4904V54.9227H59.9872V52.4272Z" fill="white"/>
<path d="M59.9872 49.9342H57.4904V52.4272H59.9872V49.9342Z" fill="white"/>
<path d="M59.9872 47.4412H57.4904V49.9342H59.9872V47.4412Z" fill="white"/>
<path d="M59.9872 44.9482H57.4904V47.4412H59.9872V44.9482Z" fill="#131415"/>
<path d="M59.9872 42.4552H57.4904V44.9482H59.9872V42.4552Z" fill="white"/>
<path d="M59.9872 39.9596H57.4904V42.4552H59.9872V39.9596Z" fill="white"/>
<path d="M59.9872 37.4666H57.4904V39.9596H59.9872V37.4666Z" fill="white"/>
<path d="M59.9872 34.9736H57.4904V37.4666H59.9872V34.9736Z" fill="white"/>
<path d="M59.9872 32.4806H57.4904V34.9736H59.9872V32.4806Z" fill="white"/>
<path d="M59.9872 29.9876H57.4904V32.4806H59.9872V29.9876Z" fill="white"/>
<path d="M59.9872 27.4946H57.4904V29.9876H59.9872V27.4946Z" fill="white"/>
<path d="M59.9872 24.999H57.4904V27.4946H59.9872V24.999Z" fill="white"/>
<path d="M59.9872 22.506H57.4904V24.999H59.9872V22.506Z" fill="white"/>
<path d="M59.9872 20.013H57.4904V22.506H59.9872V20.013Z" fill="#131415"/>
<path d="M59.9872 17.52H57.4904V20.013H59.9872V17.52Z" fill="#131415"/>
<path d="M59.9872 15.027H57.4904V17.52H59.9872V15.027Z" fill="#131415"/>
<path d="M59.9872 12.5314H57.4904V15.027H59.9872V12.5314Z" fill="#131415"/>
<path d="M59.9872 10.0384H57.4904V12.5314H59.9872V10.0384Z" fill="#131415"/>
<path d="M59.9872 7.54541H57.4904V10.0384H59.9872V7.54541Z" fill="#131415"/>
<path d="M57.4904 97.3115H54.9936V99.8045L57.4904 99.8045V97.3115Z" fill="#131415"/>
<path d="M57.4904 94.8185H54.9936V97.3115H57.4904V94.8185Z" fill="white"/>
<path d="M57.4904 92.3229H54.9936V94.8185H57.4904V92.3229Z" fill="#131415"/>
<path d="M57.4904 89.8299H54.9936V92.3229H57.4904V89.8299Z" fill="#131415"/>
<path d="M57.4904 87.3369H54.9936V89.8299H57.4904V87.3369Z" fill="#131415"/>
<path d="M57.4904 84.8439H54.9936V87.3369H57.4904V84.8439Z" fill="#131415"/>
<path d="M57.4904 82.3509H54.9936V84.8439H57.4904V82.3509Z" fill="#131415"/>
<path d="M57.4904 79.8579H54.9936V82.3509H57.4904V79.8579Z" fill="white"/>
<path d="M57.4904 77.3623H54.9936V79.8579H57.4904V77.3623Z" fill="white"/>
<path d="M57.4904 74.8693H54.9936V77.3623H57.4904V74.8693Z" fill="white"/>
<path d="M57.4904 72.3763H54.9936V74.8693H57.4904V72.3763Z" fill="#131415"/>
<path d="M57.4904 69.8833H54.9936V72.3763H57.4904V69.8833Z" fill="#131415"/>
<path d="M57.4904 67.3903H54.9936V69.8833H57.4904V67.3903Z" fill="#131415"/>
<path d="M57.4904 64.8948H54.9936V67.3903H57.4904V64.8948Z" fill="white"/>
<path d="M57.4904 62.4017H54.9936V64.8948H57.4904V62.4017Z" fill="white"/>
<path d="M57.4904 59.9087H54.9936V62.4017H57.4904V59.9087Z" fill="white"/>
<path d="M57.4904 57.4157H54.9936V59.9087H57.4904V57.4157Z" fill="#131415"/>
<path d="M57.4904 54.9227H54.9936V57.4157H57.4904V54.9227Z" fill="white"/>
<path d="M57.4904 52.4272H54.9936V54.9227H57.4904V52.4272Z" fill="white"/>
<path d="M57.4904 49.9342H54.9936V52.4272H57.4904V49.9342Z" fill="white"/>
<path d="M57.4904 47.4412H54.9936V49.9342H57.4904V47.4412Z" fill="white"/>
<path d="M57.4904 44.9482H54.9936V47.4412H57.4904V44.9482Z" fill="white"/>
<path d="M57.4904 42.4552H54.9936V44.9482H57.4904V42.4552Z" fill="white"/>
<path d="M57.4904 39.9596H54.9936V42.4552H57.4904V39.9596Z" fill="white"/>
<path d="M57.4904 37.4666H54.9936V39.9596H57.4904V37.4666Z" fill="white"/>
<path d="M57.4904 34.9736H54.9936V37.4666H57.4904V34.9736Z" fill="white"/>
<path d="M57.4904 32.4806H54.9936V34.9736H57.4904V32.4806Z" fill="white"/>
<path d="M57.4904 29.9876H54.9936V32.4806H57.4904V29.9876Z" fill="white"/>
<path d="M57.4904 27.4946H54.9936V29.9876H57.4904V27.4946Z" fill="white"/>
<path d="M57.4904 24.999H54.9936V27.4946H57.4904V24.999Z" fill="white"/>
<path d="M57.4904 22.506H54.9936V24.999H57.4904V22.506Z" fill="white"/>
<path d="M57.4904 20.013H54.9936V22.506H57.4904V20.013Z" fill="white"/>
<path d="M57.4904 17.52H54.9936V20.013H57.4904V17.52Z" fill="white"/>
<path d="M57.4904 15.027H54.9936V17.52H57.4904V15.027Z" fill="white"/>
<path d="M57.4904 12.5314H54.9936V15.027H57.4904V12.5314Z" fill="white"/>
<path d="M57.4904 10.0384H54.9936V12.5314H57.4904V10.0384Z" fill="white"/>
<path d="M57.4904 7.54541H54.9936V10.0384H57.4904V7.54541Z" fill="#131415"/>
<path d="M54.9936 97.3115H52.4968V99.8045H54.9936V97.3115Z" fill="#131415"/>
<path d="M54.9936 94.8185H52.4968V97.3115H54.9936V94.8185Z" fill="white"/>
<path d="M54.9936 92.3229H52.4968V94.8185H54.9936V92.3229Z" fill="white"/>
<path d="M54.9936 89.8299H52.4968V92.3229H54.9936V89.8299Z" fill="white"/>
<path d="M54.9936 87.3369H52.4968V89.8299H54.9936V87.3369Z" fill="white"/>
<path d="M54.9936 84.8439H52.4968V87.3369H54.9936V84.8439Z" fill="white"/>
<path d="M54.9936 82.3509H52.4968V84.8439H54.9936V82.3509Z" fill="#131415"/>
<path d="M54.9936 79.8579H52.4968V82.3509H54.9936V79.8579Z" fill="white"/>
<path d="M54.9936 77.3623H52.4968V79.8579H54.9936V77.3623Z" fill="white"/>
<path d="M54.9936 74.8693H52.4968V77.3623H54.9936V74.8693Z" fill="white"/>
<path d="M54.9936 72.3763H52.4968V74.8693H54.9936V72.3763Z" fill="white"/>
<path d="M54.9936 69.8833H52.4968V72.3763H54.9936V69.8833Z" fill="#131415"/>
<path d="M54.9936 67.3903H52.4968V69.8833H54.9936V67.3903Z" fill="white"/>
<path d="M54.9936 64.8948H52.4968V67.3903H54.9936V64.8948Z" fill="white"/>
<path d="M54.9936 62.4017H52.4968V64.8948H54.9936V62.4017Z" fill="white"/>
<path d="M54.9936 59.9087H52.4968V62.4017H54.9936V59.9087Z" fill="white"/>
<path d="M54.9936 57.4157H52.4968V59.9087H54.9936V57.4157Z" fill="#131415"/>
<path d="M54.9936 54.9227H52.4968V57.4157H54.9936V54.9227Z" fill="white"/>
<path d="M54.9936 52.4272H52.4968V54.9227H54.9936V52.4272Z" fill="white"/>
<path d="M54.9936 49.9342H52.4968V52.4272H54.9936V49.9342Z" fill="white"/>
<path d="M54.9936 47.4412H52.4968V49.9342H54.9936V47.4412Z" fill="white"/>
<path d="M54.9936 44.9482H52.4968V47.4412H54.9936V44.9482Z" fill="white"/>
<path d="M54.9936 42.4552H52.4968V44.9482H54.9936V42.4552Z" fill="white"/>
<path d="M54.9936 39.9596H52.4968V42.4552H54.9936V39.9596Z" fill="white"/>
<path d="M54.9936 37.4666H52.4968V39.9596H54.9936V37.4666Z" fill="#131415"/>
<path d="M54.9936 34.9736H52.4968V37.4666H54.9936V34.9736Z" fill="#131415"/>
<path d="M54.9936 32.4806H52.4968V34.9736H54.9936V32.4806Z" fill="white"/>
<path d="M54.9936 29.9876H52.4968V32.4806H54.9936V29.9876Z" fill="white"/>
<path d="M54.9936 27.4946H52.4968V29.9876H54.9936V27.4946Z" fill="white"/>
<path d="M54.9936 24.999H52.4968V27.4946H54.9936V24.999Z" fill="white"/>
<path d="M54.9936 22.506H52.4968V24.999H54.9936V22.506Z" fill="white"/>
<path d="M54.9936 20.013H52.4968V22.506H54.9936V20.013Z" fill="#131415"/>
<path d="M54.9936 17.52H52.4968V20.013H54.9936V17.52Z" fill="#131415"/>
<path d="M54.9936 15.027H52.4968V17.52H54.9936V15.027Z" fill="#131415"/>
<path d="M54.9936 12.5314H52.4968V15.027H54.9936V12.5314Z" fill="#131415"/>
<path d="M54.9936 10.0384H52.4968V12.5314H54.9936V10.0384Z" fill="#131415"/>
<path d="M54.9936 7.54541H52.4968V10.0384H54.9936V7.54541Z" fill="#131415"/>
<path d="M52.4968 97.3115H50V99.8045H52.4968V97.3115Z" fill="#131415"/>
<path d="M52.4968 94.8185H50V97.3115H52.4968V94.8185Z" fill="white"/>
<path d="M52.4968 92.3229H50V94.8185H52.4968V92.3229Z" fill="white"/>
<path d="M52.4968 89.8299H50V92.3229H52.4968V89.8299Z" fill="white"/>
<path d="M52.4968 87.3369H50V89.8299H52.4968V87.3369Z" fill="white"/>
<path d="M52.4968 84.8439H50V87.3369H52.4968V84.8439Z" fill="white"/>
<path d="M52.4968 82.3509H50V84.8439H52.4968V82.3509Z" fill="white"/>
<path d="M52.4968 79.8579H50V82.3509H52.4968V79.8579Z" fill="white"/>
<path d="M52.4968 77.3623H50V79.8579H52.4968V77.3623Z" fill="white"/>
<path d="M52.4968 74.8693H50V77.3623H52.4968V74.8693Z" fill="white"/>
<path d="M52.4968 72.3763H50V74.8693H52.4968V72.3763Z" fill="white"/>
<path d="M52.4968 69.8833H50V72.3763H52.4968V69.8833Z" fill="white"/>
<path d="M52.4968 67.3903H50V69.8833H52.4968V67.3903Z" fill="white"/>
<path d="M52.4968 64.8948H50V67.3903H52.4968V64.8948Z" fill="white"/>
<path d="M52.4968 62.4017H50V64.8948H52.4968V62.4017Z" fill="white"/>
<path d="M52.4968 59.9087H50V62.4017H52.4968V59.9087Z" fill="white"/>
<path d="M52.4968 57.4157H50V59.9087H52.4968V57.4157Z" fill="#131415"/>
<path d="M52.4968 54.9227H50V57.4157H52.4968V54.9227Z" fill="white"/>
<path d="M52.4968 52.4272H50V54.9227H52.4968V52.4272Z" fill="white"/>
<path d="M52.4968 49.9342H50V52.4272H52.4968V49.9342Z" fill="white"/>
<path d="M52.4968 47.4412H50V49.9342H52.4968V47.4412Z" fill="white"/>
<path d="M52.4968 44.9482H50V47.4412H52.4968V44.9482Z" fill="white"/>
<path d="M52.4968 42.4552H50V44.9482H52.4968V42.4552Z" fill="white"/>
<path d="M52.4968 39.9596H50V42.4552H52.4968V39.9596Z" fill="#131415"/>
<path d="M52.4968 37.4666H50V39.9596H52.4968V37.4666Z" fill="#131415"/>
<path d="M52.4968 34.9736H50V37.4666H52.4968V34.9736Z" fill="#131415"/>
<path d="M52.4968 32.4806H50V34.9736H52.4968V32.4806Z" fill="#131415"/>
<path d="M52.4968 29.9876H50V32.4806H52.4968V29.9876Z" fill="white"/>
<path d="M52.4968 27.4946H50V29.9876H52.4968V27.4946Z" fill="white"/>
<path d="M52.4968 24.999H50V27.4946H52.4968V24.999Z" fill="white"/>
<path d="M52.4968 22.506H50V24.999H52.4968V22.506Z" fill="white"/>
<path d="M52.4968 20.013H50V22.506H52.4968V20.013Z" fill="white"/>
<path d="M52.4968 17.52H50V20.013H52.4968V17.52Z" fill="white"/>
<path d="M52.4968 15.027H50V17.52H52.4968V15.027Z" fill="white"/>
<path d="M52.4968 12.5314H50V15.027H52.4968V12.5314Z" fill="white"/>
<path d="M52.4968 10.0384H50V12.5314H52.4968V10.0384Z" fill="#131415"/>
<path d="M50 97.3115H47.5032V99.8045H50V97.3115Z" fill="#131415"/>
<path d="M50 94.8185H47.5032V97.3115H50V94.8185Z" fill="white"/>
<path d="M50 92.3229H47.5032V94.8185H50V92.3229Z" fill="white"/>
<path d="M50 89.8299H47.5032V92.3229H50V89.8299Z" fill="white"/>
<path d="M50 87.3369H47.5032V89.8299H50V87.3369Z" fill="white"/>
<path d="M50 84.8439H47.5032V87.3369H50V84.8439Z" fill="white"/>
<path d="M50 82.3509H47.5032V84.8439H50V82.3509Z" fill="white"/>
<path d="M50 79.8579H47.5032V82.3509H50V79.8579Z" fill="white"/>
<path d="M50 77.3623H47.5032V79.8579H50V77.3623Z" fill="white"/>
<path d="M50 74.8693H47.5032V77.3623H50V74.8693Z" fill="white"/>
<path d="M50 72.3763H47.5032V74.8693H50V72.3763Z" fill="white"/>
<path d="M50 69.8833H47.5032V72.3763H50V69.8833Z" fill="white"/>
<path d="M50 67.3903H47.5032V69.8833H50V67.3903Z" fill="white"/>
<path d="M50 64.8948H47.5032V67.3903H50V64.8948Z" fill="white"/>
<path d="M50 62.4017H47.5032V64.8948H50V62.4017Z" fill="white"/>
<path d="M50 59.9087H47.5032V62.4017H50V59.9087Z" fill="white"/>
<path d="M50 57.4157H47.5032V59.9087H50V57.4157Z" fill="#131415"/>
<path d="M50 54.9227H47.5032V57.4157H50V54.9227Z" fill="#131415"/>
<path d="M50 52.4272H47.5032V54.9227H50V52.4272Z" fill="white"/>
<path d="M50 49.9342H47.5032V52.4272H50V49.9342Z" fill="white"/>
<path d="M50 47.4412H47.5032V49.9342H50V47.4412Z" fill="white"/>
<path d="M50 44.9482H47.5032V47.4412H50V44.9482Z" fill="white"/>
<path d="M50 42.4552H47.5032V44.9482H50V42.4552Z" fill="white"/>
<path d="M50 39.9596H47.5032V42.4552H50V39.9596Z" fill="#131415"/>
<path d="M50 37.4666H47.5032V39.9596H50V37.4666Z" fill="#131415"/>
<path d="M50 34.9736H47.5032V37.4666H50V34.9736Z" fill="#131415"/>
<path d="M50 32.4806H47.5032V34.9736H50V32.4806Z" fill="#131415"/>
<path d="M50 29.9876H47.5032V32.4806H50V29.9876Z" fill="white"/>
<path d="M50 27.4946H47.5032V29.9876H50V27.4946Z" fill="white"/>
<path d="M50 24.999H47.5032V27.4946H50V24.999Z" fill="white"/>
<path d="M50 22.506H47.5032V24.999H50V22.506Z" fill="white"/>
<path d="M50 20.013H47.5032V22.506H50V20.013Z" fill="white"/>
<path d="M50 17.52H47.5032V20.013H50V17.52Z" fill="white"/>
<path d="M50 15.027H47.5032V17.52H50V15.027Z" fill="white"/>
<path d="M50 12.5314H47.5032V15.027H50V12.5314Z" fill="white"/>
<path d="M50 10.0384H47.5032V12.5314H50V10.0384Z" fill="#131415"/>
<path d="M47.5032 97.3115H45.0064V99.8045H47.5032V97.3115Z" fill="#131415"/>
<path d="M47.5032 94.8185H45.0064V97.3115H47.5032V94.8185Z" fill="white"/>
<path d="M47.5032 92.3229H45.0064V94.8185H47.5032V92.3229Z" fill="white"/>
<path d="M47.5032 89.8299H45.0064V92.3229H47.5032V89.8299Z" fill="white"/>
<path d="M47.5032 87.3369H45.0064V89.8299H47.5032V87.3369Z" fill="white"/>
<path d="M47.5032 84.8439H45.0064V87.3369H47.5032V84.8439Z" fill="white"/>
<path d="M47.5032 82.3509H45.0064V84.8439H47.5032V82.3509Z" fill="white"/>
<path d="M47.5032 79.8579H45.0064V82.3509H47.5032V79.8579Z" fill="white"/>
<path d="M47.5032 77.3623H45.0064V79.8579H47.5032V77.3623Z" fill="white"/>
<path d="M47.5032 74.8693H45.0064V77.3623H47.5032V74.8693Z" fill="white"/>
<path d="M47.5032 72.3763H45.0064V74.8693H47.5032V72.3763Z" fill="white"/>
<path d="M47.5032 69.8833H45.0064V72.3763H47.5032V69.8833Z" fill="white"/>
<path d="M47.5032 67.3903H45.0064V69.8833H47.5032V67.3903Z" fill="white"/>
<path d="M47.5032 64.8948H45.0064V67.3903H47.5032V64.8948Z" fill="white"/>
<path d="M47.5032 62.4017H45.0064V64.8948H47.5032V62.4017Z" fill="white"/>
<path d="M47.5032 59.9087H45.0064V62.4017H47.5032V59.9087Z" fill="white"/>
<path d="M47.5032 57.4157H45.0064V59.9087H47.5032V57.4157Z" fill="white"/>
<path d="M47.5032 54.9227H45.0064V57.4157H47.5032V54.9227Z" fill="#131415"/>
<path d="M47.5032 52.4272H45.0064V54.9227H47.5032V52.4272Z" fill="white"/>
<path d="M47.5032 49.9342H45.0064V52.4272H47.5032V49.9342Z" fill="white"/>
<path d="M47.5032 47.4412H45.0064V49.9342H47.5032V47.4412Z" fill="white"/>
<path d="M47.5032 44.9482H45.0064V47.4412H47.5032V44.9482Z" fill="white"/>
<path d="M47.5032 42.4552H45.0064V44.9482H47.5032V42.4552Z" fill="white"/>
<path d="M47.5032 39.9596H45.0064V42.4552H47.5032V39.9596Z" fill="white"/>
<path d="M47.5032 37.4666H45.0064V39.9596H47.5032V37.4666Z" fill="#131415"/>
<path d="M47.5032 34.9736H45.0064V37.4666H47.5032V34.9736Z" fill="#131415"/>
<path d="M47.5032 32.4806H45.0064V34.9736H47.5032V32.4806Z" fill="white"/>
<path d="M47.5032 29.9876H45.0064V32.4806H47.5032V29.9876Z" fill="white"/>
<path d="M47.5032 27.4946H45.0064V29.9876H47.5032V27.4946Z" fill="white"/>
<path d="M47.5032 24.999H45.0064V27.4946H47.5032V24.999Z" fill="white"/>
<path d="M47.5032 22.506H45.0064V24.999H47.5032V22.506Z" fill="white"/>
<path d="M47.5032 20.013H45.0064V22.506H47.5032V20.013Z" fill="white"/>
<path d="M47.5032 17.52H45.0064V20.013H47.5032V17.52Z" fill="white"/>
<path d="M47.5032 15.027H45.0064V17.52H47.5032V15.027Z" fill="white"/>
<path d="M47.5032 12.5314H45.0064V15.027H47.5032V12.5314Z" fill="white"/>
<path d="M47.5032 10.0384H45.0064V12.5314H47.5032V10.0384Z" fill="#131415"/>
<path d="M47.5032 7.54541H45.0064V10.0384H47.5032V7.54541Z" fill="#131415"/>
<path d="M45.0064 97.3115H42.5096V99.8045H45.0064V97.3115Z" fill="#131415"/>
<path d="M45.0064 94.8185H42.5096V97.3115H45.0064V94.8185Z" fill="white"/>
<path d="M45.0064 92.3229H42.5096V94.8185H45.0064V92.3229Z" fill="white"/>
<path d="M45.0064 89.8299H42.5096V92.3229H45.0064V89.8299Z" fill="white"/>
<path d="M45.0064 87.3369H42.5096V89.8299H45.0064V87.3369Z" fill="white"/>
<path d="M45.0064 84.8439H42.5096V87.3369H45.0064V84.8439Z" fill="white"/>
<path d="M45.0064 82.3509H42.5096V84.8439H45.0064V82.3509Z" fill="white"/>
<path d="M45.0064 79.8579H42.5096V82.3509H45.0064V79.8579Z" fill="white"/>
<path d="M45.0064 77.3623H42.5096V79.8579H45.0064V77.3623Z" fill="white"/>
<path d="M45.0064 74.8693H42.5096V77.3623H45.0064V74.8693Z" fill="white"/>
<path d="M45.0064 72.3763H42.5096V74.8693H45.0064V72.3763Z" fill="white"/>
<path d="M45.0064 69.8833H42.5096V72.3763H45.0064V69.8833Z" fill="white"/>
<path d="M45.0064 67.3903H42.5096V69.8833H45.0064V67.3903Z" fill="white"/>
<path d="M45.0064 64.8948H42.5096V67.3903H45.0064V64.8948Z" fill="white"/>
<path d="M45.0064 62.4017H42.5096V64.8948H45.0064V62.4017Z" fill="white"/>
<path d="M45.0064 59.9087H42.5096V62.4017H45.0064V59.9087Z" fill="white"/>
<path d="M45.0064 57.4157H42.5096V59.9087H45.0064V57.4157Z" fill="white"/>
<path d="M45.0064 54.9227H42.5096V57.4157H45.0064V54.9227Z" fill="#131415"/>
<path d="M45.0064 52.4272H42.5096V54.9227H45.0064V52.4272Z" fill="white"/>
<path d="M45.0064 49.9342H42.5096V52.4272H45.0064V49.9342Z" fill="white"/>
<path d="M45.0064 47.4412H42.5096V49.9342H45.0064V47.4412Z" fill="white"/>
<path d="M45.0064 44.9482H42.5096V47.4412H45.0064V44.9482Z" fill="white"/>
<path d="M45.0064 42.4552H42.5096V44.9482H45.0064V42.4552Z" fill="white"/>
<path d="M45.0064 39.9596H42.5096V42.4552H45.0064V39.9596Z" fill="white"/>
<path d="M45.0064 37.4666H42.5096V39.9596H45.0064V37.4666Z" fill="white"/>
<path d="M45.0064 34.9736H42.5096V37.4666H45.0064V34.9736Z" fill="white"/>
<path d="M45.0064 32.4806H42.5096V34.9736H45.0064V32.4806Z" fill="white"/>
<path d="M45.0064 29.9876H42.5096V32.4806H45.0064V29.9876Z" fill="white"/>
<path d="M45.0064 27.4946H42.5096V29.9876H45.0064V27.4946Z" fill="white"/>
<path d="M45.0064 24.999H42.5096V27.4946H45.0064V24.999Z" fill="white"/>
<path d="M45.0064 22.506H42.5096V24.999H45.0064V22.506Z" fill="white"/>
<path d="M45.0064 20.013H42.5096V22.506H45.0064V20.013Z" fill="white"/>
<path d="M45.0064 17.52H42.5096V20.013H45.0064V17.52Z" fill="white"/>
<path d="M45.0064 15.027H42.5096V17.52H45.0064V15.027Z" fill="white"/>
<path d="M45.0064 12.5314H42.5096V15.027H45.0064V12.5314Z" fill="white"/>
<path d="M45.0064 10.0384H42.5096V12.5314H45.0064V10.0384Z" fill="white"/>
<path d="M45.0064 7.54541H42.5096V10.0384H45.0064V7.54541Z" fill="#131415"/>
<path d="M42.5096 97.3115H40.0128V99.8045H42.5096V97.3115Z" fill="#131415"/>
<path d="M42.5096 94.8185H40.0128V97.3115H42.5096V94.8185Z" fill="white"/>
<path d="M42.5096 92.3229H40.0128V94.8185H42.5096V92.3229Z" fill="white"/>
<path d="M42.5096 89.8299H40.0128V92.3229H42.5096V89.8299Z" fill="white"/>
<path d="M42.5096 87.3369H40.0128V89.8299H42.5096V87.3369Z" fill="white"/>
<path d="M42.5096 84.8439H40.0128V87.3369H42.5096V84.8439Z" fill="white"/>
<path d="M42.5096 82.3509H40.0128V84.8439H42.5096V82.3509Z" fill="white"/>
<path d="M42.5096 79.8579H40.0128V82.3509H42.5096V79.8579Z" fill="white"/>
<path d="M42.5096 77.3623H40.0128V79.8579H42.5096V77.3623Z" fill="white"/>
<path d="M42.5096 74.8693H40.0128V77.3623H42.5096V74.8693Z" fill="white"/>
<path d="M42.5096 72.3763H40.0128V74.8693H42.5096V72.3763Z" fill="white"/>
<path d="M42.5096 69.8833H40.0128V72.3763H42.5096V69.8833Z" fill="white"/>
<path d="M42.5096 67.3903H40.0128V69.8833H42.5096V67.3903Z" fill="white"/>
<path d="M42.5096 64.8948H40.0128V67.3903H42.5096V64.8948Z" fill="white"/>
<path d="M42.5096 62.4017H40.0128V64.8948H42.5096V62.4017Z" fill="white"/>
<path d="M42.5096 59.9087H40.0128V62.4017H42.5096V59.9087Z" fill="white"/>
<path d="M42.5096 57.4157H40.0128V59.9087H42.5096V57.4157Z" fill="white"/>
<path d="M42.5096 54.9227H40.0128V57.4157H42.5096V54.9227Z" fill="#131415"/>
<path d="M42.5096 52.4272H40.0128V54.9227H42.5096V52.4272Z" fill="#131415"/>
<path d="M42.5096 49.9342H40.0128V52.4272H42.5096V49.9342Z" fill="white"/>
<path d="M42.5096 47.4412H40.0128V49.9342H42.5096V47.4412Z" fill="white"/>
<path d="M42.5096 44.9482H40.0128V47.4412H42.5096V44.9482Z" fill="white"/>
<path d="M42.5096 42.4552H40.0128V44.9482H42.5096V42.4552Z" fill="white"/>
<path d="M42.5096 39.9596H40.0128V42.4552H42.5096V39.9596Z" fill="white"/>
<path d="M42.5096 37.4666H40.0128V39.9596H42.5096V37.4666Z" fill="white"/>
<path d="M42.5096 34.9736H40.0128V37.4666H42.5096V34.9736Z" fill="white"/>
<path d="M42.5096 32.4806H40.0128V34.9736H42.5096V32.4806Z" fill="white"/>
<path d="M42.5096 29.9876H40.0128V32.4806H42.5096V29.9876Z" fill="white"/>
<path d="M42.5096 27.4946H40.0128V29.9876H42.5096V27.4946Z" fill="white"/>
<path d="M42.5096 24.999H40.0128V27.4946H42.5096V24.999Z" fill="white"/>
<path d="M42.5096 22.506H40.0128V24.999H42.5096V22.506Z" fill="white"/>
<path d="M42.5096 20.013H40.0128V22.506H42.5096V20.013Z" fill="white"/>
<path d="M42.5096 17.52H40.0128V20.013H42.5096V17.52Z" fill="white"/>
<path d="M42.5096 15.027H40.0128V17.52H42.5096V15.027Z" fill="white"/>
<path d="M42.5096 12.5314H40.0128V15.027H42.5096V12.5314Z" fill="white"/>
<path d="M42.5096 10.0384H40.0128V12.5314H42.5096V10.0384Z" fill="white"/>
<path d="M42.5096 7.54541H40.0128V10.0384H42.5096V7.54541Z" fill="#131415"/>
<path d="M42.5096 5.05241H40.0128V7.54541H42.5096V5.05241Z" fill="#131415"/>
<path d="M40.0128 97.3115H37.516V99.8045H40.0128V97.3115Z" fill="#131415"/>
<path d="M40.0128 94.8185H37.516V97.3115H40.0128V94.8185Z" fill="white"/>
<path d="M40.0128 92.3229H37.516V94.8185H40.0128V92.3229Z" fill="white"/>
<path d="M40.0128 89.8299H37.516V92.3229H40.0128V89.8299Z" fill="white"/>
<path d="M40.0128 87.3369H37.516V89.8299H40.0128V87.3369Z" fill="white"/>
<path d="M40.0128 84.8439H37.516V87.3369H40.0128V84.8439Z" fill="white"/>
<path d="M40.0128 82.3509H37.516V84.8439H40.0128V82.3509Z" fill="white"/>
<path d="M40.0128 79.8579H37.516V82.3509H40.0128V79.8579Z" fill="white"/>
<path d="M40.0128 77.3623H37.516V79.8579H40.0128V77.3623Z" fill="white"/>
<path d="M40.0128 74.8693H37.516V77.3623H40.0128V74.8693Z" fill="white"/>
<path d="M40.0128 72.3763H37.516V74.8693H40.0128V72.3763Z" fill="white"/>
<path d="M40.0128 69.8833H37.516V72.3763H40.0128V69.8833Z" fill="#131415"/>
<path d="M40.0128 67.3903H37.516V69.8833H40.0128V67.3903Z" fill="#131415"/>
<path d="M40.0128 64.8948H37.516V67.3903H40.0128V64.8948Z" fill="white"/>
<path d="M40.0128 62.4017H37.516V64.8948H40.0128V62.4017Z" fill="white"/>
<path d="M40.0128 59.9087H37.516V62.4017H40.0128V59.9087Z" fill="white"/>
<path d="M40.0128 57.4157H37.516V59.9087H40.0128V57.4157Z" fill="white"/>
<path d="M40.0128 54.9227H37.516V57.4157H40.0128V54.9227Z" fill="white"/>
<path d="M40.0128 52.4272H37.516V54.9227H40.0128V52.4272Z" fill="#131415"/>
<path d="M40.0128 49.9342H37.516V52.4272H40.0128V49.9342Z" fill="#131415"/>
<path d="M40.0128 47.4412H37.516V49.9342H40.0128V47.4412Z" fill="white"/>
<path d="M40.0128 44.9482H37.516V47.4412H40.0128V44.9482Z" fill="white"/>
<path d="M40.0128 42.4552H37.516V44.9482H40.0128V42.4552Z" fill="white"/>
<path d="M40.0128 39.9596H37.516V42.4552H40.0128V39.9596Z" fill="white"/>
<path d="M40.0128 37.4666H37.516V39.9596H40.0128V37.4666Z" fill="white"/>
<path d="M40.0128 34.9736H37.516V37.4666H40.0128V34.9736Z" fill="white"/>
<path d="M40.0128 32.4806H37.516V34.9736H40.0128V32.4806Z" fill="white"/>
<path d="M40.0128 29.9876H37.516V32.4806H40.0128V29.9876Z" fill="white"/>
<path d="M40.0128 27.4946H37.516V29.9876H40.0128V27.4946Z" fill="white"/>
<path d="M40.0128 24.999H37.516V27.4946H40.0128V24.999Z" fill="white"/>
<path d="M40.0128 22.506H37.516V24.999H40.0128V22.506Z" fill="white"/>
<path d="M40.0128 20.013H37.516V22.506H40.0128V20.013Z" fill="white"/>
<path d="M40.0128 17.52H37.516V20.013H40.0128V17.52Z" fill="#131415"/>
<path d="M40.0128 15.027H37.516V17.52H40.0128V15.027Z" fill="#131415"/>
<path d="M40.0128 12.5314H37.516V15.027H40.0128V12.5314Z" fill="white"/>
<path d="M40.0128 10.0384H37.516V12.5314H40.0128V10.0384Z" fill="white"/>
<path d="M40.0128 7.54541H37.516V10.0384H40.0128V7.54541Z" fill="white"/>
<path d="M40.0128 5.05241H37.516V7.54541H40.0128V5.05241Z" fill="#131415"/>
<path d="M40.0128 2.5594H37.516V5.05241H40.0128V2.5594Z" fill="#131415"/>
<path d="M37.516 97.3115H35.0192V99.8045H37.516V97.3115Z" fill="#131415"/>
<path d="M37.516 94.8185H35.0192V97.3115H37.516V94.8185Z" fill="#131415"/>
<path d="M37.516 92.3229H35.0192V94.8185H37.516V92.3229Z" fill="white"/>
<path d="M37.516 89.8299H35.0192V92.3229H37.516V89.8299Z" fill="white"/>
<path d="M37.516 87.3369H35.0192V89.8299H37.516V87.3369Z" fill="white"/>
<path d="M37.516 84.8439H35.0192V87.3369H37.516V84.8439Z" fill="white"/>
<path d="M37.516 82.3509H35.0192V84.8439H37.516V82.3509Z" fill="white"/>
<path d="M37.516 79.8579H35.0192V82.3509H37.516V79.8579Z" fill="white"/>
<path d="M37.516 77.3623H35.0192V79.8579H37.516V77.3623Z" fill="white"/>
<path d="M37.516 74.8693H35.0192V77.3623H37.516V74.8693Z" fill="white"/>
<path d="M37.516 72.3763H35.0192V74.8693H37.516V72.3763Z" fill="#131415"/>
<path d="M37.516 69.8833H35.0192V72.3763H37.516V69.8833Z" fill="#131415"/>
<path d="M37.516 67.3903H35.0192V69.8833H37.516V67.3903Z" fill="#131415"/>
<path d="M37.516 64.8948H35.0192V67.3903H37.516V64.8948Z" fill="#131415"/>
<path d="M37.516 62.4017H35.0192V64.8948H37.516V62.4017Z" fill="white"/>
<path d="M37.516 59.9087H35.0192V62.4017H37.516V59.9087Z" fill="white"/>
<path d="M37.516 57.4157H35.0192V59.9087H37.516V57.4157Z" fill="white"/>
<path d="M37.516 54.9227H35.0192V57.4157H37.516V54.9227Z" fill="white"/>
<path d="M37.516 52.4272H35.0192V54.9227H37.516V52.4272Z" fill="#131415"/>
<path d="M37.516 49.9342H35.0192V52.4272H37.516V49.9342Z" fill="#131415"/>
<path d="M37.516 47.4412H35.0192V49.9342H37.516V47.4412Z" fill="white"/>
<path d="M37.516 44.9482H35.0192V47.4412H37.516V44.9482Z" fill="#131415"/>
<path d="M37.516 42.4552H35.0192V44.9482H37.516V42.4552Z" fill="white"/>
<path d="M37.516 39.9596H35.0192V42.4552H37.516V39.9596Z" fill="#131415"/>
<path d="M37.516 37.4666H35.0192V39.9596H37.516V37.4666Z" fill="white"/>
<path d="M37.516 34.9736H35.0192V37.4666H37.516V34.9736Z" fill="white"/>
<path d="M37.516 32.4806H35.0192V34.9736H37.516V32.4806Z" fill="white"/>
<path d="M37.516 29.9876H35.0192V32.4806H37.516V29.9876Z" fill="white"/>
<path d="M37.516 27.4946H35.0192V29.9876H37.516V27.4946Z" fill="white"/>
<path d="M37.516 24.999H35.0192V27.4946H37.516V24.999Z" fill="white"/>
<path d="M37.516 22.506H35.0192V24.999H37.516V22.506Z" fill="white"/>
<path d="M37.516 20.013H35.0192V22.506H37.516V20.013Z" fill="#131415"/>
<path d="M37.516 17.52H35.0192V20.013H37.516V17.52Z" fill="#131415" fill-opacity="0.6"/>
<path d="M37.516 15.027H35.0192V17.52H37.516V15.027Z" fill="#131415" fill-opacity="0.6"/>
<path d="M37.516 12.5314H35.0192V15.027H37.516V12.5314Z" fill="#131415"/>
<path d="M37.516 10.0384H35.0192V12.5314H37.516V10.0384Z" fill="white"/>
<path d="M37.516 7.54541H35.0192V10.0384H37.516V7.54541Z" fill="white"/>
<path d="M37.516 5.05241H35.0192V7.54541H37.516V5.05241Z" fill="white"/>
<path d="M37.516 2.5594H35.0192V5.05241H37.516V2.5594Z" fill="#131415"/>
<path d="M37.516 0.0638428H35.0192V2.5594H37.516V0.0638428Z" fill="#131415"/>
<path d="M35.0192 94.8185H32.5224V97.3115H35.0192V94.8185Z" fill="#131415"/>
<path d="M35.0192 92.3229H32.5224V94.8185H35.0192V92.3229Z" fill="white"/>
<path d="M35.0192 89.8299H32.5224V92.3229H35.0192V89.8299Z" fill="white"/>
<path d="M35.0192 87.3369H32.5224V89.8299H35.0192V87.3369Z" fill="white"/>
<path d="M35.0192 84.8439H32.5224V87.3369H35.0192V84.8439Z" fill="white"/>
<path d="M35.0192 82.3509H32.5224V84.8439H35.0192V82.3509Z" fill="white"/>
<path d="M35.0192 79.8579H32.5224V82.3509H35.0192V79.8579Z" fill="white"/>
<path d="M35.0192 77.3623H32.5224V79.8579H35.0192V77.3623Z" fill="white"/>
<path d="M35.0192 74.8693H32.5224V77.3623H35.0192V74.8693Z" fill="#131415"/>
<path d="M35.0192 72.3763H32.5224V74.8693H35.0192V72.3763Z" fill="#131415"/>
<path d="M35.0192 69.8833H32.5224V72.3763H35.0192V69.8833Z" fill="#131415"/>
<path d="M35.0192 67.3903H32.5224V69.8833H35.0192V67.3903Z" fill="#131415"/>
<path d="M35.0192 64.8948H32.5224V67.3903H35.0192V64.8948Z" fill="#131415"/>
<path d="M35.0192 62.4017H32.5224V64.8948H35.0192V62.4017Z" fill="#131415"/>
<path d="M35.0192 59.9087H32.5224V62.4017H35.0192V59.9087Z" fill="white"/>
<path d="M35.0192 57.4157H32.5224V59.9087H35.0192V57.4157Z" fill="#131415"/>
<path d="M35.0192 54.9227H32.5224V57.4157H35.0192V54.9227Z" fill="#131415"/>
<path d="M35.0192 49.9342H32.5224V52.4272H35.0192V49.9342Z" fill="#131415"/>
<path d="M35.0192 47.4412H32.5224V49.9342H35.0192V47.4412Z" fill="#131415"/>
<path d="M35.0192 44.9482H32.5224V47.4412H35.0192V44.9482Z" fill="#131415"/>
<path d="M35.0192 42.4552H32.5224V44.9482H35.0192V42.4552Z" fill="white"/>
<path d="M35.0192 39.9596H32.5224V42.4552H35.0192V39.9596Z" fill="#131415"/>
<path d="M35.0192 37.4666H32.5224V39.9596H35.0192V37.4666Z" fill="white"/>
<path d="M35.0192 34.9736H32.5224V37.4666H35.0192V34.9736Z" fill="white"/>
<path d="M35.0192 32.4806H32.5224V34.9736H35.0192V32.4806Z" fill="white"/>
<path d="M35.0192 29.9876H32.5224V32.4806H35.0192V29.9876Z" fill="white"/>
<path d="M35.0192 27.4946H32.5224V29.9876H35.0192V27.4946Z" fill="white"/>
<path d="M35.0192 24.999H32.5224V27.4946H35.0192V24.999Z" fill="white"/>
<path d="M35.0192 22.506H32.5224V24.999H35.0192V22.506Z" fill="#131415"/>
<path d="M35.0192 20.013H32.5224V22.506H35.0192V20.013Z" fill="#131415" fill-opacity="0.6"/>
<path d="M35.0192 17.52H32.5224V20.013H35.0192V17.52Z" fill="#131415" fill-opacity="0.6"/>
<path d="M35.0192 15.027H32.5224V17.52H35.0192V15.027Z" fill="#131415" fill-opacity="0.6"/>
<path d="M35.0192 12.5314H32.5224V15.027H35.0192V12.5314Z" fill="#131415" fill-opacity="0.6"/>
<path d="M35.0192 10.0384H32.5224V12.5314H35.0192V10.0384Z" fill="#131415"/>
<path d="M35.0192 7.54541H32.5224V10.0384H35.0192V7.54541Z" fill="white"/>
<path d="M35.0192 5.05241H32.5224V7.54541H35.0192V5.05241Z" fill="white"/>
<path d="M35.0192 2.5594H32.5224V5.05241H35.0192V2.5594Z" fill="white"/>
<path d="M35.0192 0.0638428H32.5224V2.5594H35.0192V0.0638428Z" fill="#131415"/>
<path d="M32.5224 94.8185H30.0256V97.3115H32.5224V94.8185Z" fill="#131415"/>
<path d="M32.5224 92.3229H30.0256V94.8185H32.5224V92.3229Z" fill="#131415"/>
<path d="M32.5224 89.8299H30.0256V92.3229H32.5224V89.8299Z" fill="white"/>
<path d="M32.5224 87.3369H30.0256V89.8299H32.5224V87.3369Z" fill="white"/>
<path d="M32.5224 84.8439H30.0256V87.3369H32.5224V84.8439Z" fill="white"/>
<path d="M32.5224 82.3509H30.0256V84.8439H32.5224V82.3509Z" fill="white"/>
<path d="M32.5224 79.8579H30.0256V82.3509H32.5224V79.8579Z" fill="white"/>
<path d="M32.5224 77.3623H30.0256V79.8579H32.5224V77.3623Z" fill="white"/>
<path d="M32.5224 74.8693H30.0256V77.3623H32.5224V74.8693Z" fill="#131415"/>
<path d="M32.5224 72.3763H30.0256V74.8693H32.5224V72.3763Z" fill="#131415"/>
<path d="M32.5224 69.8833H30.0256V72.3763H32.5224V69.8833Z" fill="#131415"/>
<path d="M32.5224 67.3903H30.0256V69.8833H32.5224V67.3903Z" fill="#131415"/>
<path d="M32.5224 64.8948H30.0256V67.3903H32.5224V64.8948Z" fill="#131415"/>
<path d="M32.5224 62.4017H30.0256V64.8948H32.5224V62.4017Z" fill="#131415"/>
<path d="M32.5224 59.9087H30.0256V62.4017H32.5224V59.9087Z" fill="#131415"/>
<path d="M32.5224 57.4157H30.0256V59.9087H32.5224V57.4157Z" fill="#131415"/>
<path d="M32.5224 47.4412H30.0256V49.9342H32.5224V47.4412Z" fill="#131415"/>
<path d="M32.5224 44.9482H30.0256V47.4412H32.5224V44.9482Z" fill="#131415"/>
<path d="M32.5224 42.4552H30.0256V44.9482H32.5224V42.4552Z" fill="white"/>
<path d="M32.5224 39.9596H30.0256V42.4552H32.5224V39.9596Z" fill="#131415"/>
<path d="M32.5224 37.4666H30.0256V39.9596H32.5224V37.4666Z" fill="white"/>
<path d="M32.5224 34.9736H30.0256V37.4666H32.5224V34.9736Z" fill="white"/>
<path d="M32.5224 32.4806H30.0256V34.9736H32.5224V32.4806Z" fill="white"/>
<path d="M32.5224 29.9876H30.0256V32.4806H32.5224V29.9876Z" fill="#131415"/>
<path d="M32.5224 27.4946H30.0256V29.9876H32.5224V27.4946Z" fill="#131415"/>
<path d="M32.5224 24.999H30.0256V27.4946H32.5224V24.999Z" fill="#131415"/>
<path d="M32.5224 22.506H30.0256V24.999H32.5224V22.506Z" fill="#131415"/>
<path d="M32.5224 20.013H30.0256V22.506H32.5224V20.013Z" fill="#131415"/>
<path d="M32.5224 17.52H30.0256V20.013H32.5224V17.52Z" fill="#131415"/>
<path d="M32.5224 15.027H30.0256V17.52H32.5224V15.027Z" fill="#131415"/>
<path d="M32.5224 12.5314H30.0256V15.027H32.5224V12.5314Z" fill="#131415"/>
<path d="M32.5224 10.0384H30.0256V12.5314H32.5224V10.0384Z" fill="#131415"/>
<path d="M32.5224 7.54541H30.0256V10.0384H32.5224V7.54541Z" fill="#131415"/>
<path d="M32.5224 5.05241H30.0256V7.54541H32.5224V5.05241Z" fill="#131415"/>
<path d="M32.5224 2.5594H30.0256V5.05241H32.5224V2.5594Z" fill="#131415"/>
<path d="M32.5224 0.0638428H30.0256V2.5594H32.5224V0.0638428Z" fill="#131415"/>
<path d="M30.0256 92.3229H27.5288V94.8185H30.0256V92.3229Z" fill="#131415"/>
<path d="M30.0256 89.8299H27.5288V92.3229H30.0256V89.8299Z" fill="#131415"/>
<path d="M30.0256 87.3369H27.5288V89.8299H30.0256V87.3369Z" fill="white"/>
<path d="M30.0256 84.8439H27.5288V87.3369H30.0256V84.8439Z" fill="white"/>
<path d="M30.0256 82.3509H27.5288V84.8439H30.0256V82.3509Z" fill="white"/>
<path d="M30.0256 79.8579H27.5288V82.3509H30.0256V79.8579Z" fill="white"/>
<path d="M30.0256 77.3623H27.5288V79.8579H30.0256V77.3623Z" fill="white"/>
<path d="M30.0256 74.8693H27.5288V77.3623H30.0256V74.8693Z" fill="white"/>
<path d="M30.0256 72.3763H27.5288V74.8693H30.0256V72.3763Z" fill="#131415"/>
<path d="M30.0256 69.8833H27.5288V72.3763H30.0256V69.8833Z" fill="#131415"/>
<path d="M30.0256 67.3903H27.5288V69.8833H30.0256V67.3903Z" fill="#131415"/>
<path d="M30.0256 64.8948H27.5288V67.3903H30.0256V64.8948Z" fill="#131415"/>
<path d="M30.0256 62.4017H27.5288V64.8948H30.0256V62.4017Z" fill="#131415"/>
<path d="M30.0256 59.9087H27.5288V62.4017H30.0256V59.9087Z" fill="#131415"/>
<path d="M30.0256 44.9482H27.5288V47.4412H30.0256V44.9482Z" fill="#131415"/>
<path d="M30.0256 42.4552H27.5288V44.9482H30.0256V42.4552Z" fill="#131415"/>
<path d="M30.0256 39.9596H27.5288V42.4552H30.0256V39.9596Z" fill="#131415"/>
<path d="M30.0256 37.4666H27.5288V39.9596H30.0256V37.4666Z" fill="white"/>
<path d="M30.0256 34.9736H27.5288V37.4666H30.0256V34.9736Z" fill="white"/>
<path d="M30.0256 32.4806H27.5288V34.9736H30.0256V32.4806Z" fill="#131415"/>
<path d="M30.0256 29.9876H27.5288V32.4806H30.0256V29.9876Z" fill="#131415"/>
<path d="M27.5288 89.8299H25.032V92.3229H27.5288V89.8299Z" fill="#131415"/>
<path d="M27.5288 87.3369H25.032V89.8299H27.5288V87.3369Z" fill="#131415"/>
<path d="M27.5288 84.8439H25.032V87.3369H27.5288V84.8439Z" fill="white"/>
<path d="M27.5288 82.3509H25.032V84.8439H27.5288V82.3509Z" fill="white"/>
<path d="M27.5288 79.8579H25.032V82.3509H27.5288V79.8579Z" fill="white"/>
<path d="M27.5288 77.3623H25.032V79.8579H27.5288V77.3623Z" fill="white"/>
<path d="M27.5288 74.8693H25.032V77.3623H27.5288V74.8693Z" fill="white"/>
<path d="M27.5288 72.3763H25.032V74.8693H27.5288V72.3763Z" fill="white"/>
<path d="M27.5288 69.8833H25.032V72.3763H27.5288V69.8833Z" fill="#131415"/>
<path d="M27.5288 67.3903H25.032V69.8833H27.5288V67.3903Z" fill="#131415"/>
<path d="M27.5288 64.8948H25.032V67.3903H27.5288V64.8948Z" fill="#131415"/>
<path d="M27.5288 44.9482H25.032V47.4412H27.5288V44.9482Z" fill="#131415"/>
<path d="M27.5288 42.4552H25.032V44.9482H27.5288V42.4552Z" fill="#131415"/>
<path d="M27.5288 39.9596H25.032V42.4552H27.5288V39.9596Z" fill="#131415"/>
<path d="M27.5288 37.4666H25.032V39.9596H27.5288V37.4666Z" fill="#131415"/>
<path d="M27.5288 34.9736H25.032V37.4666H27.5288V34.9736Z" fill="#131415"/>
<path d="M27.5288 32.4806H25.032V34.9736H27.5288V32.4806Z" fill="#131415"/>
<path d="M25.032 87.3369H22.5352V89.8299L25.032 89.8299V87.3369Z" fill="#131415"/>
<path d="M25.032 84.8439H22.5352V87.3369H25.032V84.8439Z" fill="white"/>
<path d="M25.032 82.3509H22.5352V84.8439H25.032V82.3509Z" fill="white"/>
<path d="M25.032 79.8579H22.5352V82.3509H25.032V79.8579Z" fill="white"/>
<path d="M25.032 77.3623H22.5352V79.8579H25.032V77.3623Z" fill="white"/>
<path d="M25.032 74.8693H22.5352V77.3623H25.032V74.8693Z" fill="white"/>
<path d="M25.032 72.3763H22.5352V74.8693H25.032V72.3763Z" fill="#131415"/>
<path d="M25.032 69.8833H22.5352V72.3763H25.032V69.8833Z" fill="#131415"/>
<path d="M25.032 44.9482H22.5352V47.4412H25.032V44.9482Z" fill="#131415"/>
<path d="M25.032 39.9596H22.5352V42.4551L25.032 42.4552V39.9596Z" fill="#131415"/>
<path d="M22.5352 84.8439H20.0384V87.3369L22.5352 87.3369V84.8439Z" fill="#131415"/>
<path d="M22.5352 82.3509H20.0384V84.8439H22.5352V82.3509Z" fill="white"/>
<path d="M22.5352 79.8579H20.0384V82.3509H22.5352V79.8579Z" fill="white"/>
<path d="M22.5352 77.3623H20.0384V79.8579H22.5352V77.3623Z" fill="white"/>
<path d="M22.5352 74.8693H20.0384V77.3623H22.5352V74.8693Z" fill="#131415"/>
<path d="M22.5352 72.3763H20.0384V74.8693H22.5352V72.3763Z" fill="#131415"/>
<path d="M22.5352 44.9482H20.0384V47.4412H22.5352V44.9482Z" fill="#131415"/>
<path d="M22.5352 39.9596H20.0384V42.4551H22.5352V39.9596Z" fill="#131415"/>
<path d="M20.0384 84.8439H17.5416V87.3369H20.0384V84.8439Z" fill="#131415"/>
<path d="M20.0384 82.3509H17.5416V84.8439H20.0384V82.3509Z" fill="#131415"/>
<path d="M20.0384 79.8579H17.5416V82.3509H20.0384V79.8579Z" fill="white"/>
<path d="M20.0384 77.3623H17.5416V79.8579H20.0384V77.3623Z" fill="white"/>
<path d="M20.0384 74.8693H17.5416V77.3623H20.0384V74.8693Z" fill="white"/>
<path d="M20.0384 72.3763H17.5416V74.8693H20.0384V72.3763Z" fill="#131415"/>
<path d="M20.0384 69.8833H17.5416V72.3763H20.0384V69.8833Z" fill="#131415"/>
<path d="M20.0384 39.9596H17.5416V42.4551H20.0384V39.9596Z" fill="#131415"/>
<path d="M17.5416 82.3509H15.0448V84.8439H17.5416V82.3509Z" fill="#131415"/>
<path d="M17.5416 79.8579H15.0448V82.3509H17.5416V79.8579Z" fill="#131415"/>
<path d="M17.5416 77.3623H15.0448V79.8579H17.5416V77.3623Z" fill="white"/>
<path d="M17.5416 74.8693H15.0448V77.3623H17.5416V74.8693Z" fill="white"/>
<path d="M17.5416 72.3763H15.0448V74.8693H17.5416V72.3763Z" fill="white"/>
<path d="M17.5416 69.8833H15.0448V72.3763H17.5416V69.8833Z" fill="#131415"/>
<path d="M17.5416 67.3903H15.0448V69.8833H17.5416V67.3903Z" fill="#131415"/>
<path d="M17.5416 64.8948H15.0448V67.3903H17.5416V64.8948Z" fill="#131415"/>
<path d="M17.5416 62.4017H15.0448V64.8948H17.5416V62.4017Z" fill="#131415"/>
<path d="M17.5416 59.9087H15.0448V62.4017H17.5416V59.9087Z" fill="#131415"/>
<path d="M17.5416 57.4157H15.0448V59.9087H17.5416V57.4157Z" fill="#131415"/>
<path d="M17.5416 54.9227H15.0448V57.4157H17.5416V54.9227Z" fill="#131415"/>
<path d="M17.5416 52.4272H15.0448V54.9227H17.5416V52.4272Z" fill="#131415"/>
<path d="M17.5416 49.9342H15.0448V52.4272H17.5416V49.9342Z" fill="#131415"/>
<path d="M17.5416 47.4412H15.0448V49.9342H17.5416V47.4412Z" fill="#131415"/>
<path d="M15.0448 79.8579H12.548V82.3509L15.0448 82.3509V79.8579Z" fill="#131415"/>
<path d="M15.0448 77.3623H12.548V79.8579H15.0448V77.3623Z" fill="#131415"/>
<path d="M15.0448 74.8693H12.548V77.3623H15.0448V74.8693Z" fill="white"/>
<path d="M15.0448 72.3763H12.548V74.8693H15.0448V72.3763Z" fill="white"/>
<path d="M15.0448 69.8833H12.548V72.3763H15.0448V69.8833Z" fill="white"/>
<path d="M15.0448 67.3903H12.548V69.8833H15.0448V67.3903Z" fill="white"/>
<path d="M15.0448 64.8948H12.548V67.3903H15.0448V64.8948Z" fill="white"/>
<path d="M15.0448 62.4017H12.548V64.8948H15.0448V62.4017Z" fill="white"/>
<path d="M15.0448 59.9087H12.548V62.4017H15.0448V59.9087Z" fill="white"/>
<path d="M15.0448 57.4157H12.548V59.9087H15.0448V57.4157Z" fill="white"/>
<path d="M15.0448 54.9227H12.548V57.4157H15.0448V54.9227Z" fill="white"/>
<path d="M15.0448 52.4272H12.548V54.9227H15.0448V52.4272Z" fill="white"/>
<path d="M15.0448 49.9342H12.548V52.4272H15.0448V49.9342Z" fill="white"/>
<path d="M15.0448 47.4412H12.548V49.9342H15.0448V47.4412Z" fill="#131415"/>
<path d="M15.0448 44.9482H12.548V47.4412H15.0448V44.9482Z" fill="#131415"/>
<path d="M12.548 77.3623H10.0512V79.8579H12.548V77.3623Z" fill="#131415"/>
<path d="M12.548 74.8693H10.0512V77.3623H12.548V74.8693Z" fill="#131415"/>
<path d="M12.548 72.3763H10.0512V74.8693H12.548V72.3763Z" fill="#131415"/>
<path d="M12.548 69.8833H10.0512V72.3763H12.548V69.8833Z" fill="white"/>
<path d="M12.548 67.3903H10.0512V69.8833H12.548V67.3903Z" fill="white"/>
<path d="M12.548 64.8948H10.0512V67.3903H12.548V64.8948Z" fill="white"/>
<path d="M12.548 62.4017H10.0512V64.8948H12.548V62.4017Z" fill="white"/>
<path d="M12.548 59.9087H10.0512V62.4017H12.548V59.9087Z" fill="white"/>
<path d="M12.548 57.4157H10.0512V59.9087H12.548V57.4157Z" fill="white"/>
<path d="M12.548 54.9227H10.0512V57.4157H12.548V54.9227Z" fill="white"/>
<path d="M12.548 52.4272H10.0512V54.9227H12.548V52.4272Z" fill="white"/>
<path d="M12.548 49.9342H10.0512V52.4272H12.548V49.9342Z" fill="white"/>
<path d="M12.548 47.4412H10.0512V49.9342H12.548V47.4412Z" fill="white"/>
<path d="M12.548 44.9482H10.0512V47.4412H12.548V44.9482Z" fill="#131415"/>
<path d="M10.0512 72.3763H7.55442V74.8693L10.0512 74.8693V72.3763Z" fill="#131415"/>
<path d="M10.0512 69.8833H7.55442V72.3763H10.0512V69.8833Z" fill="#131415"/>
<path d="M10.0512 67.3903H7.55442V69.8833H10.0512V67.3903Z" fill="#131415"/>
<path d="M10.0512 64.8948H7.55442V67.3903H10.0512V64.8948Z" fill="white"/>
<path d="M10.0512 62.4017H7.55442V64.8948H10.0512V62.4017Z" fill="white"/>
<path d="M10.0512 59.9087H7.55442V62.4017H10.0512V59.9087Z" fill="white"/>
<path d="M10.0512 57.4157H7.55442V59.9087H10.0512V57.4157Z" fill="white"/>
<path d="M10.0512 54.9227H7.55442V57.4157H10.0512V54.9227Z" fill="white"/>
<path d="M10.0512 52.4272H7.55442V54.9227H10.0512V52.4272Z" fill="white"/>
<path d="M10.0512 49.9342H7.55442V52.4272H10.0512V49.9342Z" fill="white"/>
<path d="M10.0512 47.4412H7.55442V49.9342H10.0512V47.4412Z" fill="#131415"/>
<path d="M10.0512 44.9482H7.55442V47.4412H10.0512V44.9482Z" fill="#131415"/>
<path d="M7.55442 67.3903H5.05762V69.8833H7.55442V67.3903Z" fill="#131415"/>
<path d="M7.55442 64.8948H5.05762V67.3903H7.55442V64.8948Z" fill="#131415"/>
<path d="M7.55442 62.4017H5.05762V64.8948H7.55442V62.4017Z" fill="#131415"/>
<path d="M7.55442 59.9087H5.05762V62.4017H7.55442V59.9087Z" fill="#131415"/>
<path d="M7.55442 57.4157H5.05762V59.9087H7.55442V57.4157Z" fill="#131415"/>
<path d="M7.55442 54.9227H5.05762V57.4157H7.55442V54.9227Z" fill="#131415"/>
<path d="M7.55442 52.4272H5.05762V54.9227H7.55442V52.4272Z" fill="#131415"/>
<path d="M7.55442 49.9342H5.05762V52.4272H7.55442V49.9342Z" fill="#131415"/>
<path d="M7.55442 47.4412H5.05762V49.9342H7.55442V47.4412Z" fill="#131415"/>
</svg>
