<svg width="81" height="80" viewBox="0 0 81 80" fill="none" xmlns="http://www.w3.org/2000/svg">
<path d="M6.07854 49.6399H8.83362V52.3921H6.07854V49.6399Z" fill="#FFD44D"/>
<path d="M6.07854 46.8871H8.83362V49.6422H6.07854V46.8871Z" fill="#FFD44D"/>
<path d="M6.07854 44.1344H8.83362V46.8866H6.07854V44.1344Z" fill="#FFD44D"/>
<path d="M6.07854 41.3816H8.83362V44.1367H6.07854V41.3816Z" fill="#FFD44D"/>
<path d="M6.07854 38.623H8.83362V41.3781H6.07854V38.623Z" fill="#FFD44D"/>
<path d="M6.07854 35.8704H8.83362V38.6226H6.07854V35.8704Z" fill="#FFD44D"/>
<path d="M6.07854 33.1176H8.83362V35.8726H6.07854V33.1176Z" fill="#FFD44D"/>
<path d="M6.07854 30.3649H8.83362V33.1171H6.07854V30.3649Z" fill="#FFD44D"/>
<path d="M6.07854 27.6091H8.83362V30.3642H6.07854V27.6091Z" fill="#FFD44D"/>
<path d="M8.8331 55.1482H11.5853V57.9004H8.8331V55.1482Z" fill="#FFD44D"/>
<path d="M8.8331 52.3926H11.5853V55.1477H8.8331V52.3926Z" fill="#FFD44D"/>
<path d="M8.8331 49.6399H11.5853V52.3921H8.8331V49.6399Z" fill="#FFD44D"/>
<path d="M8.8331 46.8871H11.5853V49.6422H8.8331V46.8871Z" fill="#FFD44D"/>
<path d="M8.8331 44.1344H11.5853V46.8866H8.8331V44.1344Z" fill="#FFD44D"/>
<path d="M8.8331 41.3816H11.5853V44.1367H8.8331V41.3816Z" fill="#FFD44D"/>
<path d="M8.8331 38.623H11.5853V41.3781H8.8331V38.623Z" fill="#FFD44D"/>
<path d="M8.8331 35.8704H11.5853V38.6226H8.8331V35.8704Z" fill="#FFD44D"/>
<path d="M8.8331 33.1176H11.5853V35.8726H8.8331V33.1176Z" fill="#FFD44D"/>
<path d="M8.8331 30.3649H11.5853V33.1171H8.8331V30.3649Z" fill="#FFD44D"/>
<path d="M8.8331 27.6091H11.5853V30.3642H8.8331V27.6091Z" fill="#FFD44D"/>
<path d="M8.8331 24.8564H11.5853V27.6087H8.8331V24.8564Z" fill="#FFD44D"/>
<path d="M8.8331 22.1036H11.5853V24.8587H8.8331V22.1036Z" fill="#FFD44D"/>
<path d="M11.5851 57.901H14.3402V60.6561H11.5851V57.901Z" fill="#FFD44D"/>
<path d="M11.5851 55.1482H14.3402V57.9004H11.5851V55.1482Z" fill="#FFD44D"/>
<path d="M11.5851 52.3926H14.3402V55.1477H11.5851V52.3926Z" fill="#FFD44D"/>
<path d="M11.5851 49.6399H14.3402V52.3921H11.5851V49.6399Z" fill="#FFD44D"/>
<path d="M11.5851 46.8871H14.3402V49.6422H11.5851V46.8871Z" fill="#FFD44D"/>
<path d="M11.5851 44.1344H14.3402V46.8866H11.5851V44.1344Z" fill="#FFD44D"/>
<path d="M11.5851 41.3816H14.3402V44.1367H11.5851V41.3816Z" fill="#FFD44D"/>
<path d="M11.5851 38.623H14.3402V41.3781H11.5851V38.623Z" fill="#FFD44D"/>
<path d="M11.5851 35.8704H14.3402V38.6226H11.5851V35.8704Z" fill="#FFD44D"/>
<path d="M11.5851 33.1176H14.3402V35.8726H11.5851V33.1176Z" fill="#FFD44D"/>
<path d="M11.5851 30.3649H14.3402V33.1171H11.5851V30.3649Z" fill="#FFD44D"/>
<path d="M11.5851 27.6091H14.3402V30.3642H11.5851V27.6091Z" fill="#FFD44D"/>
<path d="M11.5851 24.8564H14.3402V27.6087H11.5851V24.8564Z" fill="#FFD44D"/>
<path d="M11.5851 22.1036H14.3402V24.8587H11.5851V22.1036Z" fill="#FFD44D"/>
<path d="M11.5851 19.351H14.3402V22.1032H11.5851V19.351Z" fill="#FFD44D"/>
<path d="M14.3414 60.6566H17.0936V63.4088H14.3414V60.6566Z" fill="#FFD44D"/>
<path d="M14.3414 57.901H17.0936V60.6561H14.3414V57.901Z" fill="#FFD44D"/>
<path d="M14.3414 55.1482H17.0936V57.9004H14.3414V55.1482Z" fill="#FFD44D"/>
<path d="M14.3414 52.3926H17.0936V55.1477H14.3414V52.3926Z" fill="#FFD44D"/>
<path d="M14.3414 49.6399H17.0936V52.3921H14.3414V49.6399Z" fill="#FFD44D"/>
<path d="M14.3414 46.8871H17.0936V49.6422H14.3414V46.8871Z" fill="#FFD44D"/>
<path d="M14.3414 44.1344H17.0936V46.8866H14.3414V44.1344Z" fill="#FFD44D"/>
<path d="M14.3414 41.3816H17.0936V44.1367H14.3414V41.3816Z" fill="#FFD44D"/>
<path d="M14.3414 38.623H17.0936V41.3781H14.3414V38.623Z" fill="#FFD44D"/>
<path d="M14.3414 35.8704H17.0936V38.6226H14.3414V35.8704Z" fill="#FFD44D"/>
<path d="M14.3414 33.1176H17.0936V35.8726H14.3414V33.1176Z" fill="#FFD44D"/>
<path d="M14.3414 30.3649H17.0936V33.1171H14.3414V30.3649Z" fill="#FFD44D"/>
<path d="M14.3414 27.6091H17.0936V30.3642H14.3414V27.6091Z" fill="#FFD44D"/>
<path d="M14.3414 24.8564H17.0936V27.6087H14.3414V24.8564Z" fill="#FFD44D"/>
<path d="M14.3414 22.1036H17.0936V24.8587H14.3414V22.1036Z" fill="#FFD44D"/>
<path d="M14.3414 19.351H17.0936V22.1032H14.3414V19.351Z" fill="#FFD44D"/>
<path d="M14.3414 16.5924H17.0936V19.3475H14.3414V16.5924Z" fill="#FFD44D"/>
<path d="M17.0936 63.4065H19.8486V66.1616H17.0936V63.4065Z" fill="#FFD44D"/>
<path d="M17.0936 60.6566H19.8486V63.4088H17.0936V60.6566Z" fill="#FFD44D"/>
<path d="M17.0936 57.901H19.8486V60.6561H17.0936V57.901Z" fill="#FFD44D"/>
<path d="M17.0936 55.1482H19.8486V57.9004H17.0936V55.1482Z" fill="#FFD44D"/>
<path d="M17.0936 52.3926H19.8486V55.1477H17.0936V52.3926Z" fill="#FFD44D"/>
<path d="M17.0936 49.6399H19.8486V52.3921H17.0936V49.6399Z" fill="#FFD44D"/>
<path d="M17.0936 46.8871H19.8486V49.6422H17.0936V46.8871Z" fill="#FFD44D"/>
<path d="M17.0936 44.1344H19.8486V46.8866H17.0936V44.1344Z" fill="#FFD44D"/>
<path d="M17.0936 41.3816H19.8486V44.1367H17.0936V41.3816Z" fill="#FFD44D"/>
<path d="M17.0936 38.623H19.8486V41.3781H17.0936V38.623Z" fill="#FFD44D"/>
<path d="M17.0936 35.8704H19.8486V38.6226H17.0936V35.8704Z" fill="#FFD44D"/>
<path d="M17.0936 33.1176H19.8486V35.8726H17.0936V33.1176Z" fill="#FFD44D"/>
<path d="M17.0936 30.3649H19.8486V33.1171H17.0936V30.3649Z" fill="#FFD44D"/>
<path d="M17.0936 27.6091H19.8486V30.3642H17.0936V27.6091Z" fill="#FFD44D"/>
<path d="M17.0936 24.8564H19.8486V27.6087H17.0936V24.8564Z" fill="#FFD44D"/>
<path d="M17.0936 22.1036H19.8486V24.8587H17.0936V22.1036Z" fill="#FFD44D"/>
<path d="M17.0936 19.351H19.8486V22.1032H17.0936V19.351Z" fill="#FFD44D"/>
<path d="M17.0936 16.5924H19.8486V19.3475H17.0936V16.5924Z" fill="#FFD44D"/>
<path d="M17.0936 13.8425H19.8486V16.5948H17.0936V13.8425Z" fill="#FFD44D"/>
<path d="M19.848 66.165H22.6002V68.9173H19.848V66.165Z" fill="#FFD44D"/>
<path d="M19.848 63.4065H22.6002V66.1616H19.848V63.4065Z" fill="#FFD44D"/>
<path d="M19.848 60.6566H22.6002V63.4088H19.848V60.6566Z" fill="#FFD44D"/>
<path d="M19.848 57.901H22.6002V60.6561H19.848V57.901Z" fill="#FFD44D"/>
<path d="M19.848 55.1482H22.6002V57.9004H19.848V55.1482Z" fill="#FFD44D"/>
<path d="M19.848 52.3926H22.6002V55.1477H19.848V52.3926Z" fill="#FFD44D"/>
<path d="M19.848 49.6399H22.6002V52.3921H19.848V49.6399Z" fill="#FFD44D"/>
<path d="M19.848 46.8871H22.6002V49.6422H19.848V46.8871Z" fill="#FFD44D"/>
<path d="M19.848 44.1344H22.6002V46.8866H19.848V44.1344Z" fill="#FFD44D"/>
<path d="M19.848 41.3816H22.6002V44.1367H19.848V41.3816Z" fill="#FFD44D"/>
<path d="M19.848 38.623H22.6002V41.3781H19.848V38.623Z" fill="#FFD44D"/>
<path d="M19.848 35.8704H22.6002V38.6226H19.848V35.8704Z" fill="#FFD44D"/>
<path d="M19.848 33.1176H22.6002V35.8726H19.848V33.1176Z" fill="#FFD44D"/>
<path d="M19.848 30.3649H22.6002V33.1171H19.848V30.3649Z" fill="#FFD44D"/>
<path d="M19.848 27.6091H22.6002V30.3642H19.848V27.6091Z" fill="#FFD44D"/>
<path d="M19.848 24.8564H22.6002V27.6087H19.848V24.8564Z" fill="#FFD44D"/>
<path d="M19.848 22.1036H22.6002V24.8587H19.848V22.1036Z" fill="#FFD44D"/>
<path d="M19.848 19.351H22.6002V22.1032H19.848V19.351Z" fill="#FFD44D"/>
<path d="M19.848 16.5924H22.6002V19.3475H19.848V16.5924Z" fill="#FFD44D"/>
<path d="M19.848 13.8425H22.6002V16.5948H19.848V13.8425Z" fill="#FFD44D"/>
<path d="M19.848 11.0869H22.6002V13.842H19.848V11.0869Z" fill="#FFD44D"/>
<path d="M22.6001 68.9149H25.3552V71.67H22.6001V68.9149Z" fill="#FFD44D"/>
<path d="M22.6001 66.165H25.3552V68.9173H22.6001V66.165Z" fill="#FFD44D"/>
<path d="M22.6001 63.4065H25.3552V66.1616H22.6001V63.4065Z" fill="#FFD44D"/>
<path d="M22.6001 60.6566H25.3552V63.4088H22.6001V60.6566Z" fill="#FFD44D"/>
<path d="M22.6001 57.901H25.3552V60.6561H22.6001V57.901Z" fill="#FFD44D"/>
<path d="M22.6001 55.1482H25.3552V57.9004H22.6001V55.1482Z" fill="#FFD44D"/>
<path d="M22.6001 52.3926H25.3552V55.1477H22.6001V52.3926Z" fill="#FFD44D"/>
<path d="M22.6001 49.6399H25.3552V52.3921H22.6001V49.6399Z" fill="#FFD44D"/>
<path d="M22.6001 46.8871H25.3552V49.6422H22.6001V46.8871Z" fill="#FFD44D"/>
<path d="M22.6001 44.1344H25.3552V46.8866H22.6001V44.1344Z" fill="#FFD44D"/>
<path d="M22.6001 41.3816H25.3552V44.1367H22.6001V41.3816Z" fill="#FFD44D"/>
<path d="M22.6001 38.623H25.3552V41.3781H22.6001V38.623Z" fill="#FFD44D"/>
<path d="M22.6001 35.8704H25.3552V38.6226H22.6001V35.8704Z" fill="#FFD44D"/>
<path d="M22.6001 33.1176H25.3552V35.8726H22.6001V33.1176Z" fill="#FFD44D"/>
<path d="M22.6001 30.3649H25.3552V33.1171H22.6001V30.3649Z" fill="#FFD44D"/>
<path d="M22.6001 27.6091H25.3552V30.3642H22.6001V27.6091Z" fill="#FFD44D"/>
<path d="M22.6001 24.8564H25.3552V27.6087H22.6001V24.8564Z" fill="#FFD44D"/>
<path d="M22.6001 22.1036H25.3552V24.8587H22.6001V22.1036Z" fill="#FFD44D"/>
<path d="M22.6001 19.351H25.3552V22.1032H22.6001V19.351Z" fill="#FFD44D"/>
<path d="M22.6001 16.5924H25.3552V19.3475H22.6001V16.5924Z" fill="#FFD44D"/>
<path d="M22.6001 13.8425H25.3552V16.5948H22.6001V13.8425Z" fill="#FFD44D"/>
<path d="M22.6001 11.0869H25.3552V13.842H22.6001V11.0869Z" fill="#FFD44D"/>
<path d="M22.6001 8.33411H25.3552V11.0863H22.6001V8.33411Z" fill="#FFD44D"/>
<path d="M25.3564 71.6705H28.1086V74.4228H25.3564V71.6705Z" fill="#FFD44D"/>
<path d="M25.3564 68.9149H28.1086V71.67H25.3564V68.9149Z" fill="#FFD44D"/>
<path d="M25.3564 66.165H28.1086V68.9173H25.3564V66.165Z" fill="#FFD44D"/>
<path d="M25.3564 63.4065H28.1086V66.1616H25.3564V63.4065Z" fill="#FFD44D"/>
<path d="M25.3564 60.6566H28.1086V63.4088H25.3564V60.6566Z" fill="#FFD44D"/>
<path d="M25.3564 57.901H28.1086V60.6561H25.3564V57.901Z" fill="#FFD44D"/>
<path d="M25.3564 55.1482H28.1086V57.9004H25.3564V55.1482Z" fill="#FFD44D"/>
<path d="M25.3564 52.3926H28.1086V55.1477H25.3564V52.3926Z" fill="#FFD44D"/>
<path d="M25.3564 49.6399H28.1086V52.3921H25.3564V49.6399Z" fill="#FFD44D"/>
<path d="M25.3564 46.8871H28.1086V49.6422H25.3564V46.8871Z" fill="#FFD44D"/>
<path d="M25.3564 44.1344H28.1086V46.8866H25.3564V44.1344Z" fill="#FFD44D"/>
<path d="M25.3564 41.3816H28.1086V44.1367H25.3564V41.3816Z" fill="#FFD44D"/>
<path d="M25.3564 38.623H28.1086V41.3781H25.3564V38.623Z" fill="#FFD44D"/>
<path d="M25.3564 35.8704H28.1086V38.6226H25.3564V35.8704Z" fill="#FFD44D"/>
<path d="M25.3564 33.1176H28.1086V35.8726H25.3564V33.1176Z" fill="#FFD44D"/>
<path d="M25.3564 30.3649H28.1086V33.1171H25.3564V30.3649Z" fill="#FFD44D"/>
<path d="M25.3564 27.6091H28.1086V30.3642H25.3564V27.6091Z" fill="#FFD44D"/>
<path d="M25.3564 24.8564H28.1086V27.6087H25.3564V24.8564Z" fill="#FFD44D"/>
<path d="M25.3564 22.1036H28.1086V24.8587H25.3564V22.1036Z" fill="#FFD44D"/>
<path d="M25.3564 19.351H28.1086V22.1032H25.3564V19.351Z" fill="#FFD44D"/>
<path d="M25.3564 16.5924H28.1086V19.3475H25.3564V16.5924Z" fill="#FFD44D"/>
<path d="M25.3564 13.8425H28.1086V16.5948H25.3564V13.8425Z" fill="#FFD44D"/>
<path d="M25.3564 11.0869H28.1086V13.842H25.3564V11.0869Z" fill="#FFD44D"/>
<path d="M25.3564 8.33411H28.1086V11.0863H25.3564V8.33411Z" fill="#FFD44D"/>
<path d="M28.1071 71.6705H30.8622V74.4228H28.1071V71.6705Z" fill="#FBBF00"/>
<path d="M28.1071 68.9149H30.8622V71.67H28.1071V68.9149Z" fill="#FBBF00"/>
<path d="M28.1071 66.165H30.8622V68.9173H28.1071V66.165Z" fill="#FBBF00"/>
<path d="M28.1071 63.4065H30.8622V66.1616H28.1071V63.4065Z" fill="#FBBF00"/>
<path d="M28.1071 60.6566H30.8622V63.4088H28.1071V60.6566Z" fill="#FBBF00"/>
<path d="M28.1071 57.901H30.8622V60.6561H28.1071V57.901Z" fill="#FBBF00"/>
<path d="M28.1071 55.1482H30.8622V57.9004H28.1071V55.1482Z" fill="#FBBF00"/>
<path d="M28.1071 52.3926H30.8622V55.1477H28.1071V52.3926Z" fill="#FBBF00"/>
<path d="M28.1071 49.6399H30.8622V52.3921H28.1071V49.6399Z" fill="#FBBF00"/>
<path d="M28.1071 46.8871H30.8622V49.6422H28.1071V46.8871Z" fill="#FBBF00"/>
<path d="M28.1071 44.1344H30.8622V46.8866H28.1071V44.1344Z" fill="#FBBF00"/>
<path d="M28.1071 41.3816H30.8622V44.1367H28.1071V41.3816Z" fill="#FBBF00"/>
<path d="M28.1071 38.623H30.8622V41.3781H28.1071V38.623Z" fill="#FBBF00"/>
<path d="M28.1071 35.8704H30.8622V38.6226H28.1071V35.8704Z" fill="#FBBF00"/>
<path d="M28.1071 33.1176H30.8622V35.8726H28.1071V33.1176Z" fill="#FBBF00"/>
<path d="M28.1071 30.3649H30.8622V33.1171H28.1071V30.3649Z" fill="#FBBF00"/>
<path d="M28.1071 27.6091H30.8622V30.3642H28.1071V27.6091Z" fill="#FBBF00"/>
<path d="M28.1071 24.8564H30.8622V27.6087H28.1071V24.8564Z" fill="#FBBF00"/>
<path d="M28.1071 22.1036H30.8622V24.8587H28.1071V22.1036Z" fill="#FBBF00"/>
<path d="M28.1071 19.351H30.8622V22.1032H28.1071V19.351Z" fill="#FBBF00"/>
<path d="M28.1071 16.5924H30.8622V19.3475H28.1071V16.5924Z" fill="#FBBF00"/>
<path d="M28.1071 13.8425H30.8622V16.5948H28.1071V13.8425Z" fill="#FBBF00"/>
<path d="M28.1071 11.0869H30.8622V13.842H28.1071V11.0869Z" fill="#FBBF00"/>
<path d="M28.1071 8.33411H30.8622V11.0863H28.1071V8.33411Z" fill="#FBBF00"/>
<path d="M28.1071 5.58142H30.8622V8.3365H28.1071V5.58142Z" fill="#FBBF00"/>
<path d="M30.863 74.4232H33.6152V77.1783H30.863V74.4232Z" fill="#FBBF00"/>
<path d="M30.863 71.6705H33.6152V74.4228H30.863V71.6705Z" fill="#FBBF00"/>
<path d="M30.863 68.9149H33.6152V71.67H30.863V68.9149Z" fill="#FBBF00"/>
<path d="M30.863 66.165H33.6152V68.9173H30.863V66.165Z" fill="#FBBF00"/>
<path d="M30.863 63.4065H33.6152V66.1616H30.863V63.4065Z" fill="#FBBF00"/>
<path d="M30.863 60.6566H33.6152V63.4088H30.863V60.6566Z" fill="#FBBF00"/>
<path d="M30.863 57.901H33.6152V60.6561H30.863V57.901Z" fill="#FBBF00"/>
<path d="M30.863 55.1482H33.6152V57.9004H30.863V55.1482Z" fill="#FBBF00"/>
<path d="M30.863 52.3926H33.6152V55.1477H30.863V52.3926Z" fill="#FBBF00"/>
<path d="M30.863 49.6399H33.6152V52.3921H30.863V49.6399Z" fill="#FBBF00"/>
<path d="M30.863 46.8871H33.6152V49.6422H30.863V46.8871Z" fill="#FBBF00"/>
<path d="M30.863 44.1344H33.6152V46.8866H30.863V44.1344Z" fill="#FBBF00"/>
<path d="M30.863 41.3816H33.6152V44.1367H30.863V41.3816Z" fill="#FBBF00"/>
<path d="M30.863 38.623H33.6152V41.3781H30.863V38.623Z" fill="#FBBF00"/>
<path d="M30.863 35.8704H33.6152V38.6226H30.863V35.8704Z" fill="#FBBF00"/>
<path d="M30.863 33.1176H33.6152V35.8726H30.863V33.1176Z" fill="#FBBF00"/>
<path d="M30.863 30.3649H33.6152V33.1171H30.863V30.3649Z" fill="#FBBF00"/>
<path d="M30.863 27.6091H33.6152V30.3642H30.863V27.6091Z" fill="#FBBF00"/>
<path d="M30.863 24.8564H33.6152V27.6087H30.863V24.8564Z" fill="#FBBF00"/>
<path d="M30.863 22.1036H33.6152V24.8587H30.863V22.1036Z" fill="#FBBF00"/>
<path d="M30.863 19.351H33.6152V22.1032H30.863V19.351Z" fill="#FBBF00"/>
<path d="M30.863 16.5924H33.6152V19.3475H30.863V16.5924Z" fill="#FBBF00"/>
<path d="M30.863 13.8425H33.6152V16.5948H30.863V13.8425Z" fill="#FBBF00"/>
<path d="M30.863 11.0869H33.6152V13.842H30.863V11.0869Z" fill="#FBBF00"/>
<path d="M30.863 8.33411H33.6152V11.0863H30.863V8.33411Z" fill="#FBBF00"/>
<path d="M30.863 5.58142H33.6152V8.3365H30.863V5.58142Z" fill="#FBBF00"/>
<path d="M30.863 2.82581H33.6152V5.57803H30.863V2.82581Z" fill="#FBBF00"/>
<path d="M33.6154 74.4232H36.3705V77.1783H33.6154V74.4232Z" fill="#FBBF00"/>
<path d="M33.6154 71.6705H36.3705V74.4228H33.6154V71.6705Z" fill="#FBBF00"/>
<path d="M33.6154 68.9149H36.3705V71.67H33.6154V68.9149Z" fill="#FBBF00"/>
<path d="M33.6154 66.165H36.3705V68.9173H33.6154V66.165Z" fill="#FBBF00"/>
<path d="M33.6154 63.4065H36.3705V66.1616H33.6154V63.4065Z" fill="#FBBF00"/>
<path d="M33.6154 60.6566H36.3705V63.4088H33.6154V60.6566Z" fill="#FBBF00"/>
<path d="M33.6154 57.901H36.3705V60.6561H33.6154V57.901Z" fill="#FBBF00"/>
<path d="M33.6154 55.1482H36.3705V57.9004H33.6154V55.1482Z" fill="#FBBF00"/>
<path d="M33.6154 52.3926H36.3705V55.1477H33.6154V52.3926Z" fill="#FBBF00"/>
<path d="M33.6154 49.6399H36.3705V52.3921H33.6154V49.6399Z" fill="#FBBF00"/>
<path d="M33.6154 46.8871H36.3705V49.6422H33.6154V46.8871Z" fill="#FBBF00"/>
<path d="M33.6154 44.1344H36.3705V46.8866H33.6154V44.1344Z" fill="#FBBF00"/>
<path d="M33.6154 41.3816H36.3705V44.1367H33.6154V41.3816Z" fill="#FBBF00"/>
<path d="M33.6154 38.623H36.3705V41.3781H33.6154V38.623Z" fill="#FBBF00"/>
<path d="M33.6154 35.8704H36.3705V38.6226H33.6154V35.8704Z" fill="#FBBF00"/>
<path d="M33.6154 33.1176H36.3705V35.8726H33.6154V33.1176Z" fill="#FBBF00"/>
<path d="M33.6154 30.3649H36.3705V33.1171H33.6154V30.3649Z" fill="#FBBF00"/>
<path d="M33.6154 27.6091H36.3705V30.3642H33.6154V27.6091Z" fill="#FBBF00"/>
<path d="M33.6154 24.8564H36.3705V27.6087H33.6154V24.8564Z" fill="#FBBF00"/>
<path d="M33.6154 22.1036H36.3705V24.8587H33.6154V22.1036Z" fill="#FBBF00"/>
<path d="M33.6154 19.351H36.3705V22.1032H33.6154V19.351Z" fill="#FBBF00"/>
<path d="M33.6154 16.5924H36.3705V19.3475H33.6154V16.5924Z" fill="#FBBF00"/>
<path d="M33.6154 13.8425H36.3705V16.5948H33.6154V13.8425Z" fill="#FBBF00"/>
<path d="M33.6154 11.0869H36.3705V13.842H33.6154V11.0869Z" fill="#FBBF00"/>
<path d="M33.6154 8.33411H36.3705V11.0863H33.6154V8.33411Z" fill="#FBBF00"/>
<path d="M33.6154 5.58142H36.3705V8.3365H33.6154V5.58142Z" fill="#FBBF00"/>
<path d="M33.6154 2.82581H36.3705V5.57803H33.6154V2.82581Z" fill="#FBBF00"/>
<path d="M36.3696 74.4232H39.1218V77.1783H36.3696V74.4232Z" fill="#FBBF00"/>
<path d="M36.3696 71.6705H39.1218V74.4228H36.3696V71.6705Z" fill="#FBBF00"/>
<path d="M36.3696 68.9149H39.1218V71.67H36.3696V68.9149Z" fill="#FBBF00"/>
<path d="M36.3696 66.165H39.1218V68.9173H36.3696V66.165Z" fill="#FBBF00"/>
<path d="M36.3696 63.4065H39.1218V66.1616H36.3696V63.4065Z" fill="#FBBF00"/>
<path d="M36.3696 60.6566H39.1218V63.4088H36.3696V60.6566Z" fill="#FBBF00"/>
<path d="M36.3696 57.901H39.1218V60.6561H36.3696V57.901Z" fill="#FBBF00"/>
<path d="M36.3696 55.1482H39.1218V57.9004H36.3696V55.1482Z" fill="#FBBF00"/>
<path d="M36.3696 52.3926H39.1218V55.1477H36.3696V52.3926Z" fill="#FBBF00"/>
<path d="M36.3696 49.6399H39.1218V52.3921H36.3696V49.6399Z" fill="#FBBF00"/>
<path d="M36.3696 46.8871H39.1218V49.6422H36.3696V46.8871Z" fill="#FBBF00"/>
<path d="M36.3696 44.1344H39.1218V46.8866H36.3696V44.1344Z" fill="#FBBF00"/>
<path d="M36.3696 41.3816H39.1218V44.1367H36.3696V41.3816Z" fill="#FBBF00"/>
<path d="M36.3696 38.623H39.1218V41.3781H36.3696V38.623Z" fill="#FBBF00"/>
<path d="M36.3696 35.8704H39.1218V38.6226H36.3696V35.8704Z" fill="#FBBF00"/>
<path d="M36.3696 33.1176H39.1218V35.8726H36.3696V33.1176Z" fill="#FBBF00"/>
<path d="M36.3696 30.3649H39.1218V33.1171H36.3696V30.3649Z" fill="#FBBF00"/>
<path d="M36.3696 27.6091H39.1218V30.3642H36.3696V27.6091Z" fill="#FBBF00"/>
<path d="M36.3696 24.8564H39.1218V27.6087H36.3696V24.8564Z" fill="#FBBF00"/>
<path d="M36.3696 22.1036H39.1218V24.8587H36.3696V22.1036Z" fill="#FBBF00"/>
<path d="M36.3696 19.351H39.1218V22.1032H36.3696V19.351Z" fill="#FBBF00"/>
<path d="M36.3696 16.5924H39.1218V19.3475H36.3696V16.5924Z" fill="#FBBF00"/>
<path d="M36.3696 13.8425H39.1218V16.5948H36.3696V13.8425Z" fill="#FBBF00"/>
<path d="M36.3696 11.0869H39.1218V13.842H36.3696V11.0869Z" fill="#FBBF00"/>
<path d="M36.3696 8.33411H39.1218V11.0863H36.3696V8.33411Z" fill="#FBBF00"/>
<path d="M36.3696 5.58142H39.1218V8.3365H36.3696V5.58142Z" fill="#FBBF00"/>
<path d="M36.3696 2.82581H39.1218V5.57803H36.3696V2.82581Z" fill="#FBBF00"/>
<path d="M39.122 74.4232H41.8771V77.1783H39.122V74.4232Z" fill="#FBBF00"/>
<path d="M39.122 71.6705H41.8771V74.4228H39.122V71.6705Z" fill="#FBBF00"/>
<path d="M39.122 68.9149H41.8771V71.67H39.122V68.9149Z" fill="#FBBF00"/>
<path d="M39.122 66.165H41.8771V68.9173H39.122V66.165Z" fill="#FBBF00"/>
<path d="M39.122 63.4065H41.8771V66.1616H39.122V63.4065Z" fill="#FBBF00"/>
<path d="M39.122 60.6566H41.8771V63.4088H39.122V60.6566Z" fill="#FBBF00"/>
<path d="M39.122 57.901H41.8771V60.6561H39.122V57.901Z" fill="#FBBF00"/>
<path d="M39.122 55.1482H41.8771V57.9004H39.122V55.1482Z" fill="#FBBF00"/>
<path d="M39.122 52.3926H41.8771V55.1477H39.122V52.3926Z" fill="#FBBF00"/>
<path d="M39.122 49.6399H41.8771V52.3921H39.122V49.6399Z" fill="#FBBF00"/>
<path d="M39.122 46.8871H41.8771V49.6422H39.122V46.8871Z" fill="#FBBF00"/>
<path d="M39.122 44.1344H41.8771V46.8866H39.122V44.1344Z" fill="#FBBF00"/>
<path d="M39.122 41.3816H41.8771V44.1367H39.122V41.3816Z" fill="#FBBF00"/>
<path d="M39.122 35.8704H41.8771V38.6226H39.122V35.8704Z" fill="#FBBF00"/>
<path d="M39.122 33.1176H41.8771V35.8726H39.122V33.1176Z" fill="#FBBF00"/>
<path d="M39.122 30.3649H41.8771V33.1171H39.122V30.3649Z" fill="#FBBF00"/>
<path d="M39.122 27.6091H41.8771V30.3642H39.122V27.6091Z" fill="#FBBF00"/>
<path d="M39.122 24.8564H41.8771V27.6087H39.122V24.8564Z" fill="#FBBF00"/>
<path d="M39.122 22.1036H41.8771V24.8587H39.122V22.1036Z" fill="#FBBF00"/>
<path d="M39.122 19.351H41.8771V22.1032H39.122V19.351Z" fill="#FBBF00"/>
<path d="M39.122 16.5924H41.8771V19.3475H39.122V16.5924Z" fill="#FBBF00"/>
<path d="M39.122 13.8425H41.8771V16.5948H39.122V13.8425Z" fill="#FBBF00"/>
<path d="M39.122 11.0869H41.8771V13.842H39.122V11.0869Z" fill="#FBBF00"/>
<path d="M39.122 8.33411H41.8771V11.0863H39.122V8.33411Z" fill="#FBBF00"/>
<path d="M39.122 5.58142H41.8771V8.3365H39.122V5.58142Z" fill="#FBBF00"/>
<path d="M39.122 2.82581H41.8771V5.57803H39.122V2.82581Z" fill="#FBBF00"/>
<path d="M41.878 74.4232H44.6302V77.1783H41.878V74.4232Z" fill="#FBBF00"/>
<path d="M41.878 71.6705H44.6302V74.4228H41.878V71.6705Z" fill="#FBBF00"/>
<path d="M41.878 68.9149H44.6302V71.67H41.878V68.9149Z" fill="#FBBF00"/>
<path d="M41.878 66.165H44.6302V68.9173H41.878V66.165Z" fill="#FBBF00"/>
<path d="M41.878 63.4065H44.6302V66.1616H41.878V63.4065Z" fill="#FBBF00"/>
<path d="M41.878 60.6566H44.6302V63.4088H41.878V60.6566Z" fill="#FBBF00"/>
<path d="M41.878 57.901H44.6302V60.6561H41.878V57.901Z" fill="#FBBF00"/>
<path d="M41.878 55.1482H44.6302V57.9004H41.878V55.1482Z" fill="#FBBF00"/>
<path d="M41.878 52.3926H44.6302V55.1477H41.878V52.3926Z" fill="#FBBF00"/>
<path d="M41.878 49.6399H44.6302V52.3921H41.878V49.6399Z" fill="#FBBF00"/>
<path d="M41.878 46.8871H44.6302V49.6422H41.878V46.8871Z" fill="#FBBF00"/>
<path d="M41.878 44.1344H44.6302V46.8866H41.878V44.1344Z" fill="#FBBF00"/>
<path d="M41.878 33.1176H44.6302V35.8726H41.878V33.1176Z" fill="#FBBF00"/>
<path d="M41.878 30.3649H44.6302V33.1171H41.878V30.3649Z" fill="#FBBF00"/>
<path d="M41.878 27.6091H44.6302V30.3642H41.878V27.6091Z" fill="#FBBF00"/>
<path d="M41.878 24.8564H44.6302V27.6087H41.878V24.8564Z" fill="#FBBF00"/>
<path d="M41.878 22.1036H44.6302V24.8587H41.878V22.1036Z" fill="#FBBF00"/>
<path d="M41.878 19.351H44.6302V22.1032H41.878V19.351Z" fill="#FBBF00"/>
<path d="M41.878 16.5924H44.6302V19.3475H41.878V16.5924Z" fill="#FBBF00"/>
<path d="M41.878 13.8425H44.6302V16.5948H41.878V13.8425Z" fill="#FBBF00"/>
<path d="M41.878 11.0869H44.6302V13.842H41.878V11.0869Z" fill="#FBBF00"/>
<path d="M41.878 8.33411H44.6302V11.0863H41.878V8.33411Z" fill="#FBBF00"/>
<path d="M41.878 5.58142H44.6302V8.3365H41.878V5.58142Z" fill="#FBBF00"/>
<path d="M41.878 2.82581H44.6302V5.57803H41.878V2.82581Z" fill="#FBBF00"/>
<path d="M44.6304 74.4232H47.3855V77.1783H44.6304V74.4232Z" fill="#FBBF00"/>
<path d="M44.6304 71.6705H47.3855V74.4228H44.6304V71.6705Z" fill="#FBBF00"/>
<path d="M44.6304 68.9149H47.3855V71.67H44.6304V68.9149Z" fill="#FBBF00"/>
<path d="M44.6304 66.165H47.3855V68.9173H44.6304V66.165Z" fill="#FBBF00"/>
<path d="M44.6304 63.4065H47.3855V66.1616H44.6304V63.4065Z" fill="#FBBF00"/>
<path d="M44.6304 60.6566H47.3855V63.4088H44.6304V60.6566Z" fill="#FBBF00"/>
<path d="M44.6304 57.901H47.3855V60.6561H44.6304V57.901Z" fill="#FBBF00"/>
<path d="M44.6304 55.1482H47.3855V57.9004H44.6304V55.1482Z" fill="#FBBF00"/>
<path d="M44.6304 52.3926H47.3855V55.1477H44.6304V52.3926Z" fill="#FBBF00"/>
<path d="M44.6304 49.6399H47.3855V52.3921H44.6304V49.6399Z" fill="#FBBF00"/>
<path d="M44.6304 46.8871H47.3855V49.6422H44.6304V46.8871Z" fill="#FBBF00"/>
<path d="M44.6304 44.1344H47.3855V46.8866H44.6304V44.1344Z" fill="#FBBF00"/>
<path d="M44.6304 33.1176H47.3855V35.8726H44.6304V33.1176Z" fill="#FBBF00"/>
<path d="M44.6304 30.3649H47.3855V33.1171H44.6304V30.3649Z" fill="#FBBF00"/>
<path d="M44.6304 27.6091H47.3855V30.3642H44.6304V27.6091Z" fill="#FBBF00"/>
<path d="M44.6304 24.8564H47.3855V27.6087H44.6304V24.8564Z" fill="#FBBF00"/>
<path d="M44.6304 22.1036H47.3855V24.8587H44.6304V22.1036Z" fill="#FBBF00"/>
<path d="M44.6304 19.351H47.3855V22.1032H44.6304V19.351Z" fill="#FBBF00"/>
<path d="M44.6304 16.5924H47.3855V19.3475H44.6304V16.5924Z" fill="#FBBF00"/>
<path d="M44.6304 13.8425H47.3855V16.5948H44.6304V13.8425Z" fill="#FBBF00"/>
<path d="M44.6304 11.0869H47.3855V13.842H44.6304V11.0869Z" fill="#FBBF00"/>
<path d="M44.6304 8.33411H47.3855V11.0863H44.6304V8.33411Z" fill="#FBBF00"/>
<path d="M44.6304 5.58142H47.3855V8.3365H44.6304V5.58142Z" fill="#FBBF00"/>
<path d="M44.6304 2.82581H47.3855V5.57803H44.6304V2.82581Z" fill="#FBBF00"/>
<path d="M47.3853 74.4232H50.1404V77.1783H47.3853V74.4232Z" fill="#FBBF00"/>
<path d="M47.3853 71.6705H50.1404V74.4228H47.3853V71.6705Z" fill="#FBBF00"/>
<path d="M47.3853 68.9149H50.1404V71.67H47.3853V68.9149Z" fill="#FBBF00"/>
<path d="M47.3853 66.165H50.1404V68.9173H47.3853V66.165Z" fill="#FBBF00"/>
<path d="M47.3853 63.4065H50.1404V66.1616H47.3853V63.4065Z" fill="#FBBF00"/>
<path d="M47.3853 60.6566H50.1404V63.4088H47.3853V60.6566Z" fill="#FBBF00"/>
<path d="M47.3853 57.901H50.1404V60.6561H47.3853V57.901Z" fill="#FBBF00"/>
<path d="M47.3853 55.1482H50.1404V57.9004H47.3853V55.1482Z" fill="#FBBF00"/>
<path d="M47.3853 52.3926H50.1404V55.1477H47.3853V52.3926Z" fill="#FBBF00"/>
<path d="M47.3853 49.6399H50.1404V52.3921H47.3853V49.6399Z" fill="#FBBF00"/>
<path d="M47.3853 46.8871H50.1404V49.6422H47.3853V46.8871Z" fill="#FBBF00"/>
<path d="M47.3853 30.3649H50.1404V33.1171H47.3853V30.3649Z" fill="#FBBF00"/>
<path d="M47.3853 27.6091H50.1404V30.3642H47.3853V27.6091Z" fill="#FBBF00"/>
<path d="M47.3853 24.8564H50.1404V27.6087H47.3853V24.8564Z" fill="#FBBF00"/>
<path d="M47.3853 22.1036H50.1404V24.8587H47.3853V22.1036Z" fill="#FBBF00"/>
<path d="M47.3853 19.351H50.1404V22.1032H47.3853V19.351Z" fill="#FBBF00"/>
<path d="M47.3853 16.5924H50.1404V19.3475H47.3853V16.5924Z" fill="#FBBF00"/>
<path d="M47.3853 13.8425H50.1404V16.5948H47.3853V13.8425Z" fill="#FBBF00"/>
<path d="M47.3853 11.0869H50.1404V13.842H47.3853V11.0869Z" fill="#FBBF00"/>
<path d="M47.3853 8.33411H50.1404V11.0863H47.3853V8.33411Z" fill="#FBBF00"/>
<path d="M47.3853 5.58142H50.1404V8.3365H47.3853V5.58142Z" fill="#FBBF00"/>
<path d="M47.3853 2.82581H50.1404V5.57803H47.3853V2.82581Z" fill="#FBBF00"/>
<path d="M50.1399 74.4232H52.8921V77.1783H50.1399V74.4232Z" fill="#FBBF00"/>
<path d="M50.1399 71.6705H52.8921V74.4228H50.1399V71.6705Z" fill="#FBBF00"/>
<path d="M50.1399 68.9149H52.8921V71.67H50.1399V68.9149Z" fill="#FBBF00"/>
<path d="M50.1399 66.165H52.8921V68.9173H50.1399V66.165Z" fill="#FBBF00"/>
<path d="M50.1399 63.4065H52.8921V66.1616H50.1399V63.4065Z" fill="#FBBF00"/>
<path d="M50.1399 60.6566H52.8921V63.4088H50.1399V60.6566Z" fill="#FBBF00"/>
<path d="M50.1399 57.901H52.8921V60.6561H50.1399V57.901Z" fill="#FBBF00"/>
<path d="M50.1399 55.1482H52.8921V57.9004H50.1399V55.1482Z" fill="#FBBF00"/>
<path d="M50.1399 52.3926H52.8921V55.1477H50.1399V52.3926Z" fill="#FBBF00"/>
<path d="M50.1399 49.6399H52.8921V52.3921H50.1399V49.6399Z" fill="#FBBF00"/>
<path d="M50.1399 46.8871H52.8921V49.6422H50.1399V46.8871Z" fill="#FBBF00"/>
<path d="M50.1399 30.3649H52.8921V33.1171H50.1399V30.3649Z" fill="#FBBF00"/>
<path d="M50.1399 27.6091H52.8921V30.3642H50.1399V27.6091Z" fill="#FBBF00"/>
<path d="M50.1399 24.8564H52.8921V27.6087H50.1399V24.8564Z" fill="#FBBF00"/>
<path d="M50.1399 22.1036H52.8921V24.8587H50.1399V22.1036Z" fill="#FBBF00"/>
<path d="M50.1399 19.351H52.8921V22.1032H50.1399V19.351Z" fill="#FBBF00"/>
<path d="M50.1399 16.5924H52.8921V19.3475H50.1399V16.5924Z" fill="#FBBF00"/>
<path d="M50.1399 13.8425H52.8921V16.5948H50.1399V13.8425Z" fill="#FBBF00"/>
<path d="M50.1399 11.0869H52.8921V13.842H50.1399V11.0869Z" fill="#FBBF00"/>
<path d="M50.1399 8.33411H52.8921V11.0863H50.1399V8.33411Z" fill="#FBBF00"/>
<path d="M50.1399 5.58142H52.8921V8.3365H50.1399V5.58142Z" fill="#FBBF00"/>
<path d="M50.1399 2.82581H52.8921V5.57803H50.1399V2.82581Z" fill="#FBBF00"/>
<path d="M52.8919 71.6705H55.647V74.4228H52.8919V71.6705Z" fill="#FBBF00"/>
<path d="M52.8919 68.9149H55.647V71.67H52.8919V68.9149Z" fill="#FBBF00"/>
<path d="M52.8919 66.165H55.647V68.9173H52.8919V66.165Z" fill="#FBBF00"/>
<path d="M52.8919 63.4065H55.647V66.1616H52.8919V63.4065Z" fill="#FBBF00"/>
<path d="M52.8919 60.6566H55.647V63.4088H52.8919V60.6566Z" fill="#FBBF00"/>
<path d="M52.8919 57.901H55.647V60.6561H52.8919V57.901Z" fill="#FBBF00"/>
<path d="M52.8919 55.1482H55.647V57.9004H52.8919V55.1482Z" fill="#FBBF00"/>
<path d="M52.8919 52.3926H55.647V55.1477H52.8919V52.3926Z" fill="#FBBF00"/>
<path d="M52.8919 49.6399H55.647V52.3921H52.8919V49.6399Z" fill="#FBBF00"/>
<path d="M52.8919 46.8871H55.647V49.6422H52.8919V46.8871Z" fill="#FBBF00"/>
<path d="M52.8919 30.3649H55.647V33.1171H52.8919V30.3649Z" fill="#FBBF00"/>
<path d="M52.8919 27.6091H55.647V30.3642H52.8919V27.6091Z" fill="#FBBF00"/>
<path d="M52.8919 24.8564H55.647V27.6087H52.8919V24.8564Z" fill="#FBBF00"/>
<path d="M52.8919 22.1036H55.647V24.8587H52.8919V22.1036Z" fill="#FBBF00"/>
<path d="M52.8919 19.351H55.647V22.1032H52.8919V19.351Z" fill="#FBBF00"/>
<path d="M52.8919 16.5924H55.647V19.3475H52.8919V16.5924Z" fill="#FBBF00"/>
<path d="M52.8919 13.8425H55.647V16.5948H52.8919V13.8425Z" fill="#FBBF00"/>
<path d="M52.8919 11.0869H55.647V13.842H52.8919V11.0869Z" fill="#FBBF00"/>
<path d="M52.8919 8.33411H55.647V11.0863H52.8919V8.33411Z" fill="#FBBF00"/>
<path d="M52.8919 5.58142H55.647V8.3365H52.8919V5.58142Z" fill="#FBBF00"/>
<path d="M55.6465 71.6705H58.3987V74.4228H55.6465V71.6705Z" fill="#FBBF00"/>
<path d="M55.6465 68.9149H58.3987V71.67H55.6465V68.9149Z" fill="#FBBF00"/>
<path d="M55.6465 66.165H58.3987V68.9173H55.6465V66.165Z" fill="#FBBF00"/>
<path d="M55.6465 63.4065H58.3987V66.1616H55.6465V63.4065Z" fill="#FBBF00"/>
<path d="M55.6465 60.6566H58.3987V63.4088H55.6465V60.6566Z" fill="#FBBF00"/>
<path d="M55.6465 57.901H58.3987V60.6561H55.6465V57.901Z" fill="#FBBF00"/>
<path d="M55.6465 55.1482H58.3987V57.9004H55.6465V55.1482Z" fill="#FBBF00"/>
<path d="M55.6465 52.3926H58.3987V55.1477H55.6465V52.3926Z" fill="#FBBF00"/>
<path d="M55.6465 49.6399H58.3987V52.3921H55.6465V49.6399Z" fill="#FBBF00"/>
<path d="M55.6465 27.6091H58.3987V30.3642H55.6465V27.6091Z" fill="#FBBF00"/>
<path d="M55.6465 24.8564H58.3987V27.6087H55.6465V24.8564Z" fill="#FBBF00"/>
<path d="M55.6465 22.1036H58.3987V24.8587H55.6465V22.1036Z" fill="#FBBF00"/>
<path d="M55.6465 19.351H58.3987V22.1032H55.6465V19.351Z" fill="#FBBF00"/>
<path d="M55.6465 16.5924H58.3987V19.3475H55.6465V16.5924Z" fill="#FBBF00"/>
<path d="M55.6465 13.8425H58.3987V16.5948H55.6465V13.8425Z" fill="#FBBF00"/>
<path d="M55.6465 11.0869H58.3987V13.842H55.6465V11.0869Z" fill="#FBBF00"/>
<path d="M55.6465 8.33411H58.3987V11.0863H55.6465V8.33411Z" fill="#FBBF00"/>
<path d="M55.6465 5.58142H58.3987V8.3365H55.6465V5.58142Z" fill="#FBBF00"/>
<path d="M58.3989 68.9149H61.1539V71.67H58.3989V68.9149Z" fill="#FBBF00"/>
<path d="M58.3989 66.165H61.1539V68.9173H58.3989V66.165Z" fill="#FBBF00"/>
<path d="M58.3989 63.4065H61.1539V66.1616H58.3989V63.4065Z" fill="#FBBF00"/>
<path d="M58.3989 60.6566H61.1539V63.4088H58.3989V60.6566Z" fill="#FBBF00"/>
<path d="M58.3989 57.901H61.1539V60.6561H58.3989V57.901Z" fill="#FBBF00"/>
<path d="M58.3989 55.1482H61.1539V57.9004H58.3989V55.1482Z" fill="#FBBF00"/>
<path d="M58.3989 52.3926H61.1539V55.1477H58.3989V52.3926Z" fill="#FBBF00"/>
<path d="M58.3989 49.6399H61.1539V52.3921H58.3989V49.6399Z" fill="#FBBF00"/>
<path d="M58.3989 27.6091H61.1539V30.3642H58.3989V27.6091Z" fill="#FBBF00"/>
<path d="M58.3989 24.8564H61.1539V27.6087H58.3989V24.8564Z" fill="#FBBF00"/>
<path d="M58.3989 22.1036H61.1539V24.8587H58.3989V22.1036Z" fill="#FBBF00"/>
<path d="M58.3989 19.351H61.1539V22.1032H58.3989V19.351Z" fill="#FBBF00"/>
<path d="M58.3989 16.5924H61.1539V19.3475H58.3989V16.5924Z" fill="#FBBF00"/>
<path d="M58.3989 13.8425H61.1539V16.5948H58.3989V13.8425Z" fill="#FBBF00"/>
<path d="M58.3989 11.0869H61.1539V13.842H58.3989V11.0869Z" fill="#FBBF00"/>
<path d="M58.3989 8.33411H61.1539V11.0863H58.3989V8.33411Z" fill="#FBBF00"/>
<path d="M58.3989 5.58142H61.1539V8.3365H58.3989V5.58142Z" fill="#FBBF00"/>
<path d="M61.1548 68.9149H63.907V71.67H61.1548V68.9149Z" fill="#FBBF00"/>
<path d="M61.1548 66.165H63.907V68.9173H61.1548V66.165Z" fill="#FBBF00"/>
<path d="M61.1548 63.4065H63.907V66.1616H61.1548V63.4065Z" fill="#FBBF00"/>
<path d="M61.1548 60.6566H63.907V63.4088H61.1548V60.6566Z" fill="#FBBF00"/>
<path d="M61.1548 57.901H63.907V60.6561H61.1548V57.901Z" fill="#FBBF00"/>
<path d="M61.1548 55.1482H63.907V57.9004H61.1548V55.1482Z" fill="#FBBF00"/>
<path d="M61.1548 52.3926H63.907V55.1477H61.1548V52.3926Z" fill="#FBBF00"/>
<path d="M61.1548 49.6399H63.907V52.3921H61.1548V49.6399Z" fill="#FBBF00"/>
<path d="M61.1548 27.6091H63.907V30.3642H61.1548V27.6091Z" fill="#FBBF00"/>
<path d="M61.1548 24.8564H63.907V27.6087H61.1548V24.8564Z" fill="#FBBF00"/>
<path d="M61.1548 22.1036H63.907V24.8587H61.1548V22.1036Z" fill="#FBBF00"/>
<path d="M61.1548 19.351H63.907V22.1032H61.1548V19.351Z" fill="#FBBF00"/>
<path d="M61.1548 16.5924H63.907V19.3475H61.1548V16.5924Z" fill="#FBBF00"/>
<path d="M61.1548 13.8425H63.907V16.5948H61.1548V13.8425Z" fill="#FBBF00"/>
<path d="M61.1548 11.0869H63.907V13.842H61.1548V11.0869Z" fill="#FBBF00"/>
<path d="M61.1548 8.33411H63.907V11.0863H61.1548V8.33411Z" fill="#FBBF00"/>
<path d="M63.9073 66.165H66.6624V68.9173H63.9073V66.165Z" fill="#FBBF00"/>
<path d="M63.9073 63.4065H66.6624V66.1616H63.9073V63.4065Z" fill="#FBBF00"/>
<path d="M63.9073 60.6566H66.6624V63.4088H63.9073V60.6566Z" fill="#FBBF00"/>
<path d="M63.9073 57.901H66.6624V60.6561H63.9073V57.901Z" fill="#FBBF00"/>
<path d="M63.9073 55.1482H66.6624V57.9004H63.9073V55.1482Z" fill="#FBBF00"/>
<path d="M63.9073 52.3926H66.6624V55.1477H63.9073V52.3926Z" fill="#FBBF00"/>
<path d="M63.9073 24.8564H66.6624V27.6087H63.9073V24.8564Z" fill="#FBBF00"/>
<path d="M63.9073 22.1036H66.6624V24.8587H63.9073V22.1036Z" fill="#FBBF00"/>
<path d="M63.9073 19.351H66.6624V22.1032H63.9073V19.351Z" fill="#FBBF00"/>
<path d="M63.9073 16.5924H66.6624V19.3475H63.9073V16.5924Z" fill="#FBBF00"/>
<path d="M63.9073 13.8425H66.6624V16.5948H63.9073V13.8425Z" fill="#FBBF00"/>
<path d="M63.9073 11.0869H66.6624V13.842H63.9073V11.0869Z" fill="#FBBF00"/>
<path d="M66.6613 63.4065H69.4136V66.1616H66.6613V63.4065Z" fill="#FBBF00"/>
<path d="M66.6613 60.6566H69.4136V63.4088H66.6613V60.6566Z" fill="#FBBF00"/>
<path d="M66.6613 57.901H69.4136V60.6561H66.6613V57.901Z" fill="#FBBF00"/>
<path d="M66.6613 55.1482H69.4136V57.9004H66.6613V55.1482Z" fill="#FBBF00"/>
<path d="M66.6613 52.3926H69.4136V55.1477H66.6613V52.3926Z" fill="#FBBF00"/>
<path d="M66.6613 24.8564H69.4136V27.6087H66.6613V24.8564Z" fill="#FBBF00"/>
<path d="M66.6613 22.1036H69.4136V24.8587H66.6613V22.1036Z" fill="#FBBF00"/>
<path d="M66.6613 19.351H69.4136V22.1032H66.6613V19.351Z" fill="#FBBF00"/>
<path d="M66.6613 16.5924H69.4136V19.3475H66.6613V16.5924Z" fill="#FBBF00"/>
<path d="M66.6613 13.8425H69.4136V16.5948H66.6613V13.8425Z" fill="#FBBF00"/>
<path d="M69.4139 60.6566H72.1689V63.4088H69.4139V60.6566Z" fill="#FBBF00"/>
<path d="M69.4139 57.901H72.1689V60.6561H69.4139V57.901Z" fill="#FBBF00"/>
<path d="M69.4139 55.1482H72.1689V57.9004H69.4139V55.1482Z" fill="#FBBF00"/>
<path d="M69.4139 22.1036H72.1689V24.8587H69.4139V22.1036Z" fill="#FBBF00"/>
<path d="M69.4139 19.351H72.1689V22.1032H69.4139V19.351Z" fill="#FBBF00"/>
<path d="M69.4139 16.5924H72.1689V19.3475H69.4139V16.5924Z" fill="#FBBF00"/>
<path d="M72.1698 57.901H74.922V60.6561H72.1698V57.901Z" fill="#FBBF00"/>
<path d="M72.1698 19.351H74.922V22.1032H72.1698V19.351Z" fill="#FBBF00"/>
</svg>
