<svg width="45" height="45" viewBox="0 0 45 45" fill="none" xmlns="http://www.w3.org/2000/svg">
<path d="M44.8889 41.5387H41.4541V45H44.8889V41.5387Z" fill="#FF0900"/>
<path d="M44.8889 38.0775H41.4541V41.5387H44.8889V38.0775Z" fill="#FF0900"/>
<path d="M44.8889 34.6163H41.4541V38.0775H44.8889V34.6163Z" fill="#FF0900"/>
<path d="M44.8889 31.155H41.4541V34.6163H44.8889V31.155Z" fill="#FF0900"/>
<path d="M44.8889 27.6937H41.4541V31.155H44.8889V27.6937Z" fill="#FF0900"/>
<path d="M44.8889 24.2325H41.4541V27.6937H44.8889V24.2325Z" fill="#FF0900"/>
<path d="M44.8889 20.7675H41.4541V24.2325H44.8889V20.7675Z" fill="#FF0900"/>
<path d="M44.8889 17.3063H41.4541V20.7675H44.8889V17.3063Z" fill="#FF0900"/>
<path d="M41.4541 38.0775H38.0194V41.5387H41.4541V38.0775Z" fill="#FF0900"/>
<path d="M41.4541 34.6163H38.0194V38.0775H41.4541V34.6163Z" fill="#FF0900"/>
<path d="M41.4541 31.155H38.0194V34.6163H41.4541V31.155Z" fill="#FF0900"/>
<path d="M41.4541 27.6937H38.0194V31.155H41.4541V27.6937Z" fill="#FF0900"/>
<path d="M41.4541 24.2325H38.0194V27.6937H41.4541V24.2325Z" fill="white"/>
<path d="M41.4541 20.7675H38.0194V24.2325H41.4541V20.7675Z" fill="#6633FF"/>
<path d="M41.4541 17.3063H38.0194V20.7675H41.4541V17.3063Z" fill="#6633FF"/>
<path d="M41.4542 13.845H38.0194V17.3063H41.4541L41.4542 13.845Z" fill="white"/>
<path d="M41.4542 10.3837H38.0194V13.845H41.4542V10.3837Z" fill="#FF0900"/>
<path d="M38.0194 34.6163H34.5847V38.0775L38.0194 38.0775V34.6163Z" fill="#FF0900"/>
<path d="M38.0194 31.155H34.5847V34.6163H38.0194V31.155Z" fill="#FF0900"/>
<path d="M38.0194 27.6937H34.5847V31.155H38.0194V27.6937Z" fill="#FF0900"/>
<path d="M38.0194 24.2325H34.5847V27.6937H38.0194V24.2325Z" fill="white"/>
<path d="M38.0194 20.7675H34.5847V24.2325H38.0194V20.7675Z" fill="#6633FF"/>
<path d="M38.0194 17.3063H34.5847V20.7675H38.0194V17.3063Z" fill="#6633FF"/>
<path d="M38.0194 13.845H34.5847V17.3063H38.0194V13.845Z" fill="white"/>
<path d="M38.0194 10.3837H34.5847V13.845H38.0194V10.3837Z" fill="#FF0900"/>
<path d="M38.0194 6.9225H34.5847V10.3837H38.0194L38.0194 6.9225Z" fill="#FF0900"/>
<path d="M34.5847 38.0775L31.1499 38.0775V41.5387H34.5847L34.5847 38.0775Z" fill="#FF0900"/>
<path d="M34.5847 34.6163H31.1499V38.0775L34.5847 38.0775V34.6163Z" fill="#FF0900"/>
<path d="M34.5847 31.155H31.1499V34.6163H34.5847V31.155Z" fill="#FF0900"/>
<path d="M34.5847 27.6937H31.1499V31.155H34.5847V27.6937Z" fill="#FF0900"/>
<path d="M34.5847 24.2325H31.1499V27.6937H34.5847V24.2325Z" fill="#FF0900"/>
<path d="M34.5847 20.7675H31.1499V24.2325H34.5847V20.7675Z" fill="white"/>
<path d="M34.5847 17.3063H31.1499V20.7675H34.5847V17.3063Z" fill="white"/>
<path d="M34.5847 13.845H31.1499V17.3063H34.5847V13.845Z" fill="white"/>
<path d="M34.5847 10.3837H31.1499V13.845H34.5847V10.3837Z" fill="#FF0900"/>
<path d="M34.5847 6.9225H31.1499V10.3837H34.5847V6.9225Z" fill="#FF0900"/>
<path d="M34.5847 3.46125H31.1499V6.9225H34.5847L34.5847 3.46125Z" fill="#FF0900"/>
<path d="M31.1499 41.5387H27.7152V45H31.15L31.1499 41.5387Z" fill="#FF0900"/>
<path d="M31.1499 38.0775H27.7152V41.5387H31.1499V38.0775Z" fill="#FF0900"/>
<path d="M31.1499 34.6163H27.7152V38.0775H31.1499V34.6163Z" fill="#FF0900"/>
<path d="M31.1499 31.155H27.7152V34.6163H31.1499V31.155Z" fill="#FF0900"/>
<path d="M31.1499 27.6937H27.7152V31.155H31.1499V27.6937Z" fill="#FF0900"/>
<path d="M31.1499 24.2325H27.7152V27.6937H31.1499V24.2325Z" fill="#FF0900"/>
<path d="M31.1499 20.7675H27.7152V24.2325H31.1499V20.7675Z" fill="#FF0900"/>
<path d="M31.1499 17.3063H27.7152V20.7675H31.1499V17.3063Z" fill="#FF0900"/>
<path d="M31.1499 13.845H27.7152V17.3063H31.1499V13.845Z" fill="#FF0900"/>
<path d="M31.1499 10.3837H27.7152V13.845H31.1499V10.3837Z" fill="#FF0900"/>
<path d="M31.1499 6.9225H27.7152V10.3837H31.1499V6.9225Z" fill="#FF0900"/>
<path d="M31.1499 3.46125H27.7152V6.9225H31.1499V3.46125Z" fill="#FF0900"/>
<path d="M31.15 0H27.7152V3.46125H31.1499L31.15 0Z" fill="#FF0900"/>
<path d="M27.7152 38.0775H24.2805V41.5387H27.7152V38.0775Z" fill="#FF0900"/>
<path d="M27.7152 34.6163H24.2805V38.0775H27.7152V34.6163Z" fill="#FF0900"/>
<path d="M27.7152 31.155H24.2805V34.6163H27.7152V31.155Z" fill="#FF0900"/>
<path d="M27.7152 27.6937H24.2805V31.155H27.7152V27.6937Z" fill="#FF0900"/>
<path d="M27.7152 24.2325H24.2805V27.6937H27.7152V24.2325Z" fill="#FF0900"/>
<path d="M27.7152 20.7675H24.2805V24.2325H27.7152V20.7675Z" fill="#FF0900"/>
<path d="M27.7152 17.3063H24.2805V20.7675H27.7152V17.3063Z" fill="#FF0900"/>
<path d="M27.7152 13.845H24.2805V17.3063H27.7152V13.845Z" fill="#FF0900"/>
<path d="M27.7152 10.3837H24.2805V13.845H27.7152V10.3837Z" fill="#FF0900"/>
<path d="M27.7152 6.9225H24.2805V10.3837H27.7152V6.9225Z" fill="#FF0900"/>
<path d="M27.7152 3.46125H24.2805V6.9225H27.7152V3.46125Z" fill="#FF0900"/>
<path d="M27.7152 0H24.2805V3.46125H27.7152V0Z" fill="#FF0900"/>
<path d="M24.2805 34.6163H20.8457V38.0775L24.2805 38.0775V34.6163Z" fill="#FF0900"/>
<path d="M24.2805 31.155H20.8457V34.6163H24.2805V31.155Z" fill="#FF0900"/>
<path d="M24.2805 27.6937H20.8457V31.155H24.2805V27.6937Z" fill="#FF0900"/>
<path d="M24.2805 24.2325H20.8457V27.6937H24.2805V24.2325Z" fill="#FF0900"/>
<path d="M24.2805 20.7675H20.8457V24.2325H24.2805V20.7675Z" fill="#FF0900"/>
<path d="M24.2805 17.3063H20.8457V20.7675H24.2805V17.3063Z" fill="#FF0900"/>
<path d="M24.2805 13.845H20.8457V17.3063H24.2805V13.845Z" fill="#FF0900"/>
<path d="M24.2805 10.3837H20.8457V13.845H24.2805V10.3837Z" fill="#FF0900"/>
<path d="M24.2805 6.9225H20.8457V10.3837H24.2805V6.9225Z" fill="#FF0900"/>
<path d="M24.2805 3.46125H20.8457V6.9225H24.2805V3.46125Z" fill="#FF0900"/>
<path d="M24.2805 0H20.8457V3.46125H24.2805V0Z" fill="#FF0900"/>
<path d="M20.8457 38.0775L17.411 38.0775V41.5387H20.8458L20.8457 38.0775Z" fill="#FF0900"/>
<path d="M20.8457 34.6163H17.411V38.0775L20.8457 38.0775V34.6163Z" fill="#FF0900"/>
<path d="M20.8457 31.155H17.411V34.6163H20.8457V31.155Z" fill="#FF0900"/>
<path d="M20.8457 27.6937H17.411V31.155H20.8457V27.6937Z" fill="#FF0900"/>
<path d="M20.8457 24.2325H17.411V27.6937H20.8457V24.2325Z" fill="white"/>
<path d="M20.8457 20.7675H17.411V24.2325H20.8457V20.7675Z" fill="#6633FF"/>
<path d="M20.8457 17.3063H17.411V20.7675H20.8457V17.3063Z" fill="#6633FF"/>
<path d="M20.8457 13.845H17.411V17.3063H20.8457V13.845Z" fill="white"/>
<path d="M20.8457 10.3837H17.411V13.845H20.8457V10.3837Z" fill="#FF0900"/>
<path d="M20.8457 6.9225H17.411V10.3837H20.8457V6.9225Z" fill="#FF0900"/>
<path d="M20.8457 3.46125H17.411V6.9225H20.8457V3.46125Z" fill="#FF0900"/>
<path d="M20.8457 0H17.411V3.46125H20.8457V0Z" fill="#FF0900"/>
<path d="M17.411 41.5387H13.9726V45H17.411L17.411 41.5387Z" fill="#FF0900"/>
<path d="M17.411 38.0775H13.9726V41.5387H17.411V38.0775Z" fill="#FF0900"/>
<path d="M17.411 34.6163H13.9726V38.0775H17.411V34.6163Z" fill="#FF0900"/>
<path d="M17.411 31.155H13.9726V34.6163H17.411V31.155Z" fill="#FF0900"/>
<path d="M17.411 27.6937H13.9726V31.155H17.411V27.6937Z" fill="#FF0900"/>
<path d="M17.411 24.2325H13.9726V27.6937H17.411V24.2325Z" fill="white"/>
<path d="M17.411 20.7675H13.9726V24.2325H17.411V20.7675Z" fill="#6633FF"/>
<path d="M17.411 17.3063H13.9726V20.7675H17.411V17.3063Z" fill="#6633FF"/>
<path d="M17.411 13.845H13.9726V17.3063H17.411V13.845Z" fill="white"/>
<path d="M17.411 10.3837H13.9726V13.845H17.411V10.3837Z" fill="#FF0900"/>
<path d="M17.411 6.9225H13.9726V10.3837H17.411V6.9225Z" fill="#FF0900"/>
<path d="M17.411 3.46125H13.9726V6.9225H17.411V3.46125Z" fill="#FF0900"/>
<path d="M17.411 0H13.9726V3.46125H17.411V0Z" fill="#FF0900"/>
<path d="M13.9726 38.0775H10.5378V41.5387H13.9726V38.0775Z" fill="#FF0900"/>
<path d="M13.9726 34.6163H10.5378V38.0775H13.9726V34.6163Z" fill="#FF0900"/>
<path d="M13.9726 31.155H10.5378V34.6163H13.9726V31.155Z" fill="#FF0900"/>
<path d="M13.9726 27.6937H10.5378V31.155H13.9726V27.6937Z" fill="#FF0900"/>
<path d="M13.9726 24.2325H10.5378V27.6937H13.9726V24.2325Z" fill="#FF0900"/>
<path d="M13.9726 20.7675H10.5378V24.2325H13.9726V20.7675Z" fill="white"/>
<path d="M13.9726 17.3063H10.5378V20.7675H13.9726V17.3063Z" fill="white"/>
<path d="M13.9726 13.845H10.5378V17.3063H13.9726V13.845Z" fill="white"/>
<path d="M13.9726 10.3837H10.5378V13.845H13.9726V10.3837Z" fill="#FF0900"/>
<path d="M13.9726 6.9225H10.5378V10.3837H13.9726V6.9225Z" fill="#FF0900"/>
<path d="M13.9726 3.46125H10.5378V6.9225H13.9726V3.46125Z" fill="#FF0900"/>
<path d="M10.5378 34.6163H7.10308V38.0775L10.5378 38.0775V34.6163Z" fill="#FF0900"/>
<path d="M10.5378 31.155H7.10308V34.6163H10.5378V31.155Z" fill="#FF0900"/>
<path d="M10.5378 27.6937H7.10308V31.155H10.5378V27.6937Z" fill="#FF0900"/>
<path d="M10.5378 24.2325H7.10308V27.6937H10.5378V24.2325Z" fill="#FF0900"/>
<path d="M10.5378 20.7675H7.10308V24.2325H10.5378V20.7675Z" fill="#FF0900"/>
<path d="M10.5378 17.3063H7.10308V20.7675H10.5378V17.3063Z" fill="#FF0900"/>
<path d="M10.5378 13.845H7.10308V17.3063H10.5378V13.845Z" fill="#FF0900"/>
<path d="M10.5378 10.3837H7.10308V13.845H10.5378V10.3837Z" fill="#FF0900"/>
<path d="M10.5378 6.9225H7.10308V10.3837H10.5378V6.9225Z" fill="#FF0900"/>
<path d="M7.10308 38.0775L3.66836 38.0775V41.5387H7.10309L7.10308 38.0775Z" fill="#FF0900"/>
<path d="M7.10308 34.6163H3.66836V38.0775L7.10308 38.0775V34.6163Z" fill="#FF0900"/>
<path d="M7.10308 31.155H3.66836V34.6163H7.10308V31.155Z" fill="#FF0900"/>
<path d="M7.10308 27.6937H3.66836V31.155H7.10308V27.6937Z" fill="#FF0900"/>
<path d="M7.10308 24.2325H3.66836V27.6937H7.10308V24.2325Z" fill="#FF0900"/>
<path d="M7.10308 20.7675H3.66836V24.2325H7.10308V20.7675Z" fill="#FF0900"/>
<path d="M7.10308 17.3063H3.66836V20.7675H7.10308V17.3063Z" fill="#FF0900"/>
<path d="M7.10308 13.845H3.66836V17.3063H7.10308V13.845Z" fill="#FF0900"/>
<path d="M7.10308 10.3837H3.66836V13.845H7.10308V10.3837Z" fill="#FF0900"/>
<path d="M3.66836 41.5387H0.233643V45H3.66837L3.66836 41.5387Z" fill="#FF0900"/>
<path d="M3.66836 38.0775H0.233643V41.5387H3.66836V38.0775Z" fill="#FF0900"/>
<path d="M3.66836 34.6163H0.233643V38.0775H3.66836V34.6163Z" fill="#FF0900"/>
<path d="M3.66836 31.155H0.233643V34.6163H3.66836V31.155Z" fill="#FF0900"/>
<path d="M3.66836 27.6937H0.233643V31.155H3.66836V27.6937Z" fill="#FF0900"/>
<path d="M3.66836 24.2325H0.233643V27.6937H3.66836V24.2325Z" fill="#FF0900"/>
<path d="M3.66836 20.7675H0.233643V24.2325H3.66836V20.7675Z" fill="#FF0900"/>
<path d="M3.66836 17.3063H0.233643V20.7675H3.66836V17.3063Z" fill="#FF0900"/>
</svg>
