<svg width="120" height="56" viewBox="0 0 120 56" fill="none" xmlns="http://www.w3.org/2000/svg">
<path d="M119.933 46.1736H117.326V48.7401H119.933V46.1736Z" fill="#231815"/>
<path d="M119.933 28.2185H117.326V30.7824H119.933V28.2185Z" fill="#231815"/>
<path d="M117.326 46.1736H114.721V48.7401H117.326V46.1736Z" fill="#231815"/>
<path d="M117.326 43.6097H114.721V46.1736H117.326L117.326 43.6097Z" fill="#231815"/>
<path d="M117.326 41.0432H114.721V43.6097H117.326V41.0432Z" fill="#231815"/>
<path d="M117.326 30.7824L114.721 30.7824V33.3489H117.326L117.326 30.7824Z" fill="#231815"/>
<path d="M117.326 28.2185H114.721V30.7824L117.326 30.7824V28.2185Z" fill="#231815"/>
<path d="M117.326 25.652H114.721V28.2185H117.326L117.326 25.652Z" fill="#231815"/>
<path d="M114.721 46.1736H112.116V48.7401H114.721V46.1736Z" fill="#231815"/>
<path d="M114.721 43.6097H112.116V46.1736H114.721V43.6097Z" fill="white"/>
<path d="M114.721 41.0432H112.116V43.6097H114.721V41.0432Z" fill="white"/>
<path d="M114.721 38.4793H112.116V41.0432H114.721V38.4793Z" fill="#231815"/>
<path d="M114.721 30.7824H112.116V33.3489H114.721V30.7824Z" fill="#231815"/>
<path d="M114.721 28.2185H112.116V30.7824H114.721V28.2185Z" fill="white"/>
<path d="M114.721 25.652H112.116V28.2185H114.721V25.652Z" fill="#231815"/>
<path d="M112.116 46.1736H109.508V48.7401H112.116V46.1736Z" fill="#231815"/>
<path d="M112.116 43.6097H109.508V46.1736H112.116V43.6097Z" fill="#231815"/>
<path d="M112.116 41.0432H109.508V43.6097H112.116V41.0432Z" fill="white"/>
<path d="M112.116 38.4793H109.508V41.0432H112.116V38.4793Z" fill="white"/>
<path d="M112.115 35.9128H109.508V38.4793H112.116L112.115 35.9128Z" fill="#231815"/>
<path d="M112.116 33.3489L109.508 33.3489V35.9128H112.115L112.116 33.3489Z" fill="#231815"/>
<path d="M112.116 30.7824H109.508V33.3489L112.116 33.3489V30.7824Z" fill="white"/>
<path d="M112.116 28.2185H109.508V30.7824H112.116V28.2185Z" fill="white"/>
<path d="M112.116 25.652H109.508V28.2185H112.116V25.652Z" fill="#231815"/>
<path d="M109.508 43.6097H106.903V46.1736L109.508 46.1736V43.6097Z" fill="#231815"/>
<path d="M109.508 41.0432H106.903V43.6097H109.508V41.0432Z" fill="white"/>
<path d="M109.508 38.4793H106.903V41.0432H109.508V38.4793Z" fill="white"/>
<path d="M109.508 35.9128H106.903V38.4793H109.508V35.9128Z" fill="white"/>
<path d="M109.508 33.3489H106.903V35.9128H109.508V33.3489Z" fill="#231815"/>
<path d="M109.508 30.7824H106.903V33.3489H109.508V30.7824Z" fill="white"/>
<path d="M109.508 28.2185H106.903V30.7824H109.508V28.2185Z" fill="#231815"/>
<path d="M109.508 25.652H106.903V28.2185H109.508V25.652Z" fill="#231815"/>
<path d="M106.903 43.6097H104.298V46.1736H106.903V43.6097Z" fill="#231815"/>
<path d="M106.903 41.0432H104.298V43.6097H106.903V41.0432Z" fill="white"/>
<path d="M106.903 38.4793H104.298V41.0432H106.903V38.4793Z" fill="white"/>
<path d="M106.903 35.9128H104.298V38.4793H106.903V35.9128Z" fill="white"/>
<path d="M106.903 33.3489H104.298V35.9128H106.903V33.3489Z" fill="white"/>
<path d="M106.903 30.7824H104.298V33.3489H106.903V30.7824Z" fill="white"/>
<path d="M106.903 28.2185H104.298V30.7824H106.903V28.2185Z" fill="#231815"/>
<path d="M104.298 43.6097H101.692V46.1736H104.298V43.6097Z" fill="#231815"/>
<path d="M104.298 41.0432H101.692V43.6097H104.298V41.0432Z" fill="#231815"/>
<path d="M104.298 38.4793H101.692V41.0432H104.298V38.4793Z" fill="white"/>
<path d="M104.298 35.9128H101.692V38.4793H104.298V35.9128Z" fill="white"/>
<path d="M104.298 33.3489H101.692V35.9128H104.298V33.3489Z" fill="white"/>
<path d="M104.298 30.7824H101.692V33.3489H104.298V30.7824Z" fill="#231815"/>
<path d="M104.298 28.2185H101.692V30.7824H104.298V28.2185Z" fill="#231815"/>
<path d="M101.692 41.0432H99.0847V43.6097H101.692V41.0432Z" fill="#231815"/>
<path d="M101.692 38.4793H99.0847V41.0432H101.692V38.4793Z" fill="white"/>
<path d="M101.692 35.9128H99.0847V38.4793H101.692V35.9128Z" fill="white"/>
<path d="M101.692 33.3489H99.0847V35.9128H101.692V33.3489Z" fill="white"/>
<path d="M101.692 30.7824H99.0847V33.3489H101.692V30.7824Z" fill="white"/>
<path d="M101.692 28.2185H99.0847V30.7824H101.692V28.2185Z" fill="#231815"/>
<path d="M101.692 25.652H99.0847V28.2185H101.692V25.652Z" fill="#231815"/>
<path d="M101.692 23.0881H99.0847V25.652H101.692V23.0881Z" fill="#231815"/>
<path d="M99.0847 41.0432H96.4795V43.6097H99.0847V41.0432Z" fill="#231815"/>
<path d="M99.0847 38.4793H96.4795V41.0432H99.0847V38.4793Z" fill="white"/>
<path d="M99.0847 35.9128H96.4795V38.4793H99.0847V35.9128Z" fill="white"/>
<path d="M99.0847 33.3489H96.4795V35.9128H99.0847V33.3489Z" fill="white"/>
<path d="M99.0847 30.7824H96.4795V33.3489H99.0847V30.7824Z" fill="white"/>
<path d="M99.0847 28.2185H96.4795V30.7824H99.0847V28.2185Z" fill="white"/>
<path d="M99.0847 25.652H96.4795V28.2185H99.0847V25.652Z" fill="white"/>
<path d="M99.0847 23.0881H96.4795V25.652H99.0847V23.0881Z" fill="#231815"/>
<path d="M99.0846 20.5216H96.4795V23.0881H99.0847L99.0846 20.5216Z" fill="#231815"/>
<path d="M96.4795 41.0432H93.8744V43.6097H96.4795V41.0432Z" fill="#231815"/>
<path d="M96.4795 38.4793H93.8744V41.0432H96.4795V38.4793Z" fill="white"/>
<path d="M96.4795 35.9128H93.8744V38.4793H96.4795V35.9128Z" fill="white"/>
<path d="M96.4795 33.3489H93.8744V35.9128H96.4795V33.3489Z" fill="white"/>
<path d="M96.4795 30.7824H93.8744V33.3489H96.4795V30.7824Z" fill="white"/>
<path d="M96.4795 28.2185H93.8744V30.7824H96.4795V28.2185Z" fill="white"/>
<path d="M96.4795 25.652H93.8744V28.2185H96.4795V25.652Z" fill="white"/>
<path d="M96.4795 23.0881H93.8744V25.652H96.4795V23.0881Z" fill="white"/>
<path d="M96.4795 20.5216H93.8744V23.0881H96.4795V20.5216Z" fill="#231815"/>
<path d="M96.4795 17.955H93.8744V20.5216H96.4795V17.955Z" fill="#231815"/>
<path d="M93.8744 41.0432H91.2693V43.6097H93.8744V41.0432Z" fill="#231815"/>
<path d="M93.8744 38.4793H91.2693V41.0432H93.8744V38.4793Z" fill="white"/>
<path d="M93.8744 35.9128H91.2693V38.4793H93.8744V35.9128Z" fill="white"/>
<path d="M93.8744 33.3489H91.2693V35.9128H93.8744V33.3489Z" fill="white"/>
<path d="M93.8744 30.7824H91.2693V33.3489H93.8744V30.7824Z" fill="white"/>
<path d="M93.8744 28.2185H91.2693V30.7824H93.8744V28.2185Z" fill="white"/>
<path d="M93.8744 25.652H91.2693V28.2185H93.8744V25.652Z" fill="white"/>
<path d="M93.8744 23.0881H91.2693V25.652H93.8744V23.0881Z" fill="white"/>
<path d="M93.8744 20.5216H91.2693V23.0881H93.8744V20.5216Z" fill="white"/>
<path d="M93.8744 17.955H91.2693V20.5216H93.8744V17.955Z" fill="#231815"/>
<path d="M93.8744 15.3912H91.2693V17.955H93.8744L93.8744 15.3912Z" fill="#231815"/>
<path d="M91.2693 41.0432H88.6616V43.6097H91.2693V41.0432Z" fill="#231815"/>
<path d="M91.2693 38.4793H88.6616V41.0432H91.2693V38.4793Z" fill="white"/>
<path d="M91.2693 35.9128H88.6616V38.4793H91.2693V35.9128Z" fill="white"/>
<path d="M91.2693 33.3489H88.6616V35.9128H91.2693V33.3489Z" fill="white"/>
<path d="M91.2693 30.7824H88.6616V33.3489H91.2693V30.7824Z" fill="white"/>
<path d="M91.2693 28.2185H88.6616V30.7824H91.2693V28.2185Z" fill="white"/>
<path d="M91.2693 25.652H88.6616V28.2185H91.2693V25.652Z" fill="white"/>
<path d="M91.2693 23.0881H88.6616V25.652H91.2693V23.0881Z" fill="white"/>
<path d="M91.2693 20.5216H88.6616V23.0881H91.2693V20.5216Z" fill="white"/>
<path d="M91.2693 17.955H88.6616V20.5216H91.2693V17.955Z" fill="white"/>
<path d="M91.2693 15.3912H88.6616V17.955H91.2693V15.3912Z" fill="#231815"/>
<path d="M91.2693 12.8246H88.6616V15.3912H91.2693V12.8246Z" fill="#231815"/>
<path d="M88.6616 43.6097H86.0564V46.1736H88.6616L88.6616 43.6097Z" fill="#231815"/>
<path d="M88.6616 41.0432H86.0564V43.6097H88.6616V41.0432Z" fill="#231815"/>
<path d="M88.6616 38.4793H86.0564V41.0432H88.6616V38.4793Z" fill="white"/>
<path d="M88.6616 35.9128H86.0564V38.4793H88.6616V35.9128Z" fill="white"/>
<path d="M88.6616 33.3489H86.0564V35.9128H88.6616V33.3489Z" fill="white"/>
<path d="M88.6616 30.7824H86.0564V33.3489H88.6616V30.7824Z" fill="white"/>
<path d="M88.6616 28.2185H86.0564V30.7824H88.6616V28.2185Z" fill="white"/>
<path d="M88.6616 25.652H86.0564V28.2185H88.6616V25.652Z" fill="white"/>
<path d="M88.6616 23.0881H86.0564V25.652H88.6616V23.0881Z" fill="white"/>
<path d="M88.6616 20.5216H86.0564V23.0881H88.6616V20.5216Z" fill="white"/>
<path d="M88.6616 17.955H86.0564V20.5216H88.6616V17.955Z" fill="white"/>
<path d="M88.6616 15.3912H86.0564V17.955H88.6616V15.3912Z" fill="white"/>
<path d="M88.6616 12.8246H86.0564V15.3912H88.6616V12.8246Z" fill="#231815"/>
<path d="M88.6616 10.2608H86.0564V12.8246H88.6616L88.6616 10.2608Z" fill="#231815"/>
<path d="M86.0564 43.6097H83.4513V46.1736H86.0564V43.6097Z" fill="#231815"/>
<path d="M86.0564 41.0432H83.4513V43.6097H86.0564V41.0432Z" fill="white"/>
<path d="M86.0564 38.4793H83.4513V41.0432H86.0564V38.4793Z" fill="white"/>
<path d="M86.0564 35.9128H83.4513V38.4793H86.0564V35.9128Z" fill="white"/>
<path d="M86.0564 33.3489H83.4513V35.9128H86.0564V33.3489Z" fill="white"/>
<path d="M86.0564 30.7824H83.4513V33.3489H86.0564V30.7824Z" fill="white"/>
<path d="M86.0564 28.2185H83.4513V30.7824H86.0564V28.2185Z" fill="white"/>
<path d="M86.0564 25.652H83.4513V28.2185H86.0564V25.652Z" fill="white"/>
<path d="M86.0564 23.0881H83.4513V25.652H86.0564V23.0881Z" fill="white"/>
<path d="M86.0564 20.5216H83.4513V23.0881H86.0564V20.5216Z" fill="white"/>
<path d="M86.0564 17.955H83.4513V20.5216H86.0564V17.955Z" fill="white"/>
<path d="M86.0564 15.3912H83.4513V17.955H86.0564V15.3912Z" fill="white"/>
<path d="M86.0564 12.8246H83.4513V15.3912H86.0564V12.8246Z" fill="white"/>
<path d="M86.0564 10.2608H83.4513V12.8246H86.0564V10.2608Z" fill="#231815"/>
<path d="M86.0564 7.69425H83.4513V10.2608H86.0564V7.69425Z" fill="#231815"/>
<path d="M83.4513 51.3067H80.8462V53.8705H83.4513V51.3067Z" fill="#231815"/>
<path d="M83.4513 46.1736L80.8462 46.1736V48.7401H83.4513V46.1736Z" fill="#231815"/>
<path d="M83.4513 43.6097H80.8462V46.1736L83.4513 46.1736V43.6097Z" fill="#231815"/>
<path d="M83.4513 41.0432H80.8462V43.6097H83.4513V41.0432Z" fill="white"/>
<path d="M83.4513 38.4793H80.8462V41.0432H83.4513V38.4793Z" fill="white"/>
<path d="M83.4513 35.9128H80.8462V38.4793H83.4513V35.9128Z" fill="white"/>
<path d="M83.4513 33.3489H80.8462V35.9128H83.4513V33.3489Z" fill="white"/>
<path d="M83.4513 30.7824H80.8462V33.3489H83.4513V30.7824Z" fill="white"/>
<path d="M83.4513 28.2185H80.8462V30.7824H83.4513V28.2185Z" fill="white"/>
<path d="M83.4513 25.652H80.8462V28.2185H83.4513V25.652Z" fill="white"/>
<path d="M83.4513 23.0881H80.8462V25.652H83.4513V23.0881Z" fill="white"/>
<path d="M83.4513 20.5216H80.8462V23.0881H83.4513V20.5216Z" fill="white"/>
<path d="M83.4513 17.955H80.8462V20.5216H83.4513V17.955Z" fill="white"/>
<path d="M83.4513 15.3912H80.8462V17.955H83.4513V15.3912Z" fill="white"/>
<path d="M83.4513 12.8246H80.8462V15.3912H83.4513V12.8246Z" fill="white"/>
<path d="M83.4513 10.2608H80.8462V12.8246H83.4513V10.2608Z" fill="white"/>
<path d="M83.4513 7.69425H80.8462V10.2608H83.4513V7.69425Z" fill="#231815"/>
<path d="M80.8462 53.8705L78.2385 53.8705V56.437H80.8462L80.8462 53.8705Z" fill="#231815"/>
<path d="M80.8462 51.3067H78.2385V53.8705L80.8462 53.8705V51.3067Z" fill="#231815"/>
<path d="M80.8462 46.1736H78.2385V48.7401H80.8462V46.1736Z" fill="#231815"/>
<path d="M80.8462 43.6097H78.2385V46.1736H80.8462V43.6097Z" fill="white"/>
<path d="M80.8462 41.0432H78.2385V43.6097H80.8462V41.0432Z" fill="white"/>
<path d="M80.8462 38.4793H78.2385V41.0432H80.8462V38.4793Z" fill="white"/>
<path d="M80.8462 35.9128H78.2385V38.4793H80.8462V35.9128Z" fill="white"/>
<path d="M80.8462 33.3489H78.2385V35.9128H80.8462V33.3489Z" fill="white"/>
<path d="M80.8462 30.7824H78.2385V33.3489H80.8462V30.7824Z" fill="white"/>
<path d="M80.8462 28.2185H78.2385V30.7824H80.8462V28.2185Z" fill="white"/>
<path d="M80.8462 25.652H78.2385V28.2185H80.8462V25.652Z" fill="white"/>
<path d="M80.8462 23.0881H78.2385V25.652H80.8462V23.0881Z" fill="white"/>
<path d="M80.8462 20.5216H78.2385V23.0881H80.8462V20.5216Z" fill="white"/>
<path d="M80.8462 17.955H78.2385V20.5216H80.8462V17.955Z" fill="white"/>
<path d="M80.8462 15.3912H78.2385V17.955H80.8462V15.3912Z" fill="white"/>
<path d="M80.8462 12.8246H78.2385V15.3912H80.8462V12.8246Z" fill="white"/>
<path d="M80.8462 10.2608H78.2385V12.8246H80.8462V10.2608Z" fill="white"/>
<path d="M80.8462 7.69425H78.2385V10.2608H80.8462V7.69425Z" fill="#231815"/>
<path d="M80.8462 5.1304H78.2385V7.69425H80.8462L80.8462 5.1304Z" fill="#231815"/>
<path d="M78.2385 53.8705H75.6334V56.437H78.2385V53.8705Z" fill="#231815"/>
<path d="M78.2385 51.3067H75.6334V53.8705H78.2385V51.3067Z" fill="white"/>
<path d="M78.2385 48.7401H75.6334V51.3067H78.2385V48.7401Z" fill="#231815"/>
<path d="M78.2385 46.1736H75.6334V48.7401H78.2385V46.1736Z" fill="#231815"/>
<path d="M78.2385 43.6097H75.6334V46.1736H78.2385V43.6097Z" fill="white"/>
<path d="M78.2385 41.0432H75.6334V43.6097H78.2385V41.0432Z" fill="white"/>
<path d="M78.2385 38.4793H75.6334V41.0432H78.2385V38.4793Z" fill="white"/>
<path d="M78.2385 35.9128H75.6334V38.4793H78.2385V35.9128Z" fill="white"/>
<path d="M78.2385 33.3489H75.6334V35.9128H78.2385V33.3489Z" fill="white"/>
<path d="M78.2385 30.7824H75.6334V33.3489H78.2385V30.7824Z" fill="white"/>
<path d="M78.2385 28.2185H75.6334V30.7824H78.2385V28.2185Z" fill="white"/>
<path d="M78.2385 25.652H75.6334V28.2185H78.2385V25.652Z" fill="white"/>
<path d="M78.2385 23.0881H75.6334V25.652H78.2385V23.0881Z" fill="white"/>
<path d="M78.2385 20.5216H75.6334V23.0881H78.2385V20.5216Z" fill="white"/>
<path d="M78.2385 17.955H75.6334V20.5216H78.2385V17.955Z" fill="white"/>
<path d="M78.2385 15.3912H75.6334V17.955H78.2385V15.3912Z" fill="white"/>
<path d="M78.2385 12.8246H75.6334V15.3912H78.2385V12.8246Z" fill="white"/>
<path d="M78.2385 10.2608H75.6334V12.8246H78.2385V10.2608Z" fill="white"/>
<path d="M78.2385 7.69425H75.6334V10.2608H78.2385V7.69425Z" fill="white"/>
<path d="M78.2385 5.1304H75.6334V7.69425H78.2385V5.1304Z" fill="#231815"/>
<path d="M75.6334 53.8705H73.0283V56.437H75.6334V53.8705Z" fill="#231815"/>
<path d="M75.6334 51.3067H73.0283V53.8705H75.6334V51.3067Z" fill="white"/>
<path d="M75.6334 48.7401H73.0283V51.3067H75.6334V48.7401Z" fill="#231815"/>
<path d="M75.6334 46.1736H73.0283V48.7401H75.6334V46.1736Z" fill="#231815"/>
<path d="M75.6334 43.6097H73.0283V46.1736H75.6334V43.6097Z" fill="white"/>
<path d="M75.6334 41.0432H73.0283V43.6097H75.6334V41.0432Z" fill="white"/>
<path d="M75.6334 38.4793H73.0283V41.0432H75.6334V38.4793Z" fill="white"/>
<path d="M75.6334 35.9128H73.0283V38.4793H75.6334V35.9128Z" fill="white"/>
<path d="M75.6334 33.3489H73.0283V35.9128H75.6334V33.3489Z" fill="white"/>
<path d="M75.6334 30.7824H73.0283V33.3489H75.6334V30.7824Z" fill="white"/>
<path d="M75.6334 28.2185H73.0283V30.7824H75.6334V28.2185Z" fill="white"/>
<path d="M75.6334 25.652H73.0283V28.2185H75.6334V25.652Z" fill="white"/>
<path d="M75.6334 23.0881H73.0283V25.652H75.6334V23.0881Z" fill="white"/>
<path d="M75.6334 20.5216H73.0283V23.0881H75.6334V20.5216Z" fill="white"/>
<path d="M75.6334 17.955H73.0283V20.5216H75.6334V17.955Z" fill="white"/>
<path d="M75.6334 15.3912H73.0283V17.955H75.6334V15.3912Z" fill="white"/>
<path d="M75.6334 12.8246H73.0283V15.3912H75.6334V12.8246Z" fill="white"/>
<path d="M75.6334 10.2608H73.0283V12.8246H75.6334V10.2608Z" fill="white"/>
<path d="M75.6334 7.69425H73.0283V10.2608H75.6334V7.69425Z" fill="white"/>
<path d="M75.6334 5.1304H73.0283V7.69425H75.6334V5.1304Z" fill="#231815"/>
<path d="M75.6334 2.56385H73.0283V5.1304H75.6334L75.6334 2.56385Z" fill="#231815"/>
<path d="M73.0283 53.8705H70.4232V56.437H73.0283V53.8705Z" fill="#231815"/>
<path d="M73.0283 51.3067H70.4232V53.8705H73.0283V51.3067Z" fill="white"/>
<path d="M73.0283 48.7401H70.4232V51.3067H73.0283V48.7401Z" fill="white"/>
<path d="M73.0283 46.1736H70.4232V48.7401H73.0283V46.1736Z" fill="white"/>
<path d="M73.0283 43.6097H70.4232V46.1736H73.0283V43.6097Z" fill="white"/>
<path d="M73.0283 41.0432H70.4232V43.6097H73.0283V41.0432Z" fill="white"/>
<path d="M73.0283 38.4793H70.4232V41.0432H73.0283V38.4793Z" fill="white"/>
<path d="M73.0283 35.9128H70.4232V38.4793H73.0283V35.9128Z" fill="white"/>
<path d="M73.0283 33.3489H70.4232V35.9128H73.0283V33.3489Z" fill="white"/>
<path d="M73.0283 30.7824H70.4232V33.3489H73.0283V30.7824Z" fill="white"/>
<path d="M73.0283 28.2185H70.4232V30.7824H73.0283V28.2185Z" fill="white"/>
<path d="M73.0283 25.652H70.4232V28.2185H73.0283V25.652Z" fill="white"/>
<path d="M73.0283 23.0881H70.4232V25.652H73.0283V23.0881Z" fill="white"/>
<path d="M73.0283 20.5216H70.4232V23.0881H73.0283V20.5216Z" fill="white"/>
<path d="M73.0283 17.955H70.4232V20.5216H73.0283V17.955Z" fill="white"/>
<path d="M73.0283 15.3912H70.4232V17.955H73.0283V15.3912Z" fill="white"/>
<path d="M73.0283 12.8246H70.4232V15.3912H73.0283V12.8246Z" fill="white"/>
<path d="M73.0283 10.2608H70.4232V12.8246H73.0283V10.2608Z" fill="white"/>
<path d="M73.0283 7.69425H70.4232V10.2608H73.0283V7.69425Z" fill="white"/>
<path d="M73.0283 5.1304H70.4232V7.69425H73.0283V5.1304Z" fill="white"/>
<path d="M73.0283 2.56385H70.4232V5.1304H73.0283V2.56385Z" fill="#231815"/>
<path d="M70.4232 53.8705H67.8154V56.437H70.4232V53.8705Z" fill="#231815"/>
<path d="M70.4232 51.3067H67.8154V53.8705H70.4232V51.3067Z" fill="white"/>
<path d="M70.4232 48.7401H67.8154V51.3067H70.4232V48.7401Z" fill="white"/>
<path d="M70.4232 46.1736H67.8154V48.7401H70.4232V46.1736Z" fill="white"/>
<path d="M70.4232 43.6097H67.8154V46.1736H70.4232V43.6097Z" fill="white"/>
<path d="M70.4232 41.0432H67.8154V43.6097H70.4232V41.0432Z" fill="white"/>
<path d="M70.4232 38.4793H67.8154V41.0432H70.4232V38.4793Z" fill="white"/>
<path d="M70.4232 35.9128H67.8154V38.4793H70.4232V35.9128Z" fill="white"/>
<path d="M70.4232 33.3489H67.8154V35.9128H70.4232V33.3489Z" fill="white"/>
<path d="M70.4232 30.7824H67.8154V33.3489H70.4232V30.7824Z" fill="white"/>
<path d="M70.4232 28.2185H67.8154V30.7824H70.4232V28.2185Z" fill="white"/>
<path d="M70.4232 25.652H67.8154V28.2185H70.4232V25.652Z" fill="white"/>
<path d="M70.4232 23.0881H67.8154V25.652H70.4232V23.0881Z" fill="white"/>
<path d="M70.4232 20.5216H67.8154V23.0881H70.4232V20.5216Z" fill="white"/>
<path d="M70.4232 17.955H67.8154V20.5216H70.4232V17.955Z" fill="white"/>
<path d="M70.4232 15.3912H67.8154V17.955H70.4232V15.3912Z" fill="white"/>
<path d="M70.4232 12.8246H67.8154V15.3912H70.4232V12.8246Z" fill="white"/>
<path d="M70.4232 10.2608H67.8154V12.8246H70.4232V10.2608Z" fill="white"/>
<path d="M70.4232 7.69425H67.8154V10.2608H70.4232V7.69425Z" fill="white"/>
<path d="M70.4232 5.1304H67.8154V7.69425H70.4232V5.1304Z" fill="white"/>
<path d="M70.4232 2.56385H67.8154V5.1304H70.4232V2.56385Z" fill="#231815"/>
<path d="M67.8154 53.8705H65.2103V56.437H67.8154V53.8705Z" fill="#231815"/>
<path d="M67.8154 51.3067H65.2103V53.8705H67.8154V51.3067Z" fill="white"/>
<path d="M67.8154 48.7401H65.2103V51.3067H67.8154V48.7401Z" fill="white"/>
<path d="M67.8154 46.1736H65.2103V48.7401H67.8154V46.1736Z" fill="white"/>
<path d="M67.8154 43.6097H65.2103V46.1736H67.8154V43.6097Z" fill="white"/>
<path d="M67.8154 41.0432H65.2103V43.6097H67.8154V41.0432Z" fill="white"/>
<path d="M67.8154 38.4793H65.2103V41.0432H67.8154V38.4793Z" fill="white"/>
<path d="M67.8154 35.9128H65.2103V38.4793H67.8154V35.9128Z" fill="#231815"/>
<path d="M67.8154 33.3489H65.2103V35.9128H67.8154V33.3489Z" fill="#231815"/>
<path d="M67.8154 30.7824H65.2103V33.3489H67.8154V30.7824Z" fill="#231815"/>
<path d="M67.8154 28.2185H65.2103V30.7824H67.8154V28.2185Z" fill="#231815"/>
<path d="M67.8154 25.652H65.2103V28.2185H67.8154V25.652Z" fill="#231815"/>
<path d="M67.8154 23.0881H65.2103V25.652H67.8154V23.0881Z" fill="#231815"/>
<path d="M67.8154 20.5216H65.2103V23.0881H67.8154V20.5216Z" fill="white"/>
<path d="M67.8154 17.955H65.2103V20.5216H67.8154V17.955Z" fill="white"/>
<path d="M67.8154 15.3912H65.2103V17.955H67.8154V15.3912Z" fill="white"/>
<path d="M67.8154 12.8246H65.2103V15.3912H67.8154V12.8246Z" fill="white"/>
<path d="M67.8154 10.2608H65.2103V12.8246H67.8154V10.2608Z" fill="white"/>
<path d="M67.8154 7.69425H65.2103V10.2608H67.8154V7.69425Z" fill="white"/>
<path d="M67.8154 5.1304H65.2103V7.69425H67.8154V5.1304Z" fill="white"/>
<path d="M67.8154 2.56385H65.2103V5.1304H67.8154V2.56385Z" fill="#231815"/>
<path d="M65.2103 51.3067H62.6052V53.8705L65.2103 53.8705V51.3067Z" fill="#231815"/>
<path d="M65.2103 48.7401H62.6052V51.3067H65.2103V48.7401Z" fill="white"/>
<path d="M65.2103 46.1736H62.6052V48.7401H65.2103V46.1736Z" fill="white"/>
<path d="M65.2103 43.6097H62.6052V46.1736H65.2103V43.6097Z" fill="white"/>
<path d="M65.2103 41.0432H62.6052V43.6097H65.2103V41.0432Z" fill="white"/>
<path d="M65.2103 38.4793H62.6052V41.0432H65.2103V38.4793Z" fill="#231815"/>
<path d="M65.2103 35.9128H62.6052V38.4793H65.2103V35.9128Z" fill="#231815"/>
<path d="M65.2103 33.3489H62.6052V35.9128H65.2103V33.3489Z" fill="white"/>
<path d="M65.2103 30.7824H62.6052V33.3489H65.2103V30.7824Z" fill="white"/>
<path d="M65.2103 28.2185H62.6052V30.7824H65.2103V28.2185Z" fill="white"/>
<path d="M65.2103 25.652H62.6052V28.2185H65.2103V25.652Z" fill="white"/>
<path d="M65.2103 23.0881H62.6052V25.652H65.2103V23.0881Z" fill="#231815"/>
<path d="M65.2103 20.5216H62.6052V23.0881H65.2103V20.5216Z" fill="#231815"/>
<path d="M65.2103 17.955H62.6052V20.5216H65.2103V17.955Z" fill="#231815"/>
<path d="M65.2103 15.3912H62.6052V17.955H65.2103V15.3912Z" fill="white"/>
<path d="M65.2103 12.8246H62.6052V15.3912H65.2103V12.8246Z" fill="white"/>
<path d="M65.2103 10.2608H62.6052V12.8246H65.2103V10.2608Z" fill="white"/>
<path d="M65.2103 7.69425H62.6052V10.2608H65.2103V7.69425Z" fill="white"/>
<path d="M65.2103 5.1304H62.6052V7.69425H65.2103V5.1304Z" fill="white"/>
<path d="M65.2103 2.56385H62.6052V5.1304H65.2103V2.56385Z" fill="#231815"/>
<path d="M65.2103 0H62.6052V2.56385H65.2103V0Z" fill="#231815"/>
<path d="M62.6052 51.3067H60.0001V53.8705H62.6052V51.3067Z" fill="#231815"/>
<path d="M62.6052 48.7401H60.0001V51.3067H62.6052V48.7401Z" fill="white"/>
<path d="M62.6052 46.1736H60.0001V48.7401H62.6052V46.1736Z" fill="white"/>
<path d="M62.6052 43.6097H60.0001V46.1736H62.6052V43.6097Z" fill="white"/>
<path d="M62.6052 41.0432H60.0001V43.6097H62.6052V41.0432Z" fill="white"/>
<path d="M62.6052 38.4793H60.0001V41.0432H62.6052V38.4793Z" fill="white"/>
<path d="M62.6052 35.9128H60.0001V38.4793H62.6052V35.9128Z" fill="white"/>
<path d="M62.6052 33.3489H60.0001V35.9128H62.6052V33.3489Z" fill="white"/>
<path d="M62.6052 30.7824H60.0001V33.3489H62.6052V30.7824Z" fill="white"/>
<path d="M62.6052 28.2185H60.0001V30.7824H62.6052V28.2185Z" fill="white"/>
<path d="M62.6052 25.652H60.0001V28.2185H62.6052V25.652Z" fill="white"/>
<path d="M62.6052 23.0881H60.0001V25.652H62.6052V23.0881Z" fill="white"/>
<path d="M62.6052 20.5216H60.0001V23.0881H62.6052V20.5216Z" fill="white"/>
<path d="M62.6052 17.955H60.0001V20.5216H62.6052V17.955Z" fill="#231815"/>
<path d="M62.6052 15.3912H60.0001V17.955H62.6052V15.3912Z" fill="#231815"/>
<path d="M62.6052 12.8246H60.0001V15.3912H62.6052V12.8246Z" fill="#231815"/>
<path d="M62.6052 10.2608H60.0001V12.8246H62.6052V10.2608Z" fill="white"/>
<path d="M62.6052 7.69425H60.0001V10.2608H62.6052V7.69425Z" fill="white"/>
<path d="M62.6052 5.1304H60.0001V7.69425H62.6052V5.1304Z" fill="white"/>
<path d="M62.6052 2.56385H60.0001V5.1304H62.6052V2.56385Z" fill="white"/>
<path d="M62.6052 0H60.0001V2.56385H62.6052V0Z" fill="#231815"/>
<path d="M60.0001 48.7401H57.3923V51.3067H60.0001V48.7401Z" fill="#231815"/>
<path d="M60.0001 46.1736H57.3923V48.7401H60.0001V46.1736Z" fill="white"/>
<path d="M60.0001 43.6097H57.3923V46.1736H60.0001V43.6097Z" fill="#231815"/>
<path d="M60.0001 41.0432H57.3923V43.6097H60.0001V41.0432Z" fill="#231815"/>
<path d="M60.0001 38.4793H57.3923V41.0432H60.0001V38.4793Z" fill="white"/>
<path d="M60.0001 35.9128H57.3923V38.4793H60.0001V35.9128Z" fill="white"/>
<path d="M60.0001 33.3489H57.3923V35.9128H60.0001V33.3489Z" fill="white"/>
<path d="M60.0001 30.7824H57.3923V33.3489H60.0001V30.7824Z" fill="white"/>
<path d="M60.0001 28.2185H57.3923V30.7824H60.0001V28.2185Z" fill="white"/>
<path d="M60.0001 25.652H57.3923V28.2185H60.0001V25.652Z" fill="white"/>
<path d="M60.0001 23.0881H57.3923V25.652H60.0001V23.0881Z" fill="white"/>
<path d="M60.0001 20.5216H57.3923V23.0881H60.0001V20.5216Z" fill="white"/>
<path d="M60.0001 17.955H57.3923V20.5216H60.0001V17.955Z" fill="white"/>
<path d="M60.0001 15.3912H57.3923V17.955H60.0001V15.3912Z" fill="white"/>
<path d="M60.0001 12.8246H57.3923V15.3912H60.0001V12.8246Z" fill="white"/>
<path d="M60.0001 10.2608H57.3923V12.8246H60.0001V10.2608Z" fill="#231815"/>
<path d="M60.0001 7.69425H57.3923V10.2608H60.0001V7.69425Z" fill="#231815"/>
<path d="M60.0001 5.1304H57.3923V7.69425H60.0001V5.1304Z" fill="white"/>
<path d="M60.0001 2.56385H57.3923V5.1304H60.0001V2.56385Z" fill="white"/>
<path d="M60.0001 0H57.3923V2.56385H60.0001V0Z" fill="#231815"/>
<path d="M57.3923 48.7401H54.7872V51.3067H57.3923V48.7401Z" fill="#231815"/>
<path d="M57.3923 46.1736H54.7872V48.7401H57.3923V46.1736Z" fill="white"/>
<path d="M57.3923 43.6097H54.7872V46.1736H57.3923V43.6097Z" fill="#231815"/>
<path d="M57.3923 41.0432H54.7872V43.6097H57.3923V41.0432Z" fill="white"/>
<path d="M57.3923 38.4793H54.7872V41.0432H57.3923V38.4793Z" fill="white"/>
<path d="M57.3923 35.9128H54.7872V38.4793H57.3923V35.9128Z" fill="white"/>
<path d="M57.3923 33.3489H54.7872V35.9128H57.3923V33.3489Z" fill="white"/>
<path d="M57.3923 30.7824H54.7872V33.3489H57.3923V30.7824Z" fill="white"/>
<path d="M57.3923 28.2185H54.7872V30.7824H57.3923V28.2185Z" fill="white"/>
<path d="M57.3923 25.652H54.7872V28.2185H57.3923V25.652Z" fill="white"/>
<path d="M57.3923 23.0881H54.7872V25.652H57.3923V23.0881Z" fill="white"/>
<path d="M57.3923 20.5216H54.7872V23.0881H57.3923V20.5216Z" fill="white"/>
<path d="M57.3923 17.955H54.7872V20.5216H57.3923V17.955Z" fill="white"/>
<path d="M57.3923 15.3912H54.7872V17.955H57.3923V15.3912Z" fill="white"/>
<path d="M57.3923 12.8246H54.7872V15.3912H57.3923V12.8246Z" fill="white"/>
<path d="M57.3923 10.2608H54.7872V12.8246H57.3923V10.2608Z" fill="white"/>
<path d="M57.3923 7.69425H54.7872V10.2608H57.3923V7.69425Z" fill="#231815"/>
<path d="M57.3923 5.1304H54.7872V7.69425H57.3923V5.1304Z" fill="white"/>
<path d="M57.3923 2.56385H54.7872V5.1304H57.3923V2.56385Z" fill="#231815"/>
<path d="M57.3923 0H54.7872V2.56385H57.3923V0Z" fill="#231815"/>
<path d="M54.7872 51.3067H52.1821V53.8705H54.7872L54.7872 51.3067Z" fill="#231815"/>
<path d="M54.7872 48.7401H52.1821V51.3067H54.7872V48.7401Z" fill="#231815"/>
<path d="M54.7872 46.1736H52.1821V48.7401H54.7872V46.1736Z" fill="white"/>
<path d="M54.7872 43.6097H52.1821V46.1736H54.7872V43.6097Z" fill="white"/>
<path d="M54.7872 41.0432H52.1821V43.6097H54.7872V41.0432Z" fill="white"/>
<path d="M54.7872 38.4793H52.1821V41.0432H54.7872V38.4793Z" fill="white"/>
<path d="M54.7872 35.9128H52.1821V38.4793H54.7872V35.9128Z" fill="white"/>
<path d="M54.7872 33.3489H52.1821V35.9128H54.7872V33.3489Z" fill="white"/>
<path d="M54.7872 30.7824H52.1821V33.3489H54.7872V30.7824Z" fill="white"/>
<path d="M54.7872 28.2185H52.1821V30.7824H54.7872V28.2185Z" fill="white"/>
<path d="M54.7872 25.652H52.1821V28.2185H54.7872V25.652Z" fill="white"/>
<path d="M54.7872 23.0881H52.1821V25.652H54.7872V23.0881Z" fill="white"/>
<path d="M54.7872 20.5216H52.1821V23.0881H54.7872V20.5216Z" fill="white"/>
<path d="M54.7872 17.955H52.1821V20.5216H54.7872V17.955Z" fill="white"/>
<path d="M54.7872 15.3912H52.1821V17.955H54.7872V15.3912Z" fill="white"/>
<path d="M54.7872 12.8246H52.1821V15.3912H54.7872V12.8246Z" fill="white"/>
<path d="M54.7872 10.2608H52.1821V12.8246H54.7872V10.2608Z" fill="white"/>
<path d="M54.7872 7.69425H52.1821V10.2608H54.7872V7.69425Z" fill="white"/>
<path d="M54.7872 5.1304H52.1821V7.69425H54.7872V5.1304Z" fill="#231815"/>
<path d="M54.7872 2.56385H52.1821V5.1304H54.7872V2.56385Z" fill="#231815"/>
<path d="M52.1821 51.3067H49.5743V53.8705H52.1821V51.3067Z" fill="#231815"/>
<path d="M52.1821 48.7401H49.5743V51.3067H52.1821V48.7401Z" fill="white"/>
<path d="M52.1821 46.1736H49.5743V48.7401H52.1821V46.1736Z" fill="white"/>
<path d="M52.1821 43.6097H49.5743V46.1736H52.1821V43.6097Z" fill="white"/>
<path d="M52.1821 41.0432H49.5743V43.6097H52.1821V41.0432Z" fill="white"/>
<path d="M52.1821 38.4793H49.5743V41.0432H52.1821V38.4793Z" fill="white"/>
<path d="M52.1821 35.9128H49.5743V38.4793H52.1821V35.9128Z" fill="white"/>
<path d="M52.1821 33.3489H49.5743V35.9128H52.1821V33.3489Z" fill="white"/>
<path d="M52.1821 30.7824H49.5743V33.3489H52.1821V30.7824Z" fill="white"/>
<path d="M52.1821 28.2185H49.5743V30.7824H52.1821V28.2185Z" fill="#231815"/>
<path d="M52.1821 25.652H49.5743V28.2185H52.1821V25.652Z" fill="#231815"/>
<path d="M52.1821 23.0881H49.5743V25.652H52.1821V23.0881Z" fill="#231815"/>
<path d="M52.1821 20.5216H49.5743V23.0881H52.1821V20.5216Z" fill="white"/>
<path d="M52.1821 17.955H49.5743V20.5216H52.1821V17.955Z" fill="white"/>
<path d="M52.1821 15.3912H49.5743V17.955H52.1821V15.3912Z" fill="white"/>
<path d="M52.1821 12.8246H49.5743V15.3912H52.1821V12.8246Z" fill="white"/>
<path d="M52.1821 10.2608H49.5743V12.8246H52.1821V10.2608Z" fill="white"/>
<path d="M52.1821 7.69425H49.5743V10.2608H52.1821V7.69425Z" fill="white"/>
<path d="M52.1821 5.1304H49.5743V7.69425H52.1821V5.1304Z" fill="#231815"/>
<path d="M52.1821 2.56385H49.5743V5.1304H52.1821V2.56385Z" fill="#231815"/>
<path d="M49.5743 51.3067H46.9692V53.8705H49.5743V51.3067Z" fill="#231815"/>
<path d="M49.5743 48.7401H46.9692V51.3067H49.5743V48.7401Z" fill="white"/>
<path d="M49.5743 46.1736H46.9692V48.7401H49.5743V46.1736Z" fill="white"/>
<path d="M49.5743 43.6097H46.9692V46.1736H49.5743V43.6097Z" fill="white"/>
<path d="M49.5743 41.0432H46.9692V43.6097H49.5743V41.0432Z" fill="white"/>
<path d="M49.5743 38.4793H46.9692V41.0432H49.5743V38.4793Z" fill="white"/>
<path d="M49.5743 35.9128H46.9692V38.4793H49.5743V35.9128Z" fill="white"/>
<path d="M49.5743 33.3489H46.9692V35.9128H49.5743V33.3489Z" fill="white"/>
<path d="M49.5743 30.7824H46.9692V33.3489H49.5743V30.7824Z" fill="white"/>
<path d="M49.5743 28.2185H46.9692V30.7824H49.5743V28.2185Z" fill="#231815"/>
<path d="M49.5743 25.652H46.9692V28.2185H49.5743V25.652Z" fill="#231815"/>
<path d="M49.5743 23.0881H46.9692V25.652H49.5743V23.0881Z" fill="#231815"/>
<path d="M49.5743 20.5216H46.9692V23.0881H49.5743V20.5216Z" fill="white"/>
<path d="M49.5743 17.955H46.9692V20.5216H49.5743V17.955Z" fill="white"/>
<path d="M49.5743 15.3912H46.9692V17.955H49.5743V15.3912Z" fill="white"/>
<path d="M49.5743 12.8246H46.9692V15.3912H49.5743V12.8246Z" fill="white"/>
<path d="M49.5743 10.2608H46.9692V12.8246H49.5743V10.2608Z" fill="white"/>
<path d="M49.5743 7.69425H46.9692V10.2608H49.5743V7.69425Z" fill="white"/>
<path d="M49.5743 5.1304H46.9692V7.69425H49.5743V5.1304Z" fill="white"/>
<path d="M49.5743 2.56385H46.9692V5.1304H49.5743V2.56385Z" fill="#231815"/>
<path d="M46.9692 51.3067H44.3641V53.8705H46.9692V51.3067Z" fill="#231815"/>
<path d="M46.9692 48.7401H44.3641V51.3067H46.9692V48.7401Z" fill="white"/>
<path d="M46.9692 46.1736H44.3641V48.7401H46.9692V46.1736Z" fill="white"/>
<path d="M46.9692 43.6097H44.3641V46.1736H46.9692V43.6097Z" fill="white"/>
<path d="M46.9692 41.0432H44.3641V43.6097H46.9692V41.0432Z" fill="white"/>
<path d="M46.9692 38.4793H44.3641V41.0432H46.9692V38.4793Z" fill="white"/>
<path d="M46.9692 35.9128H44.3641V38.4793H46.9692V35.9128Z" fill="white"/>
<path d="M46.9692 33.3489H44.3641V35.9128H46.9692V33.3489Z" fill="white"/>
<path d="M46.9692 30.7824H44.3641V33.3489H46.9692V30.7824Z" fill="#231815"/>
<path d="M46.9692 28.2185H44.3641V30.7824H46.9692V28.2185Z" fill="white"/>
<path d="M46.9692 25.652H44.3641V28.2185H46.9692V25.652Z" fill="#231815"/>
<path d="M46.9692 23.0881H44.3641V25.652H46.9692V23.0881Z" fill="#231815"/>
<path d="M46.9692 20.5216H44.3641V23.0881H46.9692V20.5216Z" fill="white"/>
<path d="M46.9692 17.955H44.3641V20.5216H46.9692V17.955Z" fill="white"/>
<path d="M46.9692 15.3912H44.3641V17.955H46.9692V15.3912Z" fill="white"/>
<path d="M46.9692 12.8246H44.3641V15.3912H46.9692V12.8246Z" fill="white"/>
<path d="M46.9692 10.2608H44.3641V12.8246H46.9692V10.2608Z" fill="white"/>
<path d="M46.9692 7.69425H44.3641V10.2608H46.9692V7.69425Z" fill="white"/>
<path d="M46.9692 5.1304H44.3641V7.69425H46.9692V5.1304Z" fill="white"/>
<path d="M46.9692 2.56385H44.3641V5.1304H46.9692V2.56385Z" fill="#231815"/>
<path d="M46.9692 0H44.3641V2.56385H46.9692L46.9692 0Z" fill="#231815"/>
<path d="M44.3641 51.3067H41.759V53.8705H44.3641V51.3067Z" fill="#231815"/>
<path d="M44.3641 48.7401H41.759V51.3067H44.3641V48.7401Z" fill="white"/>
<path d="M44.3641 46.1736H41.759V48.7401H44.3641V46.1736Z" fill="white"/>
<path d="M44.3641 43.6097H41.759V46.1736H44.3641V43.6097Z" fill="white"/>
<path d="M44.3641 41.0432H41.759V43.6097H44.3641V41.0432Z" fill="white"/>
<path d="M44.3641 38.4793H41.759V41.0432H44.3641V38.4793Z" fill="white"/>
<path d="M44.3641 35.9128H41.759V38.4793H44.3641V35.9128Z" fill="white"/>
<path d="M44.3641 33.3489H41.759V35.9128H44.3641V33.3489Z" fill="#231815"/>
<path d="M44.3641 30.7824H41.759V33.3489H44.3641V30.7824Z" fill="white"/>
<path d="M44.3641 28.2185H41.759V30.7824H44.3641V28.2185Z" fill="#231815"/>
<path d="M44.3641 25.652H41.759V28.2185H44.3641V25.652Z" fill="white"/>
<path d="M44.3641 23.0881H41.759V25.652H44.3641V23.0881Z" fill="white"/>
<path d="M44.3641 20.5216H41.759V23.0881H44.3641V20.5216Z" fill="white"/>
<path d="M44.3641 17.955H41.759V20.5216H44.3641V17.955Z" fill="white"/>
<path d="M44.3641 15.3912H41.759V17.955H44.3641V15.3912Z" fill="white"/>
<path d="M44.3641 12.8246H41.759V15.3912H44.3641V12.8246Z" fill="white"/>
<path d="M44.3641 10.2608H41.759V12.8246H44.3641V10.2608Z" fill="white"/>
<path d="M44.3641 7.69425H41.759V10.2608H44.3641V7.69425Z" fill="white"/>
<path d="M44.3641 5.1304H41.759V7.69425H44.3641V5.1304Z" fill="white"/>
<path d="M44.3641 2.56385H41.759V5.1304H44.3641V2.56385Z" fill="white"/>
<path d="M44.3641 0H41.759V2.56385H44.3641V0Z" fill="#231815"/>
<path d="M41.759 51.3067H39.1512V53.8705H41.759V51.3067Z" fill="#231815"/>
<path d="M41.759 48.7401H39.1512V51.3067H41.759V48.7401Z" fill="white"/>
<path d="M41.759 46.1736H39.1512V48.7401H41.759V46.1736Z" fill="white"/>
<path d="M41.759 43.6097H39.1512V46.1736H41.759V43.6097Z" fill="white"/>
<path d="M41.759 41.0432H39.1512V43.6097H41.759V41.0432Z" fill="white"/>
<path d="M41.759 38.4793H39.1512V41.0432H41.759V38.4793Z" fill="white"/>
<path d="M41.759 35.9128H39.1512V38.4793H41.759V35.9128Z" fill="#231815"/>
<path d="M41.759 33.3489H39.1512V35.9128H41.759V33.3489Z" fill="white"/>
<path d="M41.759 30.7824H39.1512V33.3489H41.759V30.7824Z" fill="white"/>
<path d="M41.759 28.2185H39.1512V30.7824H41.759V28.2185Z" fill="white"/>
<path d="M41.759 25.652H39.1512V28.2185H41.759V25.652Z" fill="white"/>
<path d="M41.759 23.0881H39.1512V25.652H41.759V23.0881Z" fill="white"/>
<path d="M41.759 20.5216H39.1512V23.0881H41.759V20.5216Z" fill="white"/>
<path d="M41.759 17.955H39.1512V20.5216H41.759V17.955Z" fill="white"/>
<path d="M41.759 15.3912H39.1512V17.955H41.759V15.3912Z" fill="white"/>
<path d="M41.759 12.8246H39.1512V15.3912H41.759V12.8246Z" fill="white"/>
<path d="M41.759 10.2608H39.1512V12.8246H41.759V10.2608Z" fill="white"/>
<path d="M41.759 7.69425H39.1512V10.2608H41.759V7.69425Z" fill="white"/>
<path d="M41.759 5.1304H39.1512V7.69425H41.759V5.1304Z" fill="white"/>
<path d="M41.759 2.56385H39.1512V5.1304H41.759V2.56385Z" fill="white"/>
<path d="M41.759 0H39.1512V2.56385H41.759V0Z" fill="#231815"/>
<path d="M39.1512 51.3067H36.5461V53.8705H39.1512V51.3067Z" fill="#231815"/>
<path d="M39.1512 48.7401H36.5461V51.3067H39.1512V48.7401Z" fill="white"/>
<path d="M39.1512 46.1736H36.5461V48.7401H39.1512V46.1736Z" fill="white"/>
<path d="M39.1512 43.6097H36.5461V46.1736H39.1512V43.6097Z" fill="white"/>
<path d="M39.1512 41.0432H36.5461V43.6097H39.1512V41.0432Z" fill="white"/>
<path d="M39.1512 38.4793H36.5461V41.0432H39.1512V38.4793Z" fill="white"/>
<path d="M39.1512 35.9128H36.5461V38.4793H39.1512V35.9128Z" fill="#231815"/>
<path d="M39.1512 33.3489H36.5461V35.9128H39.1512V33.3489Z" fill="white"/>
<path d="M39.1512 30.7824H36.5461V33.3489H39.1512V30.7824Z" fill="#231815"/>
<path d="M39.1512 28.2185H36.5461V30.7824H39.1512V28.2185Z" fill="#231815"/>
<path d="M39.1512 25.652H36.5461V28.2185H39.1512V25.652Z" fill="white"/>
<path d="M39.1512 23.0881H36.5461V25.652H39.1512V23.0881Z" fill="white"/>
<path d="M39.1512 20.5216H36.5461V23.0881H39.1512V20.5216Z" fill="white"/>
<path d="M39.1512 17.955H36.5461V20.5216H39.1512V17.955Z" fill="white"/>
<path d="M39.1512 15.3912H36.5461V17.955H39.1512V15.3912Z" fill="white"/>
<path d="M39.1512 12.8246H36.5461V15.3912H39.1512V12.8246Z" fill="white"/>
<path d="M39.1512 10.2608H36.5461V12.8246H39.1512V10.2608Z" fill="white"/>
<path d="M39.1512 7.69425H36.5461V10.2608H39.1512V7.69425Z" fill="white"/>
<path d="M39.1512 5.1304H36.5461V7.69425H39.1512V5.1304Z" fill="white"/>
<path d="M39.1512 2.56385H36.5461V5.1304H39.1512V2.56385Z" fill="white"/>
<path d="M39.1512 0H36.5461V2.56385H39.1512V0Z" fill="#231815"/>
<path d="M36.5461 51.3067H33.941V53.8705H36.5461V51.3067Z" fill="#231815"/>
<path d="M36.5461 48.7401H33.941V51.3067H36.5461V48.7401Z" fill="white"/>
<path d="M36.5461 46.1736H33.941V48.7401H36.5461V46.1736Z" fill="white"/>
<path d="M36.5461 43.6097H33.941V46.1736H36.5461V43.6097Z" fill="white"/>
<path d="M36.5461 41.0432H33.941V43.6097H36.5461V41.0432Z" fill="white"/>
<path d="M36.5461 38.4793H33.941V41.0432H36.5461V38.4793Z" fill="white"/>
<path d="M36.5461 35.9128H33.941V38.4793H36.5461V35.9128Z" fill="white"/>
<path d="M36.5461 33.3489H33.941V35.9128H36.5461V33.3489Z" fill="#231815"/>
<path d="M36.5461 30.7824H33.941V33.3489H36.5461V30.7824Z" fill="#231815"/>
<path d="M36.5461 28.2185H33.941V30.7824H36.5461V28.2185Z" fill="#231815"/>
<path d="M36.5461 25.652H33.941V28.2185H36.5461V25.652Z" fill="white"/>
<path d="M36.5461 23.0881H33.941V25.652H36.5461V23.0881Z" fill="white"/>
<path d="M36.5461 20.5216H33.941V23.0881H36.5461V20.5216Z" fill="white"/>
<path d="M36.5461 17.955H33.941V20.5216H36.5461V17.955Z" fill="white"/>
<path d="M36.5461 15.3912H33.941V17.955H36.5461V15.3912Z" fill="white"/>
<path d="M36.5461 12.8246H33.941V15.3912H36.5461V12.8246Z" fill="white"/>
<path d="M36.5461 10.2608H33.941V12.8246H36.5461V10.2608Z" fill="white"/>
<path d="M36.5461 7.69425H33.941V10.2608H36.5461V7.69425Z" fill="white"/>
<path d="M36.5461 5.1304H33.941V7.69425H36.5461V5.1304Z" fill="white"/>
<path d="M36.5461 2.56385H33.941V5.1304H36.5461V2.56385Z" fill="#231815"/>
<path d="M36.5461 0H33.941V2.56385H36.5461V0Z" fill="#231815"/>
<path d="M33.941 51.3067H31.3359V53.8705H33.941V51.3067Z" fill="#231815"/>
<path d="M33.941 48.7401H31.3359V51.3067H33.941V48.7401Z" fill="white"/>
<path d="M33.941 46.1736H31.3359V48.7401H33.941V46.1736Z" fill="white"/>
<path d="M33.941 43.6097H31.3359V46.1736H33.941V43.6097Z" fill="white"/>
<path d="M33.941 41.0432H31.3359V43.6097H33.941V41.0432Z" fill="white"/>
<path d="M33.941 38.4793H31.3359V41.0432H33.941V38.4793Z" fill="white"/>
<path d="M33.941 35.9128H31.3359V38.4793H33.941V35.9128Z" fill="#231815"/>
<path d="M33.941 33.3489H31.3359V35.9128H33.941V33.3489Z" fill="white"/>
<path d="M33.941 30.7824H31.3359V33.3489H33.941V30.7824Z" fill="#231815"/>
<path d="M33.941 28.2185H31.3359V30.7824H33.941V28.2185Z" fill="#231815"/>
<path d="M33.941 25.652H31.3359V28.2185H33.941V25.652Z" fill="white"/>
<path d="M33.941 23.0881H31.3359V25.652H33.941V23.0881Z" fill="white"/>
<path d="M33.941 20.5216H31.3359V23.0881H33.941V20.5216Z" fill="white"/>
<path d="M33.941 17.955H31.3359V20.5216H33.941V17.955Z" fill="white"/>
<path d="M33.941 15.3912H31.3359V17.955H33.941V15.3912Z" fill="white"/>
<path d="M33.941 12.8246H31.3359V15.3912H33.941V12.8246Z" fill="white"/>
<path d="M33.941 10.2608H31.3359V12.8246H33.941V10.2608Z" fill="white"/>
<path d="M33.941 7.69425H31.3359V10.2608H33.941V7.69425Z" fill="white"/>
<path d="M33.941 5.1304H31.3359V7.69425H33.941V5.1304Z" fill="white"/>
<path d="M33.941 2.56385H31.3359V5.1304H33.941V2.56385Z" fill="#231815"/>
<path d="M31.3359 51.3067H28.7281V53.8705H31.3359V51.3067Z" fill="#231815"/>
<path d="M31.3359 48.7401H28.7281V51.3067H31.3359V48.7401Z" fill="white"/>
<path d="M31.3359 46.1736H28.7281V48.7401H31.3359V46.1736Z" fill="white"/>
<path d="M31.3359 43.6097H28.7281V46.1736H31.3359V43.6097Z" fill="white"/>
<path d="M31.3359 41.0432H28.7281V43.6097H31.3359V41.0432Z" fill="white"/>
<path d="M31.3359 38.4793H28.7281V41.0432H31.3359V38.4793Z" fill="white"/>
<path d="M31.3359 35.9128H28.7281V38.4793H31.3359V35.9128Z" fill="#231815"/>
<path d="M31.3359 33.3489H28.7281V35.9128H31.3359V33.3489Z" fill="white"/>
<path d="M31.3359 30.7824H28.7281V33.3489H31.3359V30.7824Z" fill="white"/>
<path d="M31.3359 28.2185H28.7281V30.7824H31.3359V28.2185Z" fill="white"/>
<path d="M31.3359 25.652H28.7281V28.2185H31.3359V25.652Z" fill="white"/>
<path d="M31.3359 23.0881H28.7281V25.652H31.3359V23.0881Z" fill="white"/>
<path d="M31.3359 20.5216H28.7281V23.0881H31.3359V20.5216Z" fill="white"/>
<path d="M31.3359 17.955H28.7281V20.5216H31.3359V17.955Z" fill="white"/>
<path d="M31.3359 15.3912H28.7281V17.955H31.3359V15.3912Z" fill="white"/>
<path d="M31.3359 12.8246H28.7281V15.3912H31.3359V12.8246Z" fill="white"/>
<path d="M31.3359 10.2608H28.7281V12.8246H31.3359V10.2608Z" fill="white"/>
<path d="M31.3359 7.69425H28.7281V10.2608H31.3359V7.69425Z" fill="white"/>
<path d="M31.3359 5.1304H28.7281V7.69425H31.3359V5.1304Z" fill="white"/>
<path d="M31.3359 2.56385H28.7281V5.1304H31.3359V2.56385Z" fill="#231815"/>
<path d="M28.7281 51.3067H26.123V53.8705H28.7281V51.3067Z" fill="#231815"/>
<path d="M28.7281 48.7401H26.123V51.3067H28.7281V48.7401Z" fill="white"/>
<path d="M28.7281 46.1736H26.123V48.7401H28.7281V46.1736Z" fill="white"/>
<path d="M28.7281 43.6097H26.123V46.1736H28.7281V43.6097Z" fill="white"/>
<path d="M28.7281 41.0432H26.123V43.6097H28.7281V41.0432Z" fill="white"/>
<path d="M28.7281 38.4793H26.123V41.0432H28.7281V38.4793Z" fill="white"/>
<path d="M28.7281 35.9128H26.123V38.4793H28.7281V35.9128Z" fill="white"/>
<path d="M28.7281 33.3489H26.123V35.9128H28.7281V33.3489Z" fill="#231815"/>
<path d="M28.7281 30.7824H26.123V33.3489H28.7281V30.7824Z" fill="white"/>
<path d="M28.7281 28.2185H26.123V30.7824H28.7281V28.2185Z" fill="#231815"/>
<path d="M28.7281 25.652H26.123V28.2185H28.7281V25.652Z" fill="white"/>
<path d="M28.7281 23.0881H26.123V25.652H28.7281V23.0881Z" fill="white"/>
<path d="M28.7281 20.5216H26.123V23.0881H28.7281V20.5216Z" fill="white"/>
<path d="M28.7281 17.955H26.123V20.5216H28.7281V17.955Z" fill="white"/>
<path d="M28.7281 15.3912H26.123V17.955H28.7281V15.3912Z" fill="white"/>
<path d="M28.7281 12.8246H26.123V15.3912H28.7281V12.8246Z" fill="white"/>
<path d="M28.7281 10.2608H26.123V12.8246H28.7281V10.2608Z" fill="white"/>
<path d="M28.7281 7.69425H26.123V10.2608H28.7281V7.69425Z" fill="white"/>
<path d="M28.7281 5.1304H26.123V7.69425H28.7281V5.1304Z" fill="#231815"/>
<path d="M28.7281 2.56385H26.123V5.1304H28.7281V2.56385Z" fill="#231815"/>
<path d="M26.123 51.3067H23.5179V53.8705H26.123V51.3067Z" fill="#231815"/>
<path d="M26.123 48.7401H23.5179V51.3067H26.123V48.7401Z" fill="#231815"/>
<path d="M26.123 46.1736H23.5179V48.7401H26.123V46.1736Z" fill="white"/>
<path d="M26.123 43.6097H23.5179V46.1736H26.123V43.6097Z" fill="white"/>
<path d="M26.123 41.0432H23.5179V43.6097H26.123V41.0432Z" fill="white"/>
<path d="M26.123 38.4793H23.5179V41.0432H26.123V38.4793Z" fill="white"/>
<path d="M26.123 35.9128H23.5179V38.4793H26.123V35.9128Z" fill="white"/>
<path d="M26.123 33.3489H23.5179V35.9128H26.123V33.3489Z" fill="white"/>
<path d="M26.123 30.7824H23.5179V33.3489H26.123V30.7824Z" fill="#231815"/>
<path d="M26.123 28.2185H23.5179V30.7824H26.123V28.2185Z" fill="white"/>
<path d="M26.123 25.652H23.5179V28.2185H26.123V25.652Z" fill="#231815"/>
<path d="M26.123 23.0881H23.5179V25.652H26.123V23.0881Z" fill="#231815"/>
<path d="M26.123 20.5216H23.5179V23.0881H26.123V20.5216Z" fill="white"/>
<path d="M26.123 17.955H23.5179V20.5216H26.123V17.955Z" fill="white"/>
<path d="M26.123 15.3912H23.5179V17.955H26.123V15.3912Z" fill="white"/>
<path d="M26.123 12.8246H23.5179V15.3912H26.123V12.8246Z" fill="white"/>
<path d="M26.123 10.2608H23.5179V12.8246H26.123V10.2608Z" fill="white"/>
<path d="M26.123 7.69425H23.5179V10.2608H26.123V7.69425Z" fill="white"/>
<path d="M26.123 5.1304H23.5179V7.69425H26.123V5.1304Z" fill="#231815"/>
<path d="M23.5179 48.7401H20.9128V51.3067H23.5179V48.7401Z" fill="#231815"/>
<path d="M23.5179 46.1736H20.9128V48.7401H23.5179V46.1736Z" fill="white"/>
<path d="M23.5179 43.6097H20.9128V46.1736H23.5179V43.6097Z" fill="white"/>
<path d="M23.5179 41.0432H20.9128V43.6097H23.5179V41.0432Z" fill="white"/>
<path d="M23.5179 38.4793H20.9128V41.0432H23.5179V38.4793Z" fill="white"/>
<path d="M23.5179 35.9128H20.9128V38.4793H23.5179V35.9128Z" fill="white"/>
<path d="M23.5179 33.3489H20.9128V35.9128H23.5179V33.3489Z" fill="white"/>
<path d="M23.5179 30.7824H20.9128V33.3489H23.5179V30.7824Z" fill="white"/>
<path d="M23.5179 28.2185H20.9128V30.7824H23.5179V28.2185Z" fill="#231815"/>
<path d="M23.5179 25.652H20.9128V28.2185H23.5179V25.652Z" fill="#231815"/>
<path d="M23.5179 23.0881H20.9128V25.652H23.5179V23.0881Z" fill="#231815"/>
<path d="M23.5179 20.5216H20.9128V23.0881H23.5179V20.5216Z" fill="white"/>
<path d="M23.5179 17.955H20.9128V20.5216H23.5179V17.955Z" fill="white"/>
<path d="M23.5179 15.3912H20.9128V17.955H23.5179V15.3912Z" fill="white"/>
<path d="M23.5179 12.8246H20.9128V15.3912H23.5179V12.8246Z" fill="white"/>
<path d="M23.5179 10.2608H20.9128V12.8246H23.5179V10.2608Z" fill="white"/>
<path d="M23.5179 7.69425H20.9128V10.2608H23.5179V7.69425Z" fill="#231815"/>
<path d="M23.5179 5.1304H20.9128V7.69425H23.5179V5.1304Z" fill="#231815"/>
<path d="M20.9128 48.7401H18.3051V51.3067H20.9128V48.7401Z" fill="#231815"/>
<path d="M20.9128 46.1736H18.3051V48.7401H20.9128V46.1736Z" fill="white"/>
<path d="M20.9128 43.6097H18.3051V46.1736H20.9128V43.6097Z" fill="white"/>
<path d="M20.9128 41.0432H18.3051V43.6097H20.9128V41.0432Z" fill="white"/>
<path d="M20.9128 38.4793H18.3051V41.0432H20.9128V38.4793Z" fill="white"/>
<path d="M20.9128 35.9128H18.3051V38.4793H20.9128V35.9128Z" fill="white"/>
<path d="M20.9128 33.3489H18.3051V35.9128H20.9128V33.3489Z" fill="white"/>
<path d="M20.9128 30.7824H18.3051V33.3489H20.9128V30.7824Z" fill="white"/>
<path d="M20.9128 28.2185H18.3051V30.7824H20.9128V28.2185Z" fill="#231815"/>
<path d="M20.9128 25.652H18.3051V28.2185H20.9128V25.652Z" fill="#231815"/>
<path d="M20.9128 23.0881H18.3051V25.652H20.9128V23.0881Z" fill="#231815"/>
<path d="M20.9128 20.5216H18.3051V23.0881H20.9128V20.5216Z" fill="white"/>
<path d="M20.9128 17.955H18.3051V20.5216H20.9128V17.955Z" fill="white"/>
<path d="M20.9128 15.3912H18.3051V17.955H20.9128V15.3912Z" fill="white"/>
<path d="M20.9128 12.8246H18.3051V15.3912H20.9128V12.8246Z" fill="white"/>
<path d="M20.9128 10.2608H18.3051V12.8246H20.9128V10.2608Z" fill="white"/>
<path d="M20.9128 7.69425H18.3051V10.2608H20.9128V7.69425Z" fill="#231815"/>
<path d="M18.3051 48.7401H15.6999V51.3067H18.3051V48.7401Z" fill="#231815"/>
<path d="M18.3051 46.1736H15.6999V48.7401H18.3051V46.1736Z" fill="#231815"/>
<path d="M18.3051 43.6097H15.6999V46.1736H18.3051V43.6097Z" fill="white"/>
<path d="M18.3051 41.0432H15.6999V43.6097H18.3051V41.0432Z" fill="white"/>
<path d="M18.3051 38.4793H15.6999V41.0432H18.3051V38.4793Z" fill="white"/>
<path d="M18.3051 35.9128H15.6999V38.4793H18.3051V35.9128Z" fill="white"/>
<path d="M18.3051 33.3489H15.6999V35.9128H18.3051V33.3489Z" fill="white"/>
<path d="M18.3051 30.7824H15.6999V33.3489H18.3051V30.7824Z" fill="white"/>
<path d="M18.3051 28.2185H15.6999V30.7824H18.3051V28.2185Z" fill="white"/>
<path d="M18.3051 25.652H15.6999V28.2185H18.3051V25.652Z" fill="white"/>
<path d="M18.3051 23.0881H15.6999V25.652H18.3051V23.0881Z" fill="white"/>
<path d="M18.3051 20.5216H15.6999V23.0881H18.3051V20.5216Z" fill="white"/>
<path d="M18.3051 17.955H15.6999V20.5216H18.3051V17.955Z" fill="white"/>
<path d="M18.3051 15.3912H15.6999V17.955H18.3051V15.3912Z" fill="white"/>
<path d="M18.3051 12.8246H15.6999V15.3912H18.3051V12.8246Z" fill="white"/>
<path d="M18.3051 10.2608H15.6999V12.8246H18.3051V10.2608Z" fill="white"/>
<path d="M18.3051 7.69425H15.6999V10.2608H18.3051V7.69425Z" fill="#231815"/>
<path d="M15.6999 51.3067H13.0948V53.8705H15.6999V51.3067Z" fill="#231815"/>
<path d="M15.6999 48.7401H13.0948V51.3067H15.6999V48.7401Z" fill="white"/>
<path d="M15.6999 46.1736H13.0948V48.7401H15.6999V46.1736Z" fill="#231815"/>
<path d="M15.6999 43.6097H13.0948V46.1736H15.6999V43.6097Z" fill="#231815"/>
<path d="M15.6999 41.0432H13.0948V43.6097H15.6999V41.0432Z" fill="white"/>
<path d="M15.6999 38.4793H13.0948V41.0432H15.6999V38.4793Z" fill="white"/>
<path d="M15.6999 35.9128H13.0948V38.4793H15.6999V35.9128Z" fill="white"/>
<path d="M15.6999 33.3489H13.0948V35.9128H15.6999V33.3489Z" fill="white"/>
<path d="M15.6999 30.7824H13.0948V33.3489H15.6999V30.7824Z" fill="white"/>
<path d="M15.6999 28.2185H13.0948V30.7824H15.6999V28.2185Z" fill="white"/>
<path d="M15.6999 25.652H13.0948V28.2185H15.6999V25.652Z" fill="white"/>
<path d="M15.6999 23.0881H13.0948V25.652H15.6999V23.0881Z" fill="white"/>
<path d="M15.6999 20.5216H13.0948V23.0881H15.6999V20.5216Z" fill="white"/>
<path d="M15.6999 17.955H13.0948V20.5216H15.6999V17.955Z" fill="white"/>
<path d="M15.6999 15.3912H13.0948V17.955H15.6999V15.3912Z" fill="white"/>
<path d="M15.6999 12.8246H13.0948V15.3912H15.6999V12.8246Z" fill="#231815"/>
<path d="M15.6999 10.2608H13.0948V12.8246H15.6999V10.2608Z" fill="#231815"/>
<path d="M13.0948 51.3067H10.4897V53.8705H13.0948V51.3067Z" fill="#231815"/>
<path d="M13.0948 48.7401H10.4897V51.3067H13.0948V48.7401Z" fill="white"/>
<path d="M13.0948 46.1736H10.4897V48.7401H13.0948V46.1736Z" fill="white"/>
<path d="M13.0948 43.6097H10.4897V46.1736H13.0948V43.6097Z" fill="#231815"/>
<path d="M13.0948 41.0432H10.4897V43.6097H13.0948V41.0432Z" fill="#231815"/>
<path d="M13.0948 38.4793H10.4897V41.0432H13.0948V38.4793Z" fill="white"/>
<path d="M13.0948 35.9128H10.4897V38.4793H13.0948V35.9128Z" fill="white"/>
<path d="M13.0948 33.3489H10.4897V35.9128H13.0948V33.3489Z" fill="white"/>
<path d="M13.0948 30.7824H10.4897V33.3489H13.0948V30.7824Z" fill="white"/>
<path d="M13.0948 28.2185H10.4897V30.7824H13.0948V28.2185Z" fill="white"/>
<path d="M13.0948 25.652H10.4897V28.2185H13.0948V25.652Z" fill="white"/>
<path d="M13.0948 23.0881H10.4897V25.652H13.0948V23.0881Z" fill="white"/>
<path d="M13.0948 20.5216H10.4897V23.0881H13.0948V20.5216Z" fill="white"/>
<path d="M13.0948 17.955H10.4897V20.5216H13.0948V17.955Z" fill="#231815"/>
<path d="M13.0948 15.3912H10.4897V17.955H13.0948V15.3912Z" fill="#231815"/>
<path d="M10.4897 51.3067H7.88197V53.8705H10.4897V51.3067Z" fill="#231815"/>
<path d="M10.4897 48.7401H7.88197V51.3067H10.4897V48.7401Z" fill="white"/>
<path d="M10.4897 46.1736H7.88197V48.7401H10.4897V46.1736Z" fill="white"/>
<path d="M10.4897 43.6097H7.88197V46.1736H10.4897V43.6097Z" fill="white"/>
<path d="M10.4897 41.0432H7.88197V43.6097H10.4897V41.0432Z" fill="#231815"/>
<path d="M10.4897 38.4793H7.88197V41.0432H10.4897V38.4793Z" fill="#231815"/>
<path d="M10.4897 35.9128H7.88197V38.4793H10.4897V35.9128Z" fill="white"/>
<path d="M10.4897 33.3489H7.88197V35.9128H10.4897V33.3489Z" fill="white"/>
<path d="M10.4897 30.7824H7.88197V33.3489H10.4897V30.7824Z" fill="white"/>
<path d="M10.4897 28.2185H7.88197V30.7824H10.4897V28.2185Z" fill="white"/>
<path d="M10.4897 25.652H7.88197V28.2185H10.4897V25.652Z" fill="white"/>
<path d="M10.4897 23.0881H7.88197V25.652H10.4897V23.0881Z" fill="#231815"/>
<path d="M10.4897 20.5216H7.88197V23.0881H10.4897V20.5216Z" fill="#231815"/>
<path d="M10.4897 17.955H7.88197V20.5216H10.4897V17.955Z" fill="#231815"/>
<path d="M7.88197 51.3067H5.27686V53.8705H7.88197V51.3067Z" fill="#231815"/>
<path d="M7.88197 48.7401H5.27686V51.3067H7.88197V48.7401Z" fill="white"/>
<path d="M7.88197 46.1736H5.27686V48.7401H7.88197V46.1736Z" fill="white"/>
<path d="M7.88197 43.6097H5.27686V46.1736H7.88197V43.6097Z" fill="white"/>
<path d="M7.88197 41.0432H5.27686V43.6097H7.88197V41.0432Z" fill="#231815"/>
<path d="M7.88197 35.9128H5.27686V38.4793H7.88197V35.9128Z" fill="#231815"/>
<path d="M7.88197 33.3489H5.27686V35.9128H7.88197V33.3489Z" fill="#231815"/>
<path d="M7.88197 30.7824H5.27686V33.3489H7.88197V30.7824Z" fill="#231815"/>
<path d="M7.88197 28.2185H5.27686V30.7824H7.88197V28.2185Z" fill="#231815"/>
<path d="M7.88197 25.652H5.27686V28.2185H7.88197V25.652Z" fill="#231815"/>
<path d="M5.27686 51.3067H2.67176V53.8705H5.27686V51.3067Z" fill="#231815"/>
<path d="M5.27686 48.7401H2.67176V51.3067H5.27686V48.7401Z" fill="white"/>
<path d="M5.27686 46.1736H2.67176V48.7401H5.27686V46.1736Z" fill="#231815"/>
<path d="M5.27686 43.6097H2.67176V46.1736H5.27686V43.6097Z" fill="#231815"/>
<path d="M2.67176 48.7401H0.0666504V51.3067H2.67176V48.7401Z" fill="#231815"/>
<path d="M2.67176 46.1736H0.0666504V48.7401H2.67176V46.1736Z" fill="#231815"/>
</svg>
