<svg width="526" height="143" viewBox="0 0 526 143" fill="none" xmlns="http://www.w3.org/2000/svg">
<rect x="5.76758" width="514.468" height="5" fill="white"/>
<rect x="5.5" y="4.99805" width="122.5" height="4.99999" transform="rotate(90 5.5 4.99805)" fill="white"/>
<rect x="525.5" y="4.99805" width="122.5" height="5" transform="rotate(90 525.5 4.99805)" fill="white"/>
<rect x="5.76758" y="127.5" width="389.679" height="5" fill="white"/>
<path d="M400.447 132.5H405.447V137.5H400.447V132.5Z" fill="white"/>
<path d="M415.447 127.5H420.447V132.5H415.447V127.5Z" fill="white"/>
<path d="M395.447 127.5H400.447V132.5H395.447V127.5Z" fill="white"/>
<path d="M405.447 137.5H410.447V142.5H405.447V137.5Z" fill="white"/>
<path d="M410.447 132.5H415.447V137.5H410.447V132.5Z" fill="white"/>
<path d="M405.447 132.5H410.447V137.5H405.447V132.5Z" fill="white" fill-opacity="0.1"/>
<path d="M405.447 127.5H410.447V132.5H405.447V127.5Z" fill="white" fill-opacity="0.1"/>
<path d="M410.447 127.5H415.447V132.5H410.447V127.5Z" fill="white" fill-opacity="0.1"/>
<path d="M400.447 127.5H405.447V132.5H400.447V127.5Z" fill="white" fill-opacity="0.1"/>
<rect x="420.447" y="127.5" width="100" height="5" fill="white"/>
</svg>
