<svg width="204" height="130" viewBox="0 0 204 130" fill="none" xmlns="http://www.w3.org/2000/svg">
<path d="M4.28708 -9.48238L15.763 -13.6593L11.5538 -25.2238L0.0779514 -21.0469L4.28708 -9.48238Z" fill="#52C4CC"/>
<path d="M8.49621 2.08211L19.9721 -2.09478L15.763 -13.6593L4.28708 -9.48238L8.49621 2.08211Z" fill="#52C4CC"/>
<path d="M12.7053 13.6466L24.1812 9.4697L19.9721 -2.09478L8.49621 2.08211L12.7053 13.6466Z" fill="#52C4CC"/>
<path d="M16.9145 25.2111L28.3903 21.0342L24.1812 9.4697L12.7053 13.6466L16.9145 25.2111Z" fill="#52C4CC"/>
<path d="M21.1236 36.7755L32.5995 32.5987L28.3903 21.0342L16.9145 25.2111L21.1236 36.7755Z" fill="#52C4CC"/>
<path d="M25.3327 48.34L36.8086 44.1631L32.5995 32.5987L21.1236 36.7755L25.3327 48.34Z" fill="#52C4CC"/>
<path d="M29.5464 59.917L41.0223 55.7402L36.8086 44.1631L25.3327 48.34L29.5464 59.917Z" fill="#52C4CC"/>
<path d="M33.7555 71.4815L45.2314 67.3046L41.0223 55.7402L29.5464 59.917L33.7555 71.4815Z" fill="#52C4CC"/>
<path d="M19.9721 -2.09478L31.4479 -6.27164L27.2388 -17.8361L15.763 -13.6593L19.9721 -2.09478Z" fill="#52C4CC"/>
<path d="M24.1812 9.4697L35.6571 5.29284L31.4479 -6.27164L19.9721 -2.09478L24.1812 9.4697Z" fill="#52C4CC"/>
<path d="M28.3903 21.0342L39.8662 16.8573L35.6571 5.29284L24.1812 9.4697L28.3903 21.0342Z" fill="#52C4CC"/>
<path d="M32.5995 32.5987L44.0753 28.4218L39.8662 16.8573L28.3903 21.0342L32.5995 32.5987Z" fill="#52C4CC"/>
<path d="M36.8086 44.1631L48.2844 39.9863L44.0753 28.4218L32.5995 32.5987L36.8086 44.1631Z" fill="white"/>
<path d="M41.0223 55.7402L52.4981 51.5633L48.2844 39.9863L36.8086 44.1631L41.0223 55.7402Z" fill="#6633FF"/>
<path d="M45.2314 67.3046L56.7073 63.1278L52.4981 51.5633L41.0223 55.7402L45.2314 67.3046Z" fill="#6633FF"/>
<path d="M49.4405 78.8692L60.9164 74.6923L56.7073 63.1278L45.2314 67.3046L49.4405 78.8692Z" fill="white"/>
<path d="M53.6496 90.4336L65.1255 86.2568L60.9164 74.6923L49.4405 78.8692L53.6496 90.4336Z" fill="#52C4CC"/>
<path d="M35.6571 5.29284L47.1329 1.11597L42.9238 -10.4485L31.4479 -6.27164L35.6571 5.29284Z" fill="#52C4CC"/>
<path d="M39.8662 16.8573L51.342 12.6804L47.1329 1.11597L35.6571 5.29284L39.8662 16.8573Z" fill="#52C4CC"/>
<path d="M44.0753 28.4218L55.5511 24.2449L51.342 12.6804L39.8662 16.8573L44.0753 28.4218Z" fill="#52C4CC"/>
<path d="M48.2844 39.9863L59.7603 35.8094L55.5511 24.2449L44.0753 28.4218L48.2844 39.9863Z" fill="white"/>
<path d="M52.4981 51.5633L63.974 47.3864L59.7603 35.8094L48.2844 39.9863L52.4981 51.5633Z" fill="#6633FF"/>
<path d="M56.7073 63.1278L68.1831 58.9509L63.974 47.3864L52.4981 51.5633L56.7073 63.1278Z" fill="#6633FF"/>
<path d="M60.9164 74.6923L72.3922 70.5154L68.1831 58.9509L56.7073 63.1278L60.9164 74.6923Z" fill="white"/>
<path d="M65.1255 86.2568L76.6013 82.0799L72.3922 70.5154L60.9164 74.6923L65.1255 86.2568Z" fill="#52C4CC"/>
<path d="M69.3346 97.8212L80.8105 93.6444L76.6013 82.0799L65.1255 86.2568L69.3346 97.8212Z" fill="#52C4CC"/>
<path d="M42.9238 -10.4485L54.3997 -14.6254L50.1906 -26.1899L38.7147 -22.013L42.9238 -10.4485Z" fill="#52C4CC"/>
<path d="M47.1329 1.11597L58.6089 -3.06094L54.3997 -14.6254L42.9238 -10.4485L47.1329 1.11597Z" fill="#52C4CC"/>
<path d="M51.342 12.6804L62.818 8.50353L58.6089 -3.06094L47.1329 1.11597L51.342 12.6804Z" fill="#52C4CC"/>
<path d="M55.5511 24.2449L67.0271 20.068L62.818 8.50353L51.342 12.6804L55.5511 24.2449Z" fill="#52C4CC"/>
<path d="M59.7603 35.8094L71.2363 31.6325L67.0271 20.068L55.5511 24.2449L59.7603 35.8094Z" fill="#52C4CC"/>
<path d="M63.974 47.3864L75.4499 43.2095L71.2363 31.6325L59.7603 35.8094L63.974 47.3864Z" fill="white"/>
<path d="M68.1831 58.9509L79.6591 54.774L75.4499 43.2095L63.974 47.3864L68.1831 58.9509Z" fill="white"/>
<path d="M72.3922 70.5154L83.8682 66.3385L79.6591 54.774L68.1831 58.9509L72.3922 70.5154Z" fill="white"/>
<path d="M76.6013 82.0799L88.0773 77.903L83.8682 66.3385L72.3922 70.5154L76.6013 82.0799Z" fill="#52C4CC"/>
<path d="M80.8105 93.6444L92.2865 89.4675L88.0773 77.903L76.6013 82.0799L80.8105 93.6444Z" fill="#52C4CC"/>
<path d="M85.0197 105.209L96.4956 101.032L92.2865 89.4675L80.8105 93.6444L85.0197 105.209Z" fill="#52C4CC"/>
<path d="M50.1906 -26.1899L61.6665 -30.3668L57.4573 -41.9313L45.9814 -37.7544L50.1906 -26.1899Z" fill="#52C4CC"/>
<path d="M54.3997 -14.6254L65.8756 -18.8023L61.6665 -30.3668L50.1906 -26.1899L54.3997 -14.6254Z" fill="#52C4CC"/>
<path d="M58.6089 -3.06094L70.0847 -7.2378L65.8756 -18.8023L54.3997 -14.6254L58.6089 -3.06094Z" fill="#52C4CC"/>
<path d="M62.818 8.50353L74.2938 4.32667L70.0847 -7.2378L58.6089 -3.06094L62.818 8.50353Z" fill="#52C4CC"/>
<path d="M67.0271 20.068L78.503 15.8912L74.2938 4.32667L62.818 8.50353L67.0271 20.068Z" fill="#52C4CC"/>
<path d="M71.2363 31.6325L82.7121 27.4556L78.503 15.8912L67.0271 20.068L71.2363 31.6325Z" fill="#52C4CC"/>
<path d="M75.4499 43.2095L86.9258 39.0327L82.7121 27.4556L71.2363 31.6325L75.4499 43.2095Z" fill="#52C4CC"/>
<path d="M79.6591 54.774L91.1349 50.5971L86.9258 39.0327L75.4499 43.2095L79.6591 54.774Z" fill="#52C4CC"/>
<path d="M83.8682 66.3385L95.344 62.1616L91.1349 50.5971L79.6591 54.774L83.8682 66.3385Z" fill="#52C4CC"/>
<path d="M88.0773 77.903L99.5532 73.7261L95.344 62.1616L83.8682 66.3385L88.0773 77.903Z" fill="#52C4CC"/>
<path d="M92.2865 89.4675L103.762 85.2906L99.5532 73.7261L88.0773 77.903L92.2865 89.4675Z" fill="#52C4CC"/>
<path d="M96.4956 101.032L107.971 96.8551L103.762 85.2906L92.2865 89.4675L96.4956 101.032Z" fill="#52C4CC"/>
<path d="M100.705 112.596L112.181 108.42L107.971 96.8551L96.4956 101.032L100.705 112.596Z" fill="#52C4CC"/>
<path d="M65.8756 -18.8023L77.3514 -22.9791L73.1423 -34.5436L61.6665 -30.3668L65.8756 -18.8023Z" fill="#52C4CC"/>
<path d="M70.0847 -7.2378L81.5605 -11.4147L77.3514 -22.9791L65.8756 -18.8023L70.0847 -7.2378Z" fill="#52C4CC"/>
<path d="M74.2938 4.32667L85.7697 0.149806L81.5605 -11.4147L70.0847 -7.2378L74.2938 4.32667Z" fill="#52C4CC"/>
<path d="M78.503 15.8912L89.9788 11.7143L85.7697 0.149806L74.2938 4.32667L78.503 15.8912Z" fill="#52C4CC"/>
<path d="M82.7121 27.4556L94.1879 23.2788L89.9788 11.7143L78.503 15.8912L82.7121 27.4556Z" fill="#52C4CC"/>
<path d="M86.9258 39.0327L98.4016 34.8558L94.1879 23.2788L82.7121 27.4556L86.9258 39.0327Z" fill="#52C4CC"/>
<path d="M91.1349 50.5971L102.611 46.4203L98.4016 34.8558L86.9258 39.0327L91.1349 50.5971Z" fill="#52C4CC"/>
<path d="M95.344 62.1616L106.82 57.9848L102.611 46.4203L91.1349 50.5971L95.344 62.1616Z" fill="#52C4CC"/>
<path d="M99.5532 73.7261L111.029 69.5493L106.82 57.9848L95.344 62.1616L99.5532 73.7261Z" fill="#52C4CC"/>
<path d="M103.762 85.2906L115.238 81.1137L111.029 69.5493L99.5532 73.7261L103.762 85.2906Z" fill="#52C4CC"/>
<path d="M107.971 96.8551L119.447 92.6782L115.238 81.1137L103.762 85.2906L107.971 96.8551Z" fill="#52C4CC"/>
<path d="M112.181 108.42L123.656 104.243L119.447 92.6782L107.971 96.8551L112.181 108.42Z" fill="#52C4CC"/>
<path d="M81.5605 -11.4147L93.0365 -15.5916L88.8274 -27.1561L77.3514 -22.9791L81.5605 -11.4147Z" fill="#52C4CC"/>
<path d="M85.7697 0.149806L97.2456 -4.02711L93.0365 -15.5916L81.5605 -11.4147L85.7697 0.149806Z" fill="#52C4CC"/>
<path d="M89.9788 11.7143L101.455 7.53739L97.2456 -4.02711L85.7697 0.149806L89.9788 11.7143Z" fill="#52C4CC"/>
<path d="M94.1879 23.2788L105.664 19.1019L101.455 7.53739L89.9788 11.7143L94.1879 23.2788Z" fill="#52C4CC"/>
<path d="M98.4016 34.8558L109.878 30.6789L105.664 19.1019L94.1879 23.2788L98.4016 34.8558Z" fill="#52C4CC"/>
<path d="M102.611 46.4203L114.087 42.2434L109.878 30.6789L98.4016 34.8558L102.611 46.4203Z" fill="#52C4CC"/>
<path d="M106.82 57.9848L118.296 53.8079L114.087 42.2434L102.611 46.4203L106.82 57.9848Z" fill="#52C4CC"/>
<path d="M111.029 69.5493L122.505 65.3723L118.296 53.8079L106.82 57.9848L111.029 69.5493Z" fill="#52C4CC"/>
<path d="M115.238 81.1137L126.714 76.9368L122.505 65.3723L111.029 69.5493L115.238 81.1137Z" fill="#52C4CC"/>
<path d="M119.447 92.6782L130.923 88.5013L126.714 76.9368L115.238 81.1137L119.447 92.6782Z" fill="#52C4CC"/>
<path d="M123.656 104.243L135.132 100.066L130.923 88.5013L119.447 92.6782L123.656 104.243Z" fill="#52C4CC"/>
<path d="M88.8274 -27.1561L100.303 -31.3329L96.0941 -42.8974L84.6182 -38.7205L88.8274 -27.1561Z" fill="#52C4CC"/>
<path d="M93.0365 -15.5916L104.512 -19.7684L100.303 -31.3329L88.8274 -27.1561L93.0365 -15.5916Z" fill="#52C4CC"/>
<path d="M97.2456 -4.02711L108.721 -8.20397L104.512 -19.7684L93.0365 -15.5916L97.2456 -4.02711Z" fill="#52C4CC"/>
<path d="M101.455 7.53739L112.931 3.36052L108.721 -8.20397L97.2456 -4.02711L101.455 7.53739Z" fill="#52C4CC"/>
<path d="M105.664 19.1019L117.14 14.925L112.931 3.36052L101.455 7.53739L105.664 19.1019Z" fill="white"/>
<path d="M109.878 30.6789L121.353 26.502L117.14 14.925L105.664 19.1019L109.878 30.6789Z" fill="#6633FF"/>
<path d="M114.087 42.2434L125.563 38.0665L121.353 26.502L109.878 30.6789L114.087 42.2434Z" fill="#6633FF"/>
<path d="M118.296 53.8079L129.772 49.631L125.563 38.0665L114.087 42.2434L118.296 53.8079Z" fill="white"/>
<path d="M122.505 65.3723L133.981 61.1955L129.772 49.631L118.296 53.8079L122.505 65.3723Z" fill="#52C4CC"/>
<path d="M126.714 76.9368L138.19 72.76L133.981 61.1955L122.505 65.3723L126.714 76.9368Z" fill="#52C4CC"/>
<path d="M130.923 88.5013L142.399 84.3244L138.19 72.76L126.714 76.9368L130.923 88.5013Z" fill="#52C4CC"/>
<path d="M135.132 100.066L146.608 95.8889L142.399 84.3244L130.923 88.5013L135.132 100.066Z" fill="#52C4CC"/>
<path d="M96.0941 -42.8974L107.582 -47.0788L103.373 -58.6433L91.885 -54.4619L96.0941 -42.8974Z" fill="#52C4CC"/>
<path d="M100.303 -31.3329L111.792 -35.5143L107.582 -47.0788L96.0941 -42.8974L100.303 -31.3329Z" fill="#52C4CC"/>
<path d="M104.512 -19.7684L116.001 -23.9498L111.792 -35.5143L100.303 -31.3329L104.512 -19.7684Z" fill="#52C4CC"/>
<path d="M108.721 -8.20397L120.21 -12.3854L116.001 -23.9498L104.512 -19.7684L108.721 -8.20397Z" fill="#52C4CC"/>
<path d="M112.931 3.36052L124.419 -0.820881L120.21 -12.3854L108.721 -8.20397L112.931 3.36052Z" fill="#52C4CC"/>
<path d="M117.14 14.925L128.628 10.7436L124.419 -0.820881L112.931 3.36052L117.14 14.925Z" fill="white"/>
<path d="M121.353 26.502L132.842 22.3206L128.628 10.7436L117.14 14.925L121.353 26.502Z" fill="#6633FF"/>
<path d="M125.563 38.0665L137.051 33.8851L132.842 22.3206L121.353 26.502L125.563 38.0665Z" fill="#6633FF"/>
<path d="M129.772 49.631L141.26 45.4496L137.051 33.8851L125.563 38.0665L129.772 49.631Z" fill="white"/>
<path d="M133.981 61.1955L145.469 57.0141L141.26 45.4496L129.772 49.631L133.981 61.1955Z" fill="#52C4CC"/>
<path d="M138.19 72.76L149.678 68.5785L145.469 57.0141L133.981 61.1955L138.19 72.76Z" fill="#52C4CC"/>
<path d="M142.399 84.3244L153.887 80.143L149.678 68.5785L138.19 72.76L142.399 84.3244Z" fill="#52C4CC"/>
<path d="M146.608 95.8889L158.097 91.7075L153.887 80.143L142.399 84.3244L146.608 95.8889Z" fill="#52C4CC"/>
<path d="M111.792 -35.5143L123.267 -39.6912L119.058 -51.2557L107.582 -47.0788L111.792 -35.5143Z" fill="#52C4CC"/>
<path d="M116.001 -23.9498L127.477 -28.1267L123.267 -39.6912L111.792 -35.5143L116.001 -23.9498Z" fill="#52C4CC"/>
<path d="M120.21 -12.3854L131.686 -16.5622L127.477 -28.1267L116.001 -23.9498L120.21 -12.3854Z" fill="#52C4CC"/>
<path d="M124.419 -0.820881L135.895 -4.99774L131.686 -16.5622L120.21 -12.3854L124.419 -0.820881Z" fill="#52C4CC"/>
<path d="M128.628 10.7436L140.104 6.56674L135.895 -4.99774L124.419 -0.820881L128.628 10.7436Z" fill="#52C4CC"/>
<path d="M132.842 22.3206L144.318 18.1437L140.104 6.56674L128.628 10.7436L132.842 22.3206Z" fill="white"/>
<path d="M137.051 33.8851L148.527 29.7082L144.318 18.1437L132.842 22.3206L137.051 33.8851Z" fill="white"/>
<path d="M141.26 45.4496L152.736 41.2727L148.527 29.7082L137.051 33.8851L141.26 45.4496Z" fill="white"/>
<path d="M145.469 57.0141L156.945 52.8372L152.736 41.2727L141.26 45.4496L145.469 57.0141Z" fill="#52C4CC"/>
<path d="M149.678 68.5785L161.154 64.4017L156.945 52.8372L145.469 57.0141L149.678 68.5785Z" fill="#52C4CC"/>
<path d="M153.887 80.143L165.363 75.9662L161.154 64.4017L149.678 68.5785L153.887 80.143Z" fill="#52C4CC"/>
<path d="M127.477 -28.1267L138.952 -32.3036L134.743 -43.8681L123.267 -39.6912L127.477 -28.1267Z" fill="#52C4CC"/>
<path d="M131.686 -16.5622L143.162 -20.7391L138.952 -32.3036L127.477 -28.1267L131.686 -16.5622Z" fill="#52C4CC"/>
<path d="M135.895 -4.99774L147.371 -9.17463L143.162 -20.7391L131.686 -16.5622L135.895 -4.99774Z" fill="#52C4CC"/>
<path d="M140.104 6.56674L151.58 2.38985L147.371 -9.17463L135.895 -4.99774L140.104 6.56674Z" fill="#52C4CC"/>
<path d="M144.318 18.1437L155.793 13.9669L151.58 2.38985L140.104 6.56674L144.318 18.1437Z" fill="#52C4CC"/>
<path d="M148.527 29.7082L160.003 25.5313L155.793 13.9669L144.318 18.1437L148.527 29.7082Z" fill="#52C4CC"/>
<path d="M152.736 41.2727L164.212 37.0958L160.003 25.5313L148.527 29.7082L152.736 41.2727Z" fill="#52C4CC"/>
<path d="M156.945 52.8372L168.421 48.6603L164.212 37.0958L152.736 41.2727L156.945 52.8372Z" fill="#52C4CC"/>
<path d="M161.154 64.4017L172.63 60.2248L168.421 48.6603L156.945 52.8372L161.154 64.4017Z" fill="#52C4CC"/>
<path d="M134.743 -43.8681L146.219 -48.0449L142.01 -59.6094L130.534 -55.4325L134.743 -43.8681Z" fill="#52C4CC"/>
<path d="M138.952 -32.3036L150.428 -36.4805L146.219 -48.0449L134.743 -43.8681L138.952 -32.3036Z" fill="#52C4CC"/>
<path d="M143.162 -20.7391L154.637 -24.916L150.428 -36.4805L138.952 -32.3036L143.162 -20.7391Z" fill="#52C4CC"/>
<path d="M147.371 -9.17463L158.847 -13.3515L154.637 -24.916L143.162 -20.7391L147.371 -9.17463Z" fill="#52C4CC"/>
<path d="M151.58 2.38985L163.056 -1.78702L158.847 -13.3515L147.371 -9.17463L151.58 2.38985Z" fill="#52C4CC"/>
<path d="M155.793 13.9669L167.269 9.78999L163.056 -1.78702L151.58 2.38985L155.793 13.9669Z" fill="#52C4CC"/>
<path d="M160.003 25.5313L171.478 21.3545L167.269 9.78999L155.793 13.9669L160.003 25.5313Z" fill="#52C4CC"/>
<path d="M164.212 37.0958L175.688 32.919L171.478 21.3545L160.003 25.5313L164.212 37.0958Z" fill="#52C4CC"/>
<path d="M168.421 48.6603L179.897 44.4835L175.688 32.919L164.212 37.0958L168.421 48.6603Z" fill="#52C4CC"/>
<path d="M142.01 -59.6094L153.486 -63.7863L149.277 -75.3508L137.801 -71.1739L142.01 -59.6094Z" fill="#52C4CC"/>
<path d="M146.219 -48.0449L157.695 -52.2218L153.486 -63.7863L142.01 -59.6094L146.219 -48.0449Z" fill="#52C4CC"/>
<path d="M150.428 -36.4805L161.904 -40.6574L157.695 -52.2218L146.219 -48.0449L150.428 -36.4805Z" fill="#52C4CC"/>
<path d="M154.637 -24.916L166.113 -29.0929L161.904 -40.6574L150.428 -36.4805L154.637 -24.916Z" fill="#52C4CC"/>
<path d="M158.847 -13.3515L170.322 -17.5284L166.113 -29.0929L154.637 -24.916L158.847 -13.3515Z" fill="#52C4CC"/>
<path d="M163.056 -1.78702L174.532 -5.9639L170.322 -17.5284L158.847 -13.3515L163.056 -1.78702Z" fill="#52C4CC"/>
<path d="M167.269 9.78999L178.745 5.6131L174.532 -5.9639L163.056 -1.78702L167.269 9.78999Z" fill="#52C4CC"/>
<path d="M171.478 21.3545L182.954 17.1776L178.745 5.6131L167.269 9.78999L171.478 21.3545Z" fill="#52C4CC"/>
</svg>
