<svg width="130" height="96" viewBox="0 0 130 96" fill="none" xmlns="http://www.w3.org/2000/svg">
<path d="M129.008 120.001H119.085V130H129.008V120.001Z" fill="#FF0900"/>
<path d="M129.008 110.002H119.085V120.001H129.008V110.002Z" fill="#FF0900"/>
<path d="M129.008 100.003H119.085V110.002H129.008V100.003Z" fill="#FF0900"/>
<path d="M129.008 90.0033H119.085V100.003H129.008V90.0033Z" fill="#FF0900"/>
<path d="M129.008 80.0042H119.085V90.0033H129.008V80.0042Z" fill="#FF0900"/>
<path d="M129.008 70.005H119.085V80.0042H129.008V70.005Z" fill="#FF0900"/>
<path d="M129.008 59.995H119.085V70.005H129.008V59.995Z" fill="#FF0900"/>
<path d="M129.008 49.9958H119.085V59.995H129.008V49.9958Z" fill="#FF0900"/>
<path d="M119.085 110.002H109.163V120.001H119.085V110.002Z" fill="#FF0900"/>
<path d="M119.085 100.003H109.163V110.002H119.085V100.003Z" fill="#FF0900"/>
<path d="M119.085 90.0033H109.163V100.003H119.085V90.0033Z" fill="#FF0900"/>
<path d="M119.085 80.0042H109.163V90.0033H119.085V80.0042Z" fill="#FF0900"/>
<path d="M119.085 70.005H109.163V80.0042H119.085V70.005Z" fill="white"/>
<path d="M119.085 59.995H109.163V70.005H119.085V59.995Z" fill="#6633FF"/>
<path d="M119.085 49.9958H109.163V59.995H119.085V49.9958Z" fill="#6633FF"/>
<path d="M119.085 39.9967H109.163V49.9958H119.085L119.085 39.9967Z" fill="white"/>
<path d="M119.085 29.9975H109.163V39.9967H119.085V29.9975Z" fill="#FF0900"/>
<path d="M109.163 100.003H99.2403V110.002L109.163 110.002V100.003Z" fill="#FF0900"/>
<path d="M109.163 90.0033H99.2403V100.003H109.163V90.0033Z" fill="#FF0900"/>
<path d="M109.163 80.0042H99.2403V90.0033H109.163V80.0042Z" fill="#FF0900"/>
<path d="M109.163 70.005H99.2403V80.0042H109.163V70.005Z" fill="white"/>
<path d="M109.163 59.995H99.2403V70.005H109.163V59.995Z" fill="#6633FF"/>
<path d="M109.163 49.9958H99.2403V59.995H109.163V49.9958Z" fill="#6633FF"/>
<path d="M109.163 39.9967H99.2403V49.9958H109.163V39.9967Z" fill="white"/>
<path d="M109.163 29.9975H99.2403V39.9967H109.163V29.9975Z" fill="#FF0900"/>
<path d="M109.163 19.9983H99.2403V29.9975H109.163L109.163 19.9983Z" fill="#FF0900"/>
<path d="M99.2403 110.002L89.3177 110.002V120.001H99.2402L99.2403 110.002Z" fill="#FF0900"/>
<path d="M99.2403 100.003H89.3177V110.002L99.2403 110.002V100.003Z" fill="#FF0900"/>
<path d="M99.2403 90.0033H89.3177V100.003H99.2403V90.0033Z" fill="#FF0900"/>
<path d="M99.2403 80.0042H89.3177V90.0033H99.2403V80.0042Z" fill="#FF0900"/>
<path d="M99.2403 70.005H89.3177V80.0042H99.2403V70.005Z" fill="#FF0900"/>
<path d="M99.2403 59.995H89.3177V70.005H99.2403V59.995Z" fill="white"/>
<path d="M99.2403 49.9958H89.3177V59.995H99.2403V49.9958Z" fill="white"/>
<path d="M99.2403 39.9967H89.3177V49.9958H99.2403V39.9967Z" fill="white"/>
<path d="M99.2403 29.9975H89.3177V39.9967H99.2403V29.9975Z" fill="#FF0900"/>
<path d="M99.2403 19.9983H89.3177V29.9975H99.2403V19.9983Z" fill="#FF0900"/>
<path d="M99.2402 9.99916H89.3177V19.9983H99.2403L99.2402 9.99916Z" fill="#FF0900"/>
<path d="M89.3177 120.001H79.3952V130H89.3178L89.3177 120.001Z" fill="#FF0900"/>
<path d="M89.3177 110.002H79.3952V120.001H89.3177V110.002Z" fill="#FF0900"/>
<path d="M89.3177 100.003H79.3952V110.002H89.3177V100.003Z" fill="#FF0900"/>
<path d="M89.3177 90.0033H79.3952V100.003H89.3177V90.0033Z" fill="#FF0900"/>
<path d="M89.3177 80.0042H79.3952V90.0033H89.3177V80.0042Z" fill="#FF0900"/>
<path d="M89.3177 70.005H79.3952V80.0042H89.3177V70.005Z" fill="#FF0900"/>
<path d="M89.3177 59.995H79.3952V70.005H89.3177V59.995Z" fill="#FF0900"/>
<path d="M89.3177 49.9958H79.3952V59.995H89.3177V49.9958Z" fill="#FF0900"/>
<path d="M89.3177 39.9967H79.3952V49.9958H89.3177V39.9967Z" fill="#FF0900"/>
<path d="M89.3177 29.9975H79.3952V39.9967H89.3177V29.9975Z" fill="#FF0900"/>
<path d="M89.3177 19.9983H79.3952V29.9975H89.3177V19.9983Z" fill="#FF0900"/>
<path d="M89.3177 9.99916H79.3952V19.9983H89.3177V9.99916Z" fill="#FF0900"/>
<path d="M89.3178 0H79.3952V9.99916H89.3177L89.3178 0Z" fill="#FF0900"/>
<path d="M79.3952 110.002H69.4726V120.001H79.3952V110.002Z" fill="#FF0900"/>
<path d="M79.3952 100.003H69.4726V110.002H79.3952V100.003Z" fill="#FF0900"/>
<path d="M79.3952 90.0033H69.4726V100.003H79.3952V90.0033Z" fill="#FF0900"/>
<path d="M79.3952 80.0042H69.4726V90.0033H79.3952V80.0042Z" fill="#FF0900"/>
<path d="M79.3952 70.005H69.4726V80.0042H79.3952V70.005Z" fill="#FF0900"/>
<path d="M79.3952 59.995H69.4726V70.005H79.3952V59.995Z" fill="#FF0900"/>
<path d="M79.3952 49.9958H69.4726V59.995H79.3952V49.9958Z" fill="#FF0900"/>
<path d="M79.3952 39.9967H69.4726V49.9958H79.3952V39.9967Z" fill="#FF0900"/>
<path d="M79.3952 29.9975H69.4726V39.9967H79.3952V29.9975Z" fill="#FF0900"/>
<path d="M79.3952 19.9983H69.4726V29.9975H79.3952V19.9983Z" fill="#FF0900"/>
<path d="M79.3952 9.99916H69.4726V19.9983H79.3952V9.99916Z" fill="#FF0900"/>
<path d="M79.3952 0H69.4726V9.99916H79.3952V0Z" fill="#FF0900"/>
<path d="M69.4726 100.003H59.55V110.002L69.4726 110.002V100.003Z" fill="#FF0900"/>
<path d="M69.4726 90.0033H59.55V100.003H69.4726V90.0033Z" fill="#FF0900"/>
<path d="M69.4726 80.0042H59.55V90.0033H69.4726V80.0042Z" fill="#FF0900"/>
<path d="M69.4726 70.005H59.55V80.0042H69.4726V70.005Z" fill="#FF0900"/>
<path d="M69.4726 59.995H59.55V70.005H69.4726V59.995Z" fill="#FF0900"/>
<path d="M69.4726 49.9958H59.55V59.995H69.4726V49.9958Z" fill="#FF0900"/>
<path d="M69.4726 39.9967H59.55V49.9958H69.4726V39.9967Z" fill="#FF0900"/>
<path d="M69.4726 29.9975H59.55V39.9967H69.4726V29.9975Z" fill="#FF0900"/>
<path d="M69.4726 19.9983H59.55V29.9975H69.4726V19.9983Z" fill="#FF0900"/>
<path d="M69.4726 9.99916H59.55V19.9983H69.4726V9.99916Z" fill="#FF0900"/>
<path d="M69.4726 0H59.55V9.99916H69.4726V0Z" fill="#FF0900"/>
<path d="M59.55 110.002L49.6275 110.002V120.001H59.5501L59.55 110.002Z" fill="#FF0900"/>
<path d="M59.55 100.003H49.6275V110.002L59.55 110.002V100.003Z" fill="#FF0900"/>
<path d="M59.55 90.0033H49.6275V100.003H59.55V90.0033Z" fill="#FF0900"/>
<path d="M59.55 80.0042H49.6275V90.0033H59.55V80.0042Z" fill="#FF0900"/>
<path d="M59.55 70.005H49.6275V80.0042H59.55V70.005Z" fill="white"/>
<path d="M59.55 59.995H49.6275V70.005H59.55V59.995Z" fill="#6633FF"/>
<path d="M59.55 49.9958H49.6275V59.995H59.55V49.9958Z" fill="#6633FF"/>
<path d="M59.55 39.9967H49.6275V49.9958H59.55V39.9967Z" fill="white"/>
<path d="M59.55 29.9975H49.6275V39.9967H59.55V29.9975Z" fill="#FF0900"/>
<path d="M59.55 19.9983H49.6275V29.9975H59.55V19.9983Z" fill="#FF0900"/>
<path d="M59.55 9.99916H49.6275V19.9983H59.55V9.99916Z" fill="#FF0900"/>
<path d="M59.55 0H49.6275V9.99916H59.55V0Z" fill="#FF0900"/>
<path d="M49.6275 120.001H39.6942V130H49.6275L49.6275 120.001Z" fill="#FF0900"/>
<path d="M49.6275 110.002H39.6942V120.001H49.6275V110.002Z" fill="#FF0900"/>
<path d="M49.6275 100.003H39.6942V110.002H49.6275V100.003Z" fill="#FF0900"/>
<path d="M49.6275 90.0033H39.6942V100.003H49.6275V90.0033Z" fill="#FF0900"/>
<path d="M49.6275 80.0042H39.6942V90.0033H49.6275V80.0042Z" fill="#FF0900"/>
<path d="M49.6275 70.005H39.6942V80.0042H49.6275V70.005Z" fill="white"/>
<path d="M49.6275 59.995H39.6942V70.005H49.6275V59.995Z" fill="#6633FF"/>
<path d="M49.6275 49.9958H39.6942V59.995H49.6275V49.9958Z" fill="#6633FF"/>
<path d="M49.6275 39.9967H39.6942V49.9958H49.6275V39.9967Z" fill="white"/>
<path d="M49.6275 29.9975H39.6942V39.9967H49.6275V29.9975Z" fill="#FF0900"/>
<path d="M49.6275 19.9983H39.6942V29.9975H49.6275V19.9983Z" fill="#FF0900"/>
<path d="M49.6275 9.99916H39.6942V19.9983H49.6275V9.99916Z" fill="#FF0900"/>
<path d="M49.6275 0H39.6942V9.99916H49.6275V0Z" fill="#FF0900"/>
<path d="M39.6942 110.002H29.7717V120.001H39.6942V110.002Z" fill="#FF0900"/>
<path d="M39.6942 100.003H29.7717V110.002H39.6942V100.003Z" fill="#FF0900"/>
<path d="M39.6942 90.0033H29.7717V100.003H39.6942V90.0033Z" fill="#FF0900"/>
<path d="M39.6942 80.0042H29.7717V90.0033H39.6942V80.0042Z" fill="#FF0900"/>
<path d="M39.6942 70.005H29.7717V80.0042H39.6942V70.005Z" fill="#FF0900"/>
<path d="M39.6942 59.995H29.7717V70.005H39.6942V59.995Z" fill="white"/>
<path d="M39.6942 49.9958H29.7717V59.995H39.6942V49.9958Z" fill="white"/>
<path d="M39.6942 39.9967H29.7717V49.9958H39.6942V39.9967Z" fill="white"/>
<path d="M39.6942 29.9975H29.7717V39.9967H39.6942V29.9975Z" fill="#FF0900"/>
<path d="M39.6942 19.9983H29.7717V29.9975H39.6942V19.9983Z" fill="#FF0900"/>
<path d="M39.6942 9.99916H29.7717V19.9983H39.6942V9.99916Z" fill="#FF0900"/>
<path d="M29.7717 100.003H19.849V110.002L29.7717 110.002V100.003Z" fill="#FF0900"/>
<path d="M29.7717 90.0033H19.849V100.003H29.7717V90.0033Z" fill="#FF0900"/>
<path d="M29.7717 80.0042H19.849V90.0033H29.7717V80.0042Z" fill="#FF0900"/>
<path d="M29.7717 70.005H19.849V80.0042H29.7717V70.005Z" fill="#FF0900"/>
<path d="M29.7717 59.995H19.849V70.005H29.7717V59.995Z" fill="#FF0900"/>
<path d="M29.7717 49.9958H19.849V59.995H29.7717V49.9958Z" fill="#FF0900"/>
<path d="M29.7717 39.9967H19.849V49.9958H29.7717V39.9967Z" fill="#FF0900"/>
<path d="M29.7717 29.9975H19.849V39.9967H29.7717V29.9975Z" fill="#FF0900"/>
<path d="M29.7717 19.9983H19.849V29.9975H29.7717V19.9983Z" fill="#FF0900"/>
<path d="M19.849 110.002L9.92649 110.002V120.001H19.849L19.849 110.002Z" fill="#FF0900"/>
<path d="M19.849 100.003H9.92649V110.002L19.849 110.002V100.003Z" fill="#FF0900"/>
<path d="M19.849 90.0033H9.92649V100.003H19.849V90.0033Z" fill="#FF0900"/>
<path d="M19.849 80.0042H9.92649V90.0033H19.849V80.0042Z" fill="#FF0900"/>
<path d="M19.849 70.005H9.92649V80.0042H19.849V70.005Z" fill="#FF0900"/>
<path d="M19.849 59.995H9.92649V70.005H19.849V59.995Z" fill="#FF0900"/>
<path d="M19.849 49.9958H9.92649V59.995H19.849V49.9958Z" fill="#FF0900"/>
<path d="M19.849 39.9967H9.92649V49.9958H19.849V39.9967Z" fill="#FF0900"/>
<path d="M19.849 29.9975H9.92649V39.9967H19.849V29.9975Z" fill="#FF0900"/>
<path d="M9.92649 120.001H0.00396729V130H9.9265L9.92649 120.001Z" fill="#FF0900"/>
<path d="M9.92649 110.002H0.00396729V120.001H9.92649V110.002Z" fill="#FF0900"/>
<path d="M9.92649 100.003H0.00396729V110.002H9.92649V100.003Z" fill="#FF0900"/>
<path d="M9.92649 90.0033H0.00396729V100.003H9.92649V90.0033Z" fill="#FF0900"/>
<path d="M9.92649 80.0042H0.00396729V90.0033H9.92649V80.0042Z" fill="#FF0900"/>
<path d="M9.92649 70.005H0.00396729V80.0042H9.92649V70.005Z" fill="#FF0900"/>
<path d="M9.92649 59.995H0.00396729V70.005H9.92649V59.995Z" fill="#FF0900"/>
<path d="M9.92649 49.9958H0.00396729V59.995H9.92649V49.9958Z" fill="#FF0900"/>
</svg>
