<svg width="244" height="225" viewBox="0 0 244 225" fill="none" xmlns="http://www.w3.org/2000/svg">
<path d="M75.9728 289.635L93.1867 283.37L99.5004 300.717L82.2865 306.982L75.9728 289.635Z" fill="#FF7A00"/>
<path d="M69.6592 272.289L86.873 266.023L93.1867 283.37L75.9728 289.635L69.6592 272.289Z" fill="#FF7A00"/>
<path d="M63.3455 254.942L80.5593 248.677L86.873 266.023L69.6592 272.289L63.3455 254.942Z" fill="#FF7A00"/>
<path d="M57.0318 237.595L74.2456 231.33L80.5593 248.677L63.3455 254.942L57.0318 237.595Z" fill="#FF7A00"/>
<path d="M50.7181 220.249L67.9319 213.983L74.2456 231.33L57.0318 237.595L50.7181 220.249Z" fill="#FF7A00"/>
<path d="M44.4044 202.902L61.6182 196.636L67.9319 213.983L50.7181 220.249L44.4044 202.902Z" fill="#FF7A00"/>
<path d="M38.0839 185.536L55.2977 179.271L61.6182 196.636L44.4044 202.902L38.0839 185.536Z" fill="#FF7A00"/>
<path d="M31.7702 168.19L48.984 161.924L55.2977 179.271L38.0839 185.536L31.7702 168.19Z" fill="#FF7A00"/>
<path d="M86.873 266.023L104.087 259.758L110.4 277.105L93.1867 283.37L86.873 266.023Z" fill="#FF7A00"/>
<path d="M80.5593 248.677L97.7731 242.411L104.087 259.758L86.873 266.023L80.5593 248.677Z" fill="#FF7A00"/>
<path d="M74.2456 231.33L91.4594 225.065L97.7731 242.411L80.5593 248.677L74.2456 231.33Z" fill="#FF7A00"/>
<path d="M67.9319 213.983L85.1457 207.718L91.4594 225.065L74.2456 231.33L67.9319 213.983Z" fill="#FF7A00"/>
<path d="M61.6182 196.636L78.832 190.371L85.1457 207.718L67.9319 213.983L61.6182 196.636Z" fill="white"/>
<path d="M55.2977 179.271L72.5115 173.006L78.832 190.371L61.6182 196.636L55.2977 179.271Z" fill="#6633FF"/>
<path d="M48.984 161.924L66.1978 155.659L72.5115 173.006L55.2977 179.271L48.984 161.924Z" fill="#6633FF"/>
<path d="M42.6703 144.577L59.8841 138.312L66.1978 155.659L48.984 161.924L42.6703 144.577Z" fill="white"/>
<path d="M36.3566 127.231L53.5704 120.965L59.8841 138.312L42.6703 144.577L36.3566 127.231Z" fill="#FF7A00"/>
<path d="M97.7731 242.411L114.987 236.146L121.301 253.493L104.087 259.758L97.7731 242.411Z" fill="#FF7A00"/>
<path d="M91.4594 225.065L108.673 218.799L114.987 236.146L97.7731 242.411L91.4594 225.065Z" fill="#FF7A00"/>
<path d="M85.1457 207.718L102.359 201.453L108.673 218.799L91.4594 225.065L85.1457 207.718Z" fill="#FF7A00"/>
<path d="M78.832 190.371L96.0458 184.106L102.359 201.453L85.1457 207.718L78.832 190.371Z" fill="white"/>
<path d="M72.5115 173.006L89.7252 166.74L96.0458 184.106L78.832 190.371L72.5115 173.006Z" fill="#6633FF"/>
<path d="M66.1978 155.659L83.4115 149.394L89.7252 166.74L72.5115 173.006L66.1978 155.659Z" fill="#6633FF"/>
<path d="M59.8841 138.312L77.0978 132.047L83.4115 149.394L66.1978 155.659L59.8841 138.312Z" fill="white"/>
<path d="M53.5704 120.965L70.7841 114.7L77.0978 132.047L59.8841 138.312L53.5704 120.965Z" fill="#FF7A00"/>
<path d="M47.2566 103.619L64.4704 97.3534L70.7841 114.7L53.5704 120.965L47.2566 103.619Z" fill="#FF7A00"/>
<path d="M121.301 253.493L138.514 247.227L144.828 264.574L127.614 270.839L121.301 253.493Z" fill="#FF7A00"/>
<path d="M114.987 236.146L132.201 229.881L138.514 247.227L121.301 253.493L114.987 236.146Z" fill="#FF7A00"/>
<path d="M108.673 218.799L125.887 212.534L132.201 229.881L114.987 236.146L108.673 218.799Z" fill="#FF7A00"/>
<path d="M102.359 201.453L119.573 195.187L125.887 212.534L108.673 218.799L102.359 201.453Z" fill="#FF7A00"/>
<path d="M96.0458 184.106L113.26 177.841L119.573 195.187L102.359 201.453L96.0458 184.106Z" fill="#FF7A00"/>
<path d="M89.7252 166.74L106.939 160.475L113.26 177.841L96.0458 184.106L89.7252 166.74Z" fill="white"/>
<path d="M83.4115 149.394L100.626 143.128L106.939 160.475L89.7252 166.74L83.4115 149.394Z" fill="white"/>
<path d="M77.0978 132.047L94.3118 125.782L100.626 143.128L83.4115 149.394L77.0978 132.047Z" fill="white"/>
<path d="M70.7841 114.7L87.9981 108.435L94.3118 125.782L77.0978 132.047L70.7841 114.7Z" fill="#FF7A00"/>
<path d="M64.4704 97.3534L81.6844 91.0881L87.9981 108.435L70.7841 114.7L64.4704 97.3534Z" fill="#FF7A00"/>
<path d="M58.1569 80.0067L75.3707 73.7413L81.6844 91.0881L64.4704 97.3534L58.1569 80.0067Z" fill="#FF7A00"/>
<path d="M144.828 264.574L162.042 258.309L168.356 275.656L151.142 281.921L144.828 264.574Z" fill="#FF7A00"/>
<path d="M138.514 247.227L155.728 240.962L162.042 258.309L144.828 264.574L138.514 247.227Z" fill="#FF7A00"/>
<path d="M132.201 229.881L149.415 223.615L155.728 240.962L138.514 247.227L132.201 229.881Z" fill="#FF7A00"/>
<path d="M125.887 212.534L143.101 206.269L149.415 223.615L132.201 229.881L125.887 212.534Z" fill="#FF7A00"/>
<path d="M119.573 195.187L136.787 188.922L143.101 206.269L125.887 212.534L119.573 195.187Z" fill="#FF7A00"/>
<path d="M113.26 177.841L130.473 171.575L136.787 188.922L119.573 195.187L113.26 177.841Z" fill="#FF7A00"/>
<path d="M106.939 160.475L124.153 154.21L130.473 171.575L113.26 177.841L106.939 160.475Z" fill="#FF7A00"/>
<path d="M100.626 143.128L117.839 136.863L124.153 154.21L106.939 160.475L100.626 143.128Z" fill="#FF7A00"/>
<path d="M94.3118 125.782L111.526 119.516L117.839 136.863L100.626 143.128L94.3118 125.782Z" fill="#FF7A00"/>
<path d="M87.9981 108.435L105.212 102.169L111.526 119.516L94.3118 125.782L87.9981 108.435Z" fill="#FF7A00"/>
<path d="M81.6844 91.0881L98.8982 84.8228L105.212 102.169L87.9981 108.435L81.6844 91.0881Z" fill="#FF7A00"/>
<path d="M75.3707 73.7413L92.5845 67.476L98.8982 84.8228L81.6844 91.0881L75.3707 73.7413Z" fill="#FF7A00"/>
<path d="M69.057 56.3946L86.2708 50.1293L92.5845 67.476L75.3707 73.7413L69.057 56.3946Z" fill="#FF7A00"/>
<path d="M155.728 240.962L172.942 234.697L179.256 252.044L162.042 258.309L155.728 240.962Z" fill="#FF7A00"/>
<path d="M149.415 223.615L166.628 217.35L172.942 234.697L155.728 240.962L149.415 223.615Z" fill="#FF7A00"/>
<path d="M143.101 206.269L160.315 200.003L166.628 217.35L149.415 223.615L143.101 206.269Z" fill="#FF7A00"/>
<path d="M136.787 188.922L154.001 182.657L160.315 200.003L143.101 206.269L136.787 188.922Z" fill="#FF7A00"/>
<path d="M130.473 171.575L147.687 165.31L154.001 182.657L136.787 188.922L130.473 171.575Z" fill="#FF7A00"/>
<path d="M124.153 154.21L141.367 147.944L147.687 165.31L130.473 171.575L124.153 154.21Z" fill="#FF7A00"/>
<path d="M117.839 136.863L135.053 130.598L141.367 147.944L124.153 154.21L117.839 136.863Z" fill="#FF7A00"/>
<path d="M111.526 119.516L128.739 113.251L135.053 130.598L117.839 136.863L111.526 119.516Z" fill="#FF7A00"/>
<path d="M105.212 102.169L122.426 95.9042L128.739 113.251L111.526 119.516L105.212 102.169Z" fill="#FF7A00"/>
<path d="M98.8982 84.8228L116.112 78.5575L122.426 95.9042L105.212 102.169L98.8982 84.8228Z" fill="#FF7A00"/>
<path d="M92.5845 67.476L109.798 61.2108L116.112 78.5575L98.8982 84.8228L92.5845 67.476Z" fill="#FF7A00"/>
<path d="M86.2708 50.1293L103.485 43.864L109.798 61.2108L92.5845 67.476L86.2708 50.1293Z" fill="#FF7A00"/>
<path d="M166.628 217.35L183.842 211.085L190.156 228.432L172.942 234.697L166.628 217.35Z" fill="#FF7A00"/>
<path d="M160.315 200.003L177.528 193.738L183.842 211.085L166.628 217.35L160.315 200.003Z" fill="#FF7A00"/>
<path d="M154.001 182.657L171.215 176.391L177.528 193.738L160.315 200.003L154.001 182.657Z" fill="#FF7A00"/>
<path d="M147.687 165.31L164.901 159.045L171.215 176.391L154.001 182.657L147.687 165.31Z" fill="#FF7A00"/>
<path d="M141.367 147.944L158.58 141.679L164.901 159.045L147.687 165.31L141.367 147.944Z" fill="#FF7A00"/>
<path d="M135.053 130.598L152.267 124.332L158.58 141.679L141.367 147.944L135.053 130.598Z" fill="#FF7A00"/>
<path d="M128.739 113.251L145.953 106.986L152.267 124.332L135.053 130.598L128.739 113.251Z" fill="#FF7A00"/>
<path d="M122.426 95.9042L139.639 89.6389L145.953 106.986L128.739 113.251L122.426 95.9042Z" fill="#FF7A00"/>
<path d="M116.112 78.5575L133.326 72.2922L139.639 89.6389L122.426 95.9042L116.112 78.5575Z" fill="#FF7A00"/>
<path d="M109.798 61.2108L127.012 54.9455L133.326 72.2922L116.112 78.5575L109.798 61.2108Z" fill="#FF7A00"/>
<path d="M103.485 43.864L120.698 37.5987L127.012 54.9455L109.798 61.2108L103.485 43.864Z" fill="#FF7A00"/>
<path d="M190.156 228.432L207.37 222.166L213.683 239.513L196.47 245.778L190.156 228.432Z" fill="#FF7A00"/>
<path d="M183.842 211.085L201.056 204.819L207.37 222.166L190.156 228.432L183.842 211.085Z" fill="#FF7A00"/>
<path d="M177.528 193.738L194.742 187.473L201.056 204.819L183.842 211.085L177.528 193.738Z" fill="#FF7A00"/>
<path d="M171.215 176.391L188.429 170.126L194.742 187.473L177.528 193.738L171.215 176.391Z" fill="#FF7A00"/>
<path d="M164.901 159.045L182.115 152.779L188.429 170.126L171.215 176.391L164.901 159.045Z" fill="white"/>
<path d="M158.58 141.679L175.794 135.414L182.115 152.779L164.901 159.045L158.58 141.679Z" fill="#6633FF"/>
<path d="M152.267 124.332L169.481 118.067L175.794 135.414L158.58 141.679L152.267 124.332Z" fill="#6633FF"/>
<path d="M145.953 106.986L163.167 100.72L169.481 118.067L152.267 124.332L145.953 106.986Z" fill="white"/>
<path d="M139.639 89.6389L156.853 83.3735L163.167 100.72L145.953 106.986L139.639 89.6389Z" fill="#FF7A00"/>
<path d="M133.326 72.2922L150.54 66.0268L156.853 83.3735L139.639 89.6389L133.326 72.2922Z" fill="#FF7A00"/>
<path d="M127.012 54.9455L144.226 48.6801L150.54 66.0268L133.326 72.2922L127.012 54.9455Z" fill="#FF7A00"/>
<path d="M120.698 37.5987L137.912 31.3334L144.226 48.6801L127.012 54.9455L120.698 37.5987Z" fill="#FF7A00"/>
<path d="M213.683 239.513L230.916 233.241L237.23 250.588L219.997 256.86L213.683 239.513Z" fill="#FF7A00"/>
<path d="M207.37 222.166L224.602 215.894L230.916 233.241L213.683 239.513L207.37 222.166Z" fill="#FF7A00"/>
<path d="M201.056 204.819L218.289 198.547L224.602 215.894L207.37 222.166L201.056 204.819Z" fill="#FF7A00"/>
<path d="M194.742 187.473L211.975 181.201L218.289 198.547L201.056 204.819L194.742 187.473Z" fill="#FF7A00"/>
<path d="M188.429 170.126L205.661 163.854L211.975 181.201L194.742 187.473L188.429 170.126Z" fill="#FF7A00"/>
<path d="M182.115 152.779L199.347 146.507L205.661 163.854L188.429 170.126L182.115 152.779Z" fill="white"/>
<path d="M175.794 135.414L193.027 129.142L199.347 146.507L182.115 152.779L175.794 135.414Z" fill="#6633FF"/>
<path d="M169.481 118.067L186.713 111.795L193.027 129.142L175.794 135.414L169.481 118.067Z" fill="#6633FF"/>
<path d="M163.167 100.72L180.4 94.4481L186.713 111.795L169.481 118.067L163.167 100.72Z" fill="white"/>
<path d="M156.853 83.3735L174.086 77.1014L180.4 94.4481L163.167 100.72L156.853 83.3735Z" fill="#FF7A00"/>
<path d="M150.54 66.0268L167.772 59.7547L174.086 77.1014L156.853 83.3735L150.54 66.0268Z" fill="#FF7A00"/>
<path d="M144.226 48.6801L161.458 42.408L167.772 59.7547L150.54 66.0268L144.226 48.6801Z" fill="#FF7A00"/>
<path d="M137.912 31.3334L155.145 25.0613L161.458 42.408L144.226 48.6801L137.912 31.3334Z" fill="#FF7A00"/>
<path d="M224.602 215.894L241.816 209.629L248.13 226.975L230.916 233.241L224.602 215.894Z" fill="#FF7A00"/>
<path d="M218.289 198.547L235.502 192.282L241.816 209.629L224.602 215.894L218.289 198.547Z" fill="#FF7A00"/>
<path d="M211.975 181.201L229.189 174.935L235.502 192.282L218.289 198.547L211.975 181.201Z" fill="#FF7A00"/>
<path d="M205.661 163.854L222.875 157.589L229.189 174.935L211.975 181.201L205.661 163.854Z" fill="#FF7A00"/>
<path d="M199.347 146.507L216.561 140.242L222.875 157.589L205.661 163.854L199.347 146.507Z" fill="#FF7A00"/>
<path d="M193.027 129.142L210.241 122.876L216.561 140.242L199.347 146.507L193.027 129.142Z" fill="white"/>
<path d="M186.713 111.795L203.927 105.53L210.241 122.876L193.027 129.142L186.713 111.795Z" fill="white"/>
<path d="M180.4 94.4481L197.613 88.1828L203.927 105.53L186.713 111.795L180.4 94.4481Z" fill="white"/>
<path d="M174.086 77.1014L191.3 70.8361L197.613 88.1828L180.4 94.4481L174.086 77.1014Z" fill="#FF7A00"/>
<path d="M167.772 59.7547L184.986 53.4894L191.3 70.8361L174.086 77.1014L167.772 59.7547Z" fill="#FF7A00"/>
<path d="M161.458 42.408L178.672 36.1427L184.986 53.4894L167.772 59.7547L161.458 42.408Z" fill="#FF7A00"/>
<path d="M235.502 192.282L252.716 186.017L259.03 203.363L241.816 209.629L235.502 192.282Z" fill="#FF7A00"/>
<path d="M229.189 174.935L246.403 168.67L252.716 186.017L235.502 192.282L229.189 174.935Z" fill="#FF7A00"/>
<path d="M222.875 157.589L240.089 151.323L246.403 168.67L229.189 174.935L222.875 157.589Z" fill="#FF7A00"/>
<path d="M216.561 140.242L233.775 133.976L240.089 151.323L222.875 157.589L216.561 140.242Z" fill="#FF7A00"/>
<path d="M210.241 122.876L227.455 116.611L233.775 133.976L216.561 140.242L210.241 122.876Z" fill="#FF7A00"/>
<path d="M203.927 105.53L221.141 99.2642L227.455 116.611L210.241 122.876L203.927 105.53Z" fill="#FF7A00"/>
<path d="M197.613 88.1828L214.827 81.9175L221.141 99.2642L203.927 105.53L197.613 88.1828Z" fill="#FF7A00"/>
<path d="M191.3 70.8361L208.514 64.5708L214.827 81.9175L197.613 88.1828L191.3 70.8361Z" fill="#FF7A00"/>
<path d="M184.986 53.4894L202.2 47.224L208.514 64.5708L191.3 70.8361L184.986 53.4894Z" fill="#FF7A00"/>
<path d="M259.03 203.363L276.244 197.098L282.557 214.445L265.344 220.71L259.03 203.363Z" fill="#FF7A00"/>
<path d="M252.716 186.017L269.93 179.751L276.244 197.098L259.03 203.363L252.716 186.017Z" fill="#FF7A00"/>
<path d="M246.403 168.67L263.616 162.405L269.93 179.751L252.716 186.017L246.403 168.67Z" fill="#FF7A00"/>
<path d="M240.089 151.323L257.303 145.058L263.616 162.405L246.403 168.67L240.089 151.323Z" fill="#FF7A00"/>
<path d="M233.775 133.976L250.989 127.711L257.303 145.058L240.089 151.323L233.775 133.976Z" fill="#FF7A00"/>
<path d="M227.455 116.611L244.668 110.346L250.989 127.711L233.775 133.976L227.455 116.611Z" fill="#FF7A00"/>
<path d="M221.141 99.2642L238.355 92.9989L244.668 110.346L227.455 116.611L221.141 99.2642Z" fill="#FF7A00"/>
<path d="M214.827 81.9175L232.041 75.6522L238.355 92.9989L221.141 99.2642L214.827 81.9175Z" fill="#FF7A00"/>
<path d="M208.514 64.5708L225.727 58.3055L232.041 75.6522L214.827 81.9175L208.514 64.5708Z" fill="#FF7A00"/>
<path d="M282.557 214.445L299.771 208.18L306.085 225.526L288.871 231.792L282.557 214.445Z" fill="#FF7A00"/>
<path d="M276.244 197.098L293.457 190.833L299.771 208.18L282.557 214.445L276.244 197.098Z" fill="#FF7A00"/>
<path d="M269.93 179.751L287.144 173.486L293.457 190.833L276.244 197.098L269.93 179.751Z" fill="#FF7A00"/>
<path d="M263.616 162.405L280.83 156.139L287.144 173.486L269.93 179.751L263.616 162.405Z" fill="#FF7A00"/>
<path d="M257.303 145.058L274.516 138.793L280.83 156.139L263.616 162.405L257.303 145.058Z" fill="#FF7A00"/>
<path d="M250.989 127.711L268.203 121.446L274.516 138.793L257.303 145.058L250.989 127.711Z" fill="#FF7A00"/>
<path d="M244.668 110.346L261.882 104.08L268.203 121.446L250.989 127.711L244.668 110.346Z" fill="#FF7A00"/>
<path d="M238.355 92.9989L255.568 86.7336L261.882 104.08L244.668 110.346L238.355 92.9989Z" fill="#FF7A00"/>
</svg>
