<svg width="31" height="31" viewBox="0 0 31 31" fill="none" xmlns="http://www.w3.org/2000/svg">
<path d="M2.86211 19.1147H3.89526V20.1468H2.86211V19.1147Z" fill="#FFD44D"/>
<path d="M2.86211 18.0825H3.89526V19.1157H2.86211V18.0825Z" fill="#FFD44D"/>
<path d="M2.86211 17.0502H3.89526V18.0823H2.86211V17.0502Z" fill="#FFD44D"/>
<path d="M2.86211 16.0179H3.89526V17.0511H2.86211V16.0179Z" fill="#FFD44D"/>
<path d="M2.86211 14.9835H3.89526V16.0167H2.86211V14.9835Z" fill="#FFD44D"/>
<path d="M2.86211 13.9512H3.89526V14.9833H2.86211V13.9512Z" fill="#FFD44D"/>
<path d="M2.86211 12.9189H3.89526V13.9521H2.86211V12.9189Z" fill="#FFD44D"/>
<path d="M2.86211 11.8866H3.89526V12.9187H2.86211V11.8866Z" fill="#FFD44D"/>
<path d="M2.86211 10.8533H3.89526V11.8864H2.86211V10.8533Z" fill="#FFD44D"/>
<path d="M3.89504 21.1804H4.92712V22.2125H3.89504V21.1804Z" fill="#FFD44D"/>
<path d="M3.89504 20.1471H4.92712V21.1803H3.89504V20.1471Z" fill="#FFD44D"/>
<path d="M3.89504 19.1147H4.92712V20.1468H3.89504V19.1147Z" fill="#FFD44D"/>
<path d="M3.89504 18.0825H4.92712V19.1157H3.89504V18.0825Z" fill="#FFD44D"/>
<path d="M3.89504 17.0502H4.92712V18.0823H3.89504V17.0502Z" fill="#FFD44D"/>
<path d="M3.89504 16.0179H4.92712V17.0511H3.89504V16.0179Z" fill="#FFD44D"/>
<path d="M3.89504 14.9835H4.92712V16.0167H3.89504V14.9835Z" fill="#FFD44D"/>
<path d="M3.89504 13.9512H4.92712V14.9833H3.89504V13.9512Z" fill="#FFD44D"/>
<path d="M3.89504 12.9189H4.92712V13.9521H3.89504V12.9189Z" fill="#FFD44D"/>
<path d="M3.89504 11.8866H4.92712V12.9187H3.89504V11.8866Z" fill="#FFD44D"/>
<path d="M3.89504 10.8533H4.92712V11.8864H3.89504V10.8533Z" fill="#FFD44D"/>
<path d="M3.89504 9.82092H4.92712V10.853H3.89504V9.82092Z" fill="#FFD44D"/>
<path d="M3.89504 8.7887H4.92712V9.82185H3.89504V8.7887Z" fill="#FFD44D"/>
<path d="M4.92705 22.2126H5.96021V23.2458H4.92705V22.2126Z" fill="#FFD44D"/>
<path d="M4.92705 21.1804H5.96021V22.2125H4.92705V21.1804Z" fill="#FFD44D"/>
<path d="M4.92705 20.1471H5.96021V21.1803H4.92705V20.1471Z" fill="#FFD44D"/>
<path d="M4.92705 19.1147H5.96021V20.1468H4.92705V19.1147Z" fill="#FFD44D"/>
<path d="M4.92705 18.0825H5.96021V19.1157H4.92705V18.0825Z" fill="#FFD44D"/>
<path d="M4.92705 17.0502H5.96021V18.0823H4.92705V17.0502Z" fill="#FFD44D"/>
<path d="M4.92705 16.0179H5.96021V17.0511H4.92705V16.0179Z" fill="#FFD44D"/>
<path d="M4.92705 14.9835H5.96021V16.0167H4.92705V14.9835Z" fill="#FFD44D"/>
<path d="M4.92705 13.9512H5.96021V14.9833H4.92705V13.9512Z" fill="#FFD44D"/>
<path d="M4.92705 12.9189H5.96021V13.9521H4.92705V12.9189Z" fill="#FFD44D"/>
<path d="M4.92705 11.8866H5.96021V12.9187H4.92705V11.8866Z" fill="#FFD44D"/>
<path d="M4.92705 10.8533H5.96021V11.8864H4.92705V10.8533Z" fill="#FFD44D"/>
<path d="M4.92705 9.82092H5.96021V10.853H4.92705V9.82092Z" fill="#FFD44D"/>
<path d="M4.92705 8.7887H5.96021V9.82185H4.92705V8.7887Z" fill="#FFD44D"/>
<path d="M4.92705 7.75647H5.96021V8.78856H4.92705V7.75647Z" fill="#FFD44D"/>
<path d="M5.96071 23.2461H6.9928V24.2782H5.96071V23.2461Z" fill="#FFD44D"/>
<path d="M5.96071 22.2126H6.9928V23.2458H5.96071V22.2126Z" fill="#FFD44D"/>
<path d="M5.96071 21.1804H6.9928V22.2125H5.96071V21.1804Z" fill="#FFD44D"/>
<path d="M5.96071 20.1471H6.9928V21.1803H5.96071V20.1471Z" fill="#FFD44D"/>
<path d="M5.96071 19.1147H6.9928V20.1468H5.96071V19.1147Z" fill="#FFD44D"/>
<path d="M5.96071 18.0825H6.9928V19.1157H5.96071V18.0825Z" fill="#FFD44D"/>
<path d="M5.96071 17.0502H6.9928V18.0823H5.96071V17.0502Z" fill="#FFD44D"/>
<path d="M5.96071 16.0179H6.9928V17.0511H5.96071V16.0179Z" fill="#FFD44D"/>
<path d="M5.96071 14.9835H6.9928V16.0167H5.96071V14.9835Z" fill="#FFD44D"/>
<path d="M5.96071 13.9512H6.9928V14.9833H5.96071V13.9512Z" fill="#FFD44D"/>
<path d="M5.96071 12.9189H6.9928V13.9521H5.96071V12.9189Z" fill="#FFD44D"/>
<path d="M5.96071 11.8866H6.9928V12.9187H5.96071V11.8866Z" fill="#FFD44D"/>
<path d="M5.96071 10.8533H6.9928V11.8864H5.96071V10.8533Z" fill="#FFD44D"/>
<path d="M5.96071 9.82092H6.9928V10.853H5.96071V9.82092Z" fill="#FFD44D"/>
<path d="M5.96071 8.7887H6.9928V9.82185H5.96071V8.7887Z" fill="#FFD44D"/>
<path d="M5.96071 7.75647H6.9928V8.78856H5.96071V7.75647Z" fill="#FFD44D"/>
<path d="M5.96071 6.72192H6.9928V7.75508H5.96071V6.72192Z" fill="#FFD44D"/>
<path d="M6.99272 24.2772H8.02588V25.3104H6.99272V24.2772Z" fill="#FFD44D"/>
<path d="M6.99272 23.2461H8.02588V24.2782H6.99272V23.2461Z" fill="#FFD44D"/>
<path d="M6.99272 22.2126H8.02588V23.2458H6.99272V22.2126Z" fill="#FFD44D"/>
<path d="M6.99272 21.1804H8.02588V22.2125H6.99272V21.1804Z" fill="#FFD44D"/>
<path d="M6.99272 20.1471H8.02588V21.1803H6.99272V20.1471Z" fill="#FFD44D"/>
<path d="M6.99272 19.1147H8.02588V20.1468H6.99272V19.1147Z" fill="#FFD44D"/>
<path d="M6.99272 18.0825H8.02588V19.1157H6.99272V18.0825Z" fill="#FFD44D"/>
<path d="M6.99272 17.0502H8.02588V18.0823H6.99272V17.0502Z" fill="#FFD44D"/>
<path d="M6.99272 16.0179H8.02588V17.0511H6.99272V16.0179Z" fill="#FFD44D"/>
<path d="M6.99272 14.9835H8.02588V16.0167H6.99272V14.9835Z" fill="#FFD44D"/>
<path d="M6.99272 13.9512H8.02588V14.9833H6.99272V13.9512Z" fill="#FFD44D"/>
<path d="M6.99272 12.9189H8.02588V13.9521H6.99272V12.9189Z" fill="#FFD44D"/>
<path d="M6.99272 11.8866H8.02588V12.9187H6.99272V11.8866Z" fill="#FFD44D"/>
<path d="M6.99272 10.8533H8.02588V11.8864H6.99272V10.8533Z" fill="#FFD44D"/>
<path d="M6.99272 9.82092H8.02588V10.853H6.99272V9.82092Z" fill="#FFD44D"/>
<path d="M6.99272 8.7887H8.02588V9.82185H6.99272V8.7887Z" fill="#FFD44D"/>
<path d="M6.99272 7.75647H8.02588V8.78856H6.99272V7.75647Z" fill="#FFD44D"/>
<path d="M6.99272 6.72192H8.02588V7.75508H6.99272V6.72192Z" fill="#FFD44D"/>
<path d="M6.99272 5.6908H8.02588V6.72288H6.99272V5.6908Z" fill="#FFD44D"/>
<path d="M8.02565 25.3116H9.05774V26.3437H8.02565V25.3116Z" fill="#FFD44D"/>
<path d="M8.02565 24.2772H9.05774V25.3104H8.02565V24.2772Z" fill="#FFD44D"/>
<path d="M8.02565 23.2461H9.05774V24.2782H8.02565V23.2461Z" fill="#FFD44D"/>
<path d="M8.02565 22.2126H9.05774V23.2458H8.02565V22.2126Z" fill="#FFD44D"/>
<path d="M8.02565 21.1804H9.05774V22.2125H8.02565V21.1804Z" fill="#FFD44D"/>
<path d="M8.02565 20.1471H9.05774V21.1803H8.02565V20.1471Z" fill="#FFD44D"/>
<path d="M8.02565 19.1147H9.05774V20.1468H8.02565V19.1147Z" fill="#FFD44D"/>
<path d="M8.02565 18.0825H9.05774V19.1157H8.02565V18.0825Z" fill="#FFD44D"/>
<path d="M8.02565 17.0502H9.05774V18.0823H8.02565V17.0502Z" fill="#FFD44D"/>
<path d="M8.02565 16.0179H9.05774V17.0511H8.02565V16.0179Z" fill="#FFD44D"/>
<path d="M8.02565 14.9835H9.05774V16.0167H8.02565V14.9835Z" fill="#FFD44D"/>
<path d="M8.02565 13.9512H9.05774V14.9833H8.02565V13.9512Z" fill="#FFD44D"/>
<path d="M8.02565 12.9189H9.05774V13.9521H8.02565V12.9189Z" fill="#FFD44D"/>
<path d="M8.02565 11.8866H9.05774V12.9187H8.02565V11.8866Z" fill="#FFD44D"/>
<path d="M8.02565 10.8533H9.05774V11.8864H8.02565V10.8533Z" fill="#FFD44D"/>
<path d="M8.02565 9.82092H9.05774V10.853H8.02565V9.82092Z" fill="#FFD44D"/>
<path d="M8.02565 8.7887H9.05774V9.82185H8.02565V8.7887Z" fill="#FFD44D"/>
<path d="M8.02565 7.75647H9.05774V8.78856H8.02565V7.75647Z" fill="#FFD44D"/>
<path d="M8.02565 6.72192H9.05774V7.75508H8.02565V6.72192Z" fill="#FFD44D"/>
<path d="M8.02565 5.6908H9.05774V6.72288H8.02565V5.6908Z" fill="#FFD44D"/>
<path d="M8.02565 4.65735H9.05774V5.6905H8.02565V4.65735Z" fill="#FFD44D"/>
<path d="M9.05767 26.3429H10.0908V27.376H9.05767V26.3429Z" fill="#FFD44D"/>
<path d="M9.05767 25.3116H10.0908V26.3437H9.05767V25.3116Z" fill="#FFD44D"/>
<path d="M9.05767 24.2772H10.0908V25.3104H9.05767V24.2772Z" fill="#FFD44D"/>
<path d="M9.05767 23.2461H10.0908V24.2782H9.05767V23.2461Z" fill="#FFD44D"/>
<path d="M9.05767 22.2126H10.0908V23.2458H9.05767V22.2126Z" fill="#FFD44D"/>
<path d="M9.05767 21.1804H10.0908V22.2125H9.05767V21.1804Z" fill="#FFD44D"/>
<path d="M9.05767 20.1471H10.0908V21.1803H9.05767V20.1471Z" fill="#FFD44D"/>
<path d="M9.05767 19.1147H10.0908V20.1468H9.05767V19.1147Z" fill="#FFD44D"/>
<path d="M9.05767 18.0825H10.0908V19.1157H9.05767V18.0825Z" fill="#FFD44D"/>
<path d="M9.05767 17.0502H10.0908V18.0823H9.05767V17.0502Z" fill="#FFD44D"/>
<path d="M9.05767 16.0179H10.0908V17.0511H9.05767V16.0179Z" fill="#FFD44D"/>
<path d="M9.05767 14.9835H10.0908V16.0167H9.05767V14.9835Z" fill="#FFD44D"/>
<path d="M9.05767 13.9512H10.0908V14.9833H9.05767V13.9512Z" fill="#FFD44D"/>
<path d="M9.05767 12.9189H10.0908V13.9521H9.05767V12.9189Z" fill="#FFD44D"/>
<path d="M9.05767 11.8866H10.0908V12.9187H9.05767V11.8866Z" fill="#FFD44D"/>
<path d="M9.05767 10.8533H10.0908V11.8864H9.05767V10.8533Z" fill="#FFD44D"/>
<path d="M9.05767 9.82092H10.0908V10.853H9.05767V9.82092Z" fill="#FFD44D"/>
<path d="M9.05767 8.7887H10.0908V9.82185H9.05767V8.7887Z" fill="#FFD44D"/>
<path d="M9.05767 7.75647H10.0908V8.78856H9.05767V7.75647Z" fill="#FFD44D"/>
<path d="M9.05767 6.72192H10.0908V7.75508H9.05767V6.72192Z" fill="#FFD44D"/>
<path d="M9.05767 5.6908H10.0908V6.72288H9.05767V5.6908Z" fill="#FFD44D"/>
<path d="M9.05767 4.65735H10.0908V5.6905H9.05767V4.65735Z" fill="#FFD44D"/>
<path d="M9.05767 3.62512H10.0908V4.65721H9.05767V3.62512Z" fill="#FFD44D"/>
<path d="M10.0913 27.3762H11.1234V28.4083H10.0913V27.3762Z" fill="#FFD44D"/>
<path d="M10.0913 26.3429H11.1234V27.376H10.0913V26.3429Z" fill="#FFD44D"/>
<path d="M10.0913 25.3116H11.1234V26.3437H10.0913V25.3116Z" fill="#FFD44D"/>
<path d="M10.0913 24.2772H11.1234V25.3104H10.0913V24.2772Z" fill="#FFD44D"/>
<path d="M10.0913 23.2461H11.1234V24.2782H10.0913V23.2461Z" fill="#FFD44D"/>
<path d="M10.0913 22.2126H11.1234V23.2458H10.0913V22.2126Z" fill="#FFD44D"/>
<path d="M10.0913 21.1804H11.1234V22.2125H10.0913V21.1804Z" fill="#FFD44D"/>
<path d="M10.0913 20.1471H11.1234V21.1803H10.0913V20.1471Z" fill="#FFD44D"/>
<path d="M10.0913 19.1147H11.1234V20.1468H10.0913V19.1147Z" fill="#FFD44D"/>
<path d="M10.0913 18.0825H11.1234V19.1157H10.0913V18.0825Z" fill="#FFD44D"/>
<path d="M10.0913 17.0502H11.1234V18.0823H10.0913V17.0502Z" fill="#FFD44D"/>
<path d="M10.0913 16.0179H11.1234V17.0511H10.0913V16.0179Z" fill="#FFD44D"/>
<path d="M10.0913 14.9835H11.1234V16.0167H10.0913V14.9835Z" fill="#FFD44D"/>
<path d="M10.0913 13.9512H11.1234V14.9833H10.0913V13.9512Z" fill="#FFD44D"/>
<path d="M10.0913 12.9189H11.1234V13.9521H10.0913V12.9189Z" fill="#FFD44D"/>
<path d="M10.0913 11.8866H11.1234V12.9187H10.0913V11.8866Z" fill="#FFD44D"/>
<path d="M10.0913 10.8533H11.1234V11.8864H10.0913V10.8533Z" fill="#FFD44D"/>
<path d="M10.0913 9.82092H11.1234V10.853H10.0913V9.82092Z" fill="#FFD44D"/>
<path d="M10.0913 8.7887H11.1234V9.82185H10.0913V8.7887Z" fill="#FFD44D"/>
<path d="M10.0913 7.75647H11.1234V8.78856H10.0913V7.75647Z" fill="#FFD44D"/>
<path d="M10.0913 6.72192H11.1234V7.75508H10.0913V6.72192Z" fill="#FFD44D"/>
<path d="M10.0913 5.6908H11.1234V6.72288H10.0913V5.6908Z" fill="#FFD44D"/>
<path d="M10.0913 4.65735H11.1234V5.6905H10.0913V4.65735Z" fill="#FFD44D"/>
<path d="M10.0913 3.62512H11.1234V4.65721H10.0913V3.62512Z" fill="#FFD44D"/>
<path d="M11.1227 27.3762H12.1559V28.4083H11.1227V27.3762Z" fill="#FBBF00"/>
<path d="M11.1227 26.3429H12.1559V27.376H11.1227V26.3429Z" fill="#FBBF00"/>
<path d="M11.1227 25.3116H12.1559V26.3437H11.1227V25.3116Z" fill="#FBBF00"/>
<path d="M11.1227 24.2772H12.1559V25.3104H11.1227V24.2772Z" fill="#FBBF00"/>
<path d="M11.1227 23.2461H12.1559V24.2782H11.1227V23.2461Z" fill="#FBBF00"/>
<path d="M11.1227 22.2126H12.1559V23.2458H11.1227V22.2126Z" fill="#FBBF00"/>
<path d="M11.1227 21.1804H12.1559V22.2125H11.1227V21.1804Z" fill="#FBBF00"/>
<path d="M11.1227 20.1471H12.1559V21.1803H11.1227V20.1471Z" fill="#FBBF00"/>
<path d="M11.1227 19.1147H12.1559V20.1468H11.1227V19.1147Z" fill="#FBBF00"/>
<path d="M11.1227 18.0825H12.1559V19.1157H11.1227V18.0825Z" fill="#FBBF00"/>
<path d="M11.1227 17.0502H12.1559V18.0823H11.1227V17.0502Z" fill="#FBBF00"/>
<path d="M11.1227 16.0179H12.1559V17.0511H11.1227V16.0179Z" fill="#FBBF00"/>
<path d="M11.1227 14.9835H12.1559V16.0167H11.1227V14.9835Z" fill="#FBBF00"/>
<path d="M11.1227 13.9512H12.1559V14.9833H11.1227V13.9512Z" fill="#FBBF00"/>
<path d="M11.1227 12.9189H12.1559V13.9521H11.1227V12.9189Z" fill="#FBBF00"/>
<path d="M11.1227 11.8866H12.1559V12.9187H11.1227V11.8866Z" fill="#FBBF00"/>
<path d="M11.1227 10.8533H12.1559V11.8864H11.1227V10.8533Z" fill="#FBBF00"/>
<path d="M11.1227 9.82092H12.1559V10.853H11.1227V9.82092Z" fill="#FBBF00"/>
<path d="M11.1227 8.7887H12.1559V9.82185H11.1227V8.7887Z" fill="#FBBF00"/>
<path d="M11.1227 7.75647H12.1559V8.78856H11.1227V7.75647Z" fill="#FBBF00"/>
<path d="M11.1227 6.72192H12.1559V7.75508H11.1227V6.72192Z" fill="#FBBF00"/>
<path d="M11.1227 5.6908H12.1559V6.72288H11.1227V5.6908Z" fill="#FBBF00"/>
<path d="M11.1227 4.65735H12.1559V5.6905H11.1227V4.65735Z" fill="#FBBF00"/>
<path d="M11.1227 3.62512H12.1559V4.65721H11.1227V3.62512Z" fill="#FBBF00"/>
<path d="M11.1227 2.5929H12.1559V3.62605H11.1227V2.5929Z" fill="#FBBF00"/>
<path d="M12.1563 28.4086H13.1884V29.4417H12.1563V28.4086Z" fill="#FBBF00"/>
<path d="M12.1563 27.3762H13.1884V28.4083H12.1563V27.3762Z" fill="#FBBF00"/>
<path d="M12.1563 26.3429H13.1884V27.376H12.1563V26.3429Z" fill="#FBBF00"/>
<path d="M12.1563 25.3116H13.1884V26.3437H12.1563V25.3116Z" fill="#FBBF00"/>
<path d="M12.1563 24.2772H13.1884V25.3104H12.1563V24.2772Z" fill="#FBBF00"/>
<path d="M12.1563 23.2461H13.1884V24.2782H12.1563V23.2461Z" fill="#FBBF00"/>
<path d="M12.1563 22.2126H13.1884V23.2458H12.1563V22.2126Z" fill="#FBBF00"/>
<path d="M12.1563 21.1804H13.1884V22.2125H12.1563V21.1804Z" fill="#FBBF00"/>
<path d="M12.1563 20.1471H13.1884V21.1803H12.1563V20.1471Z" fill="#FBBF00"/>
<path d="M12.1563 19.1147H13.1884V20.1468H12.1563V19.1147Z" fill="#FBBF00"/>
<path d="M12.1563 18.0825H13.1884V19.1157H12.1563V18.0825Z" fill="#FBBF00"/>
<path d="M12.1563 17.0502H13.1884V18.0823H12.1563V17.0502Z" fill="#FBBF00"/>
<path d="M12.1563 16.0179H13.1884V17.0511H12.1563V16.0179Z" fill="#FBBF00"/>
<path d="M12.1563 14.9835H13.1884V16.0167H12.1563V14.9835Z" fill="#FBBF00"/>
<path d="M12.1563 13.9512H13.1884V14.9833H12.1563V13.9512Z" fill="#FBBF00"/>
<path d="M12.1563 12.9189H13.1884V13.9521H12.1563V12.9189Z" fill="#FBBF00"/>
<path d="M12.1563 11.8866H13.1884V12.9187H12.1563V11.8866Z" fill="#FBBF00"/>
<path d="M12.1563 10.8533H13.1884V11.8864H12.1563V10.8533Z" fill="#FBBF00"/>
<path d="M12.1563 9.82092H13.1884V10.853H12.1563V9.82092Z" fill="#FBBF00"/>
<path d="M12.1563 8.7887H13.1884V9.82185H12.1563V8.7887Z" fill="#FBBF00"/>
<path d="M12.1563 7.75647H13.1884V8.78856H12.1563V7.75647Z" fill="#FBBF00"/>
<path d="M12.1563 6.72192H13.1884V7.75508H12.1563V6.72192Z" fill="#FBBF00"/>
<path d="M12.1563 5.6908H13.1884V6.72288H12.1563V5.6908Z" fill="#FBBF00"/>
<path d="M12.1563 4.65735H13.1884V5.6905H12.1563V4.65735Z" fill="#FBBF00"/>
<path d="M12.1563 3.62512H13.1884V4.65721H12.1563V3.62512Z" fill="#FBBF00"/>
<path d="M12.1563 2.5929H13.1884V3.62605H12.1563V2.5929Z" fill="#FBBF00"/>
<path d="M12.1563 1.55945H13.1884V2.59153H12.1563V1.55945Z" fill="#FBBF00"/>
<path d="M13.1884 28.4086H14.2216V29.4417H13.1884V28.4086Z" fill="#FBBF00"/>
<path d="M13.1884 27.3762H14.2216V28.4083H13.1884V27.3762Z" fill="#FBBF00"/>
<path d="M13.1884 26.3429H14.2216V27.376H13.1884V26.3429Z" fill="#FBBF00"/>
<path d="M13.1884 25.3116H14.2216V26.3437H13.1884V25.3116Z" fill="#FBBF00"/>
<path d="M13.1884 24.2772H14.2216V25.3104H13.1884V24.2772Z" fill="#FBBF00"/>
<path d="M13.1884 23.2461H14.2216V24.2782H13.1884V23.2461Z" fill="#FBBF00"/>
<path d="M13.1884 22.2126H14.2216V23.2458H13.1884V22.2126Z" fill="#FBBF00"/>
<path d="M13.1884 21.1804H14.2216V22.2125H13.1884V21.1804Z" fill="#FBBF00"/>
<path d="M13.1884 20.1471H14.2216V21.1803H13.1884V20.1471Z" fill="#FBBF00"/>
<path d="M13.1884 19.1147H14.2216V20.1468H13.1884V19.1147Z" fill="#FBBF00"/>
<path d="M13.1884 18.0825H14.2216V19.1157H13.1884V18.0825Z" fill="#FBBF00"/>
<path d="M13.1884 17.0502H14.2216V18.0823H13.1884V17.0502Z" fill="#FBBF00"/>
<path d="M13.1884 16.0179H14.2216V17.0511H13.1884V16.0179Z" fill="#FBBF00"/>
<path d="M13.1884 14.9835H14.2216V16.0167H13.1884V14.9835Z" fill="#FBBF00"/>
<path d="M13.1884 13.9512H14.2216V14.9833H13.1884V13.9512Z" fill="#FBBF00"/>
<path d="M13.1884 12.9189H14.2216V13.9521H13.1884V12.9189Z" fill="#FBBF00"/>
<path d="M13.1884 11.8866H14.2216V12.9187H13.1884V11.8866Z" fill="#FBBF00"/>
<path d="M13.1884 10.8533H14.2216V11.8864H13.1884V10.8533Z" fill="#FBBF00"/>
<path d="M13.1884 9.82092H14.2216V10.853H13.1884V9.82092Z" fill="#FBBF00"/>
<path d="M13.1884 8.7887H14.2216V9.82185H13.1884V8.7887Z" fill="#FBBF00"/>
<path d="M13.1884 7.75647H14.2216V8.78856H13.1884V7.75647Z" fill="#FBBF00"/>
<path d="M13.1884 6.72192H14.2216V7.75508H13.1884V6.72192Z" fill="#FBBF00"/>
<path d="M13.1884 5.6908H14.2216V6.72288H13.1884V5.6908Z" fill="#FBBF00"/>
<path d="M13.1884 4.65735H14.2216V5.6905H13.1884V4.65735Z" fill="#FBBF00"/>
<path d="M13.1884 3.62512H14.2216V4.65721H13.1884V3.62512Z" fill="#FBBF00"/>
<path d="M13.1884 2.5929H14.2216V3.62605H13.1884V2.5929Z" fill="#FBBF00"/>
<path d="M13.1884 1.55945H14.2216V2.59153H13.1884V1.55945Z" fill="#FBBF00"/>
<path d="M14.2212 28.4086H15.2533V29.4417H14.2212V28.4086Z" fill="#FBBF00"/>
<path d="M14.2212 27.3762H15.2533V28.4083H14.2212V27.3762Z" fill="#FBBF00"/>
<path d="M14.2212 26.3429H15.2533V27.376H14.2212V26.3429Z" fill="#FBBF00"/>
<path d="M14.2212 25.3116H15.2533V26.3437H14.2212V25.3116Z" fill="#FBBF00"/>
<path d="M14.2212 24.2772H15.2533V25.3104H14.2212V24.2772Z" fill="#FBBF00"/>
<path d="M14.2212 23.2461H15.2533V24.2782H14.2212V23.2461Z" fill="#FBBF00"/>
<path d="M14.2212 22.2126H15.2533V23.2458H14.2212V22.2126Z" fill="#FBBF00"/>
<path d="M14.2212 21.1804H15.2533V22.2125H14.2212V21.1804Z" fill="#FBBF00"/>
<path d="M14.2212 20.1471H15.2533V21.1803H14.2212V20.1471Z" fill="#FBBF00"/>
<path d="M14.2212 19.1147H15.2533V20.1468H14.2212V19.1147Z" fill="#FBBF00"/>
<path d="M14.2212 18.0825H15.2533V19.1157H14.2212V18.0825Z" fill="#FBBF00"/>
<path d="M14.2212 17.0502H15.2533V18.0823H14.2212V17.0502Z" fill="#FBBF00"/>
<path d="M14.2212 16.0179H15.2533V17.0511H14.2212V16.0179Z" fill="#FBBF00"/>
<path d="M14.2212 14.9835H15.2533V16.0167H14.2212V14.9835Z" fill="#FBBF00"/>
<path d="M14.2212 13.9512H15.2533V14.9833H14.2212V13.9512Z" fill="#FBBF00"/>
<path d="M14.2212 12.9189H15.2533V13.9521H14.2212V12.9189Z" fill="#FBBF00"/>
<path d="M14.2212 11.8866H15.2533V12.9187H14.2212V11.8866Z" fill="#FBBF00"/>
<path d="M14.2212 10.8533H15.2533V11.8864H14.2212V10.8533Z" fill="#FBBF00"/>
<path d="M14.2212 9.82092H15.2533V10.853H14.2212V9.82092Z" fill="#FBBF00"/>
<path d="M14.2212 8.7887H15.2533V9.82185H14.2212V8.7887Z" fill="#FBBF00"/>
<path d="M14.2212 7.75647H15.2533V8.78856H14.2212V7.75647Z" fill="#FBBF00"/>
<path d="M14.2212 6.72192H15.2533V7.75508H14.2212V6.72192Z" fill="#FBBF00"/>
<path d="M14.2212 5.6908H15.2533V6.72288H14.2212V5.6908Z" fill="#FBBF00"/>
<path d="M14.2212 4.65735H15.2533V5.6905H14.2212V4.65735Z" fill="#FBBF00"/>
<path d="M14.2212 3.62512H15.2533V4.65721H14.2212V3.62512Z" fill="#FBBF00"/>
<path d="M14.2212 2.5929H15.2533V3.62605H14.2212V2.5929Z" fill="#FBBF00"/>
<path d="M14.2212 1.55945H15.2533V2.59153H14.2212V1.55945Z" fill="#FBBF00"/>
<path d="M15.2533 28.4086H16.2865V29.4417H15.2533V28.4086Z" fill="#FBBF00"/>
<path d="M15.2533 27.3762H16.2865V28.4083H15.2533V27.3762Z" fill="#FBBF00"/>
<path d="M15.2533 26.3429H16.2865V27.376H15.2533V26.3429Z" fill="#FBBF00"/>
<path d="M15.2533 25.3116H16.2865V26.3437H15.2533V25.3116Z" fill="#FBBF00"/>
<path d="M15.2533 24.2772H16.2865V25.3104H15.2533V24.2772Z" fill="#FBBF00"/>
<path d="M15.2533 23.2461H16.2865V24.2782H15.2533V23.2461Z" fill="#FBBF00"/>
<path d="M15.2533 22.2126H16.2865V23.2458H15.2533V22.2126Z" fill="#FBBF00"/>
<path d="M15.2533 21.1804H16.2865V22.2125H15.2533V21.1804Z" fill="#FBBF00"/>
<path d="M15.2533 20.1471H16.2865V21.1803H15.2533V20.1471Z" fill="#FBBF00"/>
<path d="M15.2533 19.1147H16.2865V20.1468H15.2533V19.1147Z" fill="#FBBF00"/>
<path d="M15.2533 18.0825H16.2865V19.1157H15.2533V18.0825Z" fill="#FBBF00"/>
<path d="M15.2533 17.0502H16.2865V18.0823H15.2533V17.0502Z" fill="#FBBF00"/>
<path d="M15.2533 16.0179H16.2865V17.0511H15.2533V16.0179Z" fill="#FBBF00"/>
<path d="M15.2533 13.9512H16.2865V14.9833H15.2533V13.9512Z" fill="#FBBF00"/>
<path d="M15.2533 12.9189H16.2865V13.9521H15.2533V12.9189Z" fill="#FBBF00"/>
<path d="M15.2533 11.8866H16.2865V12.9187H15.2533V11.8866Z" fill="#FBBF00"/>
<path d="M15.2533 10.8533H16.2865V11.8864H15.2533V10.8533Z" fill="#FBBF00"/>
<path d="M15.2533 9.82092H16.2865V10.853H15.2533V9.82092Z" fill="#FBBF00"/>
<path d="M15.2533 8.7887H16.2865V9.82185H15.2533V8.7887Z" fill="#FBBF00"/>
<path d="M15.2533 7.75647H16.2865V8.78856H15.2533V7.75647Z" fill="#FBBF00"/>
<path d="M15.2533 6.72192H16.2865V7.75508H15.2533V6.72192Z" fill="#FBBF00"/>
<path d="M15.2533 5.6908H16.2865V6.72288H15.2533V5.6908Z" fill="#FBBF00"/>
<path d="M15.2533 4.65735H16.2865V5.6905H15.2533V4.65735Z" fill="#FBBF00"/>
<path d="M15.2533 3.62512H16.2865V4.65721H15.2533V3.62512Z" fill="#FBBF00"/>
<path d="M15.2533 2.5929H16.2865V3.62605H15.2533V2.5929Z" fill="#FBBF00"/>
<path d="M15.2533 1.55945H16.2865V2.59153H15.2533V1.55945Z" fill="#FBBF00"/>
<path d="M16.2869 28.4086H17.319V29.4417H16.2869V28.4086Z" fill="#FBBF00"/>
<path d="M16.2869 27.3762H17.319V28.4083H16.2869V27.3762Z" fill="#FBBF00"/>
<path d="M16.2869 26.3429H17.319V27.376H16.2869V26.3429Z" fill="#FBBF00"/>
<path d="M16.2869 25.3116H17.319V26.3437H16.2869V25.3116Z" fill="#FBBF00"/>
<path d="M16.2869 24.2772H17.319V25.3104H16.2869V24.2772Z" fill="#FBBF00"/>
<path d="M16.2869 23.2461H17.319V24.2782H16.2869V23.2461Z" fill="#FBBF00"/>
<path d="M16.2869 22.2126H17.319V23.2458H16.2869V22.2126Z" fill="#FBBF00"/>
<path d="M16.2869 21.1804H17.319V22.2125H16.2869V21.1804Z" fill="#FBBF00"/>
<path d="M16.2869 20.1471H17.319V21.1803H16.2869V20.1471Z" fill="#FBBF00"/>
<path d="M16.2869 19.1147H17.319V20.1468H16.2869V19.1147Z" fill="#FBBF00"/>
<path d="M16.2869 18.0825H17.319V19.1157H16.2869V18.0825Z" fill="#FBBF00"/>
<path d="M16.2869 17.0502H17.319V18.0823H16.2869V17.0502Z" fill="#FBBF00"/>
<path d="M16.2869 12.9189H17.319V13.9521H16.2869V12.9189Z" fill="#FBBF00"/>
<path d="M16.2869 11.8866H17.319V12.9187H16.2869V11.8866Z" fill="#FBBF00"/>
<path d="M16.2869 10.8533H17.319V11.8864H16.2869V10.8533Z" fill="#FBBF00"/>
<path d="M16.2869 9.82092H17.319V10.853H16.2869V9.82092Z" fill="#FBBF00"/>
<path d="M16.2869 8.7887H17.319V9.82185H16.2869V8.7887Z" fill="#FBBF00"/>
<path d="M16.2869 7.75647H17.319V8.78856H16.2869V7.75647Z" fill="#FBBF00"/>
<path d="M16.2869 6.72192H17.319V7.75508H16.2869V6.72192Z" fill="#FBBF00"/>
<path d="M16.2869 5.6908H17.319V6.72288H16.2869V5.6908Z" fill="#FBBF00"/>
<path d="M16.2869 4.65735H17.319V5.6905H16.2869V4.65735Z" fill="#FBBF00"/>
<path d="M16.2869 3.62512H17.319V4.65721H16.2869V3.62512Z" fill="#FBBF00"/>
<path d="M16.2869 2.5929H17.319V3.62605H16.2869V2.5929Z" fill="#FBBF00"/>
<path d="M16.2869 1.55945H17.319V2.59153H16.2869V1.55945Z" fill="#FBBF00"/>
<path d="M17.319 28.4086H18.3522V29.4417H17.319V28.4086Z" fill="#FBBF00"/>
<path d="M17.319 27.3762H18.3522V28.4083H17.319V27.3762Z" fill="#FBBF00"/>
<path d="M17.319 26.3429H18.3522V27.376H17.319V26.3429Z" fill="#FBBF00"/>
<path d="M17.319 25.3116H18.3522V26.3437H17.319V25.3116Z" fill="#FBBF00"/>
<path d="M17.319 24.2772H18.3522V25.3104H17.319V24.2772Z" fill="#FBBF00"/>
<path d="M17.319 23.2461H18.3522V24.2782H17.319V23.2461Z" fill="#FBBF00"/>
<path d="M17.319 22.2126H18.3522V23.2458H17.319V22.2126Z" fill="#FBBF00"/>
<path d="M17.319 21.1804H18.3522V22.2125H17.319V21.1804Z" fill="#FBBF00"/>
<path d="M17.319 20.1471H18.3522V21.1803H17.319V20.1471Z" fill="#FBBF00"/>
<path d="M17.319 19.1147H18.3522V20.1468H17.319V19.1147Z" fill="#FBBF00"/>
<path d="M17.319 18.0825H18.3522V19.1157H17.319V18.0825Z" fill="#FBBF00"/>
<path d="M17.319 17.0502H18.3522V18.0823H17.319V17.0502Z" fill="#FBBF00"/>
<path d="M17.319 12.9189H18.3522V13.9521H17.319V12.9189Z" fill="#FBBF00"/>
<path d="M17.319 11.8866H18.3522V12.9187H17.319V11.8866Z" fill="#FBBF00"/>
<path d="M17.319 10.8533H18.3522V11.8864H17.319V10.8533Z" fill="#FBBF00"/>
<path d="M17.319 9.82092H18.3522V10.853H17.319V9.82092Z" fill="#FBBF00"/>
<path d="M17.319 8.7887H18.3522V9.82185H17.319V8.7887Z" fill="#FBBF00"/>
<path d="M17.319 7.75647H18.3522V8.78856H17.319V7.75647Z" fill="#FBBF00"/>
<path d="M17.319 6.72192H18.3522V7.75508H17.319V6.72192Z" fill="#FBBF00"/>
<path d="M17.319 5.6908H18.3522V6.72288H17.319V5.6908Z" fill="#FBBF00"/>
<path d="M17.319 4.65735H18.3522V5.6905H17.319V4.65735Z" fill="#FBBF00"/>
<path d="M17.319 3.62512H18.3522V4.65721H17.319V3.62512Z" fill="#FBBF00"/>
<path d="M17.319 2.5929H18.3522V3.62605H17.319V2.5929Z" fill="#FBBF00"/>
<path d="M17.319 1.55945H18.3522V2.59153H17.319V1.55945Z" fill="#FBBF00"/>
<path d="M18.3521 28.4086H19.3853V29.4417H18.3521V28.4086Z" fill="#FBBF00"/>
<path d="M18.3521 27.3762H19.3853V28.4083H18.3521V27.3762Z" fill="#FBBF00"/>
<path d="M18.3521 26.3429H19.3853V27.376H18.3521V26.3429Z" fill="#FBBF00"/>
<path d="M18.3521 25.3116H19.3853V26.3437H18.3521V25.3116Z" fill="#FBBF00"/>
<path d="M18.3521 24.2772H19.3853V25.3104H18.3521V24.2772Z" fill="#FBBF00"/>
<path d="M18.3521 23.2461H19.3853V24.2782H18.3521V23.2461Z" fill="#FBBF00"/>
<path d="M18.3521 22.2126H19.3853V23.2458H18.3521V22.2126Z" fill="#FBBF00"/>
<path d="M18.3521 21.1804H19.3853V22.2125H18.3521V21.1804Z" fill="#FBBF00"/>
<path d="M18.3521 20.1471H19.3853V21.1803H18.3521V20.1471Z" fill="#FBBF00"/>
<path d="M18.3521 19.1147H19.3853V20.1468H18.3521V19.1147Z" fill="#FBBF00"/>
<path d="M18.3521 18.0825H19.3853V19.1157H18.3521V18.0825Z" fill="#FBBF00"/>
<path d="M18.3521 11.8866H19.3853V12.9187H18.3521V11.8866Z" fill="#FBBF00"/>
<path d="M18.3521 10.8533H19.3853V11.8864H18.3521V10.8533Z" fill="#FBBF00"/>
<path d="M18.3521 9.82092H19.3853V10.853H18.3521V9.82092Z" fill="#FBBF00"/>
<path d="M18.3521 8.7887H19.3853V9.82185H18.3521V8.7887Z" fill="#FBBF00"/>
<path d="M18.3521 7.75647H19.3853V8.78856H18.3521V7.75647Z" fill="#FBBF00"/>
<path d="M18.3521 6.72192H19.3853V7.75508H18.3521V6.72192Z" fill="#FBBF00"/>
<path d="M18.3521 5.6908H19.3853V6.72288H18.3521V5.6908Z" fill="#FBBF00"/>
<path d="M18.3521 4.65735H19.3853V5.6905H18.3521V4.65735Z" fill="#FBBF00"/>
<path d="M18.3521 3.62512H19.3853V4.65721H18.3521V3.62512Z" fill="#FBBF00"/>
<path d="M18.3521 2.5929H19.3853V3.62605H18.3521V2.5929Z" fill="#FBBF00"/>
<path d="M18.3521 1.55945H19.3853V2.59153H18.3521V1.55945Z" fill="#FBBF00"/>
<path d="M19.385 28.4086H20.4171V29.4417H19.385V28.4086Z" fill="#FBBF00"/>
<path d="M19.385 27.3762H20.4171V28.4083H19.385V27.3762Z" fill="#FBBF00"/>
<path d="M19.385 26.3429H20.4171V27.376H19.385V26.3429Z" fill="#FBBF00"/>
<path d="M19.385 25.3116H20.4171V26.3437H19.385V25.3116Z" fill="#FBBF00"/>
<path d="M19.385 24.2772H20.4171V25.3104H19.385V24.2772Z" fill="#FBBF00"/>
<path d="M19.385 23.2461H20.4171V24.2782H19.385V23.2461Z" fill="#FBBF00"/>
<path d="M19.385 22.2126H20.4171V23.2458H19.385V22.2126Z" fill="#FBBF00"/>
<path d="M19.385 21.1804H20.4171V22.2125H19.385V21.1804Z" fill="#FBBF00"/>
<path d="M19.385 20.1471H20.4171V21.1803H19.385V20.1471Z" fill="#FBBF00"/>
<path d="M19.385 19.1147H20.4171V20.1468H19.385V19.1147Z" fill="#FBBF00"/>
<path d="M19.385 18.0825H20.4171V19.1157H19.385V18.0825Z" fill="#FBBF00"/>
<path d="M19.385 11.8866H20.4171V12.9187H19.385V11.8866Z" fill="#FBBF00"/>
<path d="M19.385 10.8533H20.4171V11.8864H19.385V10.8533Z" fill="#FBBF00"/>
<path d="M19.385 9.82092H20.4171V10.853H19.385V9.82092Z" fill="#FBBF00"/>
<path d="M19.385 8.7887H20.4171V9.82185H19.385V8.7887Z" fill="#FBBF00"/>
<path d="M19.385 7.75647H20.4171V8.78856H19.385V7.75647Z" fill="#FBBF00"/>
<path d="M19.385 6.72192H20.4171V7.75508H19.385V6.72192Z" fill="#FBBF00"/>
<path d="M19.385 5.6908H20.4171V6.72288H19.385V5.6908Z" fill="#FBBF00"/>
<path d="M19.385 4.65735H20.4171V5.6905H19.385V4.65735Z" fill="#FBBF00"/>
<path d="M19.385 3.62512H20.4171V4.65721H19.385V3.62512Z" fill="#FBBF00"/>
<path d="M19.385 2.5929H20.4171V3.62605H19.385V2.5929Z" fill="#FBBF00"/>
<path d="M19.385 1.55945H20.4171V2.59153H19.385V1.55945Z" fill="#FBBF00"/>
<path d="M20.4172 27.3762H21.4503V28.4083H20.4172V27.3762Z" fill="#FBBF00"/>
<path d="M20.4172 26.3429H21.4503V27.376H20.4172V26.3429Z" fill="#FBBF00"/>
<path d="M20.4172 25.3116H21.4503V26.3437H20.4172V25.3116Z" fill="#FBBF00"/>
<path d="M20.4172 24.2772H21.4503V25.3104H20.4172V24.2772Z" fill="#FBBF00"/>
<path d="M20.4172 23.2461H21.4503V24.2782H20.4172V23.2461Z" fill="#FBBF00"/>
<path d="M20.4172 22.2126H21.4503V23.2458H20.4172V22.2126Z" fill="#FBBF00"/>
<path d="M20.4172 21.1804H21.4503V22.2125H20.4172V21.1804Z" fill="#FBBF00"/>
<path d="M20.4172 20.1471H21.4503V21.1803H20.4172V20.1471Z" fill="#FBBF00"/>
<path d="M20.4172 19.1147H21.4503V20.1468H20.4172V19.1147Z" fill="#FBBF00"/>
<path d="M20.4172 18.0825H21.4503V19.1157H20.4172V18.0825Z" fill="#FBBF00"/>
<path d="M20.4172 11.8866H21.4503V12.9187H20.4172V11.8866Z" fill="#FBBF00"/>
<path d="M20.4172 10.8533H21.4503V11.8864H20.4172V10.8533Z" fill="#FBBF00"/>
<path d="M20.4172 9.82092H21.4503V10.853H20.4172V9.82092Z" fill="#FBBF00"/>
<path d="M20.4172 8.7887H21.4503V9.82185H20.4172V8.7887Z" fill="#FBBF00"/>
<path d="M20.4172 7.75647H21.4503V8.78856H20.4172V7.75647Z" fill="#FBBF00"/>
<path d="M20.4172 6.72192H21.4503V7.75508H20.4172V6.72192Z" fill="#FBBF00"/>
<path d="M20.4172 5.6908H21.4503V6.72288H20.4172V5.6908Z" fill="#FBBF00"/>
<path d="M20.4172 4.65735H21.4503V5.6905H20.4172V4.65735Z" fill="#FBBF00"/>
<path d="M20.4172 3.62512H21.4503V4.65721H20.4172V3.62512Z" fill="#FBBF00"/>
<path d="M20.4172 2.5929H21.4503V3.62605H20.4172V2.5929Z" fill="#FBBF00"/>
<path d="M21.4501 27.3762H22.4822V28.4083H21.4501V27.3762Z" fill="#FBBF00"/>
<path d="M21.4501 26.3429H22.4822V27.376H21.4501V26.3429Z" fill="#FBBF00"/>
<path d="M21.4501 25.3116H22.4822V26.3437H21.4501V25.3116Z" fill="#FBBF00"/>
<path d="M21.4501 24.2772H22.4822V25.3104H21.4501V24.2772Z" fill="#FBBF00"/>
<path d="M21.4501 23.2461H22.4822V24.2782H21.4501V23.2461Z" fill="#FBBF00"/>
<path d="M21.4501 22.2126H22.4822V23.2458H21.4501V22.2126Z" fill="#FBBF00"/>
<path d="M21.4501 21.1804H22.4822V22.2125H21.4501V21.1804Z" fill="#FBBF00"/>
<path d="M21.4501 20.1471H22.4822V21.1803H21.4501V20.1471Z" fill="#FBBF00"/>
<path d="M21.4501 19.1147H22.4822V20.1468H21.4501V19.1147Z" fill="#FBBF00"/>
<path d="M21.4501 10.8533H22.4822V11.8864H21.4501V10.8533Z" fill="#FBBF00"/>
<path d="M21.4501 9.82092H22.4822V10.853H21.4501V9.82092Z" fill="#FBBF00"/>
<path d="M21.4501 8.7887H22.4822V9.82185H21.4501V8.7887Z" fill="#FBBF00"/>
<path d="M21.4501 7.75647H22.4822V8.78856H21.4501V7.75647Z" fill="#FBBF00"/>
<path d="M21.4501 6.72192H22.4822V7.75508H21.4501V6.72192Z" fill="#FBBF00"/>
<path d="M21.4501 5.6908H22.4822V6.72288H21.4501V5.6908Z" fill="#FBBF00"/>
<path d="M21.4501 4.65735H22.4822V5.6905H21.4501V4.65735Z" fill="#FBBF00"/>
<path d="M21.4501 3.62512H22.4822V4.65721H21.4501V3.62512Z" fill="#FBBF00"/>
<path d="M21.4501 2.5929H22.4822V3.62605H21.4501V2.5929Z" fill="#FBBF00"/>
<path d="M22.4822 26.3429H23.5154V27.376H22.4822V26.3429Z" fill="#FBBF00"/>
<path d="M22.4822 25.3116H23.5154V26.3437H22.4822V25.3116Z" fill="#FBBF00"/>
<path d="M22.4822 24.2772H23.5154V25.3104H22.4822V24.2772Z" fill="#FBBF00"/>
<path d="M22.4822 23.2461H23.5154V24.2782H22.4822V23.2461Z" fill="#FBBF00"/>
<path d="M22.4822 22.2126H23.5154V23.2458H22.4822V22.2126Z" fill="#FBBF00"/>
<path d="M22.4822 21.1804H23.5154V22.2125H22.4822V21.1804Z" fill="#FBBF00"/>
<path d="M22.4822 20.1471H23.5154V21.1803H22.4822V20.1471Z" fill="#FBBF00"/>
<path d="M22.4822 19.1147H23.5154V20.1468H22.4822V19.1147Z" fill="#FBBF00"/>
<path d="M22.4822 10.8533H23.5154V11.8864H22.4822V10.8533Z" fill="#FBBF00"/>
<path d="M22.4822 9.82092H23.5154V10.853H22.4822V9.82092Z" fill="#FBBF00"/>
<path d="M22.4822 8.7887H23.5154V9.82185H22.4822V8.7887Z" fill="#FBBF00"/>
<path d="M22.4822 7.75647H23.5154V8.78856H22.4822V7.75647Z" fill="#FBBF00"/>
<path d="M22.4822 6.72192H23.5154V7.75508H22.4822V6.72192Z" fill="#FBBF00"/>
<path d="M22.4822 5.6908H23.5154V6.72288H22.4822V5.6908Z" fill="#FBBF00"/>
<path d="M22.4822 4.65735H23.5154V5.6905H22.4822V4.65735Z" fill="#FBBF00"/>
<path d="M22.4822 3.62512H23.5154V4.65721H22.4822V3.62512Z" fill="#FBBF00"/>
<path d="M22.4822 2.5929H23.5154V3.62605H22.4822V2.5929Z" fill="#FBBF00"/>
<path d="M23.5156 26.3429H24.5477V27.376H23.5156V26.3429Z" fill="#FBBF00"/>
<path d="M23.5156 25.3116H24.5477V26.3437H23.5156V25.3116Z" fill="#FBBF00"/>
<path d="M23.5156 24.2772H24.5477V25.3104H23.5156V24.2772Z" fill="#FBBF00"/>
<path d="M23.5156 23.2461H24.5477V24.2782H23.5156V23.2461Z" fill="#FBBF00"/>
<path d="M23.5156 22.2126H24.5477V23.2458H23.5156V22.2126Z" fill="#FBBF00"/>
<path d="M23.5156 21.1804H24.5477V22.2125H23.5156V21.1804Z" fill="#FBBF00"/>
<path d="M23.5156 20.1471H24.5477V21.1803H23.5156V20.1471Z" fill="#FBBF00"/>
<path d="M23.5156 19.1147H24.5477V20.1468H23.5156V19.1147Z" fill="#FBBF00"/>
<path d="M23.5156 10.8533H24.5477V11.8864H23.5156V10.8533Z" fill="#FBBF00"/>
<path d="M23.5156 9.82092H24.5477V10.853H23.5156V9.82092Z" fill="#FBBF00"/>
<path d="M23.5156 8.7887H24.5477V9.82185H23.5156V8.7887Z" fill="#FBBF00"/>
<path d="M23.5156 7.75647H24.5477V8.78856H23.5156V7.75647Z" fill="#FBBF00"/>
<path d="M23.5156 6.72192H24.5477V7.75508H23.5156V6.72192Z" fill="#FBBF00"/>
<path d="M23.5156 5.6908H24.5477V6.72288H23.5156V5.6908Z" fill="#FBBF00"/>
<path d="M23.5156 4.65735H24.5477V5.6905H23.5156V4.65735Z" fill="#FBBF00"/>
<path d="M23.5156 3.62512H24.5477V4.65721H23.5156V3.62512Z" fill="#FBBF00"/>
<path d="M24.5479 25.3116H25.5811V26.3437H24.5479V25.3116Z" fill="#FBBF00"/>
<path d="M24.5479 24.2772H25.5811V25.3104H24.5479V24.2772Z" fill="#FBBF00"/>
<path d="M24.5479 23.2461H25.5811V24.2782H24.5479V23.2461Z" fill="#FBBF00"/>
<path d="M24.5479 22.2126H25.5811V23.2458H24.5479V22.2126Z" fill="#FBBF00"/>
<path d="M24.5479 21.1804H25.5811V22.2125H24.5479V21.1804Z" fill="#FBBF00"/>
<path d="M24.5479 20.1471H25.5811V21.1803H24.5479V20.1471Z" fill="#FBBF00"/>
<path d="M24.5479 9.82092H25.5811V10.853H24.5479V9.82092Z" fill="#FBBF00"/>
<path d="M24.5479 8.7887H25.5811V9.82185H24.5479V8.7887Z" fill="#FBBF00"/>
<path d="M24.5479 7.75647H25.5811V8.78856H24.5479V7.75647Z" fill="#FBBF00"/>
<path d="M24.5479 6.72192H25.5811V7.75508H24.5479V6.72192Z" fill="#FBBF00"/>
<path d="M24.5479 5.6908H25.5811V6.72288H24.5479V5.6908Z" fill="#FBBF00"/>
<path d="M24.5479 4.65735H25.5811V5.6905H24.5479V4.65735Z" fill="#FBBF00"/>
<path d="M25.5807 24.2772H26.6128V25.3104H25.5807V24.2772Z" fill="#FBBF00"/>
<path d="M25.5807 23.2461H26.6128V24.2782H25.5807V23.2461Z" fill="#FBBF00"/>
<path d="M25.5807 22.2126H26.6128V23.2458H25.5807V22.2126Z" fill="#FBBF00"/>
<path d="M25.5807 21.1804H26.6128V22.2125H25.5807V21.1804Z" fill="#FBBF00"/>
<path d="M25.5807 20.1471H26.6128V21.1803H25.5807V20.1471Z" fill="#FBBF00"/>
<path d="M25.5807 9.82092H26.6128V10.853H25.5807V9.82092Z" fill="#FBBF00"/>
<path d="M25.5807 8.7887H26.6128V9.82185H25.5807V8.7887Z" fill="#FBBF00"/>
<path d="M25.5807 7.75647H26.6128V8.78856H25.5807V7.75647Z" fill="#FBBF00"/>
<path d="M25.5807 6.72192H26.6128V7.75508H25.5807V6.72192Z" fill="#FBBF00"/>
<path d="M25.5807 5.6908H26.6128V6.72288H25.5807V5.6908Z" fill="#FBBF00"/>
<path d="M26.6128 23.2461H27.646V24.2782H26.6128V23.2461Z" fill="#FBBF00"/>
<path d="M26.6128 22.2126H27.646V23.2458H26.6128V22.2126Z" fill="#FBBF00"/>
<path d="M26.6128 21.1804H27.646V22.2125H26.6128V21.1804Z" fill="#FBBF00"/>
<path d="M26.6128 8.7887H27.646V9.82185H26.6128V8.7887Z" fill="#FBBF00"/>
<path d="M26.6128 7.75647H27.646V8.78856H26.6128V7.75647Z" fill="#FBBF00"/>
<path d="M26.6128 6.72192H27.646V7.75508H26.6128V6.72192Z" fill="#FBBF00"/>
<path d="M27.6463 22.2126H28.6783V23.2458H27.6463V22.2126Z" fill="#FBBF00"/>
<path d="M27.6463 7.75647H28.6783V8.78856H27.6463V7.75647Z" fill="#FBBF00"/>
</svg>
