<svg width="30" height="31" viewBox="0 0 30 31" fill="none" xmlns="http://www.w3.org/2000/svg">
<path d="M-5.72205e-06 28.1925H2.28982V30.5H-5.72205e-06V28.1925Z" fill="#6633FF"/>
<path d="M-5.72205e-06 25.885H2.28982V28.1925H-5.72205e-06V25.885Z" fill="#6633FF"/>
<path d="M-5.72205e-06 23.5775H2.28982V25.885H-5.72205e-06V23.5775Z" fill="#6633FF"/>
<path d="M-5.72205e-06 21.27H2.28982V23.5775H-5.72205e-06V21.27Z" fill="#6633FF"/>
<path d="M-5.72205e-06 18.9625H2.28982V21.27H-5.72205e-06V18.9625Z" fill="#6633FF"/>
<path d="M-5.72205e-06 16.655H2.28982V18.9625H-5.72205e-06V16.655Z" fill="#6633FF"/>
<path d="M-5.72205e-06 14.345H2.28982V16.655H-5.72205e-06V14.345Z" fill="#6633FF"/>
<path d="M-5.72205e-06 12.0375H2.28982V14.345H-5.72205e-06V12.0375Z" fill="#6633FF"/>
<path d="M2.28982 25.885H4.57963V28.1925H2.28982V25.885Z" fill="#6633FF"/>
<path d="M2.28982 23.5775H4.57963V25.885H2.28982V23.5775Z" fill="#6633FF"/>
<path d="M2.28982 21.27H4.57963V23.5775H2.28982V21.27Z" fill="#6633FF"/>
<path d="M2.28982 18.9625H4.57963V21.27H2.28982V18.9625Z" fill="#6633FF"/>
<path d="M2.28982 16.655H4.57963V18.9625H2.28982V16.655Z" fill="white"/>
<path d="M2.28982 14.345H4.57963V16.655H2.28982V14.345Z" fill="#6633FF"/>
<path d="M2.28982 12.0375H4.57963V14.345H2.28982V12.0375Z" fill="#6633FF"/>
<path d="M2.28981 9.73H4.57963V12.0375H2.28982L2.28981 9.73Z" fill="white"/>
<path d="M2.28981 7.4225H4.57963V9.73H2.28981V7.4225Z" fill="#6633FF"/>
<path d="M4.57963 23.5775H6.86944V25.885L4.57963 25.885V23.5775Z" fill="#6633FF"/>
<path d="M4.57963 21.27H6.86944V23.5775H4.57963V21.27Z" fill="#6633FF"/>
<path d="M4.57963 18.9625H6.86944V21.27H4.57963V18.9625Z" fill="#6633FF"/>
<path d="M4.57963 16.655H6.86944V18.9625H4.57963V16.655Z" fill="white"/>
<path d="M4.57963 14.345H6.86944V16.655H4.57963V14.345Z" fill="#6633FF"/>
<path d="M4.57963 12.0375H6.86944V14.345H4.57963V12.0375Z" fill="#6633FF"/>
<path d="M4.57963 9.73H6.86944V12.0375H4.57963V9.73Z" fill="white"/>
<path d="M4.57963 7.4225H6.86944V9.73H4.57963V7.4225Z" fill="#6633FF"/>
<path d="M4.57962 5.115H6.86944V7.4225H4.57963L4.57962 5.115Z" fill="#6633FF"/>
<path d="M6.86944 25.885L9.15928 25.885V28.1925H6.86946L6.86944 25.885Z" fill="#6633FF"/>
<path d="M6.86944 23.5775H9.15928V25.885L6.86944 25.885V23.5775Z" fill="#6633FF"/>
<path d="M6.86944 21.27H9.15928V23.5775H6.86944V21.27Z" fill="#6633FF"/>
<path d="M6.86944 18.9625H9.15928V21.27H6.86944V18.9625Z" fill="#6633FF"/>
<path d="M6.86944 16.655H9.15928V18.9625H6.86944V16.655Z" fill="#6633FF"/>
<path d="M6.86944 14.345H9.15928V16.655H6.86944V14.345Z" fill="white"/>
<path d="M6.86944 12.0375H9.15928V14.345H6.86944V12.0375Z" fill="white"/>
<path d="M6.86944 9.73H9.15928V12.0375H6.86944V9.73Z" fill="white"/>
<path d="M6.86944 7.4225H9.15928V9.73H6.86944V7.4225Z" fill="#6633FF"/>
<path d="M6.86944 5.115H9.15928V7.4225H6.86944V5.115Z" fill="#6633FF"/>
<path d="M6.86946 2.8075H9.15928V5.115H6.86944L6.86946 2.8075Z" fill="#6633FF"/>
<path d="M9.15928 28.1925H11.4491V30.5H9.15928L9.15928 28.1925Z" fill="#6633FF"/>
<path d="M9.15928 25.885H11.4491V28.1925H9.15928V25.885Z" fill="#6633FF"/>
<path d="M9.15928 23.5775H11.4491V25.885H9.15928V23.5775Z" fill="#6633FF"/>
<path d="M9.15928 21.27H11.4491V23.5775H9.15928V21.27Z" fill="#6633FF"/>
<path d="M9.15928 18.9625H11.4491V21.27H9.15928V18.9625Z" fill="#6633FF"/>
<path d="M9.15928 16.655H11.4491V18.9625H9.15928V16.655Z" fill="#6633FF"/>
<path d="M9.15928 14.345H11.4491V16.655H9.15928V14.345Z" fill="#6633FF"/>
<path d="M9.15928 12.0375H11.4491V14.345H9.15928V12.0375Z" fill="#6633FF"/>
<path d="M9.15928 9.73H11.4491V12.0375H9.15928V9.73Z" fill="#6633FF"/>
<path d="M9.15928 7.4225H11.4491V9.73H9.15928V7.4225Z" fill="#6633FF"/>
<path d="M9.15928 5.115H11.4491V7.4225H9.15928V5.115Z" fill="#6633FF"/>
<path d="M9.15928 2.8075H11.4491V5.115H9.15928V2.8075Z" fill="#6633FF"/>
<path d="M9.15928 0.5H11.4491V2.8075H9.15928L9.15928 0.5Z" fill="#6633FF"/>
<path d="M11.4491 28.1925H13.7389V30.5H11.4491V28.1925Z" fill="#6633FF"/>
<path d="M11.4491 25.885H13.7389V28.1925H11.4491V25.885Z" fill="#6633FF"/>
<path d="M11.4491 23.5775H13.7389V25.885H11.4491V23.5775Z" fill="#6633FF"/>
<path d="M11.4491 21.27H13.7389V23.5775H11.4491V21.27Z" fill="#6633FF"/>
<path d="M11.4491 18.9625H13.7389V21.27H11.4491V18.9625Z" fill="#6633FF"/>
<path d="M11.4491 16.655H13.7389V18.9625H11.4491V16.655Z" fill="#6633FF"/>
<path d="M11.4491 14.345H13.7389V16.655H11.4491V14.345Z" fill="#6633FF"/>
<path d="M11.4491 12.0375H13.7389V14.345H11.4491V12.0375Z" fill="#6633FF"/>
<path d="M11.4491 9.73H13.7389V12.0375H11.4491V9.73Z" fill="#6633FF"/>
<path d="M11.4491 7.4225H13.7389V9.73H11.4491V7.4225Z" fill="#6633FF"/>
<path d="M11.4491 5.115H13.7389V7.4225H11.4491V5.115Z" fill="#6633FF"/>
<path d="M11.4491 2.8075H13.7389V5.115H11.4491V2.8075Z" fill="#6633FF"/>
<path d="M11.4491 0.5H13.7389V2.8075H11.4491V0.5Z" fill="#6633FF"/>
<path d="M13.7389 23.5775H16.0287V25.885L13.7389 25.885V23.5775Z" fill="#6633FF"/>
<path d="M13.7389 21.27H16.0287V23.5775H13.7389V21.27Z" fill="#6633FF"/>
<path d="M13.7389 18.9625H16.0287V21.27H13.7389V18.9625Z" fill="#6633FF"/>
<path d="M13.7389 16.655H16.0287V18.9625H13.7389V16.655Z" fill="#6633FF"/>
<path d="M13.7389 14.345H16.0287V16.655H13.7389V14.345Z" fill="#6633FF"/>
<path d="M13.7389 12.0375H16.0287V14.345H13.7389V12.0375Z" fill="#6633FF"/>
<path d="M13.7389 9.73H16.0287V12.0375H13.7389V9.73Z" fill="#6633FF"/>
<path d="M13.7389 7.4225H16.0287V9.73H13.7389V7.4225Z" fill="#6633FF"/>
<path d="M13.7389 5.115H16.0287V7.4225H13.7389V5.115Z" fill="#6633FF"/>
<path d="M13.7389 2.8075H16.0287V5.115H13.7389V2.8075Z" fill="#6633FF"/>
<path d="M13.7389 0.5H16.0287V2.8075H13.7389V0.5Z" fill="#6633FF"/>
<path d="M16.0287 25.885L18.3186 25.885V28.1925H16.0287L16.0287 25.885Z" fill="#6633FF"/>
<path d="M16.0287 23.5775H18.3186V25.885L16.0287 25.885V23.5775Z" fill="#6633FF"/>
<path d="M16.0287 21.27H18.3186V23.5775H16.0287V21.27Z" fill="#6633FF"/>
<path d="M16.0287 18.9625H18.3186V21.27H16.0287V18.9625Z" fill="#6633FF"/>
<path d="M16.0287 16.655H18.3186V18.9625H16.0287V16.655Z" fill="white"/>
<path d="M16.0287 14.345H18.3186V16.655H16.0287V14.345Z" fill="#6633FF"/>
<path d="M16.0287 12.0375H18.3186V14.345H16.0287V12.0375Z" fill="#6633FF"/>
<path d="M16.0287 9.73H18.3186V12.0375H16.0287V9.73Z" fill="white"/>
<path d="M16.0287 7.4225H18.3186V9.73H16.0287V7.4225Z" fill="#6633FF"/>
<path d="M16.0287 5.115H18.3186V7.4225H16.0287V5.115Z" fill="#6633FF"/>
<path d="M16.0287 2.8075H18.3186V5.115H16.0287V2.8075Z" fill="#6633FF"/>
<path d="M16.0287 0.5H18.3186V2.8075H16.0287V0.5Z" fill="#6633FF"/>
<path d="M18.3186 28.1925H20.6109V30.5H18.3186L18.3186 28.1925Z" fill="#6633FF"/>
<path d="M18.3186 25.885H20.6109V28.1925H18.3186V25.885Z" fill="#6633FF"/>
<path d="M18.3186 23.5775H20.6109V25.885H18.3186V23.5775Z" fill="#6633FF"/>
<path d="M18.3186 21.27H20.6109V23.5775H18.3186V21.27Z" fill="#6633FF"/>
<path d="M18.3186 18.9625H20.6109V21.27H18.3186V18.9625Z" fill="#6633FF"/>
<path d="M18.3186 16.655H20.6109V18.9625H18.3186V16.655Z" fill="white"/>
<path d="M18.3186 14.345H20.6109V16.655H18.3186V14.345Z" fill="#6633FF"/>
<path d="M18.3186 12.0375H20.6109V14.345H18.3186V12.0375Z" fill="#6633FF"/>
<path d="M18.3186 9.73H20.6109V12.0375H18.3186V9.73Z" fill="white"/>
<path d="M18.3186 7.4225H20.6109V9.73H18.3186V7.4225Z" fill="#6633FF"/>
<path d="M18.3186 5.115H20.6109V7.4225H18.3186V5.115Z" fill="#6633FF"/>
<path d="M18.3186 2.8075H20.6109V5.115H18.3186V2.8075Z" fill="#6633FF"/>
<path d="M18.3186 0.5H20.6109V2.8075H18.3186V0.5Z" fill="#6633FF"/>
<path d="M20.6109 25.885H22.9007V28.1925H20.6109V25.885Z" fill="#6633FF"/>
<path d="M20.6109 23.5775H22.9007V25.885H20.6109V23.5775Z" fill="#6633FF"/>
<path d="M20.6109 21.27H22.9007V23.5775H20.6109V21.27Z" fill="#6633FF"/>
<path d="M20.6109 18.9625H22.9007V21.27H20.6109V18.9625Z" fill="#6633FF"/>
<path d="M20.6109 16.655H22.9007V18.9625H20.6109V16.655Z" fill="#6633FF"/>
<path d="M20.6109 14.345H22.9007V16.655H20.6109V14.345Z" fill="white"/>
<path d="M20.6109 12.0375H22.9007V14.345H20.6109V12.0375Z" fill="white"/>
<path d="M20.6109 9.73H22.9007V12.0375H20.6109V9.73Z" fill="white"/>
<path d="M20.6109 7.4225H22.9007V9.73H20.6109V7.4225Z" fill="#6633FF"/>
<path d="M20.6109 5.115H22.9007V7.4225H20.6109V5.115Z" fill="#6633FF"/>
<path d="M20.6109 2.8075H22.9007V5.115H20.6109V2.8075Z" fill="#6633FF"/>
<path d="M22.9007 23.5775H25.1905V25.885L22.9007 25.885V23.5775Z" fill="#6633FF"/>
<path d="M22.9007 21.27H25.1905V23.5775H22.9007V21.27Z" fill="#6633FF"/>
<path d="M22.9007 18.9625H25.1905V21.27H22.9007V18.9625Z" fill="#6633FF"/>
<path d="M22.9007 16.655H25.1905V18.9625H22.9007V16.655Z" fill="#6633FF"/>
<path d="M22.9007 14.345H25.1905V16.655H22.9007V14.345Z" fill="#6633FF"/>
<path d="M22.9007 12.0375H25.1905V14.345H22.9007V12.0375Z" fill="#6633FF"/>
<path d="M22.9007 9.73H25.1905V12.0375H22.9007V9.73Z" fill="#6633FF"/>
<path d="M22.9007 7.4225H25.1905V9.73H22.9007V7.4225Z" fill="#6633FF"/>
<path d="M22.9007 5.115H25.1905V7.4225H22.9007V5.115Z" fill="#6633FF"/>
<path d="M25.1905 25.885L27.4803 25.885V28.1925H25.1905L25.1905 25.885Z" fill="#6633FF"/>
<path d="M25.1905 23.5775H27.4803V25.885L25.1905 25.885V23.5775Z" fill="#6633FF"/>
<path d="M25.1905 21.27H27.4803V23.5775H25.1905V21.27Z" fill="#6633FF"/>
<path d="M25.1905 18.9625H27.4803V21.27H25.1905V18.9625Z" fill="#6633FF"/>
<path d="M25.1905 16.655H27.4803V18.9625H25.1905V16.655Z" fill="#6633FF"/>
<path d="M25.1905 14.345H27.4803V16.655H25.1905V14.345Z" fill="#6633FF"/>
<path d="M25.1905 12.0375H27.4803V14.345H25.1905V12.0375Z" fill="#6633FF"/>
<path d="M25.1905 9.73H27.4803V12.0375H25.1905V9.73Z" fill="#6633FF"/>
<path d="M25.1905 7.4225H27.4803V9.73H25.1905V7.4225Z" fill="#6633FF"/>
<path d="M27.4803 28.1925H29.7701V30.5H27.4803L27.4803 28.1925Z" fill="#6633FF"/>
<path d="M27.4803 25.885H29.7701V28.1925H27.4803V25.885Z" fill="#6633FF"/>
<path d="M27.4803 23.5775H29.7701V25.885H27.4803V23.5775Z" fill="#6633FF"/>
<path d="M27.4803 21.27H29.7701V23.5775H27.4803V21.27Z" fill="#6633FF"/>
<path d="M27.4803 18.9625H29.7701V21.27H27.4803V18.9625Z" fill="#6633FF"/>
<path d="M27.4803 16.655H29.7701V18.9625H27.4803V16.655Z" fill="#6633FF"/>
<path d="M27.4803 14.345H29.7701V16.655H27.4803V14.345Z" fill="#6633FF"/>
<path d="M27.4803 12.0375H29.7701V14.345H27.4803V12.0375Z" fill="#6633FF"/>
</svg>
