<svg width="97" height="45" viewBox="0 0 97 45" fill="none" xmlns="http://www.w3.org/2000/svg">
<path d="M96.8888 41.5387H93.4541V45H96.8888V41.5387Z" fill="#FF0900"/>
<path d="M96.8888 38.0775H93.4541V41.5387H96.8888V38.0775Z" fill="#FF0900"/>
<path d="M96.8888 34.6163H93.4541V38.0775H96.8888V34.6163Z" fill="#FF0900"/>
<path d="M96.8888 31.155H93.4541V34.6163H96.8888V31.155Z" fill="#FF0900"/>
<path d="M96.8888 27.6937H93.4541V31.155H96.8888V27.6937Z" fill="#FF0900"/>
<path d="M96.8888 24.2325H93.4541V27.6937H96.8888V24.2325Z" fill="#FF0900"/>
<path d="M96.8888 20.7675H93.4541V24.2325H96.8888V20.7675Z" fill="#FF0900"/>
<path d="M96.8888 17.3063H93.4541V20.7675H96.8888V17.3063Z" fill="#FF0900"/>
<path d="M93.4541 38.0775H90.0194V41.5387H93.4541V38.0775Z" fill="#FF0900"/>
<path d="M93.4541 34.6163H90.0194V38.0775H93.4541V34.6163Z" fill="#FF0900"/>
<path d="M93.4541 31.155H90.0194V34.6163H93.4541V31.155Z" fill="#FF0900"/>
<path d="M93.4541 27.6937H90.0194V31.155H93.4541V27.6937Z" fill="#FF0900"/>
<path d="M93.4541 24.2325H90.0194V27.6937H93.4541V24.2325Z" fill="white"/>
<path d="M93.4541 20.7675H90.0194V24.2325H93.4541V20.7675Z" fill="#6633FF"/>
<path d="M93.4541 17.3063H90.0194V20.7675H93.4541V17.3063Z" fill="#6633FF"/>
<path d="M93.4542 13.845H90.0194V17.3063H93.4541L93.4542 13.845Z" fill="white"/>
<path d="M93.4542 10.3837H90.0194V13.845H93.4542V10.3837Z" fill="#FF0900"/>
<path d="M90.0194 34.6163H86.5847V38.0775L90.0194 38.0775V34.6163Z" fill="#FF0900"/>
<path d="M90.0194 31.155H86.5847V34.6163H90.0194V31.155Z" fill="#FF0900"/>
<path d="M90.0194 27.6937H86.5847V31.155H90.0194V27.6937Z" fill="#FF0900"/>
<path d="M90.0194 24.2325H86.5847V27.6937H90.0194V24.2325Z" fill="white"/>
<path d="M90.0194 20.7675H86.5847V24.2325H90.0194V20.7675Z" fill="#6633FF"/>
<path d="M90.0194 17.3063H86.5847V20.7675H90.0194V17.3063Z" fill="#6633FF"/>
<path d="M90.0194 13.845H86.5847V17.3063H90.0194V13.845Z" fill="white"/>
<path d="M90.0194 10.3837H86.5847V13.845H90.0194V10.3837Z" fill="#FF0900"/>
<path d="M90.0194 6.9225H86.5847V10.3837H90.0194L90.0194 6.9225Z" fill="#FF0900"/>
<path d="M86.5847 38.0775L83.1499 38.0775V41.5387H86.5847L86.5847 38.0775Z" fill="#FF0900"/>
<path d="M86.5847 34.6163H83.1499V38.0775L86.5847 38.0775V34.6163Z" fill="#FF0900"/>
<path d="M86.5847 31.155H83.1499V34.6163H86.5847V31.155Z" fill="#FF0900"/>
<path d="M86.5847 27.6937H83.1499V31.155H86.5847V27.6937Z" fill="#FF0900"/>
<path d="M86.5847 24.2325H83.1499V27.6937H86.5847V24.2325Z" fill="#FF0900"/>
<path d="M86.5847 20.7675H83.1499V24.2325H86.5847V20.7675Z" fill="white"/>
<path d="M86.5847 17.3063H83.1499V20.7675H86.5847V17.3063Z" fill="white"/>
<path d="M86.5847 13.845H83.1499V17.3063H86.5847V13.845Z" fill="white"/>
<path d="M86.5847 10.3837H83.1499V13.845H86.5847V10.3837Z" fill="#FF0900"/>
<path d="M86.5847 6.9225H83.1499V10.3837H86.5847V6.9225Z" fill="#FF0900"/>
<path d="M86.5847 3.46125H83.1499V6.9225H86.5847L86.5847 3.46125Z" fill="#FF0900"/>
<path d="M83.1499 41.5387H79.7152V45H83.15L83.1499 41.5387Z" fill="#FF0900"/>
<path d="M83.1499 38.0775H79.7152V41.5387H83.1499V38.0775Z" fill="#FF0900"/>
<path d="M83.1499 34.6163H79.7152V38.0775H83.1499V34.6163Z" fill="#FF0900"/>
<path d="M83.1499 31.155H79.7152V34.6163H83.1499V31.155Z" fill="#FF0900"/>
<path d="M83.1499 27.6937H79.7152V31.155H83.1499V27.6937Z" fill="#FF0900"/>
<path d="M83.1499 24.2325H79.7152V27.6937H83.1499V24.2325Z" fill="#FF0900"/>
<path d="M83.1499 20.7675H79.7152V24.2325H83.1499V20.7675Z" fill="#FF0900"/>
<path d="M83.1499 17.3063H79.7152V20.7675H83.1499V17.3063Z" fill="#FF0900"/>
<path d="M83.1499 13.845H79.7152V17.3063H83.1499V13.845Z" fill="#FF0900"/>
<path d="M83.1499 10.3837H79.7152V13.845H83.1499V10.3837Z" fill="#FF0900"/>
<path d="M83.1499 6.9225H79.7152V10.3837H83.1499V6.9225Z" fill="#FF0900"/>
<path d="M83.1499 3.46125H79.7152V6.9225H83.1499V3.46125Z" fill="#FF0900"/>
<path d="M83.15 0H79.7152V3.46125H83.1499L83.15 0Z" fill="#FF0900"/>
<path d="M79.7152 38.0775H76.2805V41.5387H79.7152V38.0775Z" fill="#FF0900"/>
<path d="M79.7152 34.6163H76.2805V38.0775H79.7152V34.6163Z" fill="#FF0900"/>
<path d="M79.7152 31.155H76.2805V34.6163H79.7152V31.155Z" fill="#FF0900"/>
<path d="M79.7152 27.6937H76.2805V31.155H79.7152V27.6937Z" fill="#FF0900"/>
<path d="M79.7152 24.2325H76.2805V27.6937H79.7152V24.2325Z" fill="#FF0900"/>
<path d="M79.7152 20.7675H76.2805V24.2325H79.7152V20.7675Z" fill="#FF0900"/>
<path d="M79.7152 17.3063H76.2805V20.7675H79.7152V17.3063Z" fill="#FF0900"/>
<path d="M79.7152 13.845H76.2805V17.3063H79.7152V13.845Z" fill="#FF0900"/>
<path d="M79.7152 10.3837H76.2805V13.845H79.7152V10.3837Z" fill="#FF0900"/>
<path d="M79.7152 6.9225H76.2805V10.3837H79.7152V6.9225Z" fill="#FF0900"/>
<path d="M79.7152 3.46125H76.2805V6.9225H79.7152V3.46125Z" fill="#FF0900"/>
<path d="M79.7152 0H76.2805V3.46125H79.7152V0Z" fill="#FF0900"/>
<path d="M76.2805 34.6163H72.8457V38.0775L76.2805 38.0775V34.6163Z" fill="#FF0900"/>
<path d="M76.2805 31.155H72.8457V34.6163H76.2805V31.155Z" fill="#FF0900"/>
<path d="M76.2805 27.6937H72.8457V31.155H76.2805V27.6937Z" fill="#FF0900"/>
<path d="M76.2805 24.2325H72.8457V27.6937H76.2805V24.2325Z" fill="#FF0900"/>
<path d="M76.2805 20.7675H72.8457V24.2325H76.2805V20.7675Z" fill="#FF0900"/>
<path d="M76.2805 17.3063H72.8457V20.7675H76.2805V17.3063Z" fill="#FF0900"/>
<path d="M76.2805 13.845H72.8457V17.3063H76.2805V13.845Z" fill="#FF0900"/>
<path d="M76.2805 10.3837H72.8457V13.845H76.2805V10.3837Z" fill="#FF0900"/>
<path d="M76.2805 6.9225H72.8457V10.3837H76.2805V6.9225Z" fill="#FF0900"/>
<path d="M76.2805 3.46125H72.8457V6.9225H76.2805V3.46125Z" fill="#FF0900"/>
<path d="M76.2805 0H72.8457V3.46125H76.2805V0Z" fill="#FF0900"/>
<path d="M72.8457 38.0775L69.411 38.0775V41.5387H72.8458L72.8457 38.0775Z" fill="#FF0900"/>
<path d="M72.8457 34.6163H69.411V38.0775L72.8457 38.0775V34.6163Z" fill="#FF0900"/>
<path d="M72.8457 31.155H69.411V34.6163H72.8457V31.155Z" fill="#FF0900"/>
<path d="M72.8457 27.6937H69.411V31.155H72.8457V27.6937Z" fill="#FF0900"/>
<path d="M72.8457 24.2325H69.411V27.6937H72.8457V24.2325Z" fill="white"/>
<path d="M72.8457 20.7675H69.411V24.2325H72.8457V20.7675Z" fill="#6633FF"/>
<path d="M72.8457 17.3063H69.411V20.7675H72.8457V17.3063Z" fill="#6633FF"/>
<path d="M72.8457 13.845H69.411V17.3063H72.8457V13.845Z" fill="white"/>
<path d="M72.8457 10.3837H69.411V13.845H72.8457V10.3837Z" fill="#FF0900"/>
<path d="M72.8457 6.9225H69.411V10.3837H72.8457V6.9225Z" fill="#FF0900"/>
<path d="M72.8457 3.46125H69.411V6.9225H72.8457V3.46125Z" fill="#FF0900"/>
<path d="M72.8457 0H69.411V3.46125H72.8457V0Z" fill="#FF0900"/>
<path d="M69.411 41.5387H65.9726V45H69.411L69.411 41.5387Z" fill="#FF0900"/>
<path d="M69.411 38.0775H65.9726V41.5387H69.411V38.0775Z" fill="#FF0900"/>
<path d="M69.411 34.6163H65.9726V38.0775H69.411V34.6163Z" fill="#FF0900"/>
<path d="M69.411 31.155H65.9726V34.6163H69.411V31.155Z" fill="#FF0900"/>
<path d="M69.411 27.6937H65.9726V31.155H69.411V27.6937Z" fill="#FF0900"/>
<path d="M69.411 24.2325H65.9726V27.6937H69.411V24.2325Z" fill="white"/>
<path d="M69.411 20.7675H65.9726V24.2325H69.411V20.7675Z" fill="#6633FF"/>
<path d="M69.411 17.3063H65.9726V20.7675H69.411V17.3063Z" fill="#6633FF"/>
<path d="M69.411 13.845H65.9726V17.3063H69.411V13.845Z" fill="white"/>
<path d="M69.411 10.3837H65.9726V13.845H69.411V10.3837Z" fill="#FF0900"/>
<path d="M69.411 6.9225H65.9726V10.3837H69.411V6.9225Z" fill="#FF0900"/>
<path d="M69.411 3.46125H65.9726V6.9225H69.411V3.46125Z" fill="#FF0900"/>
<path d="M69.411 0H65.9726V3.46125H69.411V0Z" fill="#FF0900"/>
<path d="M65.9726 38.0775H62.5378V41.5387H65.9726V38.0775Z" fill="#FF0900"/>
<path d="M65.9726 34.6163H62.5378V38.0775H65.9726V34.6163Z" fill="#FF0900"/>
<path d="M65.9726 31.155H62.5378V34.6163H65.9726V31.155Z" fill="#FF0900"/>
<path d="M65.9726 27.6937H62.5378V31.155H65.9726V27.6937Z" fill="#FF0900"/>
<path d="M65.9726 24.2325H62.5378V27.6937H65.9726V24.2325Z" fill="#FF0900"/>
<path d="M65.9726 20.7675H62.5378V24.2325H65.9726V20.7675Z" fill="white"/>
<path d="M65.9726 17.3063H62.5378V20.7675H65.9726V17.3063Z" fill="white"/>
<path d="M65.9726 13.845H62.5378V17.3063H65.9726V13.845Z" fill="white"/>
<path d="M65.9726 10.3837H62.5378V13.845H65.9726V10.3837Z" fill="#FF0900"/>
<path d="M65.9726 6.9225H62.5378V10.3837H65.9726V6.9225Z" fill="#FF0900"/>
<path d="M65.9726 3.46125H62.5378V6.9225H65.9726V3.46125Z" fill="#FF0900"/>
<path d="M62.5378 34.6163H59.1031V38.0775L62.5378 38.0775V34.6163Z" fill="#FF0900"/>
<path d="M62.5378 31.155H59.1031V34.6163H62.5378V31.155Z" fill="#FF0900"/>
<path d="M62.5378 27.6937H59.1031V31.155H62.5378V27.6937Z" fill="#FF0900"/>
<path d="M62.5378 24.2325H59.1031V27.6937H62.5378V24.2325Z" fill="#FF0900"/>
<path d="M62.5378 20.7675H59.1031V24.2325H62.5378V20.7675Z" fill="#FF0900"/>
<path d="M62.5378 17.3063H59.1031V20.7675H62.5378V17.3063Z" fill="#FF0900"/>
<path d="M62.5378 13.845H59.1031V17.3063H62.5378V13.845Z" fill="#FF0900"/>
<path d="M62.5378 10.3837H59.1031V13.845H62.5378V10.3837Z" fill="#FF0900"/>
<path d="M62.5378 6.9225H59.1031V10.3837H62.5378V6.9225Z" fill="#FF0900"/>
<path d="M59.1031 38.0775L55.6684 38.0775V41.5387H59.1031L59.1031 38.0775Z" fill="#FF0900"/>
<path d="M59.1031 34.6163H55.6684V38.0775L59.1031 38.0775V34.6163Z" fill="#FF0900"/>
<path d="M59.1031 31.155H55.6684V34.6163H59.1031V31.155Z" fill="#FF0900"/>
<path d="M59.1031 27.6937H55.6684V31.155H59.1031V27.6937Z" fill="#FF0900"/>
<path d="M59.1031 24.2325H55.6684V27.6937H59.1031V24.2325Z" fill="#FF0900"/>
<path d="M59.1031 20.7675H55.6684V24.2325H59.1031V20.7675Z" fill="#FF0900"/>
<path d="M59.1031 17.3063H55.6684V20.7675H59.1031V17.3063Z" fill="#FF0900"/>
<path d="M59.1031 13.845H55.6684V17.3063H59.1031V13.845Z" fill="#FF0900"/>
<path d="M59.1031 10.3837H55.6684V13.845H59.1031V10.3837Z" fill="#FF0900"/>
<path d="M55.6684 41.5387H52.2336V45H55.6684L55.6684 41.5387Z" fill="#FF0900"/>
<path d="M55.6684 38.0775H52.2336V41.5387H55.6684V38.0775Z" fill="#FF0900"/>
<path d="M55.6684 34.6163H52.2336V38.0775H55.6684V34.6163Z" fill="#FF0900"/>
<path d="M55.6684 31.155H52.2336V34.6163H55.6684V31.155Z" fill="#FF0900"/>
<path d="M55.6684 27.6937H52.2336V31.155H55.6684V27.6937Z" fill="#FF0900"/>
<path d="M55.6684 24.2325H52.2336V27.6937H55.6684V24.2325Z" fill="#FF0900"/>
<path d="M55.6684 20.7675H52.2336V24.2325H55.6684V20.7675Z" fill="#FF0900"/>
<path d="M55.6684 17.3063H52.2336V20.7675H55.6684V17.3063Z" fill="#FF0900"/>
<path d="M45.3105 41.5387H41.8758V45H45.3105V41.5387Z" fill="#6633FF"/>
<path d="M45.3105 38.0775H41.8758V41.5387H45.3105V38.0775Z" fill="#6633FF"/>
<path d="M45.3105 34.6163H41.8758V38.0775H45.3105V34.6163Z" fill="#6633FF"/>
<path d="M45.3105 31.155H41.8758V34.6163H45.3105V31.155Z" fill="#6633FF"/>
<path d="M45.3105 27.6937H41.8758V31.155H45.3105V27.6937Z" fill="#6633FF"/>
<path d="M45.3105 24.2325H41.8758V27.6937H45.3105V24.2325Z" fill="#6633FF"/>
<path d="M45.3105 20.7675H41.8758V24.2325H45.3105V20.7675Z" fill="#6633FF"/>
<path d="M45.3105 17.3063H41.8758V20.7675H45.3105V17.3063Z" fill="#6633FF"/>
<path d="M41.8758 38.0775H38.441V41.5387H41.8758V38.0775Z" fill="#6633FF"/>
<path d="M41.8758 34.6163H38.441V38.0775H41.8758V34.6163Z" fill="#6633FF"/>
<path d="M41.8758 31.155H38.441V34.6163H41.8758V31.155Z" fill="#6633FF"/>
<path d="M41.8758 27.6937H38.441V31.155H41.8758V27.6937Z" fill="#6633FF"/>
<path d="M41.8758 24.2325H38.441V27.6937H41.8758V24.2325Z" fill="white"/>
<path d="M41.8758 20.7675H38.441V24.2325H41.8758V20.7675Z" fill="#6633FF"/>
<path d="M41.8758 17.3063H38.441V20.7675H41.8758V17.3063Z" fill="#6633FF"/>
<path d="M41.8758 13.845H38.441V17.3063H41.8758L41.8758 13.845Z" fill="white"/>
<path d="M41.8758 10.3837H38.441V13.845H41.8758V10.3837Z" fill="#6633FF"/>
<path d="M38.441 34.6163H35.0063V38.0775L38.441 38.0775V34.6163Z" fill="#6633FF"/>
<path d="M38.441 31.155H35.0063V34.6163H38.441V31.155Z" fill="#6633FF"/>
<path d="M38.441 27.6937H35.0063V31.155H38.441V27.6937Z" fill="#6633FF"/>
<path d="M38.441 24.2325H35.0063V27.6937H38.441V24.2325Z" fill="white"/>
<path d="M38.441 20.7675H35.0063V24.2325H38.441V20.7675Z" fill="#6633FF"/>
<path d="M38.441 17.3063H35.0063V20.7675H38.441V17.3063Z" fill="#6633FF"/>
<path d="M38.441 13.845H35.0063V17.3063H38.441V13.845Z" fill="white"/>
<path d="M38.441 10.3837H35.0063V13.845H38.441V10.3837Z" fill="#6633FF"/>
<path d="M38.4411 6.9225H35.0063V10.3837H38.441L38.4411 6.9225Z" fill="#6633FF"/>
<path d="M35.0063 38.0775L31.5716 38.0775V41.5387H35.0063L35.0063 38.0775Z" fill="#6633FF"/>
<path d="M35.0063 34.6163H31.5716V38.0775L35.0063 38.0775V34.6163Z" fill="#6633FF"/>
<path d="M35.0063 31.155H31.5716V34.6163H35.0063V31.155Z" fill="#6633FF"/>
<path d="M35.0063 27.6937H31.5716V31.155H35.0063V27.6937Z" fill="#6633FF"/>
<path d="M35.0063 24.2325H31.5716V27.6937H35.0063V24.2325Z" fill="#6633FF"/>
<path d="M35.0063 20.7675H31.5716V24.2325H35.0063V20.7675Z" fill="white"/>
<path d="M35.0063 17.3063H31.5716V20.7675H35.0063V17.3063Z" fill="white"/>
<path d="M35.0063 13.845H31.5716V17.3063H35.0063V13.845Z" fill="white"/>
<path d="M35.0063 10.3837H31.5716V13.845H35.0063V10.3837Z" fill="#6633FF"/>
<path d="M35.0063 6.9225H31.5716V10.3837H35.0063V6.9225Z" fill="#6633FF"/>
<path d="M35.0063 3.46125H31.5716V6.9225H35.0063L35.0063 3.46125Z" fill="#6633FF"/>
<path d="M31.5716 41.5387H28.1368V45H31.5716L31.5716 41.5387Z" fill="#6633FF"/>
<path d="M31.5716 38.0775H28.1368V41.5387H31.5716V38.0775Z" fill="#6633FF"/>
<path d="M31.5716 34.6163H28.1368V38.0775H31.5716V34.6163Z" fill="#6633FF"/>
<path d="M31.5716 31.155H28.1368V34.6163H31.5716V31.155Z" fill="#6633FF"/>
<path d="M31.5716 27.6937H28.1368V31.155H31.5716V27.6937Z" fill="#6633FF"/>
<path d="M31.5716 24.2325H28.1368V27.6937H31.5716V24.2325Z" fill="#6633FF"/>
<path d="M31.5716 20.7675H28.1368V24.2325H31.5716V20.7675Z" fill="#6633FF"/>
<path d="M31.5716 17.3063H28.1368V20.7675H31.5716V17.3063Z" fill="#6633FF"/>
<path d="M31.5716 13.845H28.1368V17.3063H31.5716V13.845Z" fill="#6633FF"/>
<path d="M31.5716 10.3837H28.1368V13.845H31.5716V10.3837Z" fill="#6633FF"/>
<path d="M31.5716 6.9225H28.1368V10.3837H31.5716V6.9225Z" fill="#6633FF"/>
<path d="M31.5716 3.46125H28.1368V6.9225H31.5716V3.46125Z" fill="#6633FF"/>
<path d="M31.5716 0H28.1368V3.46125H31.5716L31.5716 0Z" fill="#6633FF"/>
<path d="M28.1368 41.5387H24.7021V45H28.1368V41.5387Z" fill="#6633FF"/>
<path d="M28.1368 38.0775H24.7021V41.5387H28.1368V38.0775Z" fill="#6633FF"/>
<path d="M28.1368 34.6163H24.7021V38.0775H28.1368V34.6163Z" fill="#6633FF"/>
<path d="M28.1368 31.155H24.7021V34.6163H28.1368V31.155Z" fill="#6633FF"/>
<path d="M28.1368 27.6937H24.7021V31.155H28.1368V27.6937Z" fill="#6633FF"/>
<path d="M28.1368 24.2325H24.7021V27.6937H28.1368V24.2325Z" fill="#6633FF"/>
<path d="M28.1368 20.7675H24.7021V24.2325H28.1368V20.7675Z" fill="#6633FF"/>
<path d="M28.1368 17.3063H24.7021V20.7675H28.1368V17.3063Z" fill="#6633FF"/>
<path d="M28.1368 13.845H24.7021V17.3063H28.1368V13.845Z" fill="#6633FF"/>
<path d="M28.1368 10.3837H24.7021V13.845H28.1368V10.3837Z" fill="#6633FF"/>
<path d="M28.1368 6.9225H24.7021V10.3837H28.1368V6.9225Z" fill="#6633FF"/>
<path d="M28.1368 3.46125H24.7021V6.9225H28.1368V3.46125Z" fill="#6633FF"/>
<path d="M28.1368 0H24.7021V3.46125H28.1368V0Z" fill="#6633FF"/>
<path d="M24.7021 34.6163H21.2674V38.0775L24.7021 38.0775V34.6163Z" fill="#6633FF"/>
<path d="M24.7021 31.155H21.2674V34.6163H24.7021V31.155Z" fill="#6633FF"/>
<path d="M24.7021 27.6937H21.2674V31.155H24.7021V27.6937Z" fill="#6633FF"/>
<path d="M24.7021 24.2325H21.2674V27.6937H24.7021V24.2325Z" fill="#6633FF"/>
<path d="M24.7021 20.7675H21.2674V24.2325H24.7021V20.7675Z" fill="#6633FF"/>
<path d="M24.7021 17.3063H21.2674V20.7675H24.7021V17.3063Z" fill="#6633FF"/>
<path d="M24.7021 13.845H21.2674V17.3063H24.7021V13.845Z" fill="#6633FF"/>
<path d="M24.7021 10.3837H21.2674V13.845H24.7021V10.3837Z" fill="#6633FF"/>
<path d="M24.7021 6.9225H21.2674V10.3837H24.7021V6.9225Z" fill="#6633FF"/>
<path d="M24.7021 3.46125H21.2674V6.9225H24.7021V3.46125Z" fill="#6633FF"/>
<path d="M24.7021 0H21.2674V3.46125H24.7021V0Z" fill="#6633FF"/>
<path d="M21.2674 38.0775L17.8326 38.0775V41.5387H21.2674L21.2674 38.0775Z" fill="#6633FF"/>
<path d="M21.2674 34.6163H17.8326V38.0775L21.2674 38.0775V34.6163Z" fill="#6633FF"/>
<path d="M21.2674 31.155H17.8326V34.6163H21.2674V31.155Z" fill="#6633FF"/>
<path d="M21.2674 27.6937H17.8326V31.155H21.2674V27.6937Z" fill="#6633FF"/>
<path d="M21.2674 24.2325H17.8326V27.6937H21.2674V24.2325Z" fill="white"/>
<path d="M21.2674 20.7675H17.8326V24.2325H21.2674V20.7675Z" fill="#6633FF"/>
<path d="M21.2674 17.3063H17.8326V20.7675H21.2674V17.3063Z" fill="#6633FF"/>
<path d="M21.2674 13.845H17.8326V17.3063H21.2674V13.845Z" fill="white"/>
<path d="M21.2674 10.3837H17.8326V13.845H21.2674V10.3837Z" fill="#6633FF"/>
<path d="M21.2674 6.9225H17.8326V10.3837H21.2674V6.9225Z" fill="#6633FF"/>
<path d="M21.2674 3.46125H17.8326V6.9225H21.2674V3.46125Z" fill="#6633FF"/>
<path d="M21.2674 0H17.8326V3.46125H21.2674V0Z" fill="#6633FF"/>
<path d="M17.8326 41.5387H14.3942V45H17.8326L17.8326 41.5387Z" fill="#6633FF"/>
<path d="M17.8326 38.0775H14.3942V41.5387H17.8326V38.0775Z" fill="#6633FF"/>
<path d="M17.8326 34.6163H14.3942V38.0775H17.8326V34.6163Z" fill="#6633FF"/>
<path d="M17.8326 31.155H14.3942V34.6163H17.8326V31.155Z" fill="#6633FF"/>
<path d="M17.8326 27.6937H14.3942V31.155H17.8326V27.6937Z" fill="#6633FF"/>
<path d="M17.8326 24.2325H14.3942V27.6937H17.8326V24.2325Z" fill="white"/>
<path d="M17.8326 20.7675H14.3942V24.2325H17.8326V20.7675Z" fill="#6633FF"/>
<path d="M17.8326 17.3063H14.3942V20.7675H17.8326V17.3063Z" fill="#6633FF"/>
<path d="M17.8326 13.845H14.3942V17.3063H17.8326V13.845Z" fill="white"/>
<path d="M17.8326 10.3837H14.3942V13.845H17.8326V10.3837Z" fill="#6633FF"/>
<path d="M17.8326 6.9225H14.3942V10.3837H17.8326V6.9225Z" fill="#6633FF"/>
<path d="M17.8326 3.46125H14.3942V6.9225H17.8326V3.46125Z" fill="#6633FF"/>
<path d="M17.8326 0H14.3942V3.46125H17.8326V0Z" fill="#6633FF"/>
<path d="M14.3942 38.0775H10.9595V41.5387H14.3942V38.0775Z" fill="#6633FF"/>
<path d="M14.3942 34.6163H10.9595V38.0775H14.3942V34.6163Z" fill="#6633FF"/>
<path d="M14.3942 31.155H10.9595V34.6163H14.3942V31.155Z" fill="#6633FF"/>
<path d="M14.3942 27.6937H10.9595V31.155H14.3942V27.6937Z" fill="#6633FF"/>
<path d="M14.3942 24.2325H10.9595V27.6937H14.3942V24.2325Z" fill="#6633FF"/>
<path d="M14.3942 20.7675H10.9595V24.2325H14.3942V20.7675Z" fill="white"/>
<path d="M14.3942 17.3063H10.9595V20.7675H14.3942V17.3063Z" fill="white"/>
<path d="M14.3942 13.845H10.9595V17.3063H14.3942V13.845Z" fill="white"/>
<path d="M14.3942 10.3837H10.9595V13.845H14.3942V10.3837Z" fill="#6633FF"/>
<path d="M14.3942 6.9225H10.9595V10.3837H14.3942V6.9225Z" fill="#6633FF"/>
<path d="M14.3942 3.46125H10.9595V6.9225H14.3942V3.46125Z" fill="#6633FF"/>
<path d="M10.9595 34.6163H7.52475V38.0775L10.9595 38.0775V34.6163Z" fill="#6633FF"/>
<path d="M10.9595 31.155H7.52475V34.6163H10.9595V31.155Z" fill="#6633FF"/>
<path d="M10.9595 27.6937H7.52475V31.155H10.9595V27.6937Z" fill="#6633FF"/>
<path d="M10.9595 24.2325H7.52475V27.6937H10.9595V24.2325Z" fill="#6633FF"/>
<path d="M10.9595 20.7675H7.52475V24.2325H10.9595V20.7675Z" fill="#6633FF"/>
<path d="M10.9595 17.3063H7.52475V20.7675H10.9595V17.3063Z" fill="#6633FF"/>
<path d="M10.9595 13.845H7.52475V17.3063H10.9595V13.845Z" fill="#6633FF"/>
<path d="M10.9595 10.3837H7.52475V13.845H10.9595V10.3837Z" fill="#6633FF"/>
<path d="M10.9595 6.9225H7.52475V10.3837H10.9595V6.9225Z" fill="#6633FF"/>
<path d="M7.52475 38.0775L4.08999 38.0775V41.5387H7.52473L7.52475 38.0775Z" fill="#6633FF"/>
<path d="M7.52475 34.6163H4.08999V38.0775L7.52475 38.0775V34.6163Z" fill="#6633FF"/>
<path d="M7.52475 31.155H4.08999V34.6163H7.52475V31.155Z" fill="#6633FF"/>
<path d="M7.52475 27.6937H4.08999V31.155H7.52475V27.6937Z" fill="#6633FF"/>
<path d="M7.52475 24.2325H4.08999V27.6937H7.52475V24.2325Z" fill="#6633FF"/>
<path d="M7.52475 20.7675H4.08999V24.2325H7.52475V20.7675Z" fill="#6633FF"/>
<path d="M7.52475 17.3063H4.08999V20.7675H7.52475V17.3063Z" fill="#6633FF"/>
<path d="M7.52475 13.845H4.08999V17.3063H7.52475V13.845Z" fill="#6633FF"/>
<path d="M7.52475 10.3837H4.08999V13.845H7.52475V10.3837Z" fill="#6633FF"/>
<path d="M4.08999 41.5387H0.655273V45H4.09L4.08999 41.5387Z" fill="#6633FF"/>
<path d="M4.08999 38.0775H0.655273V41.5387H4.08999V38.0775Z" fill="#6633FF"/>
<path d="M4.08999 34.6163H0.655273V38.0775H4.08999V34.6163Z" fill="#6633FF"/>
<path d="M4.08999 31.155H0.655273V34.6163H4.08999V31.155Z" fill="#6633FF"/>
<path d="M4.08999 27.6937H0.655273V31.155H4.08999V27.6937Z" fill="#6633FF"/>
<path d="M4.08999 24.2325H0.655273V27.6937H4.08999V24.2325Z" fill="#6633FF"/>
<path d="M4.08999 20.7675H0.655273V24.2325H4.08999V20.7675Z" fill="#6633FF"/>
<path d="M4.08999 17.3063H0.655273V20.7675H4.08999V17.3063Z" fill="#6633FF"/>
</svg>
