<svg width="30" height="31" viewBox="0 0 30 31" fill="none" xmlns="http://www.w3.org/2000/svg">
<path d="M29.7701 28.1925H27.4803V30.5H29.7701V28.1925Z" fill="#FF7A00"/>
<path d="M29.7701 25.885H27.4803L27.4803 28.1925H29.7701L29.7701 25.885Z" fill="#FF7A00"/>
<path d="M29.7701 23.5775H27.4803V25.885H29.7701V23.5775Z" fill="#FF7A00"/>
<path d="M29.7701 21.27H27.4803V23.5775H29.7701V21.27Z" fill="#FF7A00"/>
<path d="M29.7701 18.9625H27.4803V21.27H29.7701V18.9625Z" fill="#FF7A00"/>
<path d="M29.7701 16.655H27.4803V18.9625H29.7701V16.655Z" fill="#FF7A00"/>
<path d="M29.7701 14.345H27.4803V16.655H29.7701V14.345Z" fill="#FF7A00"/>
<path d="M29.7701 12.0375H27.4803V14.345H29.7701V12.0375Z" fill="#FF7A00"/>
<path d="M27.4803 25.885L25.1905 25.885L25.1905 28.1925L27.4803 28.1925L27.4803 25.885Z" fill="#FF7A00"/>
<path d="M27.4803 23.5775L25.1905 23.5775V25.885L27.4803 25.885V23.5775Z" fill="#FF7A00"/>
<path d="M27.4803 21.27L25.1905 21.27V23.5775L27.4803 23.5775V21.27Z" fill="#FF7A00"/>
<path d="M27.4803 18.9625L25.1905 18.9625V21.27L27.4803 21.27V18.9625Z" fill="#FF7A00"/>
<path d="M27.4803 16.655L25.1905 16.655V18.9625L27.4803 18.9625V16.655Z" fill="white"/>
<path d="M27.4803 14.345H25.1905V16.655L27.4803 16.655V14.345Z" fill="#6633FF"/>
<path d="M27.4803 12.0375H25.1905V14.345H27.4803V12.0375Z" fill="#6633FF"/>
<path d="M27.4803 9.73H25.1905V12.0375H27.4803L27.4803 9.73Z" fill="white"/>
<path d="M27.4803 7.4225H25.1905V9.73H27.4803V7.4225Z" fill="#FF7A00"/>
<path d="M25.1905 23.5775H22.9007V25.885L25.1905 25.885V23.5775Z" fill="#FF7A00"/>
<path d="M25.1905 21.27H22.9007V23.5775H25.1905V21.27Z" fill="#FF7A00"/>
<path d="M25.1905 18.9625H22.9007V21.27H25.1905V18.9625Z" fill="#FF7A00"/>
<path d="M25.1905 16.655H22.9007V18.9625H25.1905V16.655Z" fill="white"/>
<path d="M25.1905 14.345H22.9007V16.655H25.1905V14.345Z" fill="#6633FF"/>
<path d="M25.1905 12.0375H22.9007V14.345H25.1905V12.0375Z" fill="#6633FF"/>
<path d="M25.1905 9.73H22.9007V12.0375H25.1905V9.73Z" fill="white"/>
<path d="M25.1905 7.4225H22.9007V9.73H25.1905V7.4225Z" fill="#FF7A00"/>
<path d="M25.1905 5.115H22.9007V7.4225H25.1905L25.1905 5.115Z" fill="#FF7A00"/>
<path d="M22.9007 25.885L20.6109 25.885L20.6109 28.1925H22.9007L22.9007 25.885Z" fill="#FF7A00"/>
<path d="M22.9007 23.5775H20.6109V25.885L22.9007 25.885V23.5775Z" fill="#FF7A00"/>
<path d="M22.9007 21.27H20.6109V23.5775H22.9007V21.27Z" fill="#FF7A00"/>
<path d="M22.9007 18.9625H20.6109V21.27H22.9007V18.9625Z" fill="#FF7A00"/>
<path d="M22.9007 16.655H20.6109V18.9625H22.9007V16.655Z" fill="#FF7A00"/>
<path d="M22.9007 14.345H20.6109V16.655H22.9007V14.345Z" fill="white"/>
<path d="M22.9007 12.0375H20.6109V14.345H22.9007V12.0375Z" fill="white"/>
<path d="M22.9007 9.73H20.6109V12.0375H22.9007V9.73Z" fill="white"/>
<path d="M22.9007 7.4225H20.6109V9.73H22.9007V7.4225Z" fill="#FF7A00"/>
<path d="M22.9007 5.115H20.6109V7.4225H22.9007V5.115Z" fill="#FF7A00"/>
<path d="M22.9007 2.8075H20.6109V5.115H22.9007L22.9007 2.8075Z" fill="#FF7A00"/>
<path d="M20.6109 28.1925H18.321V30.5H20.6109L20.6109 28.1925Z" fill="#FF7A00"/>
<path d="M20.6109 25.885H18.321L18.321 28.1925H20.6109L20.6109 25.885Z" fill="#FF7A00"/>
<path d="M20.6109 23.5775H18.321V25.885H20.6109V23.5775Z" fill="#FF7A00"/>
<path d="M20.6109 21.27H18.321V23.5775H20.6109V21.27Z" fill="#FF7A00"/>
<path d="M20.6109 18.9625H18.321V21.27H20.6109V18.9625Z" fill="#FF7A00"/>
<path d="M20.6109 16.655H18.321V18.9625H20.6109V16.655Z" fill="#FF7A00"/>
<path d="M20.6109 14.345H18.321V16.655H20.6109V14.345Z" fill="#FF7A00"/>
<path d="M20.6109 12.0375H18.321V14.345H20.6109V12.0375Z" fill="#FF7A00"/>
<path d="M20.6109 9.73H18.321V12.0375H20.6109V9.73Z" fill="#FF7A00"/>
<path d="M20.6109 7.4225L18.321 7.4225V9.73H20.6109V7.4225Z" fill="#FF7A00"/>
<path d="M20.6109 5.115L18.321 5.115V7.4225L20.6109 7.4225V5.115Z" fill="#FF7A00"/>
<path d="M20.6109 2.8075H18.321V5.115L20.6109 5.115V2.8075Z" fill="#FF7A00"/>
<path d="M20.6109 0.5L18.321 0.5V2.8075H20.6109L20.6109 0.5Z" fill="#FF7A00"/>
<path d="M18.321 25.885H16.0312L16.0312 28.1925H18.321L18.321 25.885Z" fill="#FF7A00"/>
<path d="M18.321 23.5775H16.0312V25.885H18.321V23.5775Z" fill="#FF7A00"/>
<path d="M18.321 21.27H16.0312V23.5775H18.321V21.27Z" fill="#FF7A00"/>
<path d="M18.321 18.9625H16.0312V21.27H18.321V18.9625Z" fill="#FF7A00"/>
<path d="M18.321 16.655H16.0312V18.9625H18.321V16.655Z" fill="#FF7A00"/>
<path d="M18.321 14.345H16.0312V16.655H18.321V14.345Z" fill="#FF7A00"/>
<path d="M18.321 12.0375H16.0312V14.345H18.321V12.0375Z" fill="#FF7A00"/>
<path d="M18.321 9.73H16.0312V12.0375H18.321V9.73Z" fill="#FF7A00"/>
<path d="M18.321 7.4225H16.0312V9.73H18.321V7.4225Z" fill="#FF7A00"/>
<path d="M18.321 5.115H16.0312V7.4225H18.321V5.115Z" fill="#FF7A00"/>
<path d="M18.321 2.8075L16.0312 2.8075V5.115H18.321V2.8075Z" fill="#FF7A00"/>
<path d="M18.321 0.5L16.0312 0.5V2.8075L18.321 2.8075V0.5Z" fill="#FF7A00"/>
<path d="M16.0312 23.5775H13.7414V25.885L16.0312 25.885V23.5775Z" fill="#FF7A00"/>
<path d="M16.0312 21.27H13.7414V23.5775H16.0312V21.27Z" fill="#FF7A00"/>
<path d="M16.0312 18.9625H13.7414V21.27H16.0312V18.9625Z" fill="#FF7A00"/>
<path d="M16.0312 16.655H13.7414V18.9625H16.0312V16.655Z" fill="#FF7A00"/>
<path d="M16.0312 14.345H13.7414V16.655H16.0312V14.345Z" fill="#FF7A00"/>
<path d="M16.0312 12.0375H13.7414L13.7414 14.345H16.0312V12.0375Z" fill="#FF7A00"/>
<path d="M16.0312 9.73H13.7414V12.0375H16.0312V9.73Z" fill="#FF7A00"/>
<path d="M16.0312 7.4225H13.7414V9.73H16.0312V7.4225Z" fill="#FF7A00"/>
<path d="M16.0312 5.115H13.7414V7.4225H16.0312V5.115Z" fill="#FF7A00"/>
<path d="M16.0312 2.8075H13.7414V5.115H16.0312V2.8075Z" fill="#FF7A00"/>
<path d="M16.0312 0.5L13.7414 0.5V2.8075H16.0312V0.5Z" fill="#FF7A00"/>
<path d="M13.7414 25.885L11.4516 25.885V28.1925H13.7414L13.7414 25.885Z" fill="#FF7A00"/>
<path d="M13.7414 23.5775H11.4516V25.885L13.7414 25.885V23.5775Z" fill="#FF7A00"/>
<path d="M13.7414 21.27H11.4516V23.5775H13.7414V21.27Z" fill="#FF7A00"/>
<path d="M13.7414 18.9625H11.4516V21.27H13.7414V18.9625Z" fill="#FF7A00"/>
<path d="M13.7414 16.655H11.4516V18.9625H13.7414V16.655Z" fill="white"/>
<path d="M13.7414 14.345L11.4516 14.345V16.655H13.7414V14.345Z" fill="#6633FF"/>
<path d="M13.7414 12.0375L11.4516 12.0375L11.4516 14.345L13.7414 14.345L13.7414 12.0375Z" fill="#6633FF"/>
<path d="M13.7414 9.73L11.4516 9.73V12.0375L13.7414 12.0375V9.73Z" fill="white"/>
<path d="M13.7414 7.4225H11.4516V9.73L13.7414 9.73V7.4225Z" fill="#FF7A00"/>
<path d="M13.7414 5.115H11.4516V7.4225H13.7414V5.115Z" fill="#FF7A00"/>
<path d="M13.7414 2.8075H11.4516V5.115H13.7414V2.8075Z" fill="#FF7A00"/>
<path d="M13.7414 0.5L11.4516 0.5V2.8075H13.7414V0.5Z" fill="#FF7A00"/>
<path d="M11.4516 28.1925H9.15928V30.5H11.4516L11.4516 28.1925Z" fill="#FF7A00"/>
<path d="M11.4516 25.885H9.15928V28.1925H11.4516V25.885Z" fill="#FF7A00"/>
<path d="M11.4516 23.5775H9.15928V25.885H11.4516V23.5775Z" fill="#FF7A00"/>
<path d="M11.4516 21.27H9.15928V23.5775H11.4516V21.27Z" fill="#FF7A00"/>
<path d="M11.4516 18.9625H9.15928V21.27H11.4516V18.9625Z" fill="#FF7A00"/>
<path d="M11.4516 16.655H9.15928V18.9625H11.4516V16.655Z" fill="white"/>
<path d="M11.4516 14.345H9.15928V16.655H11.4516V14.345Z" fill="#6633FF"/>
<path d="M11.4516 12.0375H9.15928L9.15928 14.345H11.4516L11.4516 12.0375Z" fill="#6633FF"/>
<path d="M11.4516 9.73H9.15928V12.0375H11.4516V9.73Z" fill="white"/>
<path d="M11.4516 7.4225H9.15928V9.73H11.4516V7.4225Z" fill="#FF7A00"/>
<path d="M11.4516 5.115H9.15928V7.4225H11.4516V5.115Z" fill="#FF7A00"/>
<path d="M11.4516 2.8075L9.15928 2.8075V5.115H11.4516V2.8075Z" fill="#FF7A00"/>
<path d="M11.4516 0.5L9.15928 0.5V2.8075L11.4516 2.8075V0.5Z" fill="#FF7A00"/>
<path d="M9.15928 25.885H6.86947V28.1925H9.15928V25.885Z" fill="#FF7A00"/>
<path d="M9.15928 23.5775H6.86947V25.885H9.15928V23.5775Z" fill="#FF7A00"/>
<path d="M9.15928 21.27H6.86947V23.5775H9.15928V21.27Z" fill="#FF7A00"/>
<path d="M9.15928 18.9625H6.86947L6.86947 21.27H9.15928V18.9625Z" fill="#FF7A00"/>
<path d="M9.15928 16.655H6.86947V18.9625H9.15928V16.655Z" fill="#FF7A00"/>
<path d="M9.15928 14.345H6.86947V16.655H9.15928V14.345Z" fill="white"/>
<path d="M9.15928 12.0375H6.86947V14.345H9.15928L9.15928 12.0375Z" fill="white"/>
<path d="M9.15928 9.73H6.86947V12.0375H9.15928V9.73Z" fill="white"/>
<path d="M9.15928 7.4225H6.86947V9.73H9.15928V7.4225Z" fill="#FF7A00"/>
<path d="M9.15928 5.115H6.86947L6.86947 7.4225H9.15928V5.115Z" fill="#FF7A00"/>
<path d="M9.15928 2.8075H6.86947V5.115H9.15928V2.8075Z" fill="#FF7A00"/>
<path d="M6.86947 23.5775H4.57962V25.885L6.86947 25.885V23.5775Z" fill="#FF7A00"/>
<path d="M6.86947 21.27H4.57962V23.5775H6.86947V21.27Z" fill="#FF7A00"/>
<path d="M6.86947 18.9625H4.57962L4.57962 21.27H6.86947L6.86947 18.9625Z" fill="#FF7A00"/>
<path d="M6.86947 16.655H4.57962V18.9625H6.86947V16.655Z" fill="#FF7A00"/>
<path d="M6.86947 14.345H4.57962V16.655H6.86947V14.345Z" fill="#FF7A00"/>
<path d="M6.86947 12.0375H4.57962V14.345H6.86947V12.0375Z" fill="#FF7A00"/>
<path d="M6.86947 9.73H4.57962V12.0375H6.86947V9.73Z" fill="#FF7A00"/>
<path d="M6.86947 7.4225L4.57962 7.4225V9.73H6.86947V7.4225Z" fill="#FF7A00"/>
<path d="M6.86947 5.115L4.57962 5.115L4.57962 7.4225L6.86947 7.4225L6.86947 5.115Z" fill="#FF7A00"/>
<path d="M4.57962 25.885L2.28981 25.885V28.1925H4.57963L4.57962 25.885Z" fill="#FF7A00"/>
<path d="M4.57962 23.5775H2.28981L2.28981 25.885L4.57962 25.885V23.5775Z" fill="#FF7A00"/>
<path d="M4.57962 21.27H2.28981V23.5775H4.57962V21.27Z" fill="#FF7A00"/>
<path d="M4.57962 18.9625H2.28981V21.27H4.57962L4.57962 18.9625Z" fill="#FF7A00"/>
<path d="M4.57962 16.655H2.28981L2.28981 18.9625H4.57962V16.655Z" fill="#FF7A00"/>
<path d="M4.57962 14.345H2.28981V16.655H4.57962V14.345Z" fill="#FF7A00"/>
<path d="M4.57962 12.0375H2.28981V14.345H4.57962V12.0375Z" fill="#FF7A00"/>
<path d="M4.57962 9.73H2.28981L2.28981 12.0375H4.57962V9.73Z" fill="#FF7A00"/>
<path d="M4.57962 7.4225H2.28981V9.73H4.57962V7.4225Z" fill="#FF7A00"/>
<path d="M2.28981 28.1925H0L0 30.5H2.28982L2.28981 28.1925Z" fill="#FF7A00"/>
<path d="M2.28981 25.885H0L0 28.1925H2.28981V25.885Z" fill="#FF7A00"/>
<path d="M2.28981 23.5775H0L0 25.885H2.28981L2.28981 23.5775Z" fill="#FF7A00"/>
<path d="M2.28981 21.27H0L0 23.5775H2.28981V21.27Z" fill="#FF7A00"/>
<path d="M2.28981 18.9625H0L0 21.27H2.28981V18.9625Z" fill="#FF7A00"/>
<path d="M2.28981 16.655H0L0 18.9625H2.28981L2.28981 16.655Z" fill="#FF7A00"/>
<path d="M2.28981 14.345H0L0 16.655H2.28981V14.345Z" fill="#FF7A00"/>
<path d="M2.28981 12.0375H0L0 14.345H2.28981V12.0375Z" fill="#FF7A00"/>
</svg>
