<svg width="46" height="45" viewBox="0 0 46 45" fill="none" xmlns="http://www.w3.org/2000/svg">
<path d="M45.3104 41.5387H41.8757V45H45.3104V41.5387Z" fill="#6633FF"/>
<path d="M45.3104 38.0775H41.8757V41.5387H45.3104V38.0775Z" fill="#6633FF"/>
<path d="M45.3104 34.6163H41.8757V38.0775H45.3104V34.6163Z" fill="#6633FF"/>
<path d="M45.3104 31.155H41.8757V34.6163H45.3104V31.155Z" fill="#6633FF"/>
<path d="M45.3104 27.6937H41.8757V31.155H45.3104V27.6937Z" fill="#6633FF"/>
<path d="M45.3104 24.2325H41.8757V27.6937H45.3104V24.2325Z" fill="#6633FF"/>
<path d="M45.3104 20.7675H41.8757V24.2325H45.3104V20.7675Z" fill="#6633FF"/>
<path d="M45.3104 17.3063H41.8757V20.7675H45.3104V17.3063Z" fill="#6633FF"/>
<path d="M41.8757 38.0775H38.441V41.5387H41.8757V38.0775Z" fill="#6633FF"/>
<path d="M41.8757 34.6163H38.441V38.0775H41.8757V34.6163Z" fill="#6633FF"/>
<path d="M41.8757 31.155H38.441V34.6163H41.8757V31.155Z" fill="#6633FF"/>
<path d="M41.8757 27.6937H38.441V31.155H41.8757V27.6937Z" fill="#6633FF"/>
<path d="M41.8757 24.2325H38.441V27.6937H41.8757V24.2325Z" fill="white"/>
<path d="M41.8757 20.7675H38.441V24.2325H41.8757V20.7675Z" fill="#6633FF"/>
<path d="M41.8757 17.3063H38.441V20.7675H41.8757V17.3063Z" fill="#6633FF"/>
<path d="M41.8757 13.845H38.441V17.3063H41.8757L41.8757 13.845Z" fill="white"/>
<path d="M41.8757 10.3837H38.441V13.845H41.8757V10.3837Z" fill="#6633FF"/>
<path d="M38.441 34.6163H35.0063V38.0775L38.441 38.0775V34.6163Z" fill="#6633FF"/>
<path d="M38.441 31.155H35.0063V34.6163H38.441V31.155Z" fill="#6633FF"/>
<path d="M38.441 27.6937H35.0063V31.155H38.441V27.6937Z" fill="#6633FF"/>
<path d="M38.441 24.2325H35.0063V27.6937H38.441V24.2325Z" fill="white"/>
<path d="M38.441 20.7675H35.0063V24.2325H38.441V20.7675Z" fill="#6633FF"/>
<path d="M38.441 17.3063H35.0063V20.7675H38.441V17.3063Z" fill="#6633FF"/>
<path d="M38.441 13.845H35.0063V17.3063H38.441V13.845Z" fill="white"/>
<path d="M38.441 10.3837H35.0063V13.845H38.441V10.3837Z" fill="#6633FF"/>
<path d="M38.441 6.9225H35.0063V10.3837H38.441L38.441 6.9225Z" fill="#6633FF"/>
<path d="M35.0063 38.0775L31.5715 38.0775V41.5387H35.0062L35.0063 38.0775Z" fill="#6633FF"/>
<path d="M35.0063 34.6163H31.5715V38.0775L35.0063 38.0775V34.6163Z" fill="#6633FF"/>
<path d="M35.0063 31.155H31.5715V34.6163H35.0063V31.155Z" fill="#6633FF"/>
<path d="M35.0063 27.6937H31.5715V31.155H35.0063V27.6937Z" fill="#6633FF"/>
<path d="M35.0063 24.2325H31.5715V27.6937H35.0063V24.2325Z" fill="#6633FF"/>
<path d="M35.0063 20.7675H31.5715V24.2325H35.0063V20.7675Z" fill="white"/>
<path d="M35.0063 17.3063H31.5715V20.7675H35.0063V17.3063Z" fill="white"/>
<path d="M35.0063 13.845H31.5715V17.3063H35.0063V13.845Z" fill="white"/>
<path d="M35.0063 10.3837H31.5715V13.845H35.0063V10.3837Z" fill="#6633FF"/>
<path d="M35.0063 6.9225H31.5715V10.3837H35.0063V6.9225Z" fill="#6633FF"/>
<path d="M35.0062 3.46125H31.5715V6.9225H35.0063L35.0062 3.46125Z" fill="#6633FF"/>
<path d="M31.5715 41.5387H28.1368V45H31.5715L31.5715 41.5387Z" fill="#6633FF"/>
<path d="M31.5715 38.0775H28.1368V41.5387H31.5715V38.0775Z" fill="#6633FF"/>
<path d="M31.5715 34.6163H28.1368V38.0775H31.5715V34.6163Z" fill="#6633FF"/>
<path d="M31.5715 31.155H28.1368V34.6163H31.5715V31.155Z" fill="#6633FF"/>
<path d="M31.5715 27.6937H28.1368V31.155H31.5715V27.6937Z" fill="#6633FF"/>
<path d="M31.5715 24.2325H28.1368V27.6937H31.5715V24.2325Z" fill="#6633FF"/>
<path d="M31.5715 20.7675H28.1368V24.2325H31.5715V20.7675Z" fill="#6633FF"/>
<path d="M31.5715 17.3063H28.1368V20.7675H31.5715V17.3063Z" fill="#6633FF"/>
<path d="M31.5715 13.845H28.1368V17.3063H31.5715V13.845Z" fill="#6633FF"/>
<path d="M31.5715 10.3837H28.1368V13.845H31.5715V10.3837Z" fill="#6633FF"/>
<path d="M31.5715 6.9225H28.1368V10.3837H31.5715V6.9225Z" fill="#6633FF"/>
<path d="M31.5715 3.46125H28.1368V6.9225H31.5715V3.46125Z" fill="#6633FF"/>
<path d="M31.5715 0H28.1368V3.46125H31.5715L31.5715 0Z" fill="#6633FF"/>
<path d="M28.1368 41.5387H24.7021V45H28.1368V41.5387Z" fill="#6633FF"/>
<path d="M28.1368 38.0775H24.7021V41.5387H28.1368V38.0775Z" fill="#6633FF"/>
<path d="M28.1368 34.6163H24.7021V38.0775H28.1368V34.6163Z" fill="#6633FF"/>
<path d="M28.1368 31.155H24.7021V34.6163H28.1368V31.155Z" fill="#6633FF"/>
<path d="M28.1368 27.6937H24.7021V31.155H28.1368V27.6937Z" fill="#6633FF"/>
<path d="M28.1368 24.2325H24.7021V27.6937H28.1368V24.2325Z" fill="#6633FF"/>
<path d="M28.1368 20.7675H24.7021V24.2325H28.1368V20.7675Z" fill="#6633FF"/>
<path d="M28.1368 17.3063H24.7021V20.7675H28.1368V17.3063Z" fill="#6633FF"/>
<path d="M28.1368 13.845H24.7021V17.3063H28.1368V13.845Z" fill="#6633FF"/>
<path d="M28.1368 10.3837H24.7021V13.845H28.1368V10.3837Z" fill="#6633FF"/>
<path d="M28.1368 6.9225H24.7021V10.3837H28.1368V6.9225Z" fill="#6633FF"/>
<path d="M28.1368 3.46125H24.7021V6.9225H28.1368V3.46125Z" fill="#6633FF"/>
<path d="M28.1368 0H24.7021V3.46125H28.1368V0Z" fill="#6633FF"/>
<path d="M24.7021 34.6163H21.2673V38.0775L24.7021 38.0775V34.6163Z" fill="#6633FF"/>
<path d="M24.7021 31.155H21.2673V34.6163H24.7021V31.155Z" fill="#6633FF"/>
<path d="M24.7021 27.6937H21.2673V31.155H24.7021V27.6937Z" fill="#6633FF"/>
<path d="M24.7021 24.2325H21.2673V27.6937H24.7021V24.2325Z" fill="#6633FF"/>
<path d="M24.7021 20.7675H21.2673V24.2325H24.7021V20.7675Z" fill="#6633FF"/>
<path d="M24.7021 17.3063H21.2673V20.7675H24.7021V17.3063Z" fill="#6633FF"/>
<path d="M24.7021 13.845H21.2673V17.3063H24.7021V13.845Z" fill="#6633FF"/>
<path d="M24.7021 10.3837H21.2673V13.845H24.7021V10.3837Z" fill="#6633FF"/>
<path d="M24.7021 6.9225H21.2673V10.3837H24.7021V6.9225Z" fill="#6633FF"/>
<path d="M24.7021 3.46125H21.2673V6.9225H24.7021V3.46125Z" fill="#6633FF"/>
<path d="M24.7021 0H21.2673V3.46125H24.7021V0Z" fill="#6633FF"/>
<path d="M21.2673 38.0775L17.8326 38.0775V41.5387H21.2673L21.2673 38.0775Z" fill="#6633FF"/>
<path d="M21.2673 34.6163H17.8326V38.0775L21.2673 38.0775V34.6163Z" fill="#6633FF"/>
<path d="M21.2673 31.155H17.8326V34.6163H21.2673V31.155Z" fill="#6633FF"/>
<path d="M21.2673 27.6937H17.8326V31.155H21.2673V27.6937Z" fill="#6633FF"/>
<path d="M21.2673 24.2325H17.8326V27.6937H21.2673V24.2325Z" fill="white"/>
<path d="M21.2673 20.7675H17.8326V24.2325H21.2673V20.7675Z" fill="#6633FF"/>
<path d="M21.2673 17.3063H17.8326V20.7675H21.2673V17.3063Z" fill="#6633FF"/>
<path d="M21.2673 13.845H17.8326V17.3063H21.2673V13.845Z" fill="white"/>
<path d="M21.2673 10.3837H17.8326V13.845H21.2673V10.3837Z" fill="#6633FF"/>
<path d="M21.2673 6.9225H17.8326V10.3837H21.2673V6.9225Z" fill="#6633FF"/>
<path d="M21.2673 3.46125H17.8326V6.9225H21.2673V3.46125Z" fill="#6633FF"/>
<path d="M21.2673 0H17.8326V3.46125H21.2673V0Z" fill="#6633FF"/>
<path d="M17.8326 41.5387H14.3941V45H17.8326L17.8326 41.5387Z" fill="#6633FF"/>
<path d="M17.8326 38.0775H14.3941V41.5387H17.8326V38.0775Z" fill="#6633FF"/>
<path d="M17.8326 34.6163H14.3941V38.0775H17.8326V34.6163Z" fill="#6633FF"/>
<path d="M17.8326 31.155H14.3941V34.6163H17.8326V31.155Z" fill="#6633FF"/>
<path d="M17.8326 27.6937H14.3941V31.155H17.8326V27.6937Z" fill="#6633FF"/>
<path d="M17.8326 24.2325H14.3941V27.6937H17.8326V24.2325Z" fill="white"/>
<path d="M17.8326 20.7675H14.3941V24.2325H17.8326V20.7675Z" fill="#6633FF"/>
<path d="M17.8326 17.3063H14.3941V20.7675H17.8326V17.3063Z" fill="#6633FF"/>
<path d="M17.8326 13.845H14.3941V17.3063H17.8326V13.845Z" fill="white"/>
<path d="M17.8326 10.3837H14.3941V13.845H17.8326V10.3837Z" fill="#6633FF"/>
<path d="M17.8326 6.9225H14.3941V10.3837H17.8326V6.9225Z" fill="#6633FF"/>
<path d="M17.8326 3.46125H14.3941V6.9225H17.8326V3.46125Z" fill="#6633FF"/>
<path d="M17.8326 0H14.3941V3.46125H17.8326V0Z" fill="#6633FF"/>
<path d="M14.3941 38.0775H10.9594V41.5387H14.3941V38.0775Z" fill="#6633FF"/>
<path d="M14.3941 34.6163H10.9594V38.0775H14.3941V34.6163Z" fill="#6633FF"/>
<path d="M14.3941 31.155H10.9594V34.6163H14.3941V31.155Z" fill="#6633FF"/>
<path d="M14.3941 27.6937H10.9594V31.155H14.3941V27.6937Z" fill="#6633FF"/>
<path d="M14.3941 24.2325H10.9594V27.6937H14.3941V24.2325Z" fill="#6633FF"/>
<path d="M14.3941 20.7675H10.9594V24.2325H14.3941V20.7675Z" fill="white"/>
<path d="M14.3941 17.3063H10.9594V20.7675H14.3941V17.3063Z" fill="white"/>
<path d="M14.3941 13.845H10.9594V17.3063H14.3941V13.845Z" fill="white"/>
<path d="M14.3941 10.3837H10.9594V13.845H14.3941V10.3837Z" fill="#6633FF"/>
<path d="M14.3941 6.9225H10.9594V10.3837H14.3941V6.9225Z" fill="#6633FF"/>
<path d="M14.3941 3.46125H10.9594V6.9225H14.3941V3.46125Z" fill="#6633FF"/>
<path d="M10.9594 34.6163H7.52469V38.0775L10.9594 38.0775V34.6163Z" fill="#6633FF"/>
<path d="M10.9594 31.155H7.52469V34.6163H10.9594V31.155Z" fill="#6633FF"/>
<path d="M10.9594 27.6937H7.52469V31.155H10.9594V27.6937Z" fill="#6633FF"/>
<path d="M10.9594 24.2325H7.52469V27.6937H10.9594V24.2325Z" fill="#6633FF"/>
<path d="M10.9594 20.7675H7.52469V24.2325H10.9594V20.7675Z" fill="#6633FF"/>
<path d="M10.9594 17.3063H7.52469V20.7675H10.9594V17.3063Z" fill="#6633FF"/>
<path d="M10.9594 13.845H7.52469V17.3063H10.9594V13.845Z" fill="#6633FF"/>
<path d="M10.9594 10.3837H7.52469V13.845H10.9594V10.3837Z" fill="#6633FF"/>
<path d="M10.9594 6.9225H7.52469V10.3837H10.9594V6.9225Z" fill="#6633FF"/>
<path d="M7.52469 38.0775L4.08993 38.0775V41.5387H7.52467L7.52469 38.0775Z" fill="#6633FF"/>
<path d="M7.52469 34.6163H4.08993V38.0775L7.52469 38.0775V34.6163Z" fill="#6633FF"/>
<path d="M7.52469 31.155H4.08993V34.6163H7.52469V31.155Z" fill="#6633FF"/>
<path d="M7.52469 27.6937H4.08993V31.155H7.52469V27.6937Z" fill="#6633FF"/>
<path d="M7.52469 24.2325H4.08993V27.6937H7.52469V24.2325Z" fill="#6633FF"/>
<path d="M7.52469 20.7675H4.08993V24.2325H7.52469V20.7675Z" fill="#6633FF"/>
<path d="M7.52469 17.3063H4.08993V20.7675H7.52469V17.3063Z" fill="#6633FF"/>
<path d="M7.52469 13.845H4.08993V17.3063H7.52469V13.845Z" fill="#6633FF"/>
<path d="M7.52469 10.3837H4.08993V13.845H7.52469V10.3837Z" fill="#6633FF"/>
<path d="M4.08993 41.5387H0.655212V45H4.08994L4.08993 41.5387Z" fill="#6633FF"/>
<path d="M4.08993 38.0775H0.655212V41.5387H4.08993V38.0775Z" fill="#6633FF"/>
<path d="M4.08993 34.6163H0.655212V38.0775H4.08993V34.6163Z" fill="#6633FF"/>
<path d="M4.08993 31.155H0.655212V34.6163H4.08993V31.155Z" fill="#6633FF"/>
<path d="M4.08993 27.6937H0.655212V31.155H4.08993V27.6937Z" fill="#6633FF"/>
<path d="M4.08993 24.2325H0.655212V27.6937H4.08993V24.2325Z" fill="#6633FF"/>
<path d="M4.08993 20.7675H0.655212V24.2325H4.08993V20.7675Z" fill="#6633FF"/>
<path d="M4.08993 17.3063H0.655212V20.7675H4.08993V17.3063Z" fill="#6633FF"/>
</svg>
