<svg width="46" height="45" viewBox="0 0 46 45" fill="none" xmlns="http://www.w3.org/2000/svg">
<path d="M45.6208 41.5387H42.1861V45H45.6208V41.5387Z" fill="#FF0900"/>
<path d="M45.6208 38.0775H42.1861V41.5387H45.6208V38.0775Z" fill="#FF0900"/>
<path d="M45.6208 34.6163H42.1861V38.0775H45.6208V34.6163Z" fill="#FF0900"/>
<path d="M45.6208 31.155H42.1861V34.6163H45.6208V31.155Z" fill="#FF0900"/>
<path d="M45.6208 27.6937H42.1861V31.155H45.6208V27.6937Z" fill="#FF0900"/>
<path d="M45.6208 24.2325H42.1861V27.6937H45.6208V24.2325Z" fill="#FF0900"/>
<path d="M45.6208 20.7675H42.1861V24.2325H45.6208V20.7675Z" fill="#FF0900"/>
<path d="M45.6208 17.3063H42.1861V20.7675H45.6208V17.3063Z" fill="#FF0900"/>
<path d="M42.1861 38.0775H38.7514V41.5387H42.1861V38.0775Z" fill="#FF0900"/>
<path d="M42.1861 34.6163H38.7514V38.0775H42.1861V34.6163Z" fill="#FF0900"/>
<path d="M42.1861 31.155H38.7514V34.6163H42.1861V31.155Z" fill="#FF0900"/>
<path d="M42.1861 27.6937H38.7514V31.155H42.1861V27.6937Z" fill="#FF0900"/>
<path d="M42.1861 24.2325H38.7514V27.6937H42.1861V24.2325Z" fill="white"/>
<path d="M42.1861 20.7675H38.7514V24.2325H42.1861V20.7675Z" fill="#6633FF"/>
<path d="M42.1861 17.3063H38.7514V20.7675H42.1861V17.3063Z" fill="#6633FF"/>
<path d="M42.1862 13.845H38.7514V17.3063H42.1861L42.1862 13.845Z" fill="white"/>
<path d="M42.1862 10.3837H38.7514V13.845H42.1862V10.3837Z" fill="#FF0900"/>
<path d="M38.7514 34.6163H35.3167V38.0775L38.7514 38.0775V34.6163Z" fill="#FF0900"/>
<path d="M38.7514 31.155H35.3167V34.6163H38.7514V31.155Z" fill="#FF0900"/>
<path d="M38.7514 27.6937H35.3167V31.155H38.7514V27.6937Z" fill="#FF0900"/>
<path d="M38.7514 24.2325H35.3167V27.6937H38.7514V24.2325Z" fill="white"/>
<path d="M38.7514 20.7675H35.3167V24.2325H38.7514V20.7675Z" fill="#6633FF"/>
<path d="M38.7514 17.3063H35.3167V20.7675H38.7514V17.3063Z" fill="#6633FF"/>
<path d="M38.7514 13.845H35.3167V17.3063H38.7514V13.845Z" fill="white"/>
<path d="M38.7514 10.3837H35.3167V13.845H38.7514V10.3837Z" fill="#FF0900"/>
<path d="M38.7514 6.9225H35.3167V10.3837H38.7514L38.7514 6.9225Z" fill="#FF0900"/>
<path d="M35.3167 38.0775L31.8819 38.0775V41.5387H35.3166L35.3167 38.0775Z" fill="#FF0900"/>
<path d="M35.3167 34.6163H31.8819V38.0775L35.3167 38.0775V34.6163Z" fill="#FF0900"/>
<path d="M35.3167 31.155H31.8819V34.6163H35.3167V31.155Z" fill="#FF0900"/>
<path d="M35.3167 27.6937H31.8819V31.155H35.3167V27.6937Z" fill="#FF0900"/>
<path d="M35.3167 24.2325H31.8819V27.6937H35.3167V24.2325Z" fill="#FF0900"/>
<path d="M35.3167 20.7675H31.8819V24.2325H35.3167V20.7675Z" fill="white"/>
<path d="M35.3167 17.3063H31.8819V20.7675H35.3167V17.3063Z" fill="white"/>
<path d="M35.3167 13.845H31.8819V17.3063H35.3167V13.845Z" fill="white"/>
<path d="M35.3167 10.3837H31.8819V13.845H35.3167V10.3837Z" fill="#FF0900"/>
<path d="M35.3167 6.9225H31.8819V10.3837H35.3167V6.9225Z" fill="#FF0900"/>
<path d="M35.3166 3.46125H31.8819V6.9225H35.3167L35.3166 3.46125Z" fill="#FF0900"/>
<path d="M31.8819 41.5387H28.4472V45H31.882L31.8819 41.5387Z" fill="#FF0900"/>
<path d="M31.8819 38.0775H28.4472V41.5387H31.8819V38.0775Z" fill="#FF0900"/>
<path d="M31.8819 34.6163H28.4472V38.0775H31.8819V34.6163Z" fill="#FF0900"/>
<path d="M31.8819 31.155H28.4472V34.6163H31.8819V31.155Z" fill="#FF0900"/>
<path d="M31.8819 27.6937H28.4472V31.155H31.8819V27.6937Z" fill="#FF0900"/>
<path d="M31.8819 24.2325H28.4472V27.6937H31.8819V24.2325Z" fill="#FF0900"/>
<path d="M31.8819 20.7675H28.4472V24.2325H31.8819V20.7675Z" fill="#FF0900"/>
<path d="M31.8819 17.3063H28.4472V20.7675H31.8819V17.3063Z" fill="#FF0900"/>
<path d="M31.8819 13.845H28.4472V17.3063H31.8819V13.845Z" fill="#FF0900"/>
<path d="M31.8819 10.3837H28.4472V13.845H31.8819V10.3837Z" fill="#FF0900"/>
<path d="M31.8819 6.9225H28.4472V10.3837H31.8819V6.9225Z" fill="#FF0900"/>
<path d="M31.8819 3.46125H28.4472V6.9225H31.8819V3.46125Z" fill="#FF0900"/>
<path d="M31.882 0H28.4472V3.46125H31.8819L31.882 0Z" fill="#FF0900"/>
<path d="M28.4472 38.0775H25.0125V41.5387H28.4472V38.0775Z" fill="#FF0900"/>
<path d="M28.4472 34.6163H25.0125V38.0775H28.4472V34.6163Z" fill="#FF0900"/>
<path d="M28.4472 31.155H25.0125V34.6163H28.4472V31.155Z" fill="#FF0900"/>
<path d="M28.4472 27.6937H25.0125V31.155H28.4472V27.6937Z" fill="#FF0900"/>
<path d="M28.4472 24.2325H25.0125V27.6937H28.4472V24.2325Z" fill="#FF0900"/>
<path d="M28.4472 20.7675H25.0125V24.2325H28.4472V20.7675Z" fill="#FF0900"/>
<path d="M28.4472 17.3063H25.0125V20.7675H28.4472V17.3063Z" fill="#FF0900"/>
<path d="M28.4472 13.845H25.0125V17.3063H28.4472V13.845Z" fill="#FF0900"/>
<path d="M28.4472 10.3837H25.0125V13.845H28.4472V10.3837Z" fill="#FF0900"/>
<path d="M28.4472 6.9225H25.0125V10.3837H28.4472V6.9225Z" fill="#FF0900"/>
<path d="M28.4472 3.46125H25.0125V6.9225H28.4472V3.46125Z" fill="#FF0900"/>
<path d="M28.4472 0H25.0125V3.46125H28.4472V0Z" fill="#FF0900"/>
<path d="M25.0125 34.6163H21.5777V38.0775L25.0125 38.0775V34.6163Z" fill="#FF0900"/>
<path d="M25.0125 31.155H21.5777V34.6163H25.0125V31.155Z" fill="#FF0900"/>
<path d="M25.0125 27.6937H21.5777V31.155H25.0125V27.6937Z" fill="#FF0900"/>
<path d="M25.0125 24.2325H21.5777V27.6937H25.0125V24.2325Z" fill="#FF0900"/>
<path d="M25.0125 20.7675H21.5777V24.2325H25.0125V20.7675Z" fill="#FF0900"/>
<path d="M25.0125 17.3063H21.5777V20.7675H25.0125V17.3063Z" fill="#FF0900"/>
<path d="M25.0125 13.845H21.5777V17.3063H25.0125V13.845Z" fill="#FF0900"/>
<path d="M25.0125 10.3837H21.5777V13.845H25.0125V10.3837Z" fill="#FF0900"/>
<path d="M25.0125 6.9225H21.5777V10.3837H25.0125V6.9225Z" fill="#FF0900"/>
<path d="M25.0125 3.46125H21.5777V6.9225H25.0125V3.46125Z" fill="#FF0900"/>
<path d="M25.0125 0H21.5777V3.46125H25.0125V0Z" fill="#FF0900"/>
<path d="M21.5777 38.0775L18.143 38.0775V41.5387H21.5778L21.5777 38.0775Z" fill="#FF0900"/>
<path d="M21.5777 34.6163H18.143V38.0775L21.5777 38.0775V34.6163Z" fill="#FF0900"/>
<path d="M21.5777 31.155H18.143V34.6163H21.5777V31.155Z" fill="#FF0900"/>
<path d="M21.5777 27.6937H18.143V31.155H21.5777V27.6937Z" fill="#FF0900"/>
<path d="M21.5777 24.2325H18.143V27.6937H21.5777V24.2325Z" fill="white"/>
<path d="M21.5777 20.7675H18.143V24.2325H21.5777V20.7675Z" fill="#6633FF"/>
<path d="M21.5777 17.3063H18.143V20.7675H21.5777V17.3063Z" fill="#6633FF"/>
<path d="M21.5777 13.845H18.143V17.3063H21.5777V13.845Z" fill="white"/>
<path d="M21.5777 10.3837H18.143V13.845H21.5777V10.3837Z" fill="#FF0900"/>
<path d="M21.5777 6.9225H18.143V10.3837H21.5777V6.9225Z" fill="#FF0900"/>
<path d="M21.5777 3.46125H18.143V6.9225H21.5777V3.46125Z" fill="#FF0900"/>
<path d="M21.5777 0H18.143V3.46125H21.5777V0Z" fill="#FF0900"/>
<path d="M18.143 41.5387H14.7046V45H18.143L18.143 41.5387Z" fill="#FF0900"/>
<path d="M18.143 38.0775H14.7046V41.5387H18.143V38.0775Z" fill="#FF0900"/>
<path d="M18.143 34.6163H14.7046V38.0775H18.143V34.6163Z" fill="#FF0900"/>
<path d="M18.143 31.155H14.7046V34.6163H18.143V31.155Z" fill="#FF0900"/>
<path d="M18.143 27.6937H14.7046V31.155H18.143V27.6937Z" fill="#FF0900"/>
<path d="M18.143 24.2325H14.7046V27.6937H18.143V24.2325Z" fill="white"/>
<path d="M18.143 20.7675H14.7046V24.2325H18.143V20.7675Z" fill="#6633FF"/>
<path d="M18.143 17.3063H14.7046V20.7675H18.143V17.3063Z" fill="#6633FF"/>
<path d="M18.143 13.845H14.7046V17.3063H18.143V13.845Z" fill="white"/>
<path d="M18.143 10.3837H14.7046V13.845H18.143V10.3837Z" fill="#FF0900"/>
<path d="M18.143 6.9225H14.7046V10.3837H18.143V6.9225Z" fill="#FF0900"/>
<path d="M18.143 3.46125H14.7046V6.9225H18.143V3.46125Z" fill="#FF0900"/>
<path d="M18.143 0H14.7046V3.46125H18.143V0Z" fill="#FF0900"/>
<path d="M14.7046 38.0775H11.2698V41.5387H14.7046V38.0775Z" fill="#FF0900"/>
<path d="M14.7046 34.6163H11.2698V38.0775H14.7046V34.6163Z" fill="#FF0900"/>
<path d="M14.7046 31.155H11.2698V34.6163H14.7046V31.155Z" fill="#FF0900"/>
<path d="M14.7046 27.6937H11.2698V31.155H14.7046V27.6937Z" fill="#FF0900"/>
<path d="M14.7046 24.2325H11.2698V27.6937H14.7046V24.2325Z" fill="#FF0900"/>
<path d="M14.7046 20.7675H11.2698V24.2325H14.7046V20.7675Z" fill="white"/>
<path d="M14.7046 17.3063H11.2698V20.7675H14.7046V17.3063Z" fill="white"/>
<path d="M14.7046 13.845H11.2698V17.3063H14.7046V13.845Z" fill="white"/>
<path d="M14.7046 10.3837H11.2698V13.845H14.7046V10.3837Z" fill="#FF0900"/>
<path d="M14.7046 6.9225H11.2698V10.3837H14.7046V6.9225Z" fill="#FF0900"/>
<path d="M14.7046 3.46125H11.2698V6.9225H14.7046V3.46125Z" fill="#FF0900"/>
<path d="M11.2698 34.6163H7.83507V38.0775L11.2698 38.0775V34.6163Z" fill="#FF0900"/>
<path d="M11.2698 31.155H7.83507V34.6163H11.2698V31.155Z" fill="#FF0900"/>
<path d="M11.2698 27.6937H7.83507V31.155H11.2698V27.6937Z" fill="#FF0900"/>
<path d="M11.2698 24.2325H7.83507V27.6937H11.2698V24.2325Z" fill="#FF0900"/>
<path d="M11.2698 20.7675H7.83507V24.2325H11.2698V20.7675Z" fill="#FF0900"/>
<path d="M11.2698 17.3063H7.83507V20.7675H11.2698V17.3063Z" fill="#FF0900"/>
<path d="M11.2698 13.845H7.83507V17.3063H11.2698V13.845Z" fill="#FF0900"/>
<path d="M11.2698 10.3837H7.83507V13.845H11.2698V10.3837Z" fill="#FF0900"/>
<path d="M11.2698 6.9225H7.83507V10.3837H11.2698V6.9225Z" fill="#FF0900"/>
<path d="M7.83507 38.0775L4.40036 38.0775V41.5387H7.83508L7.83507 38.0775Z" fill="#FF0900"/>
<path d="M7.83507 34.6163H4.40036V38.0775L7.83507 38.0775V34.6163Z" fill="#FF0900"/>
<path d="M7.83507 31.155H4.40036V34.6163H7.83507V31.155Z" fill="#FF0900"/>
<path d="M7.83507 27.6937H4.40036V31.155H7.83507V27.6937Z" fill="#FF0900"/>
<path d="M7.83507 24.2325H4.40036V27.6937H7.83507V24.2325Z" fill="#FF0900"/>
<path d="M7.83507 20.7675H4.40036V24.2325H7.83507V20.7675Z" fill="#FF0900"/>
<path d="M7.83507 17.3063H4.40036V20.7675H7.83507V17.3063Z" fill="#FF0900"/>
<path d="M7.83507 13.845H4.40036V17.3063H7.83507V13.845Z" fill="#FF0900"/>
<path d="M7.83507 10.3837H4.40036V13.845H7.83507V10.3837Z" fill="#FF0900"/>
<path d="M4.40036 41.5387H0.965637V45H4.40036L4.40036 41.5387Z" fill="#FF0900"/>
<path d="M4.40036 38.0775H0.965637V41.5387H4.40036V38.0775Z" fill="#FF0900"/>
<path d="M4.40036 34.6163H0.965637V38.0775H4.40036V34.6163Z" fill="#FF0900"/>
<path d="M4.40036 31.155H0.965637V34.6163H4.40036V31.155Z" fill="#FF0900"/>
<path d="M4.40036 27.6937H0.965637V31.155H4.40036V27.6937Z" fill="#FF0900"/>
<path d="M4.40036 24.2325H0.965637V27.6937H4.40036V24.2325Z" fill="#FF0900"/>
<path d="M4.40036 20.7675H0.965637V24.2325H4.40036V20.7675Z" fill="#FF0900"/>
<path d="M4.40036 17.3063H0.965637V20.7675H4.40036V17.3063Z" fill="#FF0900"/>
</svg>
