<svg width="45" height="45" viewBox="0 0 45 45" fill="none" xmlns="http://www.w3.org/2000/svg">
<path d="M44.9656 41.5387H41.5309V45H44.9656V41.5387Z" fill="#FBBF00"/>
<path d="M44.9656 38.0775H41.5309V41.5387H44.9656V38.0775Z" fill="#FBBF00"/>
<path d="M44.9656 34.6163H41.5309V38.0775H44.9656V34.6163Z" fill="#FBBF00"/>
<path d="M44.9656 31.155H41.5309V34.6163H44.9656V31.155Z" fill="#FBBF00"/>
<path d="M44.9656 27.6937H41.5309V31.155H44.9656V27.6937Z" fill="#FBBF00"/>
<path d="M44.9656 24.2325H41.5309V27.6937H44.9656V24.2325Z" fill="#FBBF00"/>
<path d="M44.9656 20.7675H41.5309V24.2325H44.9656V20.7675Z" fill="#FBBF00"/>
<path d="M44.9656 17.3063H41.5309V20.7675H44.9656V17.3063Z" fill="#FBBF00"/>
<path d="M41.5309 38.0775H38.0962V41.5387H41.5309V38.0775Z" fill="#FBBF00"/>
<path d="M41.5309 34.6163H38.0962V38.0775H41.5309V34.6163Z" fill="#FBBF00"/>
<path d="M41.5309 31.155H38.0962V34.6163H41.5309V31.155Z" fill="#FBBF00"/>
<path d="M41.5309 27.6937H38.0962V31.155H41.5309V27.6937Z" fill="#FBBF00"/>
<path d="M41.5309 24.2325H38.0962V27.6937H41.5309V24.2325Z" fill="white"/>
<path d="M41.5309 20.7675H38.0962V24.2325H41.5309V20.7675Z" fill="#6633FF"/>
<path d="M41.5309 17.3063H38.0962V20.7675H41.5309V17.3063Z" fill="#6633FF"/>
<path d="M41.5309 13.845H38.0962V17.3063H41.5309L41.5309 13.845Z" fill="white"/>
<path d="M41.5309 10.3837H38.0962V13.845H41.5309V10.3837Z" fill="#FBBF00"/>
<path d="M38.0962 34.6163H34.6615V38.0775L38.0962 38.0775V34.6163Z" fill="#FBBF00"/>
<path d="M38.0962 31.155H34.6615V34.6163H38.0962V31.155Z" fill="#FBBF00"/>
<path d="M38.0962 27.6937H34.6615V31.155H38.0962V27.6937Z" fill="#FBBF00"/>
<path d="M38.0962 24.2325H34.6615V27.6937H38.0962V24.2325Z" fill="white"/>
<path d="M38.0962 20.7675H34.6615V24.2325H38.0962V20.7675Z" fill="#6633FF"/>
<path d="M38.0962 17.3063H34.6615V20.7675H38.0962V17.3063Z" fill="#6633FF"/>
<path d="M38.0962 13.845H34.6615V17.3063H38.0962V13.845Z" fill="white"/>
<path d="M38.0962 10.3837H34.6615V13.845H38.0962V10.3837Z" fill="#FBBF00"/>
<path d="M38.0962 6.9225H34.6615V10.3837H38.0962L38.0962 6.9225Z" fill="#FBBF00"/>
<path d="M34.6615 38.0775L31.2267 38.0775V41.5387H34.6614L34.6615 38.0775Z" fill="#FBBF00"/>
<path d="M34.6615 34.6163H31.2267V38.0775L34.6615 38.0775V34.6163Z" fill="#FBBF00"/>
<path d="M34.6615 31.155H31.2267V34.6163H34.6615V31.155Z" fill="#FBBF00"/>
<path d="M34.6615 27.6937H31.2267V31.155H34.6615V27.6937Z" fill="#FBBF00"/>
<path d="M34.6615 24.2325H31.2267V27.6937H34.6615V24.2325Z" fill="#FBBF00"/>
<path d="M34.6615 20.7675H31.2267V24.2325H34.6615V20.7675Z" fill="white"/>
<path d="M34.6615 17.3063H31.2267V20.7675H34.6615V17.3063Z" fill="white"/>
<path d="M34.6615 13.845H31.2267V17.3063H34.6615V13.845Z" fill="white"/>
<path d="M34.6615 10.3837H31.2267V13.845H34.6615V10.3837Z" fill="#FBBF00"/>
<path d="M34.6615 6.9225H31.2267V10.3837H34.6615V6.9225Z" fill="#FBBF00"/>
<path d="M34.6614 3.46125H31.2267V6.9225H34.6615L34.6614 3.46125Z" fill="#FBBF00"/>
<path d="M31.2267 41.5387H27.792V45H31.2267L31.2267 41.5387Z" fill="#FBBF00"/>
<path d="M31.2267 38.0775H27.792V41.5387H31.2267V38.0775Z" fill="#FBBF00"/>
<path d="M31.2267 34.6163H27.792V38.0775H31.2267V34.6163Z" fill="#FBBF00"/>
<path d="M31.2267 31.155H27.792V34.6163H31.2267V31.155Z" fill="#FBBF00"/>
<path d="M31.2267 27.6937H27.792V31.155H31.2267V27.6937Z" fill="#FBBF00"/>
<path d="M31.2267 24.2325H27.792V27.6937H31.2267V24.2325Z" fill="#FBBF00"/>
<path d="M31.2267 20.7675H27.792V24.2325H31.2267V20.7675Z" fill="#FBBF00"/>
<path d="M31.2267 17.3063H27.792V20.7675H31.2267V17.3063Z" fill="#FBBF00"/>
<path d="M31.2267 13.845H27.792V17.3063H31.2267V13.845Z" fill="#FBBF00"/>
<path d="M31.2267 10.3837H27.792V13.845H31.2267V10.3837Z" fill="#FBBF00"/>
<path d="M31.2267 6.9225H27.792V10.3837H31.2267V6.9225Z" fill="#FBBF00"/>
<path d="M31.2267 3.46125H27.792V6.9225H31.2267V3.46125Z" fill="#FBBF00"/>
<path d="M31.2267 0H27.792V3.46125H31.2267L31.2267 0Z" fill="#FBBF00"/>
<path d="M27.792 38.0775H24.3573V41.5387H27.792V38.0775Z" fill="#FBBF00"/>
<path d="M27.792 34.6163H24.3573V38.0775H27.792V34.6163Z" fill="#FBBF00"/>
<path d="M27.792 31.155H24.3573V34.6163H27.792V31.155Z" fill="#FBBF00"/>
<path d="M27.792 27.6937H24.3573V31.155H27.792V27.6937Z" fill="#FBBF00"/>
<path d="M27.792 24.2325H24.3573V27.6937H27.792V24.2325Z" fill="#FBBF00"/>
<path d="M27.792 20.7675H24.3573V24.2325H27.792V20.7675Z" fill="#FBBF00"/>
<path d="M27.792 17.3063H24.3573V20.7675H27.792V17.3063Z" fill="#FBBF00"/>
<path d="M27.792 13.845H24.3573V17.3063H27.792V13.845Z" fill="#FBBF00"/>
<path d="M27.792 10.3837H24.3573V13.845H27.792V10.3837Z" fill="#FBBF00"/>
<path d="M27.792 6.9225H24.3573V10.3837H27.792V6.9225Z" fill="#FBBF00"/>
<path d="M27.792 3.46125H24.3573V6.9225H27.792V3.46125Z" fill="#FBBF00"/>
<path d="M27.792 0H24.3573V3.46125H27.792V0Z" fill="#FBBF00"/>
<path d="M24.3573 34.6163H20.9226V38.0775L24.3573 38.0775V34.6163Z" fill="#FBBF00"/>
<path d="M24.3573 31.155H20.9226V34.6163H24.3573V31.155Z" fill="#FBBF00"/>
<path d="M24.3573 27.6937H20.9226V31.155H24.3573V27.6937Z" fill="#FBBF00"/>
<path d="M24.3573 24.2325H20.9226V27.6937H24.3573V24.2325Z" fill="#FBBF00"/>
<path d="M24.3573 20.7675H20.9226V24.2325H24.3573V20.7675Z" fill="#FBBF00"/>
<path d="M24.3573 17.3063H20.9226V20.7675H24.3573V17.3063Z" fill="#FBBF00"/>
<path d="M24.3573 13.845H20.9226V17.3063H24.3573V13.845Z" fill="#FBBF00"/>
<path d="M24.3573 10.3837H20.9226V13.845H24.3573V10.3837Z" fill="#FBBF00"/>
<path d="M24.3573 6.9225H20.9226V10.3837H24.3573V6.9225Z" fill="#FBBF00"/>
<path d="M24.3573 3.46125H20.9226V6.9225H24.3573V3.46125Z" fill="#FBBF00"/>
<path d="M24.3573 0H20.9226V3.46125H24.3573V0Z" fill="#FBBF00"/>
<path d="M20.9226 38.0775L17.4878 38.0775V41.5387H20.9225L20.9226 38.0775Z" fill="#FBBF00"/>
<path d="M20.9226 34.6163H17.4878V38.0775L20.9226 38.0775V34.6163Z" fill="#FBBF00"/>
<path d="M20.9226 31.155H17.4878V34.6163H20.9226V31.155Z" fill="#FBBF00"/>
<path d="M20.9226 27.6937H17.4878V31.155H20.9226V27.6937Z" fill="#FBBF00"/>
<path d="M20.9226 24.2325H17.4878V27.6937H20.9226V24.2325Z" fill="white"/>
<path d="M20.9226 20.7675H17.4878V24.2325H20.9226V20.7675Z" fill="#6633FF"/>
<path d="M20.9226 17.3063H17.4878V20.7675H20.9226V17.3063Z" fill="#6633FF"/>
<path d="M20.9226 13.845H17.4878V17.3063H20.9226V13.845Z" fill="white"/>
<path d="M20.9226 10.3837H17.4878V13.845H20.9226V10.3837Z" fill="#FBBF00"/>
<path d="M20.9226 6.9225H17.4878V10.3837H20.9226V6.9225Z" fill="#FBBF00"/>
<path d="M20.9226 3.46125H17.4878V6.9225H20.9226V3.46125Z" fill="#FBBF00"/>
<path d="M20.9226 0H17.4878V3.46125H20.9226V0Z" fill="#FBBF00"/>
<path d="M17.4878 41.5387H14.0493V45H17.4878L17.4878 41.5387Z" fill="#FBBF00"/>
<path d="M17.4878 38.0775H14.0493V41.5387H17.4878V38.0775Z" fill="#FBBF00"/>
<path d="M17.4878 34.6163H14.0493V38.0775H17.4878V34.6163Z" fill="#FBBF00"/>
<path d="M17.4878 31.155H14.0493V34.6163H17.4878V31.155Z" fill="#FBBF00"/>
<path d="M17.4878 27.6937H14.0493V31.155H17.4878V27.6937Z" fill="#FBBF00"/>
<path d="M17.4878 24.2325H14.0493V27.6937H17.4878V24.2325Z" fill="white"/>
<path d="M17.4878 20.7675H14.0493V24.2325H17.4878V20.7675Z" fill="#6633FF"/>
<path d="M17.4878 17.3063H14.0493V20.7675H17.4878V17.3063Z" fill="#6633FF"/>
<path d="M17.4878 13.845H14.0493V17.3063H17.4878V13.845Z" fill="white"/>
<path d="M17.4878 10.3837H14.0493V13.845H17.4878V10.3837Z" fill="#FBBF00"/>
<path d="M17.4878 6.9225H14.0493V10.3837H17.4878V6.9225Z" fill="#FBBF00"/>
<path d="M17.4878 3.46125H14.0493V6.9225H17.4878V3.46125Z" fill="#FBBF00"/>
<path d="M17.4878 0H14.0493V3.46125H17.4878V0Z" fill="#FBBF00"/>
<path d="M14.0493 38.0775H10.6146V41.5387H14.0493V38.0775Z" fill="#FBBF00"/>
<path d="M14.0493 34.6163H10.6146V38.0775H14.0493V34.6163Z" fill="#FBBF00"/>
<path d="M14.0493 31.155H10.6146V34.6163H14.0493V31.155Z" fill="#FBBF00"/>
<path d="M14.0493 27.6937H10.6146V31.155H14.0493V27.6937Z" fill="#FBBF00"/>
<path d="M14.0493 24.2325H10.6146V27.6937H14.0493V24.2325Z" fill="#FBBF00"/>
<path d="M14.0493 20.7675H10.6146V24.2325H14.0493V20.7675Z" fill="white"/>
<path d="M14.0493 17.3063H10.6146V20.7675H14.0493V17.3063Z" fill="white"/>
<path d="M14.0493 13.845H10.6146V17.3063H14.0493V13.845Z" fill="white"/>
<path d="M14.0493 10.3837H10.6146V13.845H14.0493V10.3837Z" fill="#FBBF00"/>
<path d="M14.0493 6.9225H10.6146V10.3837H14.0493V6.9225Z" fill="#FBBF00"/>
<path d="M14.0493 3.46125H10.6146V6.9225H14.0493V3.46125Z" fill="#FBBF00"/>
<path d="M10.6146 34.6163H7.17986V38.0775L10.6146 38.0775V34.6163Z" fill="#FBBF00"/>
<path d="M10.6146 31.155H7.17986V34.6163H10.6146V31.155Z" fill="#FBBF00"/>
<path d="M10.6146 27.6937H7.17986V31.155H10.6146V27.6937Z" fill="#FBBF00"/>
<path d="M10.6146 24.2325H7.17986V27.6937H10.6146V24.2325Z" fill="#FBBF00"/>
<path d="M10.6146 20.7675H7.17986V24.2325H10.6146V20.7675Z" fill="#FBBF00"/>
<path d="M10.6146 17.3063H7.17986V20.7675H10.6146V17.3063Z" fill="#FBBF00"/>
<path d="M10.6146 13.845H7.17986V17.3063H10.6146V13.845Z" fill="#FBBF00"/>
<path d="M10.6146 10.3837H7.17986V13.845H10.6146V10.3837Z" fill="#FBBF00"/>
<path d="M10.6146 6.9225H7.17986V10.3837H10.6146V6.9225Z" fill="#FBBF00"/>
<path d="M7.17986 38.0775L3.74514 38.0775V41.5387H7.17987L7.17986 38.0775Z" fill="#FBBF00"/>
<path d="M7.17986 34.6163H3.74514V38.0775L7.17986 38.0775V34.6163Z" fill="#FBBF00"/>
<path d="M7.17986 31.155H3.74514V34.6163H7.17986V31.155Z" fill="#FBBF00"/>
<path d="M7.17986 27.6937H3.74514V31.155H7.17986V27.6937Z" fill="#FBBF00"/>
<path d="M7.17986 24.2325H3.74514V27.6937H7.17986V24.2325Z" fill="#FBBF00"/>
<path d="M7.17986 20.7675H3.74514V24.2325H7.17986V20.7675Z" fill="#FBBF00"/>
<path d="M7.17986 17.3063H3.74514V20.7675H7.17986V17.3063Z" fill="#FBBF00"/>
<path d="M7.17986 13.845H3.74514V17.3063H7.17986V13.845Z" fill="#FBBF00"/>
<path d="M7.17986 10.3837H3.74514V13.845H7.17986V10.3837Z" fill="#FBBF00"/>
<path d="M3.74514 41.5387H0.310425V45H3.74516L3.74514 41.5387Z" fill="#FBBF00"/>
<path d="M3.74514 38.0775H0.310425V41.5387H3.74514V38.0775Z" fill="#FBBF00"/>
<path d="M3.74514 34.6163H0.310425V38.0775H3.74514V34.6163Z" fill="#FBBF00"/>
<path d="M3.74514 31.155H0.310425V34.6163H3.74514V31.155Z" fill="#FBBF00"/>
<path d="M3.74514 27.6937H0.310425V31.155H3.74514V27.6937Z" fill="#FBBF00"/>
<path d="M3.74514 24.2325H0.310425V27.6937H3.74514V24.2325Z" fill="#FBBF00"/>
<path d="M3.74514 20.7675H0.310425V24.2325H3.74514V20.7675Z" fill="#FBBF00"/>
<path d="M3.74514 17.3063H0.310425V20.7675H3.74514V17.3063Z" fill="#FBBF00"/>
</svg>
