<svg width="130" height="96" viewBox="0 0 130 96" fill="none" xmlns="http://www.w3.org/2000/svg">
<path d="M129.004 120.001H119.081V130H129.004V120.001Z" fill="#6633FF"/>
<path d="M129.004 110.002H119.081V120.001H129.004V110.002Z" fill="#6633FF"/>
<path d="M129.004 100.003H119.081V110.002H129.004V100.003Z" fill="#6633FF"/>
<path d="M129.004 90.0033H119.081V100.003H129.004V90.0033Z" fill="#6633FF"/>
<path d="M129.004 80.0042H119.081V90.0033H129.004V80.0042Z" fill="#6633FF"/>
<path d="M129.004 70.005H119.081V80.0042H129.004V70.005Z" fill="#6633FF"/>
<path d="M129.004 59.995H119.081V70.005H129.004V59.995Z" fill="#6633FF"/>
<path d="M129.004 49.9958H119.081V59.995H129.004V49.9958Z" fill="#6633FF"/>
<path d="M119.081 110.002H109.159V120.001H119.081V110.002Z" fill="#6633FF"/>
<path d="M119.081 100.003H109.159V110.002H119.081V100.003Z" fill="#6633FF"/>
<path d="M119.081 90.0033H109.159V100.003H119.081V90.0033Z" fill="#6633FF"/>
<path d="M119.081 80.0042H109.159V90.0033H119.081V80.0042Z" fill="#6633FF"/>
<path d="M119.081 70.005H109.159V80.0042H119.081V70.005Z" fill="white"/>
<path d="M119.081 59.995H109.159V70.005H119.081V59.995Z" fill="#6633FF"/>
<path d="M119.081 49.9958H109.159V59.995H119.081V49.9958Z" fill="#6633FF"/>
<path d="M119.081 39.9966H109.159V49.9958H119.081L119.081 39.9966Z" fill="white"/>
<path d="M119.081 29.9975H109.159V39.9966H119.081V29.9975Z" fill="#6633FF"/>
<path d="M109.159 100.003H99.2364V110.002L109.159 110.002V100.003Z" fill="#6633FF"/>
<path d="M109.159 90.0033H99.2364V100.003H109.159V90.0033Z" fill="#6633FF"/>
<path d="M109.159 80.0042H99.2364V90.0033H109.159V80.0042Z" fill="#6633FF"/>
<path d="M109.159 70.005H99.2364V80.0042H109.159V70.005Z" fill="white"/>
<path d="M109.159 59.995H99.2364V70.005H109.159V59.995Z" fill="#6633FF"/>
<path d="M109.159 49.9958H99.2364V59.995H109.159V49.9958Z" fill="#6633FF"/>
<path d="M109.159 39.9966H99.2364V49.9958H109.159V39.9966Z" fill="white"/>
<path d="M109.159 29.9975H99.2364V39.9966H109.159V29.9975Z" fill="#6633FF"/>
<path d="M109.159 19.9983H99.2364V29.9975H109.159L109.159 19.9983Z" fill="#6633FF"/>
<path d="M99.2364 110.002L89.3137 110.002V120.001H99.2363L99.2364 110.002Z" fill="#6633FF"/>
<path d="M99.2364 100.003H89.3137V110.002L99.2364 110.002V100.003Z" fill="#6633FF"/>
<path d="M99.2364 90.0033H89.3137V100.003H99.2364V90.0033Z" fill="#6633FF"/>
<path d="M99.2364 80.0042H89.3137V90.0033H99.2364V80.0042Z" fill="#6633FF"/>
<path d="M99.2364 70.005H89.3137V80.0042H99.2364V70.005Z" fill="#6633FF"/>
<path d="M99.2364 59.995H89.3137V70.005H99.2364V59.995Z" fill="white"/>
<path d="M99.2364 49.9958H89.3137V59.995H99.2364V49.9958Z" fill="white"/>
<path d="M99.2364 39.9966H89.3137V49.9958H99.2364V39.9966Z" fill="white"/>
<path d="M99.2364 29.9975H89.3137V39.9966H99.2364V29.9975Z" fill="#6633FF"/>
<path d="M99.2364 19.9983H89.3137V29.9975H99.2364V19.9983Z" fill="#6633FF"/>
<path d="M99.2363 9.99916H89.3137V19.9983H99.2364L99.2363 9.99916Z" fill="#6633FF"/>
<path d="M89.3137 120.001H79.3912V130H89.3137L89.3137 120.001Z" fill="#6633FF"/>
<path d="M89.3137 110.002H79.3912V120.001H89.3137V110.002Z" fill="#6633FF"/>
<path d="M89.3137 100.003H79.3912V110.002H89.3137V100.003Z" fill="#6633FF"/>
<path d="M89.3137 90.0033H79.3912V100.003H89.3137V90.0033Z" fill="#6633FF"/>
<path d="M89.3137 80.0042H79.3912V90.0033H89.3137V80.0042Z" fill="#6633FF"/>
<path d="M89.3137 70.005H79.3912V80.0042H89.3137V70.005Z" fill="#6633FF"/>
<path d="M89.3137 59.995H79.3912V70.005H89.3137V59.995Z" fill="#6633FF"/>
<path d="M89.3137 49.9958H79.3912V59.995H89.3137V49.9958Z" fill="#6633FF"/>
<path d="M89.3137 39.9966H79.3912V49.9958H89.3137V39.9966Z" fill="#6633FF"/>
<path d="M89.3137 29.9975H79.3912V39.9966H89.3137V29.9975Z" fill="#6633FF"/>
<path d="M89.3137 19.9983H79.3912V29.9975H89.3137V19.9983Z" fill="#6633FF"/>
<path d="M89.3137 9.99916H79.3912V19.9983H89.3137V9.99916Z" fill="#6633FF"/>
<path d="M89.3137 0H79.3912V9.99916H89.3137L89.3137 0Z" fill="#6633FF"/>
<path d="M79.3912 120.001H69.4687V130H79.3912V120.001Z" fill="#6633FF"/>
<path d="M79.3912 110.002H69.4687V120.001H79.3912V110.002Z" fill="#6633FF"/>
<path d="M79.3912 100.003H69.4687V110.002H79.3912V100.003Z" fill="#6633FF"/>
<path d="M79.3912 90.0033H69.4687V100.003H79.3912V90.0033Z" fill="#6633FF"/>
<path d="M79.3912 80.0042H69.4687V90.0033H79.3912V80.0042Z" fill="#6633FF"/>
<path d="M79.3912 70.005H69.4687V80.0042H79.3912V70.005Z" fill="#6633FF"/>
<path d="M79.3912 59.995H69.4687V70.005H79.3912V59.995Z" fill="#6633FF"/>
<path d="M79.3912 49.9958H69.4687V59.995H79.3912V49.9958Z" fill="#6633FF"/>
<path d="M79.3912 39.9966H69.4687V49.9958H79.3912V39.9966Z" fill="#6633FF"/>
<path d="M79.3912 29.9975H69.4687V39.9966H79.3912V29.9975Z" fill="#6633FF"/>
<path d="M79.3912 19.9983H69.4687V29.9975H79.3912V19.9983Z" fill="#6633FF"/>
<path d="M79.3912 9.99916H69.4687V19.9983H79.3912V9.99916Z" fill="#6633FF"/>
<path d="M79.3912 0H69.4687V9.99916H79.3912V0Z" fill="#6633FF"/>
<path d="M69.4687 100.003H59.546V110.002L69.4687 110.002V100.003Z" fill="#6633FF"/>
<path d="M69.4687 90.0033H59.546V100.003H69.4687V90.0033Z" fill="#6633FF"/>
<path d="M69.4687 80.0042H59.546V90.0033H69.4687V80.0042Z" fill="#6633FF"/>
<path d="M69.4687 70.005H59.546V80.0042H69.4687V70.005Z" fill="#6633FF"/>
<path d="M69.4687 59.995H59.546V70.005H69.4687V59.995Z" fill="#6633FF"/>
<path d="M69.4687 49.9958H59.546V59.995H69.4687V49.9958Z" fill="#6633FF"/>
<path d="M69.4687 39.9966H59.546V49.9958H69.4687V39.9966Z" fill="#6633FF"/>
<path d="M69.4687 29.9975H59.546V39.9966H69.4687V29.9975Z" fill="#6633FF"/>
<path d="M69.4687 19.9983H59.546V29.9975H69.4687V19.9983Z" fill="#6633FF"/>
<path d="M69.4687 9.99916H59.546V19.9983H69.4687V9.99916Z" fill="#6633FF"/>
<path d="M69.4687 0H59.546V9.99916H69.4687V0Z" fill="#6633FF"/>
<path d="M59.546 110.002L49.6235 110.002V120.001H59.5461L59.546 110.002Z" fill="#6633FF"/>
<path d="M59.546 100.003H49.6235V110.002L59.546 110.002V100.003Z" fill="#6633FF"/>
<path d="M59.546 90.0033H49.6235V100.003H59.546V90.0033Z" fill="#6633FF"/>
<path d="M59.546 80.0042H49.6235V90.0033H59.546V80.0042Z" fill="#6633FF"/>
<path d="M59.546 70.005H49.6235V80.0042H59.546V70.005Z" fill="white"/>
<path d="M59.546 59.995H49.6235V70.005H59.546V59.995Z" fill="#6633FF"/>
<path d="M59.546 49.9958H49.6235V59.995H59.546V49.9958Z" fill="#6633FF"/>
<path d="M59.546 39.9966H49.6235V49.9958H59.546V39.9966Z" fill="white"/>
<path d="M59.546 29.9975H49.6235V39.9966H59.546V29.9975Z" fill="#6633FF"/>
<path d="M59.546 19.9983H49.6235V29.9975H59.546V19.9983Z" fill="#6633FF"/>
<path d="M59.546 9.99916H49.6235V19.9983H59.546V9.99916Z" fill="#6633FF"/>
<path d="M59.546 0H49.6235V9.99916H59.546V0Z" fill="#6633FF"/>
<path d="M49.6235 120.001H39.6902V130H49.6235L49.6235 120.001Z" fill="#6633FF"/>
<path d="M49.6235 110.002H39.6902V120.001H49.6235V110.002Z" fill="#6633FF"/>
<path d="M49.6235 100.003H39.6902V110.002H49.6235V100.003Z" fill="#6633FF"/>
<path d="M49.6235 90.0033H39.6902V100.003H49.6235V90.0033Z" fill="#6633FF"/>
<path d="M49.6235 80.0042H39.6902V90.0033H49.6235V80.0042Z" fill="#6633FF"/>
<path d="M49.6235 70.005H39.6902V80.0042H49.6235V70.005Z" fill="white"/>
<path d="M49.6235 59.995H39.6902V70.005H49.6235V59.995Z" fill="#6633FF"/>
<path d="M49.6235 49.9958H39.6902V59.995H49.6235V49.9958Z" fill="#6633FF"/>
<path d="M49.6235 39.9966H39.6902V49.9958H49.6235V39.9966Z" fill="white"/>
<path d="M49.6235 29.9975H39.6902V39.9966H49.6235V29.9975Z" fill="#6633FF"/>
<path d="M49.6235 19.9983H39.6902V29.9975H49.6235V19.9983Z" fill="#6633FF"/>
<path d="M49.6235 9.99916H39.6902V19.9983H49.6235V9.99916Z" fill="#6633FF"/>
<path d="M49.6235 0H39.6902V9.99916H49.6235V0Z" fill="#6633FF"/>
<path d="M39.6902 110.002H29.7677V120.001H39.6902V110.002Z" fill="#6633FF"/>
<path d="M39.6902 100.003H29.7677V110.002H39.6902V100.003Z" fill="#6633FF"/>
<path d="M39.6902 90.0033H29.7677V100.003H39.6902V90.0033Z" fill="#6633FF"/>
<path d="M39.6902 80.0042H29.7677V90.0033H39.6902V80.0042Z" fill="#6633FF"/>
<path d="M39.6902 70.005H29.7677V80.0042H39.6902V70.005Z" fill="#6633FF"/>
<path d="M39.6902 59.995H29.7677V70.005H39.6902V59.995Z" fill="white"/>
<path d="M39.6902 49.9958H29.7677V59.995H39.6902V49.9958Z" fill="white"/>
<path d="M39.6902 39.9966H29.7677V49.9958H39.6902V39.9966Z" fill="white"/>
<path d="M39.6902 29.9975H29.7677V39.9966H39.6902V29.9975Z" fill="#6633FF"/>
<path d="M39.6902 19.9983H29.7677V29.9975H39.6902V19.9983Z" fill="#6633FF"/>
<path d="M39.6902 9.99916H29.7677V19.9983H39.6902V9.99916Z" fill="#6633FF"/>
<path d="M29.7677 100.003H19.8452V110.002L29.7677 110.002V100.003Z" fill="#6633FF"/>
<path d="M29.7677 90.0033H19.8452V100.003H29.7677V90.0033Z" fill="#6633FF"/>
<path d="M29.7677 80.0042H19.8452V90.0033H29.7677V80.0042Z" fill="#6633FF"/>
<path d="M29.7677 70.005H19.8452V80.0042H29.7677V70.005Z" fill="#6633FF"/>
<path d="M29.7677 59.995H19.8452V70.005H29.7677V59.995Z" fill="#6633FF"/>
<path d="M29.7677 49.9958H19.8452V59.995H29.7677V49.9958Z" fill="#6633FF"/>
<path d="M29.7677 39.9966H19.8452V49.9958H29.7677V39.9966Z" fill="#6633FF"/>
<path d="M29.7677 29.9975H19.8452V39.9966H29.7677V29.9975Z" fill="#6633FF"/>
<path d="M29.7677 19.9983H19.8452V29.9975H29.7677V19.9983Z" fill="#6633FF"/>
<path d="M19.8452 110.002L9.92252 110.002V120.001H19.8451L19.8452 110.002Z" fill="#6633FF"/>
<path d="M19.8452 100.003H9.92252V110.002L19.8452 110.002V100.003Z" fill="#6633FF"/>
<path d="M19.8452 90.0033H9.92252V100.003H19.8452V90.0033Z" fill="#6633FF"/>
<path d="M19.8452 80.0042H9.92252V90.0033H19.8452V80.0042Z" fill="#6633FF"/>
<path d="M19.8452 70.005H9.92252V80.0042H19.8452V70.005Z" fill="#6633FF"/>
<path d="M19.8452 59.995H9.92252V70.005H19.8452V59.995Z" fill="#6633FF"/>
<path d="M19.8452 49.9958H9.92252V59.995H19.8452V49.9958Z" fill="#6633FF"/>
<path d="M19.8452 39.9966H9.92252V49.9958H19.8452V39.9966Z" fill="#6633FF"/>
<path d="M19.8452 29.9975H9.92252V39.9966H19.8452V29.9975Z" fill="#6633FF"/>
<path d="M9.92252 120.001H0V130H9.92255L9.92252 120.001Z" fill="#6633FF"/>
<path d="M9.92252 110.002H0V120.001H9.92252V110.002Z" fill="#6633FF"/>
<path d="M9.92252 100.003H0V110.002H9.92252V100.003Z" fill="#6633FF"/>
<path d="M9.92252 90.0033H0V100.003H9.92252V90.0033Z" fill="#6633FF"/>
<path d="M9.92252 80.0042H0V90.0033H9.92252V80.0042Z" fill="#6633FF"/>
<path d="M9.92252 70.005H0V80.0042H9.92252V70.005Z" fill="#6633FF"/>
<path d="M9.92252 59.995H0V70.005H9.92252V59.995Z" fill="#6633FF"/>
<path d="M9.92252 49.9958H0V59.995H9.92252V49.9958Z" fill="#6633FF"/>
</svg>
